<?xml version="1.0" encoding="UTF-8" standalone="no"?>
<svg
   version="1.0"
   width="352.92001pt"
   height="363.54584pt"
   viewBox="0 0 352.92001 363.54584"
   preserveAspectRatio="xMidYMid"
   id="svg3"
   xmlns="http://www.w3.org/2000/svg"
   xmlns:svg="http://www.w3.org/2000/svg">
  <defs
     id="defs3" />
  <g
     transform="matrix(0.1,0,0,-0.1,-331.08,707.61938)"
     fill="currentColor"
     stroke="none"
     id="g3">
    <path
       d="m 3900,7070 c -156,-21 -267,-76 -381,-190 -92,-91 -134,-156 -177,-272 l -27,-73 -3,-1242 c -3,-1385 -6,-1318 66,-1468 81,-167 222,-292 402,-357 l 65,-23 1202,-3 c 1348,-3 1266,-7 1423,70 111,55 237,177 293,285 75,144 77,162 77,729 v 503 l -26,20 c -36,28 -79,27 -109,-4 l -25,-24 v -474 c 0,-273 -4,-497 -10,-528 -13,-71 -69,-184 -120,-242 -55,-62 -148,-123 -227,-147 -64,-20 -91,-20 -1242,-20 -1266,0 -1220,-2 -1327,53 -119,60 -198,149 -252,284 l -27,68 v 1235 1235 l 23,68 c 45,129 132,232 250,295 122,65 71,63 1360,60 l 1167,-3 59,-23 c 165,-62 286,-198 331,-369 12,-47 15,-145 15,-541 v -483 l 25,-24 c 30,-31 73,-32 109,-4 l 26,20 v 503 c 0,464 -1,509 -19,578 -62,240 -240,422 -486,495 -56,16 -142,18 -1220,19 -638,1 -1185,-2 -1215,-6 z"
       id="path1" />
    <path
       d="m 4930,6280 c -138,-19 -311,-86 -432,-166 -144,-96 -308,-276 -308,-338 0,-42 35,-76 78,-76 25,0 38,9 69,47 170,210 344,322 573,369 100,20 300,15 390,-10 163,-45 307,-132 424,-257 143,-152 218,-322 239,-540 6,-65 8,-122 4,-125 -4,-4 -36,20 -71,54 -66,63 -94,74 -136,52 -28,-15 -40,-61 -25,-96 15,-36 251,-262 283,-270 41,-11 67,6 202,135 126,120 134,130 134,166 0,45 -30,75 -76,75 -23,0 -45,-14 -94,-62 l -64,-61 v 64 c 0,93 -26,247 -55,336 -116,345 -392,597 -749,684 -94,23 -289,32 -386,19 z"
       id="path2" />
    <path
       d="m 3959,5388 c -164,-154 -179,-180 -138,-232 15,-20 29,-26 57,-26 31,0 45,9 99,62 l 63,62 v -59 c 0,-83 25,-237 50,-315 55,-164 150,-311 284,-437 126,-119 266,-196 447,-245 73,-20 107,-23 259,-23 204,1 282,17 437,90 162,76 276,166 385,303 72,91 77,136 17,168 -44,22 -74,8 -123,-55 -125,-162 -296,-276 -489,-326 -121,-31 -212,-38 -324,-25 -410,46 -717,340 -779,745 -15,100 -18,175 -6,175 4,0 34,-27 67,-60 48,-48 66,-60 91,-60 44,0 77,29 77,68 0,26 -19,52 -118,157 -65,69 -131,133 -146,141 -57,29 -71,21 -210,-108 z"
       id="path3" />
  </g>
</svg>
