<?xml version="1.0" encoding="UTF-8" standalone="no"?>
<svg
   version="1.0"
   width="322.84399pt"
   height="334.82275pt"
   viewBox="0 0 322.84399 334.82275"
   preserveAspectRatio="xMidYMid"
   id="svg3"
   xmlns="http://www.w3.org/2000/svg"
   xmlns:svg="http://www.w3.org/2000/svg">
  <defs
     id="defs3" />
  <g
     transform="matrix(0.1,0,0,-0.1,-354,683.72275)"
     fill="currentColor"
     stroke="none"
     id="g3">
    <path
       d="m 4045,6825 c -132,-29 -269,-112 -357,-218 -60,-72 -124,-199 -138,-276 -6,-34 -10,-522 -10,-1358 V 3669 l 21,-42 c 46,-92 122,-138 225,-138 92,0 132,22 269,150 182,171 238,219 269,231 18,7 328,10 942,10 1016,0 991,-1 1130,66 134,65 243,177 311,320 64,135 64,131 60,1135 -2,813 -5,910 -20,959 -63,206 -215,369 -417,446 l -75,29 -1075,2 c -862,1 -1087,-1 -1135,-12 z m 2190,-190 c 84,-22 147,-60 209,-125 61,-64 108,-150 125,-228 14,-69 16,-1755 1,-1833 -29,-155 -142,-288 -299,-351 l -56,-23 -965,-5 -965,-5 -55,-28 c -36,-18 -112,-81 -225,-187 -93,-88 -180,-162 -192,-166 -36,-10 -73,4 -83,32 -14,36 -13,2459 1,2544 28,177 165,327 340,374 83,23 2078,23 2164,1 z"
       id="path1" />
    <path
       d="m 5070,6183 c -24,-9 -61,-46 -77,-78 -14,-26 -14,-77 2,-510 9,-273 22,-492 28,-509 14,-37 62,-66 111,-66 30,0 45,7 71,33 40,40 39,27 59,597 14,400 14,417 -4,457 -24,54 -70,83 -130,82 -25,0 -52,-3 -60,-6 z"
       id="path2" />
    <path
       d="m 5039,4787 c -52,-35 -79,-82 -79,-139 0,-100 71,-170 171,-170 59,1 100,21 136,69 24,31 28,46 28,98 0,52 -4,67 -29,99 -35,46 -79,66 -144,66 -34,0 -59,-7 -83,-23 z"
       id="path3" />
  </g>
</svg>
