<?xml version="1.0" encoding="UTF-8" standalone="no"?>
<svg
   version="1.0"
   width="254.507pt"
   height="504pt"
   viewBox="0 0 254.507 504"
   preserveAspectRatio="xMidYMid"
   id="svg3"
   xmlns="http://www.w3.org/2000/svg"
   xmlns:svg="http://www.w3.org/2000/svg">
  <defs
     id="defs3" />
  <metadata
     id="metadata1">
Created by potrace 1.16, written by Peter Selinger 2001-2019
</metadata>
  <g
     transform="matrix(0.1,0,0,-0.1,-384.99766,785)"
     fill="currentColor"
     stroke="none"
     id="g3">
    <path
       d="m 4210,7827 c -177,-60 -316,-221 -349,-401 -8,-41 -11,-688 -11,-2105 0,-2241 -3,-2106 59,-2229 60,-119 182,-223 309,-262 62,-19 94,-20 906,-20 679,0 851,3 892,14 166,44 298,174 360,356 18,53 19,122 19,2140 0,2289 4,2134 -62,2261 -59,115 -160,202 -282,245 l -66,24 h -855 l -855,-1 z m 1822,-185 c 77,-38 128,-93 161,-174 l 22,-53 3,-2049 c 1,-1355 -1,-2069 -8,-2105 -21,-112 -89,-202 -190,-250 l -55,-26 -808,-3 c -709,-2 -816,-1 -870,13 -105,27 -179,88 -226,185 l -26,55 -3,2070 c -2,2053 -2,2071 18,2137 33,108 133,202 244,229 17,4 400,6 851,6 l 820,-2 z"
       id="path1" />
    <path
       d="m 4865,7468 c -52,-28 -62,-92 -20,-133 l 24,-25 h 253 c 265,1 272,2 296,47 19,35 14,63 -17,94 l -29,29 h -244 c -156,0 -250,-5 -263,-12 z"
       id="path2" />
    <path
       d="m 4845,3288 c -51,-29 -61,-93 -20,-133 l 24,-25 h 265 c 281,0 305,3 325,47 18,39 13,63 -18,94 l -29,29 h -264 c -179,-1 -269,-4 -283,-12 z"
       id="path3" />
  </g>
</svg>
