<?xml version="1.0" encoding="UTF-8" standalone="no"?>
<svg
   version="1.1"
   width="481.67923"
   height="467.91571"
   viewBox="0 0 481.67923 467.91571"
   id="svg1"
   xmlns="http://www.w3.org/2000/svg"
   xmlns:svg="http://www.w3.org/2000/svg">
  <defs
     id="defs1" />
  <path
     d="m 391.36394,52.482054 c 0.53818,0.42394 1.07637,0.847881 1.63086,1.284668 15.54303,12.284788 29.75155,26.669055 41.36914,42.715332 0.60328,0.808242 1.20656,1.616484 1.82812,2.449219 1.79813,2.474517 3.49546,4.992027 5.17188,7.550777 0.57887,0.87906 0.57887,0.87906 1.16943,1.77588 25.54106,39.16425 39.37235,84.607 39.14307,131.34912 -0.002,0.80071 -0.004,1.60142 -0.007,2.42639 -0.24536,57.19251 -21.14829,114.2476 -60.35284,156.34314 -1.76541,1.90311 -3.42065,3.85896 -5.07813,5.85547 -25.10429,28.70723 -67.53188,58.30909 -105.97656,63.68359 -7.1669,0.0111 -12.20974,-1.18852 -17.65235,-5.97656 -5.74454,-6.04907 -6.49071,-13.07452 -6.51733,-21.1831 -0.008,-1.08957 -0.008,-1.08957 -0.0158,-2.20115 -0.0102,-1.56259 -0.016,-3.12523 -0.0179,-4.68786 -0.004,-2.48191 -0.0205,-4.96343 -0.0408,-7.44525 -0.0551,-7.05127 -0.086,-14.10259 -0.11058,-21.15403 -0.016,-4.32765 -0.0463,-8.65503 -0.0848,-12.98254 -0.0116,-1.63845 -0.0176,-3.27694 -0.0177,-4.91543 -0.001,-12.87047 -0.98494,-23.60192 -9.44121,-33.88767 -1.92002,-1.82224 -3.89515,-3.38465 -6,-5 -1.56936,-3.13871 -1.35201,-5.53856 -1,-9 2.04202,-2.85376 3.73234,-4.65233 7.18359,-5.59888 2.66542,-0.39682 5.31949,-0.66553 8.00391,-0.90112 24.32001,-2.77249 48.55174,-11.13209 64.8125,-30.5 2.55656,-3.54929 4.82076,-7.20909 7,-11 0.45246,-0.76828 0.90492,-1.53656 1.37109,-2.32813 11.73997,-21.50499 13.64652,-51.36336 7.01953,-74.66406 -3.12058,-9.53407 -7.69026,-18.06246 -13.95312,-25.88281 -2.85463,-3.7021 -3.94221,-5.80156 -3.5,-10.5 0.30872,-1.55141 0.66289,-3.09448 1.0625,-4.625 3.18584,-14.07166 1.72427,-30.16698 -2,-44 -5.9006,0.52201 -10.74787,1.74993 -16.1875,4.0625 -0.73686,0.30946 -1.47372,0.61891 -2.23291,0.93775 -9.27765,4.01616 -17.41619,9.27099 -25.32959,15.56225 -5.48899,4.00846 -5.48899,4.00846 -9.4375,3.6875 -1.61759,-0.36107 -3.22076,-0.78811 -4.8125,-1.25 -1.87324,-0.47436 -3.74658,-0.9484 -5.62109,-1.41772 -1.38666,-0.34879 -2.77208,-0.70254 -4.15625,-1.06104 -28.69377,-7.34376 -59.71722,-5.71688 -88.02735,2.59595 -4.05287,1.11974 -7.26335,1.3367 -11.19531,-0.11719 -2.52634,-1.77681 -4.82552,-3.73411 -7.17187,-5.74218 -11.50816,-9.18745 -25.63496,-14.82128 -39.82813,-18.25782 -2.11635,9.49839 -3.2992,18.69086 -3.3125,28.4375 -0.005,0.89799 -0.0103,1.79599 -0.0156,2.72119 0.0463,4.49138 0.40853,8.66727 1.34765,13.06397 2.10417,9.90087 2.10417,9.90087 -1.03125,15.13671 -0.8791,1.14021 -1.77168,2.27014 -2.67578,3.39063 -15.15239,20.03324 -17.97948,45.4181 -14.66406,69.84375 3.54532,21.2416 13.32247,39.89134 30.85156,52.90625 16.99886,11.32398 35.8515,17.293 56.10449,19.38794 3.67665,0.42869 5.85984,0.7218 8.89942,2.93628 2.11679,3.07847 2.41976,5.06816 2.28125,8.7539 -1.37389,4.23786 -4.86984,6.36911 -8.23438,9.10547 -6.96967,6.32928 -9.2606,15.83766 -9.74411,24.96659 -0.089,3.64856 -0.1072,7.29702 -0.11163,10.94656 -0.004,2.45204 -0.0205,4.90368 -0.0408,7.35564 -0.0551,6.96493 -0.0861,13.92993 -0.11058,20.89503 -0.0159,4.27693 -0.0462,8.55358 -0.0848,12.83037 -0.0116,1.62056 -0.0176,3.24117 -0.0177,4.86177 -0.002,18.42322 -0.002,18.42322 -5.19517,24.51904 -0.59683,0.45504 -1.19367,0.91008 -1.80859,1.37891 -0.59941,0.47309 -1.19883,0.94617 -1.81641,1.43359 -4.78065,3.32918 -10.01361,2.73433 -15.62109,2.12891 -35.74205,-8.15125 -68.9636,-30.96181 -95,-56 -0.54044,-0.51853 -1.08088,-1.03705 -1.6377,-1.57129 -7.3293,-7.07415 -14.15521,-14.33025 -20.36222,-22.42871 -0.41427,-0.53254 -0.82854,-1.06509 -1.25537,-1.61377 C 10.4139,333.91333 -5.8792905,270.54881 1.8873795,207.95861 10.30693,147.76622 41.80056,89.703117 90.36394,52.482054 c 1.18901,-0.941145 2.3778,-1.882569 3.56641,-2.824219 35.18657,-27.513708 78.31211,-43.1782673 122.43359,-48.1757813 1.09312,-0.131484 2.18625,-0.262969 3.3125,-0.398437 60.92187,-5.994972 124.09485,13.1249113 171.6875,51.3984373 z m -294,18 c -0.73605,0.625195 -1.47211,1.250391 -2.23047,1.894531 -2.64231,2.314789 -5.21506,4.694958 -7.76953,7.105469 C 86.445,80.34202 86.445,80.34202 85.50749,81.219359 68.61282,97.153281 55.17178,114.93264 44.36394,135.48205 c -0.4262,0.80454 -0.85239,1.60908 -1.2915,2.43799 -11.22152,21.49623 -18.57495,44.6956 -22.7085,68.56201 -0.12987,0.74379 -0.25975,1.48758 -0.39355,2.25391 -7.33917,44.65173 1.90055,93.17553 23.39355,132.74609 0.52763,0.9929 0.52763,0.9929 1.06592,2.00586 7.99283,15.01575 17.65866,28.28401 28.93408,40.99414 0.49291,0.55607 0.98581,1.11214 1.49365,1.68506 10.16233,11.39135 21.1753,21.30797 33.50635,30.31494 0.54157,0.398 1.08313,0.796 1.64111,1.20605 15.4584,11.21159 32.82946,20.10912 50.73389,26.66895 0.92692,0.33983 1.85383,0.67966 2.80884,1.02979 4.85014,1.89107 4.85014,1.89107 9.81616,1.09521 0,-15.84 0,-31.68 0,-48 -6.93,0 -13.86,0 -21,0 -19.46818,-2.86741 -34.84988,-10.1449 -47,-26 -2.87816,-5.08539 -5.09648,-10.44024 -7.38281,-15.81055 -4.10359,-9.1658 -9.2971,-16.58071 -18.74219,-20.68945 -3.02138,-1.05091 -5.54386,-1.58631 -8.75,-2 -3.125,-0.5 -3.125,-0.5 -5.5625,-2.125 -2.19525,-3.33678 -2.12172,-5.46049 -1.5625,-9.375 1.86709,-2.36497 3.32061,-3.66031 6,-5 13.61557,-0.10772 23.36786,4.56279 32.98828,13.9375 4.98262,5.59172 7.88185,11.81276 10.94922,18.5625 6.27823,13.76344 14.25638,23.30139 28.75,28.8125 5.8954,2.06994 11.51111,2.83755 17.75,2.875 1.07121,0.0142 2.14242,0.0284 3.24609,0.043 3.73696,-0.2597 6.75787,-1.09228 10.31641,-2.23047 0.36352,-1.79244 0.36352,-1.79244 0.73438,-3.62109 1.71964,-8.23818 3.42391,-15.82797 7.26562,-23.37891 0.33,-0.99 0.66,-1.98 1,-3 -0.64324,-0.17016 -1.28648,-0.34031 -1.94922,-0.51563 -13.45931,-3.60966 -25.95152,-7.51312 -38.05078,-14.4844 -1.01191,-0.57621 -2.02383,-1.15242 -3.06641,-1.74609 -6.68428,-4.02545 -12.30458,-8.8768 -17.93359,-14.25391 -0.61488,-0.54012 -1.22977,-1.08023 -1.86328,-1.63672 -11.01616,-10.05382 -17.56642,-24.73788 -21.82422,-38.73828 -0.20271,-0.65911 -0.40541,-1.31823 -0.61426,-1.99731 -8.76581,-30.36206 -4.32447,-62.43625 10.65332,-89.85035 1.64844,-2.77734 1.64844,-2.77734 3.37891,-4.83593 1.69543,-2.59272 1.39449,-3.90127 0.95703,-6.94141 -1.64836,-15.22416 -1.05981,-30.06269 2.3125,-45 0.17692,-0.78697 0.35385,-1.57394 0.53613,-2.38476 0.55383,-2.36263 1.15336,-4.70748 1.77637,-7.05274 0.1762,-0.71631 0.3524,-1.43263 0.53394,-2.17065 1.02644,-3.56639 1.8913,-5.20299 4.9309,-7.39185 14.56088,-4.51828 34.93537,6.54436 47.50269,13.13282 3.23804,1.76057 6.23104,3.4662 9.08984,5.81079 4.67081,3.86932 4.67081,3.86932 10.42554,5.17773 3.08837,-0.48918 6.00747,-1.2116 9.01709,-2.05884 2.21024,-0.53181 4.42254,-1.05513 6.63672,-1.57031 1.09876,-0.262 2.19753,-0.524 3.32959,-0.79394 21.27578,-4.61185 45.60729,-4.35979 66.73681,0.8291 10.96023,3.23287 10.96023,3.23287 21.94922,2.29687 2.64817,-1.96634 2.64817,-1.96634 4.96485,-4.35937 3.14127,-3.01238 6.36638,-4.71129 10.25781,-6.58985 0.67861,-0.33048 1.35722,-0.66096 2.0564,-1.00146 30.12867,-14.34564 30.12867,-14.34564 42.2561,-10.87354 3.34698,2.78436 4.62852,5.01502 5.66797,9.21094 0.2533,0.99774 0.5066,1.99547 0.76758,3.02344 0.24814,1.0364 0.49629,2.07281 0.75195,3.14062 0.25975,1.02868 0.51949,2.05735 0.78711,3.11719 1.73108,6.94222 3.15047,13.53228 3.1582,20.71875 0.001,1.16274 0.003,2.32547 0.004,3.52344 -0.004,1.2014 -0.008,2.40281 -0.0117,3.64062 0.004,1.19367 0.008,2.38734 0.0117,3.61719 -0.0108,9.77854 -0.0108,9.77854 -0.83594,14.53515 -0.35848,4.13882 0.30948,5.3853 2.76172,8.66016 12.26915,17.71938 16.3492,37.82069 16.25,59.0625 -0.006,1.27271 -0.0113,2.54542 -0.0171,3.85669 -0.12336,9.59305 -0.77746,18.62893 -3.2954,27.89331 -0.29004,1.08233 -0.29004,1.08233 -0.58594,2.18652 -6.85418,24.63488 -21.00723,45.08791 -43.35156,58.00098 -10.71263,5.97278 -21.29351,9.99702 -33.06836,13.25928 -3.00321,0.83316 -5.99818,1.69443 -8.99414,2.55322 0.33773,0.76184 0.67547,1.52367 1.02344,2.30859 0.44601,1.03254 0.89203,2.06508 1.35156,3.12891 0.44086,1.00934 0.88172,2.01867 1.33594,3.05859 3.34254,9.08565 3.58254,17.70654 3.59402,27.25348 0.004,2.47166 0.0205,4.94294 0.0408,7.41452 0.0551,7.0201 0.0862,14.04025 0.11058,21.06052 0.0159,4.30933 0.046,8.61837 0.0848,12.92755 0.0117,1.63865 0.0176,3.27735 0.0177,4.91604 1.9e-4,2.2834 0.0184,4.566 0.0406,6.84928 0.005,1.29856 0.0101,2.59712 0.0154,3.93503 0.12617,3.11309 0.12617,3.11309 1.77602,5.09149 1.58789,1.25569 1.58789,1.25569 3.75793,1.03452 5.9703,-1.39512 11.61526,-3.15353 17.28882,-5.47852 0.85618,-0.34821 1.71236,-0.69642 2.59448,-1.05518 14.91566,-6.21018 28.86074,-14.01144 41.96802,-23.44482 0.55881,-0.40187 1.11762,-0.80373 1.69336,-1.21777 8.06418,-5.86615 15.49034,-12.32286 22.68164,-19.22461 1.07814,-1.03344 2.16145,-2.06151 3.25,-3.08399 9.24043,-8.69066 16.99337,-18.16866 24.375,-28.47363 0.46036,-0.64228 0.92071,-1.28455 1.39502,-1.94629 16.9651,-23.94706 27.98076,-51.12182 34.35498,-79.67871 0.19876,-0.88075 0.39751,-1.7615 0.60229,-2.66895 3.02722,-14.2576 4.06175,-28.54035 4.02271,-43.08105 -5.4e-4,-0.7737 -0.001,-1.5474 -0.002,-2.34454 -0.18908,-59.07936 -25.02379,-114.01609 -65.9359,-156.092956 -4.87069,-4.739526 -10.10403,-8.983218 -15.4375,-13.1875 -0.99902,-0.804375 -1.99805,-1.60875 -3.02734,-2.4375 -17.92015,-14.27618 -38.4091,-25.821313 -59.97266,-33.5625 -0.67289,-0.247017 -1.34578,-0.494033 -2.03906,-0.748535 -23.37689,-8.512939 -47.16718,-12.314118 -71.96094,-13.251465 -0.98871,-0.04254 -1.97742,-0.08508 -2.99609,-0.128906 C 190.47714,17.223452 136.76801,36.930749 97.36394,70.482054 Z"
     fill="currentColor"
     id="path1" />
</svg>
