<?xml version="1.0" encoding="UTF-8" standalone="no"?>
<svg
   version="1.0"
   width="467.78644pt"
   height="459.82559pt"
   viewBox="0 0 467.78644 459.82559"
   preserveAspectRatio="xMidYMid"
   id="svg3"
   xmlns="http://www.w3.org/2000/svg"
   xmlns:svg="http://www.w3.org/2000/svg">
  <defs
     id="defs3" />
  <metadata
     id="metadata1">
Created by potrace 1.16, written by Peter Selinger 2001-2019
</metadata>
  <g
     transform="matrix(0.1,0,0,-0.1,-282.16992,760.83787)"
     fill="currentColor"
     stroke="none"
     id="g3">
    <path
       d="m 4720,7599 c -514,-58 -1028,-323 -1357,-698 -344,-392 -523,-837 -540,-1337 -18,-534 151,-1024 495,-1434 414,-495 1026,-779 1680,-780 147,0 192,23 192,100 0,71 -49,105 -144,97 -91,-7 -309,10 -426,33 -521,101 -994,416 -1283,855 -51,77 -107,176 -107,188 0,4 1019,990 1125,1089 l 60,56 365,-357 c 337,-330 369,-358 413,-369 65,-17 114,-3 174,50 26,23 141,131 255,242 115,111 212,201 217,201 5,0 93,-80 196,-179 178,-171 188,-179 226,-179 67,0 113,64 90,124 -13,37 -395,411 -439,431 -48,23 -99,22 -144,-1 -20,-10 -145,-123 -278,-252 -132,-129 -245,-234 -250,-234 -4,0 -165,154 -357,341 -192,188 -365,351 -383,363 -39,23 -126,29 -163,10 -24,-12 -15,-4 -709,-677 -262,-255 -480,-464 -484,-465 -16,-5 -86,239 -116,403 -8,48 -13,150 -12,285 1,187 4,224 27,338 86,407 294,780 583,1046 145,133 330,258 500,337 593,275 1254,246 1811,-82 423,-249 746,-667 877,-1134 50,-182 59,-251 62,-486 1,-122 5,-231 9,-243 3,-12 19,-28 35,-36 74,-38 132,2 145,100 11,83 8,306 -5,412 -45,366 -186,715 -407,1011 -74,98 -266,296 -363,375 -300,242 -714,415 -1092,456 -112,13 -368,12 -478,0 z"
       id="path1" />
    <path
       d="m 6360,5070 c -156,-18 -317,-76 -454,-164 -86,-55 -231,-200 -294,-294 -181,-274 -222,-630 -106,-938 99,-266 334,-499 602,-600 48,-18 122,-40 166,-48 101,-21 286,-21 395,-1 415,79 749,422 816,838 62,385 -76,750 -375,990 -208,166 -487,247 -750,217 z m 319,-210 c 308,-74 561,-342 621,-660 15,-80 13,-256 -4,-337 -66,-320 -327,-581 -648,-648 -93,-20 -253,-21 -345,-1 -215,44 -423,186 -538,365 -56,86 -110,216 -126,305 -16,84 -14,247 4,331 70,329 354,603 677,655 41,6 82,13 90,15 34,8 191,-7 269,-25 z"
       id="path2" />
    <path
       d="m 6432,4505 c -18,-8 -37,-26 -42,-40 -6,-15 -10,-96 -10,-181 v -154 h -165 c -163,0 -166,0 -190,-25 -36,-35 -34,-88 4,-126 l 29,-29 h 161 161 v -166 -166 l 29,-29 c 31,-31 64,-36 104,-18 41,18 47,45 50,214 l 2,160 165,5 c 91,3 171,9 178,13 23,15 43,68 37,97 -13,59 -31,65 -214,70 l -166,5 -5,167 c -4,151 -7,169 -25,187 -28,26 -65,32 -103,16 z"
       id="path3" />
  </g>
</svg>
