<?xml version="1.0" encoding="UTF-8" standalone="no"?>
<svg
   version="1.0"
   width="470.65698pt"
   height="452.93469pt"
   viewBox="0 0 470.65698 452.93469"
   preserveAspectRatio="xMidYMid"
   id="svg6"
   xmlns="http://www.w3.org/2000/svg"
   xmlns:svg="http://www.w3.org/2000/svg">
  <defs
     id="defs6" />
  <metadata
     id="metadata1">
Created by potrace 1.16, written by Peter Selinger 2001-2019
</metadata>
  <g
     transform="matrix(0.1,0,0,-0.1,-287,755.72275)"
     fill="currentColor"
     stroke="none"
     id="g6">
    <path
       d="m 3380,7545 c -98,-22 -220,-86 -296,-158 -106,-98 -169,-205 -198,-334 -14,-65 -16,-232 -16,-1641 0,-1529 1,-1571 20,-1646 30,-119 82,-209 175,-302 60,-60 99,-90 155,-117 144,-71 112,-68 955,-72 418,-1 833,0 922,4 151,6 164,8 185,29 35,34 32,102 -5,139 l -27,28 -923,5 -922,5 -55,22 c -121,50 -223,161 -262,286 -17,56 -18,137 -18,1621 0,1397 2,1568 16,1617 41,142 140,244 290,301 l 59,23 1465,3 c 980,2 1488,-1 1535,-8 190,-28 345,-173 384,-358 7,-36 11,-287 11,-792 v -738 l 25,-30 c 14,-16 36,-33 50,-36 32,-8 90,16 105,43 8,15 10,246 8,818 l -3,798 -26,67 c -76,196 -216,333 -409,402 l -85,31 -1525,2 c -1277,1 -1536,-1 -1590,-12 z"
       id="path1" />
    <path
       d="m 3703,6465 c -61,-26 -74,-106 -24,-156 l 29,-29 h 1102 1102 l 29,29 c 54,55 34,140 -39,161 -24,6 -399,10 -1102,10 -883,-1 -1070,-3 -1097,-15 z"
       id="path2" />
    <path
       d="m 3681,5564 c -26,-22 -31,-33 -31,-70 0,-54 30,-89 81,-99 19,-3 406,-5 861,-3 817,3 827,3 854,24 53,39 56,105 7,150 l -26,24 h -858 -857 z"
       id="path3" />
    <path
       d="m 6380,5205 c -8,-2 -48,-9 -89,-15 -272,-45 -545,-220 -702,-451 -83,-122 -154,-295 -178,-433 -16,-88 -13,-303 4,-388 79,-382 324,-676 680,-819 222,-89 508,-95 741,-15 314,107 563,355 678,676 143,397 36,845 -271,1140 -178,172 -380,270 -615,300 -75,9 -211,12 -248,5 z m 332,-219 c 301,-76 536,-301 633,-606 37,-114 46,-314 21,-441 -33,-160 -109,-307 -226,-432 -178,-191 -447,-300 -696,-283 -424,29 -757,317 -840,727 -22,110 -15,302 16,408 92,321 353,566 675,634 115,25 304,22 417,-7 z"
       id="path4" />
    <path
       d="m 6423,4586 -28,-24 -3,-176 -3,-176 h -174 -173 l -26,-31 c -34,-40 -34,-88 -2,-126 l 24,-28 176,-3 176,-3 v -169 c 0,-167 0,-169 26,-199 21,-26 33,-31 69,-31 36,0 48,5 69,31 26,30 26,32 26,199 v 169 l 176,3 176,3 24,28 c 34,39 33,96 -2,131 l -27,26 h -173 -174 v 169 c 0,168 0,170 -26,200 -33,40 -89,43 -131,7 z"
       id="path5" />
    <path
       d="m 3704,4690 c -60,-24 -73,-112 -25,-161 l 29,-29 h 554 c 532,0 554,1 585,20 58,35 57,125 0,160 -31,19 -54,20 -577,19 -300,0 -555,-4 -566,-9 z"
       id="path6" />
  </g>
</svg>
