<?xml version="1.0" encoding="UTF-8"?>
<svg version="1.1" xmlns="http://www.w3.org/2000/svg" viewBox="296.986 251.619 657.935 707.409">
<path d="M0 0 C0.85010651 -0.00511093 1.70021301 -0.01022186 2.57608032 -0.01548767 C5.35898067 -0.02927568 8.1416303 -0.02843487 10.92456055 -0.02612305 C12.87835276 -0.03001631 14.83214414 -0.03435227 16.78593445 -0.03910828 C20.87180327 -0.04654763 24.95758565 -0.04629612 29.04345703 -0.04101562 C34.25145485 -0.03522851 39.45909615 -0.05214495 44.6670351 -0.0753603 C48.70021089 -0.09017095 52.7333023 -0.09095933 56.76650047 -0.08785057 C58.68523043 -0.08836025 60.60396556 -0.09353077 62.52266884 -0.10366249 C80.54353729 -0.18714451 95.70927733 1.76354766 109.2487793 14.7746582 C119.86159051 25.50610513 124.26765192 38.71044215 124.30737305 53.62231445 C124.33251778 55.37947945 124.35791601 57.13664083 124.38354492 58.89379883 C124.41228941 61.62108534 124.43635585 64.34830962 124.45507812 67.07568359 C124.47684618 69.7373661 124.51626815 72.39837025 124.55737305 75.05981445 C124.55754677 76.26795555 124.55754677 76.26795555 124.557724 77.50050354 C124.67232552 84.12615014 125.89578488 89.69097935 130.1862793 94.9621582 C136.16773375 99.88024298 142.85497783 103.2697141 149.8112793 106.5871582 C162.09586401 112.56855846 173.7113128 119.65767033 185.38354492 126.73754883 C190.21637473 129.57805447 193.10159219 130.56860017 198.8112793 130.5871582 C200.58438477 130.61229492 200.58438477 130.61229492 202.39331055 130.63793945 C210.3536184 129.8358716 216.2113346 125.32165485 222.6862793 120.9621582 C239.64853552 109.74850622 254.89745856 103.16363363 275.5847168 106.92700195 C289.66045009 111.23099914 299.98842718 120.27318227 307.4987793 132.6496582 C308.00014404 133.45910889 308.50150879 134.26855957 309.01806641 135.10253906 C314.56111143 144.09256224 319.96875502 153.16681176 325.3815918 162.2355957 C328.0778895 166.74837652 330.80317939 171.2416902 333.55712891 175.71948242 C335.31194504 178.57303898 337.05561461 181.43325955 338.79516602 184.29614258 C339.59074023 185.60391812 340.38919621 186.90994538 341.19067383 188.21411133 C349.69261718 202.10744335 353.99614243 215.9777892 350.9362793 232.3996582 C346.27232604 251.0973004 334.72756813 261.63412857 319.10424805 271.81762695 C318.43474121 272.25655273 317.76523437 272.69547852 317.07543945 273.14770508 C315.76460454 274.00316388 314.44809893 274.85001605 313.12524414 275.68676758 C306.28341486 280.12098417 302.60529633 285.60733874 299.9987793 293.2746582 C298.33730012 302.82843987 298.83501152 312.83199308 298.83081055 322.49731445 C298.8275899 324.25125657 298.82422524 326.00519843 298.82072449 327.75914001 C298.81476949 331.41772077 298.812881 335.07627803 298.81347656 338.73486328 C298.81357836 343.40035934 298.79989111 348.06570385 298.78270435 352.73116398 C298.77153947 356.34733257 298.76955868 359.96346491 298.77008629 363.57964897 C298.76891429 365.29907189 298.76453686 367.01849599 298.75675392 368.73790169 C298.40550328 387.36616273 298.40550328 387.36616273 306.9987793 403.2746582 C311.49317194 407.14836102 316.4283864 410.31774926 321.47143555 413.4230957 C335.01580403 421.78596223 345.24929521 431.19587036 350.12768555 446.91137695 C354.77350052 466.84879814 349.27321536 482.42124425 338.9987793 499.2746582 C337.95177303 501.00634968 336.9049078 502.73812643 335.8581543 504.4699707 C332.87757032 509.38884855 329.87853094 514.29626645 326.8762207 519.2019043 C324.98830487 522.29180139 323.1075671 525.38595041 321.22924805 528.48168945 C320.61452637 529.49432861 319.99980469 530.50696777 319.36645508 531.55029297 C318.2039631 533.46571625 317.04212735 535.38153803 315.88110352 537.29785156 C305.22938095 554.82768045 295.77142562 570.35487219 275.0300293 576.5559082 C258.05679307 580.58048999 243.08156084 576.35765258 228.4987793 567.3996582 C226.33168165 566.02533755 224.16501598 564.65033552 221.9987793 563.2746582 C219.81894695 561.94946258 217.63174153 560.63629564 215.4362793 559.3371582 C214.48624023 558.77125977 213.53620117 558.20536133 212.55737305 557.62231445 C206.71076169 554.5428016 200.4790311 554.50952004 193.9987793 555.2746582 C189.68035478 556.69734616 185.88372368 558.95039145 181.9987793 561.2746582 C181.23839355 561.72566895 180.47800781 562.17667969 179.69458008 562.64135742 C176.08089366 564.78535277 172.4682134 566.93082248 168.86450195 569.09155273 C160.92960973 573.81703687 152.81995281 578.13395743 144.58740234 582.31616211 C135.11707356 586.77164079 135.11707356 586.77164079 128.1862793 594.2746582 C127.78795898 594.9346582 127.38963867 595.5946582 126.97924805 596.2746582 C124.74842206 600.8251877 124.83631302 605.35124139 124.7878418 610.3371582 C124.7597417 611.95565735 124.73107709 613.57414678 124.7019043 615.19262695 C124.66094149 617.7220804 124.62402441 620.25135864 124.59741211 622.78100586 C124.39374414 640.63004489 122.00446001 654.92339595 109.4362793 668.5871582 C99.29861311 678.21329077 86.58343279 682.45375878 72.8347168 682.9152832 C71.80768646 682.95333069 70.78065613 682.99137817 69.72250366 683.03057861 C55.61894394 683.47490474 41.50947297 683.28539855 27.40307617 683.08764648 C23.384897 683.0319514 19.36678241 682.99578306 15.34835243 682.96401596 C12.20473057 682.93604938 9.06137546 682.89501385 5.91794968 682.85041046 C4.43582733 682.83143149 2.95363804 682.81702712 1.4714241 682.80760956 C-14.07412915 682.69853866 -27.48088175 679.17677682 -39.1574707 668.3137207 C-48.59368232 657.8779104 -53.10264856 645.66658656 -53.17700195 631.7902832 C-53.20020648 630.11579155 -53.22432407 628.44131235 -53.24926758 626.7668457 C-53.2842766 624.14924841 -53.31368238 621.53210893 -53.32714844 618.91430664 C-53.18722796 605.52813686 -53.18722796 605.52813686 -58.0012207 593.2746582 C-58.2916626 592.58275391 -58.58210449 591.89084961 -58.88134766 591.17797852 C-60.29412345 588.77684485 -61.45108827 588.33258584 -64.0012207 587.2746582 C-78.2135575 580.13087542 -92.06210685 572.67478132 -105.58789062 564.30126953 C-116.51683077 557.25561562 -116.51683077 557.25561562 -129.0012207 554.7746582 C-129.9293457 554.7643457 -130.8574707 554.7540332 -131.8137207 554.7434082 C-141.72208178 556.39480172 -150.45651823 562.985329 -158.85473633 568.1418457 C-173.55290646 576.93997965 -187.47804343 580.2143249 -204.3605957 576.34106445 C-223.72125325 570.66997056 -233.49490986 556.62595118 -243.1262207 539.9621582 C-247.54538361 532.39592782 -252.05129741 524.89662636 -256.6887207 517.4621582 C-284.69928942 472.46226042 -284.69928942 472.46226042 -279.06762695 447.9152832 C-274.15426045 431.1414459 -262.84077515 420.99391579 -248.3996582 412.0246582 C-237.74987312 405.40966747 -230.97503676 399.95323126 -228.0012207 387.2746582 C-227.25670461 380.44553013 -227.43717892 373.54020832 -227.4699707 366.6809082 C-227.4672709 364.68273734 -227.46338444 362.68456777 -227.45837402 360.68640137 C-227.45250195 356.51403196 -227.46096774 352.34200687 -227.47973633 348.16967773 C-227.50252432 342.84715613 -227.4893889 337.52544159 -227.46544647 332.20294952 C-227.45092635 328.08142115 -227.45562287 323.9600811 -227.46595764 319.83854675 C-227.46860778 317.87713015 -227.46541614 315.91569591 -227.45603943 313.95429993 C-227.25229661 295.57891789 -227.25229661 295.57891789 -236.0637207 279.9387207 C-240.36561051 276.24395244 -245.2439012 273.33925705 -250.0012207 270.2746582 C-265.00488723 260.32960492 -276.15848803 249.98230083 -280.0012207 231.5246582 C-283.01956281 214.69144105 -277.56938226 199.64491662 -268.6262207 185.5246582 C-267.36814216 183.49878173 -266.11033735 181.47273524 -264.8527832 179.4465332 C-264.21244141 178.42237305 -263.57209961 177.39821289 -262.91235352 176.34301758 C-259.90258833 171.51078344 -256.95456351 166.64149319 -254.0012207 161.7746582 C-252.84238186 159.87621135 -251.68352763 157.97777389 -250.5246582 156.0793457 C-248.0876609 152.07852901 -245.68093587 148.06113996 -243.2902832 144.0324707 C-242.67668945 143.00573242 -242.0630957 141.97899414 -241.4309082 140.92114258 C-240.26944507 138.97657172 -239.11519698 137.02766371 -237.9699707 135.07348633 C-229.40480273 120.78786197 -218.33598472 111.32161705 -202.12207031 106.74414062 C-187.18611573 103.43783918 -173.04354704 107.38673533 -160.29418945 115.1340332 C-155.63059839 118.165644 -151.0509183 121.31623311 -146.51977539 124.54248047 C-140.51295246 128.77865787 -136.20680089 130.57286474 -128.6887207 130.6496582 C-127.43446289 130.67801758 -126.18020508 130.70637695 -124.88793945 130.7355957 C-117.00554153 129.80079876 -110.57802344 124.87169204 -103.9387207 120.7746582 C-91.82184481 113.39291472 -79.27641415 106.76198643 -66.50512695 100.58325195 C-60.03298111 97.20077323 -56.20000957 91.06575996 -54.0012207 84.2746582 C-53.70567237 81.33633334 -53.70041028 78.4096714 -53.69262695 75.45825195 C-53.66744419 73.70629583 -53.64204654 71.95434278 -53.61645508 70.20239258 C-53.58788903 67.46664401 -53.56385072 64.73094949 -53.54492188 61.99511719 C-53.40060516 44.51376369 -51.90380894 28.47048708 -39.0012207 15.2746582 C-27.61311934 4.8804275 -15.34300122 -0.04866931 0 0 Z M-26.7902832 30.1965332 C-33.54859312 38.78591231 -35.12036775 47.29372902 -35.17700195 58.00512695 C-35.20020992 59.71282144 -35.22432765 61.42050376 -35.24926758 63.12817383 C-35.28422994 65.78947004 -35.31366071 68.4503194 -35.32714844 71.11181641 C-35.40347199 83.74042883 -35.91160061 94.54254522 -43.7512207 105.0871582 C-44.67161133 106.36526367 -44.67161133 106.36526367 -45.6105957 107.66918945 C-51.72726214 114.3355563 -59.17301359 118.05791771 -67.2512207 121.8996582 C-77.76304776 127.02047283 -87.76952107 132.7034517 -97.70556641 138.85522461 C-100.2276516 140.41466344 -102.75316219 141.96772445 -105.28637695 143.5090332 C-106.07923096 143.99339844 -106.87208496 144.47776367 -107.68896484 144.97680664 C-114.33553035 148.70747312 -120.87317103 149.56058144 -128.3762207 149.7121582 C-129.0472583 149.73455566 -129.7182959 149.75695312 -130.40966797 149.7800293 C-142.72755194 149.72435193 -152.46583664 143.49948535 -162.2512207 136.7121582 C-177.22479026 126.30037809 -177.22479026 126.30037809 -194.9230957 124.67700195 C-205.39727478 126.92336777 -212.64767854 131.75343696 -219.0012207 140.2746582 C-221.28737411 143.83762576 -223.43234557 147.47429419 -225.54821777 151.14059448 C-227.29511091 154.1665792 -229.06558161 157.17874877 -230.83325195 160.19262695 C-231.18725067 160.79750443 -231.54124939 161.4023819 -231.90597534 162.02558899 C-235.10167385 167.4750615 -238.40617277 172.85311906 -241.7512207 178.2121582 C-248.24945926 188.66272051 -248.24945926 188.66272051 -254.6887207 199.1496582 C-255.19435547 199.96426514 -255.69999023 200.77887207 -256.22094727 201.61816406 C-261.75341433 210.73949028 -263.56175246 219.58720646 -261.41918945 230.1418457 C-256.57724098 245.75104946 -242.38145565 253.20962688 -229.44555664 261.60229492 C-224.33542729 265.09853803 -220.69326236 268.60797312 -217.3762207 273.8371582 C-216.98305664 274.45558594 -216.58989258 275.07401367 -216.18481445 275.71118164 C-209.47465316 286.67450072 -208.80947095 298.8982991 -208.91601562 311.48120117 C-208.92078918 312.77121033 -208.92078918 312.77121033 -208.92565918 314.08728027 C-208.93812469 316.8972107 -208.95902382 319.70698005 -208.98168945 322.5168457 C-208.98864649 323.48562778 -208.99560352 324.45440987 -209.00277138 325.45254898 C-209.04000274 330.57577678 -209.08391557 335.698897 -209.13330078 340.82202148 C-209.1826752 346.08253022 -209.20885933 351.34288679 -209.22973156 356.60357475 C-209.25019642 360.67891728 -209.28810437 364.75396899 -209.3305912 368.82913589 C-209.34781005 370.76734906 -209.35859825 372.70563144 -209.36253929 374.64391708 C-209.39641657 387.52434198 -210.03362088 398.99494678 -217.3137207 410.1496582 C-217.84610352 410.99270508 -218.37848633 411.83575195 -218.92700195 412.7043457 C-225.41167856 420.73997133 -234.65639459 425.74589562 -243.28442383 431.17700195 C-252.721456 437.29545255 -259.2026553 444.14328571 -262.0012207 455.2746582 C-263.55618595 468.03172 -259.29639442 477.96121062 -252.4387207 488.4621582 C-251.28320316 490.27785061 -250.13109008 492.0957124 -248.98168945 493.9152832 C-248.35182129 494.91237305 -247.72195313 495.90946289 -247.07299805 496.93676758 C-242.60934293 504.12827038 -238.34724433 511.44336125 -234.05929565 518.74057007 C-220.75382567 543.44212913 -220.75382567 543.44212913 -198.3137207 558.5871582 C-185.12056193 561.4013545 -175.08186266 556.0443562 -164.2590332 549.34887695 C-149.91877963 540.49274432 -136.6158673 532.85800901 -119.08447266 536.95654297 C-110.93788164 539.22934794 -104.28887532 542.68494235 -97.1887207 547.2121582 C-86.73215936 553.68791618 -76.10147334 559.68272865 -65.2512207 565.4699707 C-63.50079269 566.40406492 -61.75077605 567.33893052 -60.0012207 568.2746582 C-58.73701294 568.95069092 -58.73701294 568.95069092 -57.44726562 569.64038086 C-56.65425049 570.07141113 -55.86123535 570.50244141 -55.04418945 570.9465332 C-54.35091553 571.32132813 -53.6576416 571.69612305 -52.94335938 572.08227539 C-44.01226816 577.56555 -38.83867157 587.1339094 -36.4243927 597.09391785 C-35.76057193 600.51479815 -35.683789 603.92432392 -35.6574707 607.39575195 C-35.6428479 608.13994888 -35.6282251 608.88414581 -35.61315918 609.65089417 C-35.56714092 612.00459543 -35.53268076 614.35822027 -35.5012207 616.7121582 C-35.53496155 637.77850706 -35.53496155 637.77850706 -24.88793945 655.35668945 C-17.43235768 661.47309937 -10.37474612 663.73159549 -0.88232422 663.67871094 C-0.00803772 663.68557419 0.86624878 663.69243744 1.76702881 663.69950867 C4.6348124 663.71769394 7.5020446 663.71395107 10.36987305 663.70825195 C12.37712276 663.71281766 14.38437092 663.71812439 16.39161682 663.72413635 C20.59024421 663.73305118 24.78868122 663.73066278 28.98730469 663.72070312 C34.35155615 663.70921455 39.71514921 663.7294318 45.07931423 663.75862026 C49.22219474 663.77701951 53.36491853 663.77668238 57.50782967 663.77098274 C59.48486314 663.77082999 61.46190755 663.77683602 63.4389019 663.78927422 C66.20984367 663.80425331 68.97958258 663.7934568 71.75048828 663.77636719 C72.95947533 663.79086914 72.95947533 663.79086914 74.19288635 663.80566406 C82.77671253 663.69553404 90.6330428 660.00382105 96.9987793 654.2746582 C105.45373415 644.90068652 105.43959211 634.5823107 105.4987793 622.6496582 C105.57778481 606.94817123 105.7712808 590.3311595 117.03417969 578.05639648 C123.15540983 572.36754972 129.50471698 568.51152693 137.00567627 564.87008667 C140.22420449 563.30582959 143.41554961 561.68788093 146.6081543 560.0715332 C147.24226227 559.75159897 147.87637024 559.43166473 148.5296936 559.10203552 C154.20990051 556.21466675 159.69039925 553.04077724 165.1237793 549.7121582 C166.3296167 548.97509644 166.3296167 548.97509644 167.55981445 548.22314453 C169.04643611 547.31206548 170.5323325 546.39980142 172.01733398 545.48608398 C184.26304271 537.99924235 195.30626731 533.69805591 209.8737793 536.90820312 C218.67520287 539.32207602 225.99406647 543.48376477 233.6237793 548.3371582 C244.36991793 555.16384825 254.82862096 561.28457092 267.96362305 558.6887207 C282.73162153 554.93210032 288.78859534 545.73708822 296.26147461 533.32592773 C297.84952015 530.64732479 299.42495693 527.96163365 300.9987793 525.2746582 C301.73981262 524.03490547 302.48297759 522.79642176 303.22924805 521.55981445 C304.60714724 519.27575332 305.97783203 516.98840291 307.3425293 514.6965332 C309.58768495 510.94119956 311.87028029 507.20909793 314.1550293 503.4777832 C315.30282783 501.59975115 316.45033174 499.72153934 317.59777832 497.84329224 C318.35424467 496.60696436 319.11209799 495.37148386 319.87145996 494.13693237 C331.10122355 476.03970282 331.10122355 476.03970282 332.9987793 455.2746582 C329.823552 442.30158669 321.2210499 435.50840388 310.4362793 428.5246582 C308.20298657 427.05494163 305.97425322 425.57843948 303.74487305 424.1027832 C302.76188232 423.46244141 301.7788916 422.82209961 300.76611328 422.16235352 C295.90837417 418.84871974 292.26265707 415.71099602 288.9362793 410.8371582 C288.28530273 409.91032227 287.63432617 408.98348633 286.96362305 408.02856445 C279.92609567 395.61881741 280.4066616 382.58511096 280.4675293 368.77075195 C280.46482892 366.59847338 280.46094199 364.42619599 280.45593262 362.25392151 C280.45006451 357.72108348 280.45851437 353.18856262 280.47729492 348.65576172 C280.50009619 342.87380731 280.48693629 337.09259532 280.46300507 331.31066799 C280.44848593 326.83139039 280.45318083 322.3522861 280.46351624 317.87300301 C280.46616593 315.7421567 280.46297637 313.61129416 280.45359802 311.48046684 C280.39616492 294.76975689 281.96557874 280.7727021 293.3112793 267.5871582 C300.06840493 261.77288731 307.1764699 256.70994025 314.68188477 251.91455078 C318.58333798 249.38121261 321.8039531 246.69891537 324.9987793 243.2746582 C325.6794043 242.5527832 326.3600293 241.8309082 327.0612793 241.0871582 C332.53306142 233.14424867 334.42562478 224.85340763 332.9987793 215.2746582 C330.59500781 206.45545786 326.13103241 199.02274326 321.3112793 191.3371582 C320.56104978 190.12434268 319.81188485 188.91086805 319.0637207 187.69677734 C317.50551375 185.16979961 315.9427695 182.64571135 314.37719727 180.12329102 C312.00913068 176.3004457 309.67326867 172.45864518 307.34643555 168.6105957 C306.96918839 167.98690598 306.59194122 167.36321625 306.20326233 166.72062683 C305.09314391 164.88464618 303.98342264 163.04842601 302.8737793 161.2121582 C290.67163945 138.70626844 290.67163945 138.70626844 269.9987793 125.2746582 C258.17739523 122.78337478 249.81254702 125.71526772 239.83129883 132.0690918 C237.75041573 133.43805006 235.70006802 134.84663241 233.65112305 136.26293945 C222.49397103 143.96494293 213.35341873 149.46121177 199.4987793 149.7746582 C198.50285767 149.80317871 198.50285767 149.80317871 197.48681641 149.83227539 C186.22957617 149.68528205 176.85145995 144.37924015 167.61102295 138.45019531 C156.64966338 131.42734624 145.55288444 125.23883313 133.70141602 119.82568359 C124.00348963 115.25085012 115.62283581 109.24419929 110.9987793 99.3371582 C110.4625293 98.23500977 109.9262793 97.13286133 109.3737793 95.99731445 C105.13047671 84.50905488 105.64544583 72.72466763 105.61791992 60.63964844 C105.82612113 47.37757722 105.82612113 47.37757722 100.9987793 35.2746582 C100.55276367 34.47672852 100.10674805 33.67879883 99.6472168 32.85668945 C93.99759021 25.00613472 86.40635186 21.0719584 76.9987793 19.2746582 C74.20481336 19.01486268 71.4348569 18.99050284 68.63012695 19 C67.83547531 18.99488907 67.04082367 18.98977814 66.22209167 18.98451233 C63.6189298 18.97071596 61.01603568 18.97156561 58.4128418 18.97387695 C56.5873505 18.96998444 54.7618601 18.96564863 52.93637085 18.96089172 C49.11860207 18.95345081 45.30092581 18.95370522 41.4831543 18.95898438 C36.61234308 18.96477486 31.74191264 18.94784779 26.87116432 18.9246397 C23.1031374 18.90984385 19.33520094 18.90903862 15.56715012 18.91214943 C13.77236553 18.91163911 11.9775755 18.90645631 10.18281937 18.89633751 C-3.7169406 18.82758231 -16.66033736 19.31458265 -26.7902832 30.1965332 Z " fill="currentColor" transform="translate(591.001220703125,263.725341796875)"/>
<path d="M0 0 C3.38939556 2.13679285 4.72582557 3.1774767 6 7 C6.10499982 9.28313014 6.14869137 11.56922688 6.16113281 13.85473633 C6.16609772 14.54779373 6.17106262 15.24085114 6.17617798 15.95491028 C6.19078016 18.24729406 6.1975987 20.53960861 6.203125 22.83203125 C6.20887851 24.42762758 6.21463622 26.02322389 6.22039795 27.61882019 C6.23090272 30.96536582 6.23674866 34.31188747 6.24023438 37.65844727 C6.24571487 41.93901951 6.2697354 46.21927299 6.29820633 50.49974537 C6.31686491 53.79665542 6.32204004 57.09348923 6.32357025 60.39044762 C6.32659057 61.96805245 6.33459813 63.54565614 6.34775543 65.123209 C6.36488215 67.33474324 6.36291988 69.54550574 6.35644531 71.75708008 C6.36191376 73.64213005 6.36191376 73.64213005 6.36749268 75.56526184 C5.96278124 79.34786192 4.96134312 81.76113937 3 85 C0.02730678 87.15818155 -2.76304091 87.30849711 -6.375 87.4921875 C-7.43267578 87.5550293 -8.49035156 87.61787109 -9.58007812 87.68261719 C-10.70865234 87.74610352 -11.83722656 87.80958984 -13 87.875 C-49.50117057 90.34948445 -83.92625753 102.89052381 -111 128 C-111.60199219 128.55284668 -112.20398438 129.10569336 -112.82421875 129.67529297 C-139.56779512 154.4958132 -154.16449343 186.66813929 -160.578125 222.203125 C-160.73796875 223.08484375 -160.8978125 223.9665625 -161.0625 224.875 C-161.17722656 225.59429688 -161.29195313 226.31359375 -161.41015625 227.0546875 C-162.17070288 229.56298036 -163.21207123 231.08762143 -165 233 C-169.39810175 234.06405688 -171.69924137 234.53726987 -175.875 232.8125 C-178.13704295 230.88311042 -178.93277383 229.74083086 -180 227 C-181.82976938 189.79468936 -157.994367 150.08058268 -134.15722656 123.49926758 C-128.23371183 117.02336852 -121.99141085 111.32678922 -115 106 C-114.13761719 105.29875 -113.27523437 104.5975 -112.38671875 103.875 C-85.8267115 82.8373705 -51.85804907 70.40563167 -18.1015625 68.2109375 C-15.80954451 68.05868253 -15.80954451 68.05868253 -13 67 C-13.00999275 65.88912773 -13.00999275 65.88912773 -13.02018738 64.7558136 C-13.08036633 57.76725206 -13.1260089 50.77872939 -13.15543652 43.78997517 C-13.17107439 40.19719171 -13.19227779 36.60462285 -13.22631836 33.01196289 C-13.25897965 29.54305609 -13.27686714 26.07435536 -13.28463173 22.60530663 C-13.29285018 20.64161248 -13.31625892 18.67800092 -13.33988953 16.71443176 C-13.34022942 14.91313057 -13.34022942 14.91313057 -13.34057617 13.07543945 C-13.35056892 11.49325371 -13.35056892 11.49325371 -13.36076355 9.87910461 C-12.94126748 6.53128007 -12.00110523 4.69656337 -10 2 C-6.2626144 -0.4915904 -4.42668417 -0.45793285 0 0 Z " fill="currentColor" transform="translate(630,370)"/>
<path d="M0 0 C3.2967371 0.86349683 6.36900729 2.10061926 9.5 3.4375 C10.78789429 3.97177612 10.78789429 3.97177612 12.10180664 4.5168457 C17.99503892 7.01399641 23.75770174 9.73803686 29.4375 12.6875 C30.1284375 13.04320068 30.819375 13.39890137 31.53125 13.76538086 C36.32506159 16.3487259 40.94664317 19.19104845 42.9375 24.5 C43.01429546 27.57181841 42.48580611 29.31139847 41 32 C38.2038449 34.69973596 35.8643425 35.71554145 32 36 C29.45478062 34.95998603 27.20479776 33.88046926 24.8125 32.5625 C23.39251724 31.81540279 21.97056068 31.07204771 20.546875 30.33203125 C19.80630859 29.94611816 19.06574219 29.56020508 18.30273438 29.16259766 C14.45168111 27.21828938 10.51265882 25.48179808 6.5625 23.75 C5.84231689 23.43361572 5.12213379 23.11723145 4.38012695 22.79125977 C3.67847412 22.48373779 2.97682129 22.17621582 2.25390625 21.859375 C1.56425781 21.55596191 0.87460937 21.25254883 0.1640625 20.93994141 C-1.37194631 20.27278957 -2.91435567 19.62028841 -4.4609375 18.97802734 C-5.26660156 18.63723145 -6.07226562 18.29643555 -6.90234375 17.9453125 C-7.63573975 17.64125488 -8.36913574 17.33719727 -9.12475586 17.02392578 C-11 16 -11 16 -13.125 13.125 C-14.13706319 9.51048861 -14.16256391 7.56519599 -13 4 C-9.77548885 -1.10547598 -5.47363852 -0.5844805 0 0 Z " fill="currentColor" transform="translate(683,446)"/>
<path d="M0 0 C2.99380345 1.99586897 4.63808488 3.38259171 5.44140625 6.97265625 C5.64808593 10.53954757 5.30903079 12.59825998 3.125 15.4375 C-0.69937529 18.24954066 -3.24078686 18.40332315 -8 18 C-11.75514634 15.9591596 -12.77457968 14.71604102 -14.0625 10.625 C-13.98603205 6.18985876 -12.80644332 4.36773198 -10 1 C-6.76823243 -0.61588379 -3.49384717 -0.57451407 0 0 Z " fill="currentColor" transform="translate(754,491)"/>
<path d="M0 0 C5.12069184 1.80388008 7.81750092 7.74674454 10.04199219 12.3828125 C10.35813477 13.07375 10.67427734 13.7646875 11 14.4765625 C11.51095215 15.58257813 11.51095215 15.58257813 12.03222656 16.7109375 C22.63657161 40.24522905 27.51263152 65.24437071 27.375 90.9765625 C27.37317719 91.69201233 27.37135437 92.40746216 27.36947632 93.14459229 C27.31939184 104.88263241 26.60252323 116.24145747 24.0625 127.7265625 C23.89621094 128.50032227 23.72992187 129.27408203 23.55859375 130.07128906 C13.56460398 175.21080951 -14.12300724 214.67221424 -52.5 240.2265625 C-77.26718272 255.87029148 -104.33906519 266.43431629 -133.76342773 268.26977539 C-134.8012804 268.33663921 -134.8012804 268.33663921 -135.86009979 268.40485382 C-137.55246631 268.51366023 -139.24496998 268.62032972 -140.9375 268.7265625 C-140.93083817 269.47967209 -140.92417633 270.23278168 -140.91731262 271.00871277 C-140.85713704 278.11502319 -140.81149294 285.22124496 -140.78206348 292.32773876 C-140.76642467 295.98105448 -140.74521952 299.63415921 -140.71118164 303.28735352 C-140.67852375 306.81461466 -140.66063356 310.34167318 -140.65286827 313.86907387 C-140.64464867 315.86600558 -140.62123939 317.86285608 -140.59761047 319.85966492 C-140.59738388 321.08055313 -140.59715729 322.30144135 -140.59692383 323.55932617 C-140.59026199 324.63188156 -140.58360016 325.70443695 -140.57673645 326.80949402 C-140.99364544 330.18054436 -141.91979725 332.01458094 -143.9375 334.7265625 C-147.6748856 337.2181529 -149.51081583 337.18449535 -153.9375 336.7265625 C-157.32689556 334.58976965 -158.66332557 333.5490858 -159.9375 329.7265625 C-160.04249982 327.44343236 -160.08619137 325.15733562 -160.09863281 322.87182617 C-160.10359772 322.17876877 -160.10856262 321.48571136 -160.11367798 320.77165222 C-160.12828016 318.47926844 -160.1350987 316.18695389 -160.140625 313.89453125 C-160.14637851 312.29893492 -160.15213622 310.70333861 -160.15789795 309.10774231 C-160.16840272 305.76119668 -160.17424866 302.41467503 -160.17773438 299.06811523 C-160.18321487 294.78754299 -160.2072354 290.50728951 -160.23570633 286.22681713 C-160.25436491 282.92990708 -160.25954004 279.63307327 -160.26107025 276.33611488 C-160.26409057 274.75851005 -160.27209813 273.18090636 -160.28525543 271.6033535 C-160.30238215 269.39181926 -160.30041988 267.18105676 -160.29394531 264.96948242 C-160.29759094 263.71278244 -160.30123657 262.45608246 -160.30499268 261.16130066 C-159.84674385 256.87831807 -158.71252403 253.17427713 -155.28515625 250.37890625 C-151.6886031 249.37953125 -148.0815075 249.38059504 -144.375 249.2890625 C-110.35386312 247.889056 -77.45586234 236.31368191 -50.9375 214.7265625 C-50.36757324 214.2634668 -49.79764648 213.80037109 -49.21044922 213.32324219 C-16.78438602 186.79043865 3.09139893 148.4005209 7.6484375 106.7890625 C10.57726748 74.77936572 4.2197371 41.812482 -11.19482422 13.51538086 C-12.53699433 10.28261281 -11.99501942 7.96132777 -10.9375 4.7265625 C-7.69592267 0.89560747 -4.77199149 0.25014472 0 0 Z " fill="currentColor" transform="translate(776.9375,524.2734375)"/>
<path d="M0 0 C19.00177796 13.26398618 32.51074661 32.21018103 36.61767578 55.20898438 C40.12527887 78.27883798 35.61620976 100.80283802 21.9921875 120.0625 C20.05078124 122.55968138 18.0373876 124.94757804 15.9375 127.3125 C15.34582031 127.99828125 14.75414062 128.6840625 14.14453125 129.390625 C2.5631166 141.93509971 -14.55034455 150.01989757 -31.0625 153.3125 C-32.17625 153.539375 -33.29 153.76625 -34.4375 154 C-58.42033734 156.06748598 -79.96390062 149.5466089 -99.10546875 135 C-114.40505916 121.8798999 -125.56979789 102.39655702 -128.0625 82.3125 C-129.33099395 57.79492935 -125.26795406 36.91471186 -110.0625 17.3125 C-109.14017578 16.09626953 -109.14017578 16.09626953 -108.19921875 14.85546875 C-82.39817003 -16.6914238 -33.38302122 -21.29828183 0 0 Z M-93.01171875 26.2421875 C-102.73887659 36.75004999 -109.34202338 50.90296751 -110.0625 65.3125 C-110.11277344 66.11429688 -110.16304687 66.91609375 -110.21484375 67.7421875 C-110.92186592 87.25599945 -102.91181662 103.91635519 -89.9375 118 C-77.2109738 130.20172099 -59.65978751 135.93803443 -42.23828125 135.5859375 C-25.32493326 134.78525873 -10.87565564 127.24744075 0.9375 115.3125 C1.64648438 114.63703125 2.35546875 113.9615625 3.0859375 113.265625 C13.95208266 102.19131614 19.13850866 86.14062814 19.3125 70.875 C19.10107607 53.92179429 13.27635207 37.7090057 1.27734375 25.484375 C-26.83254126 -0.60760508 -65.63884596 -0.856408 -93.01171875 26.2421875 Z " fill="currentColor" transform="translate(672.0625,544.6875)"/>
<path d="M0 0 C3.45531897 2.8336104 4.56780518 4.926032 5.30859375 9.296875 C5.49534668 10.33013916 5.68209961 11.36340332 5.87451172 12.42797852 C6.06029785 13.52424561 6.24608398 14.6205127 6.4375 15.75 C14.14868778 57.31728554 35.98735035 94.54023613 70.84765625 119.22265625 C87.89911211 130.8396429 106.7185363 138.72605868 126.64208984 143.92285156 C132.50270105 145.5276139 132.50270105 145.5276139 135.02734375 147.92578125 C136.5957935 151.27054758 136.72542674 154.44329607 136 158 C134.0625 161 134.0625 161 131 163 C124.50691747 163.96784148 118.51268283 162.34431645 112.375 160.375 C111.50399658 160.10284668 110.63299316 159.83069336 109.7355957 159.55029297 C85.99097825 151.99192011 64.80634639 140.38681645 46 124 C44.55367188 122.75476563 44.55367188 122.75476563 43.078125 121.484375 C11.49358431 93.76575744 -8.75979556 53.49663188 -14 12 C-14.23962831 7.27665979 -14.02957901 4.7608567 -11 1 C-7.1230868 -1.30519163 -4.28479093 -1.2763207 0 0 Z " fill="currentColor" transform="translate(464,626)"/>
</svg>
