<?xml version="1.0" encoding="UTF-8"?>
<svg version="1.1" xmlns="http://www.w3.org/2000/svg" width="1254" height="1254" viewBox="363.27 337.12 528.54 528.54">
<path d="M0 0 C5.57894737 3.15789474 5.57894737 3.15789474 7 6 C7.1123055 8.12781954 7.1593534 10.25918446 7.17700195 12.38989258 C7.18357315 13.04539597 7.19014435 13.70089935 7.19691467 14.37626648 C7.21665056 16.54902254 7.22831117 18.72170946 7.23828125 20.89453125 C7.24235678 21.63667059 7.2464323 22.37880993 7.25063133 23.14343834 C7.27149391 27.07194109 7.28579444 31.0004089 7.29516602 34.92895508 C7.30622745 38.98444122 7.34062302 43.03937821 7.38033772 47.0946703 C7.40649875 50.21482861 7.41485738 53.33485602 7.41844749 56.45511436 C7.4233153 57.94983311 7.43493498 59.44454593 7.45348549 60.93915749 C7.47786663 63.03385377 7.47691488 65.12712874 7.4699707 67.22192383 C7.47877007 69.00823967 7.47877007 69.00823967 7.48774719 70.8306427 C6.90221101 74.63542807 5.66723552 76.27772588 3 79 C-0.10953379 80.5547669 -2.56266761 80.28644437 -6 80 C-11.68421053 76.94736842 -11.68421053 76.94736842 -13 73 C-13.10434768 70.89529242 -13.14862925 68.78743137 -13.16113281 66.68017578 C-13.17074036 65.3751712 -13.1803479 64.07016663 -13.19024658 62.72561646 C-13.19509446 61.29885025 -13.19937331 59.87208201 -13.203125 58.4453125 C-13.20887866 56.98184203 -13.21463636 55.51837157 -13.22039795 54.05490112 C-13.23089966 50.98662973 -13.2367478 47.91838449 -13.24023438 44.85009766 C-13.24571852 40.92365145 -13.269748 36.99755212 -13.29820633 33.07121468 C-13.31685422 30.04799396 -13.32203944 27.02485647 -13.32357025 24.0015831 C-13.32659228 22.55433124 -13.33460569 21.10708068 -13.34775543 19.65988541 C-13.36485954 17.63286479 -13.36108456 15.60570075 -13.35644531 13.57861328 C-13.36009094 12.42628204 -13.36373657 11.27395081 -13.36749268 10.08670044 C-12.95763495 6.64416105 -12.0354227 4.77726231 -10 2 C-6.78144775 -0.33067577 -3.89509474 -0.46741137 0 0 Z " fill="currentColor" transform="translate(630,358)"/>
<path d="M0 0 C1.8818512 1.28935242 1.8818512 1.28935242 3.74829102 3.0144043 C4.44246124 3.65219818 5.13663147 4.28999207 5.85183716 4.94711304 C9.41038578 8.34783199 12.92666014 11.78409164 16.40234375 15.26953125 C17.54709923 16.41285164 17.54709923 16.41285164 18.71498108 17.57926941 C20.31194789 19.17556068 21.90767253 20.77309553 23.50219727 22.37182617 C25.95149736 24.82652823 28.40614904 27.27578896 30.86132812 29.72460938 C32.4169878 31.28092907 33.97233766 32.83755852 35.52734375 34.39453125 C36.2626683 35.12783157 36.99799286 35.8611319 37.75559998 36.61665344 C38.43042923 37.29463486 39.10525848 37.97261627 39.80053711 38.67114258 C40.3959581 39.26735916 40.99137909 39.86357574 41.60484314 40.4778595 C44.48923493 43.62478132 44.38580058 46.63571016 44.359375 50.73828125 C43.78943134 54.32520929 41.79773951 55.86838894 39 58 C35.41076132 59.79461934 31.76875893 59.07382215 28 58 C24.97557249 56.03393567 22.61824193 53.57885936 20.1484375 50.96484375 C19.44530426 50.2527626 18.74217102 49.54068146 18.01773071 48.80702209 C15.78399753 46.53533359 13.57987072 44.23717533 11.375 41.9375 C9.88723165 40.4181425 8.39766338 38.9005453 6.90625 37.38476562 C0.92694147 31.27907866 -4.95929856 25.14014535 -10.54013062 18.66529846 C-11.64766871 17.40191045 -12.81197856 16.18802144 -14 15 C-14.77200992 10.43077852 -14.59362988 6.94980781 -12.125 3 C-8.5009719 -0.41084998 -4.83818666 -1.03509921 0 0 Z " fill="currentColor" transform="translate(467,433)"/>
<path d="M0 0 C3.83097066 1.70265363 5.43489518 3.16100912 7 7 C7.65591977 11.37985891 6.8504075 14.80298772 4.28616333 18.41235352 C1.87881546 21.0639155 -0.62863116 23.55379564 -3.21484375 26.03125 C-4.14091934 26.94837769 -5.06699493 27.86550537 -6.02113342 28.8104248 C-8.47050712 31.23506533 -10.94336026 33.63431339 -13.42169189 36.02929688 C-15.44576916 37.99314491 -17.45282946 39.973896 -19.45918941 41.95581818 C-23.60000217 46.04609554 -27.75397959 50.12293929 -31.93334961 54.17382812 C-32.67201767 54.89058716 -33.41068573 55.60734619 -34.17173767 56.3458252 C-36.21227672 58.19206369 -37.25891618 58.97997071 -40.0234375 59.0546875 C-43.99811782 58.75097439 -46.36138778 58.49842905 -49.5625 56 C-51.58837887 51.77207888 -52.02688278 48.584459 -51 44 C-49.69233704 42.08763123 -49.69233704 42.08763123 -47.97387695 40.23217773 C-47.33777496 39.54082733 -46.70167297 38.84947693 -46.04629517 38.13717651 C-42.64512334 34.5849497 -39.212913 31.07035289 -35.73046875 27.59765625 C-34.58714836 26.45290077 -34.58714836 26.45290077 -33.42073059 25.28501892 C-31.82443932 23.68805211 -30.22690447 22.09232747 -28.62817383 20.49780273 C-26.17347177 18.04850264 -23.72421104 15.59385096 -21.27539062 13.13867188 C-19.71907093 11.5830122 -18.16244148 10.02766234 -16.60546875 8.47265625 C-15.87216843 7.7373317 -15.1388681 7.00200714 -14.38334656 6.24440002 C-13.70536514 5.56957077 -13.02738373 4.89474152 -12.32885742 4.19946289 C-11.73264084 3.6040419 -11.13642426 3.00862091 -10.5221405 2.39515686 C-7.24589115 -0.60777339 -4.31300314 -0.29240699 0 0 Z " fill="currentColor" transform="translate(795,433)"/>
<path d="M0 0 C0.71720215 0.20367187 1.4344043 0.40734375 2.17333984 0.6171875 C19.43082315 5.69453106 35.35874243 14.30749351 49 26 C49.75869385 26.64340332 49.75869385 26.64340332 50.53271484 27.29980469 C76.76806307 49.72076431 93.44169717 81.24073335 96.83666992 115.73803711 C99.22944255 148.8756132 90.11215703 184.82486293 68.1953125 210.5234375 C67.47085938 211.34070313 66.74640625 212.15796875 66 213 C65.15179687 214.00289062 64.30359375 215.00578125 63.4296875 216.0390625 C41.74621816 241.11778126 10.73647229 256.1968393 -22 260 C-59.98739973 262.31104129 -94.76202807 252.48332861 -123.58618164 227.01538086 C-126.11350856 224.73184495 -128.55822701 222.37523967 -131 220 C-132.26457031 218.77410156 -132.26457031 218.77410156 -133.5546875 217.5234375 C-157.45019469 192.86449558 -168.41253507 158.51328376 -168.30273438 124.74682617 C-167.67024823 88.94401083 -151.67814759 56.00906788 -126.47167969 31.05175781 C-93.6238001 -0.40893466 -43.78533186 -12.68062348 0 0 Z M-121.46875 53.6875 C-141.28343136 77.03082324 -150.4584533 105.61555629 -149 136 C-148.58862053 140.73086393 -147.89972981 145.33824203 -147 150 C-146.78988281 151.12148438 -146.57976563 152.24296875 -146.36328125 153.3984375 C-142.40958722 170.87183649 -133.77352998 187.55906163 -122 201 C-121.40832031 201.73863281 -120.81664062 202.47726562 -120.20703125 203.23828125 C-104.02882605 223.02872229 -76.13942744 237.07259969 -51 240 C-19.51300663 243.03514905 10.8154664 235.90546328 35.6640625 215.64306641 C39.26889495 212.58135334 42.65621889 209.34378111 46 206 C46.80050781 205.19949219 47.60101562 204.39898438 48.42578125 203.57421875 C69.09863354 181.7588254 77.81543251 153.47234301 77.52392578 123.89916992 C76.66389791 92.88466238 62.73470253 65.36464463 40.41015625 44.0703125 C18.88055562 24.27567539 -10.15889288 13.91741928 -39.3515625 14.71484375 C-71.44709401 17.22338101 -99.53928105 29.81491355 -121.46875 53.6875 Z " fill="currentColor" transform="translate(663,477)"/>
<path d="M0 0 C0.65550339 -0.00817749 1.31100677 -0.01635498 1.9863739 -0.02478027 C4.15911953 -0.04962453 6.33179986 -0.06614802 8.50463867 -0.08056641 C9.24677801 -0.08589008 9.98891735 -0.09121376 10.75354576 -0.09669876 C14.68204084 -0.12342673 18.61050418 -0.1428023 22.5390625 -0.15722656 C26.59467449 -0.17386997 30.64947313 -0.21864478 34.70477772 -0.26959801 C37.82493511 -0.30327254 40.94489952 -0.31480411 44.06522179 -0.32045364 C45.55996603 -0.32716614 47.05469757 -0.3423885 48.54926491 -0.36634445 C50.64419212 -0.39800619 52.7369271 -0.39803322 54.83203125 -0.390625 C56.61834709 -0.40275528 56.61834709 -0.40275528 58.44075012 -0.41513062 C62.56235459 0.37554785 64.02641208 1.95275018 66.61010742 5.19287109 C67.72809978 9.10584434 68.04498596 11.18578395 66.42260742 14.94287109 C63.74649512 18.26494154 61.95547036 20.01848834 57.61915588 20.58055115 C56.45287155 20.58595413 55.28658722 20.59135712 54.08496094 20.59692383 C53.43891907 20.60378708 52.7928772 20.61065033 52.1272583 20.61772156 C49.99761807 20.63598099 47.86871518 20.63215357 45.73901367 20.62646484 C44.25454977 20.63102727 42.77008799 20.63633302 41.28562927 20.64234924 C38.17617201 20.65127874 35.0669716 20.64885945 31.95751953 20.63891602 C27.978232 20.62742929 23.99983226 20.64763296 20.02066135 20.67683315 C16.95536188 20.69520509 13.89027474 20.69490075 10.82493401 20.68919563 C9.35815117 20.68904252 7.89135385 20.69507855 6.42462349 20.70748711 C4.37073694 20.7224146 2.31848484 20.71171028 0.26464844 20.69458008 C-0.90243149 20.69441391 -2.06951141 20.69424774 -3.2719574 20.69407654 C-7.05398724 20.08611844 -8.70891592 18.88577769 -11.38989258 16.19287109 C-12.59180159 12.58714405 -12.71659573 9.9826276 -12.38989258 6.19287109 C-8.74006421 0.5964676 -6.46908102 0.07000061 0 0 Z " fill="currentColor" transform="translate(395.389892578125,594.80712890625)"/>
<path d="M0 0 C0.65594147 -0.0087616 1.31188293 -0.01752319 1.98770142 -0.02655029 C4.14482794 -0.04846494 6.29988581 -0.03402345 8.45703125 -0.01708984 C9.96248771 -0.02046035 11.4679415 -0.02531493 12.97338867 -0.03158569 C16.12412497 -0.03894613 19.27415113 -0.02827952 22.42480469 -0.00488281 C26.4569908 0.02360601 30.48751296 0.00719737 34.51963806 -0.02274513 C37.62703923 -0.04084144 40.73404798 -0.03504973 43.84146118 -0.02210617 C45.32777098 -0.01877853 46.81411679 -0.02283672 48.30038452 -0.03450394 C50.38089898 -0.04725309 52.45874605 -0.02778738 54.5390625 0 C56.31180542 0.00596695 56.31180542 0.00596695 58.12036133 0.01205444 C62.18038006 0.83061295 63.66513877 2.50425346 66.26953125 5.64697266 C67.72101028 8.54993071 67.6419215 10.41959045 67.26953125 13.64697266 C65.45642983 16.5763492 63.39657226 19.08345215 60.26953125 20.64697266 C58.20283617 20.75397832 56.13265953 20.79585002 54.06323242 20.80810547 C52.75815231 20.81771301 51.4530722 20.82732056 50.10844421 20.83721924 C48.67646458 20.84206746 47.24448293 20.84634623 45.8125 20.85009766 C44.34760028 20.8558496 42.88270058 20.86160733 41.4178009 20.86737061 C38.34355315 20.87788236 35.26933156 20.8837236 32.19506836 20.88720703 C28.26074636 20.89268645 24.32677139 20.91670154 20.3925581 20.94517899 C17.36504619 20.96382933 14.33761737 20.96901227 11.31005287 20.97054291 C9.86000996 20.97356553 8.40996838 20.98158092 6.95998192 20.99472809 C4.92806244 21.01183364 2.89599986 21.00805701 0.86401367 21.00341797 C-0.29133377 21.0070636 -1.44668121 21.01070923 -2.63703918 21.01446533 C-6.09203615 20.60401924 -7.95659365 19.71207955 -10.73046875 17.64697266 C-12.59611485 14.59409722 -12.73217622 12.74259103 -12.66796875 9.14697266 C-10.81422797 2.2263404 -6.90660205 0.02324722 0 0 Z " fill="currentColor" transform="translate(804.73046875,594.35302734375)"/>
<path d="M0 0 C2.8100346 1.79363911 4.50940468 3.01880935 6 6 C6.91853385 12.6593704 6.91853385 12.6593704 4.71064758 15.8818512 C4.14138046 16.49777634 3.57211334 17.11370148 2.9855957 17.74829102 C2.34780182 18.44246124 1.71000793 19.13663147 1.05288696 19.85183716 C-2.34783199 23.41038578 -5.78409164 26.92666014 -9.26953125 30.40234375 C-10.03174484 31.16551407 -10.79395844 31.92868439 -11.57926941 32.71498108 C-13.17556068 34.31194789 -14.77309553 35.90767253 -16.37182617 37.50219727 C-18.82652823 39.95149736 -21.27578896 42.40614904 -23.72460938 44.86132812 C-25.28092907 46.4169878 -26.83755852 47.97233766 -28.39453125 49.52734375 C-29.12783157 50.2626683 -29.8611319 50.99799286 -30.61665344 51.75559998 C-31.29463486 52.43042923 -31.97261627 53.10525848 -32.67114258 53.80053711 C-33.26735916 54.3959581 -33.86357574 54.99137909 -34.4778595 55.60484314 C-37.39933343 58.2825949 -40.06053382 58.32842697 -43.9609375 58.29296875 C-47.13134567 57.83745033 -48.8192402 56.24684343 -51 54 C-52.65245467 50.69509065 -52.75856768 47.5456428 -52 44 C-50.71064758 42.1181488 -50.71064758 42.1181488 -48.9855957 40.25170898 C-48.34780182 39.55753876 -47.71000793 38.86336853 -47.05288696 38.14816284 C-43.65216801 34.58961422 -40.21590836 31.07333986 -36.73046875 27.59765625 C-35.58714836 26.45290077 -35.58714836 26.45290077 -34.42073059 25.28501892 C-32.82443932 23.68805211 -31.22690447 22.09232747 -29.62817383 20.49780273 C-27.17347177 18.04850264 -24.72421104 15.59385096 -22.27539062 13.13867188 C-20.71907093 11.5830122 -19.16244148 10.02766234 -17.60546875 8.47265625 C-16.87216843 7.7373317 -16.1388681 7.00200714 -15.38334656 6.24440002 C-14.70536514 5.56957077 -14.02738373 4.89474152 -13.32885742 4.19946289 C-12.73264084 3.6040419 -12.13642426 3.00862091 -11.5221405 2.39515686 C-8.17620543 -0.67164562 -4.32062293 -0.62077916 0 0 Z " fill="currentColor" transform="translate(505,717)"/>
<path d="M0 0 C1.86636353 1.32392883 1.86636353 1.32392883 3.74853516 3.0480957 C4.44489075 3.6835733 5.14124634 4.3190509 5.85870361 4.9737854 C9.33557128 8.26379237 12.76100976 11.59845599 16.1484375 14.98046875 C16.8870401 15.71574295 17.6256427 16.45101715 18.3866272 17.20857239 C19.93239413 18.74931455 21.47684383 20.29137931 23.02001953 21.8347168 C25.38424481 24.19673618 27.75638165 26.55061738 30.12890625 28.90429688 C31.63590519 30.40836485 33.14243259 31.91290547 34.6484375 33.41796875 C35.35672699 34.11907272 36.06501648 34.8201767 36.79476929 35.54252625 C37.44950226 36.20033585 38.10423523 36.85814545 38.77880859 37.53588867 C39.35424408 38.10989914 39.92967957 38.68390961 40.52255249 39.27531433 C42.87927251 42.02641122 43.90667803 44.28453153 44.375 47.875 C43.90139376 51.82171864 42.44329387 53.90995187 40 57 C36.34568904 58.82715548 32.962632 58.90418403 29 58 C25.14975986 55.50645133 22.13828327 52.32530306 19 49 C18.4946875 48.46487793 17.989375 47.92975586 17.46875 47.37841797 C14.87112561 44.61605454 12.30254971 41.8302766 9.76171875 39.015625 C7.25793364 36.25546481 4.6542224 33.61672162 2 31 C-1.66666667 27.33333333 -5.33333333 23.66666667 -9 20 C-9.92425781 19.1646875 -10.84851563 18.329375 -11.80078125 17.46875 C-14.87456709 14.01824795 -14.78886669 11.83555906 -14.54296875 7.3828125 C-13.9557158 4.80565928 -13.39263551 3.68985596 -11.5 1.875 C-7.47727941 -0.28002889 -4.40469305 -1.31283733 0 0 Z " fill="currentColor" transform="translate(758,717)"/>
<path d="M0 0 C2.64855354 1.65107138 3.58426143 2.31934931 5 5 C5.76631361 9.68339474 5.70425351 14.36108872 5.6640625 19.09375 C5.66743353 20.48710554 5.67228854 21.8804582 5.67855835 23.27380371 C5.68591645 26.18916922 5.67526031 29.10376697 5.65185547 32.01904297 C5.62336611 35.74860493 5.63977611 39.47636794 5.66971779 43.20586395 C5.68782085 46.08165952 5.68201946 48.95703135 5.66907883 51.83283997 C5.66575301 53.20750646 5.66980295 54.58221193 5.68147659 55.95683289 C5.76154249 68.03422566 5.76154249 68.03422566 2.64599609 71.32226562 C-0.41708702 73.26446042 -2.37327481 73.92444323 -6 74 C-10.51708549 72.92450346 -12.4405589 70.79327863 -15 67 C-15.5146637 64.12330627 -15.5146637 64.12330627 -15.53344727 60.92797852 C-15.5492836 59.72645645 -15.56511993 58.52493439 -15.58143616 57.28700256 C-15.57647629 55.99733078 -15.57151642 54.707659 -15.56640625 53.37890625 C-15.57164574 52.03278677 -15.57792341 50.68667097 -15.58518982 49.34056091 C-15.59557993 46.52365811 -15.59105393 43.70726088 -15.57641602 40.89038086 C-15.5592373 37.29098341 -15.58271589 33.69318375 -15.61790562 30.09396458 C-15.63993104 27.31509442 -15.63842591 24.53660352 -15.6301403 21.75767326 C-15.6289279 19.78905441 -15.64881391 17.82045885 -15.66908264 15.85194397 C-15.56551409 5.897005 -15.56551409 5.897005 -12.64819336 2.20288086 C-8.2928773 -1.4200579 -5.39158869 -1.30141796 0 0 Z " fill="currentColor" transform="translate(632,771)"/>
</svg>
