<?xml version="1.0" encoding="UTF-8"?>
<svg version="1.1" xmlns="http://www.w3.org/2000/svg" width="364.5" height="379.9" viewBox="0 0 364.5 379.9039" preserveAspectRatio="xMidYMid">
<g transform="matrix(0.1,0,0,-0.1,-316,716.06266)" fill="currentColor" stroke="none">
<path d="m 3554,7139 c -16,-18 -19,-37 -19,-139 0,-102 3,-121 19,-139 29,-32 88,-29 115,5 18,23 21,41 21,138 0,99 -2,115 -20,134 -28,30 -90,30 -116,1 z"/>
<path d="m 3190,6762 c -16,-17 -30,-38 -30,-47 0,-24 27,-72 45,-79 9,-3 66,-6 126,-6 103,0 111,1 134,25 30,29 32,74 6,106 -18,22 -27,24 -135,27 l -116,4 z"/>
<path d="m 3772,6774 c -13,-9 -27,-27 -32,-40 -11,-29 5,-81 30,-94 28,-15 241,-12 262,4 26,19 39,62 28,90 -17,46 -46,56 -160,56 -81,0 -111,-4 -128,-16 z"/>
<path d="m 5030,6615 c -185,-28 -397,-105 -560,-201 -270,-161 -511,-421 -645,-697 -111,-230 -156,-414 -163,-668 -5,-199 5,-298 48,-463 73,-284 221,-539 435,-751 135,-134 261,-225 420,-304 253,-126 500,-179 770,-168 402,17 778,181 1060,462 100,100 237,286 251,342 9,36 -6,75 -38,92 -23,13 -35,13 -124,-8 -123,-30 -365,-40 -494,-21 -263,38 -547,190 -734,391 -392,422 -434,1032 -105,1499 69,98 192,220 302,299 52,38 90,73 93,86 10,41 0,78 -28,98 -25,18 -45,21 -210,23 -123,2 -214,-2 -278,-11 z m 220,-147 c 0,-2 -40,-45 -89,-95 -230,-238 -363,-535 -386,-863 -22,-299 78,-624 272,-881 294,-390 758,-603 1238,-568 60,4 111,6 113,5 8,-9 -115,-140 -185,-198 -155,-128 -309,-215 -489,-274 -169,-55 -257,-68 -454,-68 -250,1 -397,34 -617,139 -434,207 -738,610 -817,1083 -36,211 -28,402 24,607 149,590 637,1028 1230,1104 64,8 160,13 160,9 z"/>
<path d="m 3559,6561 c -22,-18 -24,-27 -27,-128 -3,-119 6,-150 50,-170 31,-16 83,-1 98,27 6,10 10,69 10,130 0,104 -1,112 -25,135 -29,30 -74,32 -106,6 z"/>
<path d="m 5948,5874 c -16,-8 -30,-26 -33,-42 -38,-180 -103,-294 -216,-377 -57,-42 -168,-88 -242,-100 -52,-8 -77,-36 -77,-83 0,-52 22,-70 107,-88 208,-43 357,-190 413,-410 11,-42 25,-83 30,-89 27,-33 110,-24 125,13 4,10 15,50 26,90 53,208 205,353 412,396 37,8 75,20 84,27 27,23 34,57 19,93 -15,35 -39,47 -121,61 -22,4 -74,23 -115,42 -137,66 -238,194 -279,355 -26,98 -28,104 -57,117 -32,14 -43,14 -76,-5 z m 77,-365 c 39,-67 137,-164 203,-201 28,-17 52,-31 52,-33 0,-2 -21,-16 -47,-31 -68,-39 -155,-125 -204,-201 l -42,-64 -30,51 c -42,74 -119,153 -192,200 -36,22 -65,42 -65,44 0,2 26,19 59,39 65,41 167,144 202,206 12,23 25,41 28,41 3,0 20,-23 36,-51 z"/>
<path d="m 6676,4669 c -56,-44 -20,-139 54,-139 46,0 75,31 75,80 0,32 -6,47 -24,61 -30,25 -72,24 -105,-2 z"/>
</g>
</svg>
