<?xml version="1.0" encoding="UTF-8"?>
<svg version="1.1" xmlns="http://www.w3.org/2000/svg" width="1254" height="1254" viewBox="323.90 283.03 624.59 624.59">
<path d="M0 0 C2.9375 2 2.9375 2 5 5 C5.53677271 12.18571473 4.19624568 18.30050652 2.296875 25.203125 C2.01781311 26.24394226 1.73875122 27.28475952 1.45123291 28.3571167 C0.86160946 30.54363527 0.26627702 32.72862155 -0.33447266 34.91210938 C-1.24983191 38.24938717 -2.13963703 41.5927742 -3.02734375 44.9375 C-3.60524873 47.06812177 -4.18462548 49.198345 -4.765625 51.328125 C-5.16119598 52.82197723 -5.16119598 52.82197723 -5.5647583 54.3460083 C-6.96383211 59.35945547 -8.1907256 63.24489507 -12 67 C-15.21694364 68.60847182 -18.52137222 68.61309149 -22 68 C-24.69105198 65.82425584 -26.45532928 64.08934144 -28 61 C-27.52240017 54.21431196 -26.14199971 47.84585903 -24.453125 41.26953125 C-24.20004578 40.27547775 -23.94696655 39.28142426 -23.68621826 38.25724792 C-23.15165263 36.16972503 -22.61361407 34.08308867 -22.07226562 31.99731445 C-21.25071073 28.81525283 -20.45325992 25.6277382 -19.65625 22.43945312 C-19.13168007 20.40326611 -18.60568665 18.36744518 -18.078125 16.33203125 C-17.84458313 15.3850386 -17.61104126 14.43804596 -17.37042236 13.46235657 C-15.86667417 7.79763897 -14.24055668 4.10736503 -10 0 C-6.1544104 -1.2818632 -3.93271581 -0.94927623 0 0 Z " fill="currentColor" transform="translate(775,307)"/>
<path d="M0 0 C1.63956665 0.01353516 1.63956665 0.01353516 3.31225586 0.02734375 C25.59193304 0.50246756 43.97688508 10.23498822 59.2109375 26.05859375 C66.04729671 33.90990732 72.85079312 44.04058558 74.6875 54.4375 C75.54168518 54.48693756 76.39587036 54.53637512 77.27593994 54.58731079 C85.6609592 55.12213881 93.87741179 56.07579819 102.171875 57.3984375 C103.39352356 57.58967194 104.61517212 57.78090637 105.87384033 57.97793579 C108.43214375 58.38014656 110.98998327 58.7853185 113.54736328 59.19335938 C117.44029266 59.81294447 121.33520271 60.41873775 125.23046875 61.0234375 C127.73190158 61.41844377 130.2332083 61.81424964 132.734375 62.2109375 C134.46128571 62.47830215 134.46128571 62.47830215 136.2230835 62.75106812 C152.80947873 65.42751818 167.12979198 70.55552361 177.6875 84.4375 C185.68947586 96.78528692 188.35327246 109.02905838 186.22265625 123.62109375 C183.33580659 136.75711378 176.00939644 145.87124717 167.27978516 155.64355469 C164.72810507 158.51840064 162.24255616 161.44893787 159.75 164.375 C155.59959235 169.22245894 151.42989643 174.05295821 147.25 178.875 C146.44755859 179.80227905 146.44755859 179.80227905 145.62890625 180.74829102 C142.82999006 183.97971359 140.01870107 187.19915432 137.1875 190.40234375 C126.15232814 201.40871691 126.15232814 201.40871691 121.49623108 215.32516479 C121.87877722 219.54992686 123.15119868 223.56542984 124.3203125 227.62890625 C124.59463104 228.61003891 124.86894958 229.59117157 125.15158081 230.60203552 C126.03008362 233.73714529 126.9209189 236.86858731 127.8125 240 C128.38887029 242.04598485 128.96439834 244.09220716 129.5390625 246.13867188 C130.68202057 250.2064297 131.82715555 254.27356481 132.97363281 258.34033203 C134.70197532 264.48221326 136.41998648 270.62678017 138.1171875 276.77734375 C138.37678253 277.70704483 138.63637756 278.63674591 138.90383911 279.59461975 C139.13908295 280.45147873 139.37432678 281.30833771 139.61669922 282.19116211 C139.82430878 282.94159286 140.03191833 283.69202362 140.24581909 284.4651947 C140.6875 286.4375 140.6875 286.4375 140.6875 289.4375 C141.67331055 289.10540527 142.65912109 288.77331055 143.67480469 288.43115234 C153.96414127 284.96843124 164.26446069 281.5399269 174.57373047 278.13702393 C176.41629243 277.52725254 178.25712757 276.9122681 180.09765625 276.29638672 C199.70954851 269.76242465 217.52152247 267.88006587 236.6875 277.4375 C251.09363887 285.11256544 262.11589058 297.78641051 273.5625 309.1875 C274.10851868 309.73065857 274.65453735 310.27381714 275.21710205 310.83343506 C280.76134487 316.35727244 286.20856259 321.90530828 291.29638672 327.859375 C292.99342162 329.78454762 294.82541218 331.44123588 296.8125 333.0625 C300.18651276 335.91942268 302.85406296 339.03737555 305.6875 342.4375 C306.85898329 343.47667459 308.04840666 344.49579365 309.25 345.5 C314.21545537 349.71969306 318.48868857 354.53176971 322.85546875 359.3515625 C326.41710834 363.26331108 330.16475098 366.95341648 334.02734375 370.56640625 C344.0750748 380.07635973 351.85910001 389.88346901 352.98828125 404.26953125 C353.03195784 419.10501447 349.83081832 430.08209051 339.5625 441.1875 C330.02454225 450.29044954 318.18292786 453.85654853 305.25 453.80322266 C290.00153193 453.44439644 279.83031642 446.01410507 269.55859375 435.4140625 C268.94113281 434.76179688 268.32367187 434.10953125 267.6875 433.4375 C265.81373929 436.24814107 264.52701638 438.93633458 263.125 442 C258.39181285 451.52395565 251.47320518 458.54844421 242.6875 464.4375 C243.35410367 470.03914889 245.19792165 475.00681387 247.14453125 480.26171875 C247.66088387 481.67479057 247.66088387 481.67479057 248.18766785 483.1164093 C249.28687139 486.1210978 250.3932897 489.1230694 251.5 492.125 C252.23290546 494.12417174 252.96533214 496.12351907 253.69726562 498.12304688 C255.05537753 501.83142279 256.41639477 505.53870433 257.78051758 509.24487305 C258.0897818 510.08891693 258.39904602 510.93296082 258.71768188 511.80258179 C259.40537212 513.67098113 260.10008014 515.53680425 260.7996521 517.40078735 C261.16184845 518.37430145 261.5240448 519.34781555 261.8972168 520.35083008 C262.39320625 521.67284172 262.39320625 521.67284172 262.8992157 523.02156067 C263.98791741 526.35822141 264.2421786 528.97075874 263.6875 532.4375 C261.89187595 535.19079021 260.63495078 536.96377461 257.6875 538.4375 C250.63718621 539.01539457 250.63718621 539.01539457 247.2722168 536.96777344 C243.77950182 533.5486275 242.69274108 530.09934861 241.1640625 525.52734375 C240.85479828 524.64583145 240.54553406 523.76431915 240.22689819 522.85609436 C239.24035328 520.03404155 238.27589376 517.20502957 237.3125 514.375 C236.67338035 512.53007678 236.0327682 510.68566989 235.390625 508.84179688 C234.43515244 506.09729814 233.48091015 503.3524439 232.53302002 500.60531616 C229.38660487 491.49901552 226.05579798 482.46367926 222.6875 473.4375 C221.81859131 473.59569214 221.81859131 473.59569214 220.93212891 473.75708008 C177.94535947 481.43834982 133.79466226 482.85309058 90.20654678 482.75515366 C87.69591267 482.74988653 85.18529107 482.74799357 82.6746521 482.74649048 C40.88180836 482.70312072 -0.71330259 480.48674895 -42.3125 476.4375 C-42.69994385 477.51942627 -43.0873877 478.60135254 -43.48657227 479.71606445 C-44.95999205 483.82981839 -46.43455707 487.94316112 -47.90942383 492.05639648 C-48.54090869 493.81800773 -49.17210546 495.57972229 -49.80297852 497.34155273 C-51.34224819 501.63996022 -52.88686679 505.93627048 -54.44189453 510.22900391 C-55.71568797 513.75179092 -56.95092234 517.28531685 -58.16357422 520.82958984 C-58.76390903 522.54658038 -59.36432892 524.26354117 -59.96484375 525.98046875 C-60.35960655 527.16942497 -60.35960655 527.16942497 -60.76234436 528.38240051 C-62.41929357 533.05876308 -63.93943769 535.71817975 -68.3125 538.4375 C-71.07005067 539.1477782 -73.52873106 539.01112511 -76.3125 538.4375 C-79.1225346 536.64386089 -80.82190468 535.41869065 -82.3125 532.4375 C-82.61731825 527.40799887 -81.977558 523.68905131 -80.1875 519 C-79.73157471 517.78546143 -79.27564941 516.57092285 -78.8059082 515.31958008 C-78.56200348 514.68565338 -78.31809875 514.05172668 -78.06680298 513.39859009 C-77.0454526 510.74321134 -76.04971892 508.07846532 -75.05232239 505.41401672 C-74.54561718 504.06123141 -74.03762892 502.708926 -73.52836609 501.35710144 C-71.14196831 495.01784621 -68.8587746 488.64464604 -66.625 482.25 C-66.28662109 481.29544922 -65.94824219 480.34089844 -65.59960938 479.35742188 C-65.29474609 478.48279297 -64.98988281 477.60816406 -64.67578125 476.70703125 C-64.41063721 475.95010986 -64.14549316 475.19318848 -63.87231445 474.41333008 C-63.17619963 472.29870401 -63.17619963 472.29870401 -63.3125 469.4375 C-63.96734375 469.13199219 -64.6221875 468.82648438 -65.296875 468.51171875 C-84.52855154 458.8687171 -97.0675715 441.95401411 -104.0039978 421.96234131 C-104.78563975 419.70979278 -105.58047078 417.46224079 -106.37817383 415.21533203 C-107.63058236 411.68535932 -108.87786254 408.15362075 -110.12304688 404.62109375 C-112.6025201 397.60250634 -115.12024105 390.59772069 -117.640625 383.59375 C-117.87576561 382.94028469 -118.11090622 382.28681938 -118.3531723 381.61355209 C-119.3237525 378.91649955 -120.29443977 376.21948559 -121.26534653 373.52255058 C-123.01362522 368.66580271 -124.75903702 363.80803137 -126.50292969 358.94970703 C-131.1106694 346.11417169 -135.72547575 333.28141534 -140.375 320.4609375 C-153.51735475 284.20696687 -153.51735475 284.20696687 -159.53140259 266.48474121 C-160.03897991 264.99193438 -160.55030886 263.50039604 -161.06600952 262.01037598 C-168.03353973 241.82271351 -170.00911083 222.34335038 -160.9609375 202.46875 C-157.83548357 196.38497871 -154.06430295 191.34394743 -149.3125 186.4375 C-150.17875 185.468125 -151.045 184.49875 -151.9375 183.5 C-161.41591483 172.38968828 -168.10592436 159.71682982 -167.5546875 144.7109375 C-165.99911419 130.10862028 -161.01600962 117.77871261 -150.11328125 107.68359375 C-144.89532805 103.49904272 -139.24076266 100.46061606 -133.3125 97.4375 C-132.3342627 96.93202637 -131.35602539 96.42655273 -130.34814453 95.90576172 C-117.45449095 89.2622976 -104.46139041 82.91472204 -91.1875 77.0625 C-90.12104248 76.59223389 -89.05458496 76.12196777 -87.95581055 75.63745117 C-80.58079493 72.4375 -80.58079493 72.4375 -78.3125 72.4375 C-78.18294922 71.14779297 -78.18294922 71.14779297 -78.05078125 69.83203125 C-75.98121211 52.42106889 -68.81680088 37.6209296 -57.3125 24.4375 C-56.79300781 23.82261719 -56.27351563 23.20773437 -55.73828125 22.57421875 C-41.88225129 7.39191892 -20.09871489 -0.20062665 0 0 Z M-47.0625 43.6875 C-57.61086946 57.97642601 -60.25311871 74.49439922 -57.84765625 91.77734375 C-55.11504765 104.08216709 -49.21388413 113.64659404 -40.3125 122.4375 C-39.77109375 123.00082031 -39.2296875 123.56414062 -38.671875 124.14453125 C-28.54326159 133.83833045 -13.69000569 138.4196152 0 138.875 C17.69991163 138.45831835 32.21229658 131.4849702 44.37304688 118.90185547 C56.38683793 105.5179924 59.58024678 89.88349215 58.83105469 72.51855469 C57.77364969 57.18977887 48.58489531 43.41231829 37.46484375 33.4453125 C24.68199301 22.9394775 10.09002259 19.19731351 -6.22265625 20.22607422 C-22.90357414 21.91365306 -36.52171649 31.08941444 -47.0625 43.6875 Z M78.6875 75.4375 C78.65011719 76.36949219 78.61273437 77.30148437 78.57421875 78.26171875 C78.17390244 86.02471546 77.2949393 93.1747524 75.30859375 100.73046875 C74.53841553 103.6243885 74.53841553 103.6243885 74.6875 107.4375 C76.0192627 107.64898682 76.0192627 107.64898682 77.37792969 107.86474609 C80.68122611 108.39253004 83.98345903 108.92620548 87.28515625 109.46386719 C88.71251049 109.69506749 90.14024479 109.92393433 91.56835938 110.15039062 C93.62475022 110.47689279 95.67961407 110.81184887 97.734375 111.1484375 C98.97026367 111.34743652 100.20615234 111.54643555 101.47949219 111.75146484 C105.05501876 112.51609419 107.72105197 113.13279516 109.9375 116.125 C111.0640305 119.59846903 111.23565771 121.78311525 110.6875 125.4375 C108.77079626 128.47634666 106.19927743 130.88566232 103.6875 133.4375 C102.01607235 135.21567074 100.35567622 137.00376821 98.69580078 138.79272461 C97.47361236 140.10651981 96.24664529 141.41588443 95.01513672 142.72094727 C92.28632348 145.61458573 89.58896597 148.50702034 87.05078125 151.5703125 C80.72808087 159.073947 70.88349944 167.65261608 60.56640625 168.640625 C57.13974507 168.70996722 54.39450732 168.72030293 51.1875 167.4375 C48.85976332 164.3338511 48.42266289 161.20963936 48.6875 157.4375 C50.10031324 153.9391053 51.31438536 152.04026982 54.83203125 150.49609375 C55.65058594 150.20863281 56.46914063 149.92117188 57.3125 149.625 C67.05082169 146.15930316 74.36296117 137.3520067 80.6875 129.4375 C80.6875 129.1075 80.6875 128.7775 80.6875 128.4375 C71.70355233 126.27964311 71.70355233 126.27964311 62.6875 126.4375 C60.96592703 128.23649821 59.6498393 130.14971389 58.265625 132.21875 C48.67739749 145.69922828 29.35140113 154.23172916 13.48046875 156.99609375 C-7.27137527 159.41108693 -27.80875842 156.28224294 -44.8828125 143.515625 C-45.89988281 142.67257812 -45.89988281 142.67257812 -46.9375 141.8125 C-48.62042133 140.36362932 -48.62042133 140.36362932 -50.3125 139.4375 C-53.59738952 139.75445644 -53.59738952 139.75445644 -56.3125 141.4375 C-57.09625 141.80875 -57.88 142.18 -58.6875 142.5625 C-59.22375 142.85125 -59.76 143.14 -60.3125 143.4375 C-59.14464846 146.94105463 -58.59578066 147.14013447 -55.48828125 148.84765625 C-54.70646484 149.28013672 -53.92464844 149.71261719 -53.11914062 150.15820312 C-52.29607422 150.60099609 -51.47300781 151.04378906 -50.625 151.5 C-49.82126953 151.94666016 -49.01753906 152.39332031 -48.18945312 152.85351562 C-42.10971136 156.17922882 -36.60108292 158.36389289 -29.6875 159.25 C-26.03419014 159.89616365 -24.55838231 160.23736324 -21.625 162.625 C-19.93915221 166.23753097 -19.74865874 168.49061118 -20.3125 172.4375 C-21.875 175.3125 -21.875 175.3125 -24.3125 177.4375 C-37.85429425 180.31838652 -49.82191525 173.79380321 -61.3125 167.4375 C-62.32538086 166.87933594 -63.33826172 166.32117188 -64.38183594 165.74609375 C-90.72195578 151.18910173 -90.72195578 151.18910173 -92.6875 148.6875 C-93.62947802 145.29637913 -93.16002199 142.82758797 -92.3125 139.4375 C-89.56166572 136.16060977 -86.74148336 134.43769224 -82.890625 132.640625 C-81.86582031 132.15722656 -80.84101563 131.67382812 -79.78515625 131.17578125 C-78.18994141 130.43908203 -78.18994141 130.43908203 -76.5625 129.6875 C-75.48355469 129.18089844 -74.40460938 128.67429687 -73.29296875 128.15234375 C-70.63632028 126.90630509 -67.97620301 125.66836706 -65.3125 124.4375 C-66.79877364 120.67023672 -68.43978305 117.02890565 -70.1875 113.375 C-73.06463526 107.19762136 -75.3182575 100.94811522 -77.3125 94.4375 C-81.71617326 95.07263515 -85.39916648 96.73722668 -89.3515625 98.68359375 C-90.02627594 99.0104718 -90.70098938 99.33734985 -91.39614868 99.6741333 C-93.57979974 100.73466272 -95.75890483 101.80412713 -97.9375 102.875 C-99.43455638 103.60720622 -100.93162674 104.33938387 -102.42871094 105.0715332 C-110.50275197 109.02925746 -118.5707137 113.00334197 -126.5625 117.125 C-127.29807129 117.4974585 -128.03364258 117.86991699 -128.79150391 118.25366211 C-137.29708236 122.72464767 -142.94433348 129.45572262 -146.3125 138.4375 C-148.38170132 145.96186842 -147.60082595 153.40909725 -144.3125 160.4375 C-135.87828934 172.4267758 -122.38010122 179.80881335 -110.34841919 187.75872803 C-85.81607875 203.97919597 -85.81607875 203.97919597 -74.3125 212.4375 C-73.34054687 213.14390625 -72.36859375 213.8503125 -71.3671875 214.578125 C-51.43169473 229.69339414 -45.73057311 253.43933439 -38.95550537 276.27697754 C-37.87294136 279.91443372 -36.77357471 283.54680476 -35.67578125 287.1796875 C-33.53858481 294.26086138 -31.4195275 301.3472831 -29.3125 308.4375 C-28.68404175 308.44558685 -28.0555835 308.45367371 -27.40808105 308.46200562 C-20.78765734 308.54895932 -14.16750242 308.64848616 -7.54736328 308.75488281 C-5.08614667 308.79285164 -2.6248806 308.82775645 -0.16357422 308.859375 C29.14413805 309.24045862 58.63286124 311.1233183 81.6875 331.4375 C82.49445313 332.09105469 83.30140625 332.74460937 84.1328125 333.41796875 C98.00781871 345.06533635 106.01789591 361.52596989 111.6875 378.4375 C118.39906389 376.54141317 124.84566502 374.29919271 131.2890625 371.63671875 C132.60926895 371.09843193 132.60926895 371.09843193 133.95614624 370.54927063 C136.74339296 369.41218114 139.52810389 368.26904996 142.3125 367.125 C163.32868602 358.51165734 163.32868602 358.51165734 172.7734375 354.95703125 C173.42075836 354.71264816 174.06807922 354.46826508 174.73501587 354.21647644 C186.32290295 349.90780441 199.10690406 350.01121918 210.6875 354.4375 C211.50347656 354.74300781 212.31945312 355.04851562 213.16015625 355.36328125 C225.40705769 360.70067887 234.98195794 372.6028731 244.23734093 382.00387192 C246.06434313 383.85809597 247.8961758 385.70742466 249.72944641 387.55545044 C254.93195571 392.80016404 260.13128669 398.04792555 265.31469727 403.31152344 C268.50988968 406.55544456 271.7149449 409.78933687 274.92649269 413.01706314 C276.13691519 414.2373118 277.34369249 415.46118863 278.54654503 416.68889999 C290.83676698 429.28800399 290.83676698 429.28800399 307.375 433.75 C315.50785128 433.65417848 322.0202566 430.1047434 327.6875 424.4375 C332.41548354 417.70921574 333.4044037 411.48797242 332.6875 403.4375 C330.58729487 395.02548026 325.83297781 389.7244772 319.77905273 383.76855469 C318.87930222 382.85989655 317.9795517 381.9512384 317.05253601 381.01504517 C314.60303584 378.54263232 312.13524496 376.08929407 309.66283679 373.63981533 C307.06413993 371.06016984 304.48065047 368.46536504 301.89479065 365.87286377 C297.55001763 361.52176683 293.19315613 357.1830686 288.82885742 352.8515625 C283.80338109 347.86353879 278.79778862 342.85621972 273.80240673 337.83807063 C268.97331335 332.98792888 264.13008717 328.15213473 259.28050423 323.32248688 C257.22789815 321.27780937 255.18028089 319.22832757 253.13668633 317.17464447 C250.27271736 314.29803335 247.38836703 311.44270944 244.50170898 308.58886719 C243.66857178 307.74717987 242.83543457 306.90549255 241.97705078 306.03829956 C232.3817457 296.62937146 221.65452045 290.88393563 208.05496216 290.73587036 C196.17591451 291.15004174 184.69525325 295.93953036 173.51556396 299.66503906 C170.24773654 300.74835771 166.97115845 301.80451344 163.6953125 302.86328125 C152.08332202 306.61874296 152.08332202 306.61874296 140.525177 310.53543091 C136.28711773 311.88266749 133.18314912 311.9940206 129 310.4375 C122.56110561 304.86872647 121.32269107 292.21611319 119.125 284.14453125 C118.68832293 282.5503609 118.25138794 280.95626118 117.81420898 279.36222839 C116.90078201 276.02850681 115.98994344 272.6940925 115.08105469 269.35913086 C113.92555725 265.11980716 112.76446211 260.88204233 111.60148621 256.6447649 C110.69863056 253.35328657 109.7983991 250.06109489 108.8989563 246.76868248 C108.47231508 245.20785201 108.04498732 243.64720901 107.61691284 242.08677101 C105.62815879 234.83107749 103.67050598 227.56777079 101.87890625 220.26049805 C101.6372876 219.27800583 101.39566895 218.29551361 101.14672852 217.2832489 C99.72950145 208.50097118 102.63943343 201.28268132 107.5703125 194.15234375 C110.56893298 190.30724922 113.80937696 186.73840426 117.1484375 183.1875 C119.61427 180.51681372 121.91038804 177.76980887 124.1875 174.9375 C128.02469031 170.18154581 132.08135101 165.68245199 136.21875 161.1875 C139.4134231 157.6288768 142.39682283 153.91989889 145.39453125 150.1953125 C147.79679147 147.30605233 150.31376233 144.56133206 152.875 141.8125 C161.15170949 132.76466851 167.48899432 123.69184096 167.03515625 110.984375 C165.84782467 102.28617063 161.57313986 95.62682203 155.015625 90.00390625 C143.91874125 82.0132015 125.75196091 81.88371365 112.59863281 79.79321289 C109.1662874 79.24662196 105.73547996 78.69101131 102.3046875 78.13476562 C100.10946156 77.78331305 97.91415194 77.43238271 95.71875 77.08203125 C94.69994751 76.91645218 93.68114502 76.75087311 92.63146973 76.58027649 C87.93672486 75.84081508 83.45859067 75.22526108 78.6875 75.4375 Z M-135 200.6875 C-141.86367599 207.64975661 -146.16310889 216.72155331 -147.3125 226.4375 C-147.395 227.08332031 -147.4775 227.72914063 -147.5625 228.39453125 C-148.40540633 242.17078153 -141.98491891 257.00680141 -137.375 269.75 C-136.79272555 271.38084253 -136.21120114 273.01195302 -135.63037109 274.64331055 C-134.14824751 278.79820206 -132.65498944 282.94897826 -131.15692139 287.09814453 C-130.37274468 289.27060025 -129.59044125 291.44371711 -128.80908203 293.6171875 C-126.57381151 299.83356468 -124.33064265 306.04703644 -122.07977295 312.25778198 C-117.37513426 325.24092808 -112.71068991 338.2384637 -108.04471493 351.23553848 C-106.2687985 356.18174987 -104.49081787 361.12721577 -102.71166992 366.07226562 C-102.21408499 367.45538297 -101.71650096 368.83850065 -101.21891785 370.22161865 C-100.48671164 372.25691192 -99.75449283 374.29220064 -99.02219582 376.32746124 C-96.42205887 383.55478854 -93.82826737 390.7842512 -91.25816345 398.02232361 C-90.16557978 401.09718428 -89.06674761 404.16978399 -87.96633911 407.24185181 C-87.28355159 409.1559432 -86.61015778 411.07337777 -85.93725586 412.9909668 C-79.88306565 429.84766055 -71.75904962 441.28866746 -56.3125 450.4375 C-44.87773485 455.77873898 -32.79096183 456.93712909 -20.375 457.9375 C-19.61162323 458.00064392 -18.84824646 458.06378784 -18.06173706 458.12884521 C102.25473611 469.23113151 102.25473611 469.23113151 237 443.5546875 C243.59528818 437.37160483 247.2332229 431.059755 247.77734375 421.94921875 C247.47953792 413.62360359 243.54565937 408.05718562 237.6875 402.4375 C236.48521043 401.39986189 235.28048555 400.36504309 234.07421875 399.33203125 C228.05753232 394.11354049 222.61281806 388.30607092 217.109375 382.55664062 C210.01400008 375.31435227 203.32776379 370.53242035 192.9375 370 C187.98994339 370.08511833 183.91175326 371.22549506 179.35546875 373.03125 C178.66343857 373.29833267 177.97140839 373.56541534 177.25840759 373.84059143 C169.37589061 376.90364059 161.55954634 380.13150108 153.75 383.375 C152.32887715 383.96313499 150.90765323 384.55102583 149.48632812 385.13867188 C146.66374227 386.30596667 143.84169549 387.47455057 141.02001953 388.64404297 C133.91428881 391.58757463 126.80049142 394.51156889 119.6875 397.4375 C120.38249362 403.02625262 120.38249362 403.02625262 122.1328125 408.33984375 C122.40480469 409.00306641 122.67679688 409.66628906 122.95703125 410.34960938 C123.52713646 411.69937902 124.1052764 413.04578325 124.69140625 414.38867188 C126.77874938 419.53711869 126.88711833 422.98680702 125.6875 428.4375 C123.6875 431 123.6875 431 120.6875 432.4375 C117.53227062 432.65338412 114.67302332 432.51094659 111.6875 431.4375 C109.214005 428.60219944 107.93083171 425.84210164 106.69799805 422.30859375 C106.3371965 421.28652832 105.97639496 420.26446289 105.60466003 419.21142578 C105.0327166 417.55989502 105.0327166 417.55989502 104.44921875 415.875 C104.04596878 414.73272949 103.64271881 413.59045898 103.22724915 412.41357422 C101.50507091 407.5351673 99.79891805 402.65120861 98.09301758 397.76708984 C96.84322001 394.19658266 95.58398088 390.62950133 94.32421875 387.0625 C93.94899582 385.97767334 93.57377289 384.89284668 93.18717957 383.77514648 C89.24704444 372.63039034 84.55200505 362.35601088 76.6875 353.4375 C76.03136719 352.68726563 75.37523437 351.93703125 74.69921875 351.1640625 C62.13321137 337.70212407 44.46667873 330.31214052 26.19332886 329.23071289 C22.24322115 329.12885719 18.29487363 329.08260517 14.34375 329.05859375 C12.88365625 329.04236686 11.42357288 329.02518172 9.96350098 329.00709534 C6.1472866 328.96178476 2.33105689 328.92680152 -1.48529053 328.89489746 C-7.59063414 328.84269725 -13.69582197 328.77707718 -19.80097961 328.70668221 C-21.91169896 328.68420139 -24.02239987 328.66770691 -26.13317871 328.65196228 C-48.18772485 328.42399314 -48.18772485 328.42399314 -52.3125 324.4375 C-53.93829696 317.71753923 -53.93829696 317.71753923 -51.9375 313.625 C-51.40125 312.903125 -50.865 312.18125 -50.3125 311.4375 C-49.1220199 307.86605969 -49.58843944 306.71561974 -50.6484375 303.16259766 C-50.96627197 302.08362213 -51.28410645 301.00464661 -51.61157227 299.89297485 C-52.14415649 298.13997574 -52.14415649 298.13997574 -52.6875 296.3515625 C-53.049646 295.14366058 -53.41179199 293.93575867 -53.78491211 292.69125366 C-54.55737206 290.12585764 -55.33358146 287.56193847 -56.11572266 284.99951172 C-57.10490503 281.75564486 -58.07348863 278.50605914 -59.03619385 275.25425148 C-59.96937761 272.116059 -60.92346846 268.98423134 -61.875 265.8515625 C-62.2138623 264.70313873 -62.55272461 263.55471497 -62.90185547 262.37149048 C-70.49450089 237.79324313 -85.85318838 227.16986917 -106.3125 213.4375 C-107.44096663 212.67642015 -108.56921899 211.91502253 -109.69726562 211.15332031 C-115.04486585 207.54398375 -120.40130183 203.94772664 -125.7734375 200.375 C-127.05420166 199.52228516 -127.05420166 199.52228516 -128.36083984 198.65234375 C-131.70946745 196.56793407 -132.26270586 198.12226435 -135 200.6875 Z " fill="currentColor" transform="translate(536.3125,345.5625)"/>
<path d="M0 0 C3.31541064 2.39838216 4.68360676 4.07059486 6 7.9375 C6 14.96773231 1.18722331 19.17495743 -3.46273804 23.87957764 C-4.32839386 24.73916077 -5.19404968 25.5987439 -6.0859375 26.484375 C-6.97987213 27.38117981 -7.87380676 28.27798462 -8.79483032 29.20196533 C-10.68255948 31.09173217 -12.57300998 32.97819145 -14.46875 34.85986328 C-16.89212058 37.26611837 -19.30173844 39.68562679 -21.70757103 42.1094017 C-24.01390027 44.42920341 -26.33165743 46.73751759 -28.6484375 49.046875 C-29.51004486 49.91455505 -30.37165222 50.78223511 -31.2593689 51.6762085 C-32.070159 52.47754211 -32.8809491 53.27887573 -33.71630859 54.10449219 C-34.42451752 54.81031433 -35.13272644 55.51613647 -35.86239624 56.24334717 C-39.10818069 58.91068737 -41.80331869 60 -46 60 C-50.19256285 58.60247905 -51.66418128 56.70982973 -54 53 C-54.75 49.625 -54.75 49.625 -54 46 C-49.53390984 39.83178736 -43.6710731 34.5240656 -38.29296875 29.16015625 C-37.08306023 27.94881264 -37.08306023 27.94881264 -35.84870911 26.71299744 C-34.15826114 25.02187355 -32.46656805 23.33199344 -30.77368164 21.64331055 C-28.1741252 19.04915298 -25.58000325 16.44964575 -22.98632812 13.84960938 C-21.33886258 12.20280389 -19.69108726 10.55630824 -18.04296875 8.91015625 C-17.26592087 8.13108414 -16.48887299 7.35201202 -15.6882782 6.54933167 C-14.61124382 5.47702553 -14.61124382 5.47702553 -13.51245117 4.38305664 C-12.8807048 3.75210587 -12.24895844 3.12115509 -11.59806824 2.47108459 C-8.22469892 -0.63423439 -4.37794032 -0.73804358 0 0 Z " fill="currentColor" transform="translate(857,350)"/>
<path d="M0 0 C2.49507313 3.52245619 2.7151453 5.52025311 2.7890625 9.71875 C1.81133978 13.07751511 -0.09263997 15.01176863 -2.875 17 C-6.2812361 18.45036429 -9.78856884 19.38618098 -13.36328125 20.33203125 C-14.38044724 20.6135051 -15.39761322 20.89497894 -16.44560242 21.1849823 C-18.59264418 21.77516191 -20.74195698 22.35713336 -22.89331055 22.93139648 C-26.17117262 23.80813288 -29.44012764 24.71337707 -32.70898438 25.62304688 C-34.80161665 26.1944203 -36.89470217 26.76413683 -38.98828125 27.33203125 C-39.95937332 27.60070511 -40.93046539 27.86937897 -41.9309845 28.14619446 C-47.40314135 29.59163666 -52.211041 30.50959447 -57.875 30 C-61.48891202 27.07811368 -63.61812565 24.88374526 -64.25 20.25 C-63.76029524 16.0058921 -62.11377848 13.64590209 -58.875 11 C-55.42323888 9.42069902 -51.8583242 8.5010395 -48.1875 7.5625 C-46.62443115 7.13807617 -46.62443115 7.13807617 -45.02978516 6.70507812 C-42.80715421 6.10356313 -40.5821192 5.51087341 -38.35498047 4.92626953 C-34.798346 3.97959694 -31.26061641 2.97892719 -27.72265625 1.96484375 C-25.39868921 1.30900325 -23.07447662 0.65403211 -20.75 0 C-19.10704956 -0.47264282 -19.10704956 -0.47264282 -17.4309082 -0.95483398 C-16.39925537 -1.23786377 -15.36760254 -1.52089355 -14.3046875 -1.8125 C-13.39960449 -2.06644531 -12.49452148 -2.32039063 -11.56201172 -2.58203125 C-6.95261083 -3.29903055 -3.81645609 -2.65492597 0 0 Z " fill="currentColor" transform="translate(900.875,435)"/>
</svg>
