<?xml version="1.0" encoding="UTF-8"?>
<svg version="1.1" xmlns="http://www.w3.org/2000/svg" width="1254" height="1254" viewBox="388.09 372.64 468.72 468.72">
<path d="M0 0 C0.69754395 0.29600098 1.39508789 0.59200195 2.11376953 0.89697266 C13.43609119 5.74939622 23.73667488 11.9001532 34.00366211 18.68530273 C35.2691018 19.51866371 36.54256248 20.34007158 37.82641602 21.14477539 C40.64946172 22.93401778 41.95459586 23.91464022 43.5625 26.9375 C44 30 44 30 43 32.8125 C41 35 41 35 38.27734375 35.8984375 C33.97098302 36.03188849 31.84347127 34.30992836 28.5625 31.8125 C-13.4983909 1.88290089 -67.11042935 -8.0212361 -117.63574219 0.16333008 C-147.16925764 5.45374751 -176.77063569 17.11481464 -201 35 C-201.53077148 35.3909082 -202.06154297 35.78181641 -202.60839844 36.18457031 C-224.1986184 52.23118745 -241.13866816 71.05754538 -255.54785156 93.71777344 C-256.71001824 95.54425865 -257.89436626 97.35662298 -259.0859375 99.1640625 C-286.15286178 142.24240677 -291.15364926 198.01095754 -280.5390625 246.72265625 C-275.96371558 266.23268302 -268.21209477 285.79077823 -257.94213867 303.01635742 C-257 305 -257 305 -257 308.4375 C-258 311 -258 311 -261 313 C-263.9375 313.4375 -263.9375 313.4375 -267 313 C-293.10211883 285.49859232 -300.92440901 232.09945912 -300.18359375 195.859375 C-298.65103727 149.14019986 -283.26263487 103.682803 -254 67 C-253.236875 66.03320312 -252.47375 65.06640625 -251.6875 64.0703125 C-247.39816077 58.72312948 -242.95682384 53.73094326 -238 49 C-237.195625 48.195625 -236.39125 47.39125 -235.5625 46.5625 C-234.716875 45.716875 -233.87125 44.87125 -233 44 C-232.50886719 43.46246094 -232.01773438 42.92492187 -231.51171875 42.37109375 C-195.94944993 4.60096788 -141.0637113 -14.57581766 -90.30517578 -16.90234375 C-59.1713325 -17.82223866 -28.5994877 -12.37750482 0 0 Z " fill="currentColor" transform="translate(706,407)"/>
<path d="M0 0 C4.83739147 4.04990914 8.29541952 8.15035143 8.91015625 14.578125 C9.14757487 21.47358761 7.9515299 25.61883011 3.375 30.9375 C-1.80431781 35.3941223 -6.02815045 36.83761186 -12.78515625 36.59375 C-17.68417571 35.92742278 -21.52607224 34.20529407 -24.8828125 30.53125 C-29.21304401 24.69162351 -30.06975506 19.43859028 -29.3125 12.25 C-27.52716281 6.35328632 -24.38222664 2.62981776 -19.3125 -0.75 C-12.59435538 -3.5386638 -6.39857339 -3.3803784 0 0 Z M-15.125 12.375 C-17.63418347 15.07068624 -17.63418347 15.07068624 -17.3125 18.4375 C-16.52512767 21.54023828 -16.52512767 21.54023828 -13.3125 23.25 C-9.6744182 23.71443597 -7.95515646 23.67843764 -4.875 21.625 C-3.03196658 19.29740442 -3.03196658 19.29740442 -3.3125 16.1875 C-4.44842862 12.85070968 -5.20666181 11.84728821 -8.3125 10.25 C-12.36809214 9.84811127 -12.36809214 9.84811127 -15.125 12.375 Z " fill="currentColor" transform="translate(785.3125,448.75)"/>
<path d="M0 0 C3.2843243 0.48915468 3.97045906 0.87009418 5.9375 3.4375 C6.31354749 5.4737711 6.31354749 5.4737711 6.31502342 7.85877991 C6.32284666 8.76858581 6.33066991 9.6783917 6.33873022 10.61576748 C6.33203805 11.61662915 6.32534589 12.61749083 6.31845093 13.64868164 C6.3231309 14.71085183 6.32781087 15.77302202 6.33263266 16.86737919 C6.34464622 20.44426336 6.33510044 24.02076889 6.32568359 27.59765625 C6.32974646 30.15477727 6.33508673 32.71189653 6.34161377 35.26901245 C6.35390131 41.50409792 6.35206409 47.73904202 6.34337585 53.97412944 C6.33660794 59.04030799 6.3356787 64.10645617 6.3389473 69.17263794 C6.339407 69.89295922 6.33986669 70.61328051 6.34034032 71.35542971 C6.34129947 72.81862792 6.34227211 74.28182613 6.3432581 75.74502432 C6.35181814 89.47394757 6.34196825 103.20281079 6.325857 116.93172419 C6.31245325 128.71851027 6.31478117 140.50520771 6.32861328 152.29199219 C6.34465828 165.97090204 6.35099411 179.64975923 6.34177649 193.32867718 C6.34082082 194.78657213 6.3398777 196.24446709 6.3389473 197.70236206 C6.33848447 198.41972363 6.33802164 199.1370852 6.33754479 199.876185 C6.33495165 204.93782472 6.33933286 209.99943111 6.34638596 215.06106567 C6.35566548 221.87033822 6.34908385 228.67941705 6.33170319 235.48868179 C6.32772368 237.99333542 6.32889721 240.4980031 6.33549118 243.00265121 C6.34363889 246.41073357 6.33346694 249.81827111 6.31845093 253.22631836 C6.32514309 254.22718003 6.33183526 255.22804171 6.33873022 256.25923252 C6.32699535 257.62394137 6.32699535 257.62394137 6.31502342 259.01622009 C6.31429284 260.19679945 6.31429284 260.19679945 6.31354749 261.4012289 C5.83345087 264.00091884 5.04881994 264.87935893 2.9375 266.4375 C-0.5625 266.875 -0.5625 266.875 -4.0625 266.4375 C-6.23818849 264.27982408 -6.99546596 262.9148556 -7.42326355 259.86846924 C-7.41660172 258.90028259 -7.40993988 257.93209595 -7.40307617 256.93457031 C-7.40284958 255.83373108 -7.40262299 254.73289185 -7.40238953 253.59869385 C-7.38690567 252.41628113 -7.37142181 251.23386841 -7.35546875 250.015625 C-7.35122391 248.80050232 -7.34697906 247.58537964 -7.34260559 246.33343506 C-7.32580876 242.45123161 -7.28815338 238.56954664 -7.25 234.6875 C-7.23495452 232.05599708 -7.22126588 229.42448602 -7.20898438 226.79296875 C-7.17590185 220.34096883 -7.12569179 213.88927146 -7.0625 207.4375 C-7.88361267 207.44438843 -8.70472534 207.45127686 -9.55072021 207.45837402 C-10.6293634 207.46373169 -11.70800659 207.46908936 -12.81933594 207.47460938 C-14.42225494 207.48494202 -14.42225494 207.48494202 -16.05755615 207.4954834 C-33.85534673 207.15205722 -50.13254792 196.82559156 -62.0625 184.4375 C-62.72636719 183.79296875 -63.39023437 183.1484375 -64.07421875 182.484375 C-74.82260793 171.37368057 -81.06314784 154.67762048 -82.0625 139.4375 C-82.1140625 138.65761719 -82.165625 137.87773438 -82.21875 137.07421875 C-82.97046624 115.93219946 -74.82568562 96.22412346 -60.59863281 80.79248047 C-48.17276858 68.04532962 -31.43663776 61.81725384 -14.0625 59.4375 C-11.72924272 59.41866118 -9.3957356 59.41614355 -7.0625 59.4375 C-7.07138245 58.75733826 -7.08026489 58.07717651 -7.0894165 57.37640381 C-7.17783918 50.30391841 -7.23821351 43.23158975 -7.28222656 36.15869141 C-7.30235475 33.51832706 -7.32965987 30.87800735 -7.36425781 28.23779297 C-7.4127205 24.44487499 -7.4354572 20.65254584 -7.453125 16.859375 C-7.47377014 15.67696228 -7.49441528 14.49454956 -7.51568604 13.27630615 C-7.51613922 11.6250473 -7.51613922 11.6250473 -7.51660156 9.94042969 C-7.52548401 8.97224304 -7.53436646 8.0040564 -7.54351807 7.00653076 C-6.7088058 2.54848304 -4.39786861 0.62826694 0 0 Z M-51.4375 90.25 C-62.68575081 102.18214446 -68.64186852 117.43782463 -69.375 133.75 C-68.79862254 150.61662468 -62.51019558 166.02643586 -50.70703125 178.1015625 C-46.48598184 181.83005223 -41.98202038 184.7209721 -37.0625 187.4375 C-36.38574219 187.83582031 -35.70898438 188.23414063 -35.01171875 188.64453125 C-26.03480048 193.60692706 -17.23595997 194.4375 -7.0625 194.4375 C-7.0625 154.1775 -7.0625 113.9175 -7.0625 72.4375 C-23.55022126 72.4375 -39.5565667 78.90344151 -51.4375 90.25 Z " fill="currentColor" transform="translate(623.0625,473.5625)"/>
<path d="M0 0 C5.14601128 2.16132474 6.65635113 6.4938873 9.125 11.3125 C9.74375 12.46234375 10.3625 13.6121875 11 14.796875 C33.41073581 57.19033254 39.85944765 105.20886385 32.125 152.3125 C31.99641602 153.12557617 31.86783203 153.93865234 31.73535156 154.77636719 C25.22101389 194.5088542 4.79981888 234.05084222 -23.38525391 262.78759766 C-25.03943642 264.48081693 -26.6649316 266.19961054 -28.29296875 267.91796875 C-40.67870055 280.82011754 -54.4062777 291.35489618 -69.875 300.3125 C-70.89980469 300.94285156 -71.92460938 301.57320312 -72.98046875 302.22265625 C-119.37552218 330.10403245 -177.28086872 338.02093576 -229.74365234 325.63525391 C-254.59541998 319.33669846 -277.41298962 309.30922585 -298.875 295.3125 C-299.90882813 294.64863281 -300.94265625 293.98476563 -302.0078125 293.30078125 C-307.64631482 289.36797007 -307.64631482 289.36797007 -308.6875 284.5625 C-307.875 281.3125 -307.875 281.3125 -306.25 279.3125 C-302.9525884 277.92411617 -301.34464558 278.40156621 -297.875 279.3125 C-295.09565214 280.80776552 -292.53302401 282.58377314 -289.9375 284.375 C-248.1992456 312.11375389 -194.75162316 323.64074871 -145.28613281 313.80859375 C-144.49045898 313.64488281 -143.69478516 313.48117187 -142.875 313.3125 C-142.03291992 313.14621094 -141.19083984 312.97992187 -140.32324219 312.80859375 C-106.19827838 305.91981601 -73.94775162 290.53870121 -47.875 267.3125 C-46.40546875 266.02279297 -46.40546875 266.02279297 -44.90625 264.70703125 C-7.17691408 231.17515113 15.98876882 182.25000743 20.8125 132.1875 C23.21442172 91.04820247 15.94661793 47.05102802 -6.53222656 11.70678711 C-7.875 9.3125 -7.875 9.3125 -7.8125 6.1875 C-6.875 3.3125 -6.875 3.3125 -5.1875 1.375 C-2.875 0.3125 -2.875 0.3125 0 0 Z " fill="currentColor" transform="translate(803.875,492.6875)"/>
<path d="M0 0 C2.89013672 2.11376953 2.89013672 2.11376953 5.6796875 4.8828125 C6.17792023 5.37530487 6.67615295 5.86779724 7.18948364 6.37521362 C8.23364132 7.41530787 9.2703387 8.46294024 10.29980469 9.51757812 C11.87103222 11.12095105 13.47173259 12.68976116 15.078125 14.2578125 C16.09307505 15.27672775 17.1061621 16.29750287 18.1171875 17.3203125 C19.03097168 18.24086426 19.94475586 19.16141602 20.88623047 20.10986328 C23.38668551 23.52871137 23.9209261 25.79040465 24 30 C21.875 32.5 21.875 32.5 19 34 C14.99516531 33.66519067 12.91280457 32.45139133 10 29.75 C9.360625 29.16734375 8.72125 28.5846875 8.0625 27.984375 C6.56164621 26.54037174 5.07967347 25.07666586 3.609375 23.6015625 C1.81986779 21.81741309 -0.00547197 20.06870219 -1.859375 18.3515625 C-2.81328125 17.45179688 -3.7671875 16.55203125 -4.75 15.625 C-5.71421875 14.73039063 -6.6784375 13.83578125 -7.671875 12.9140625 C-10.41287011 9.48321963 -10.89713456 7.3512082 -11 3 C-8.05830097 -1.90283172 -5.16657799 -1.25566602 0 0 Z " fill="currentColor" transform="translate(530,513)"/>
<path d="M0 0 C16.72183033 14.65669862 28.30721702 36.71663587 30.27734375 58.99609375 C31.84068962 87.68379469 25.46248317 112.96015048 6.27734375 134.99609375 C5.75914062 135.6096875 5.2409375 136.22328125 4.70703125 136.85546875 C-7.15307166 149.8479433 -26.02839114 157.90025486 -43.31665039 159.28369141 C-46.95682526 159.39500274 -50.58107908 159.40618389 -54.22265625 159.37109375 C-55.45757813 159.38269531 -56.6925 159.39429688 -57.96484375 159.40625 C-59.15335938 159.40238281 -60.341875 159.39851562 -61.56640625 159.39453125 C-62.63052734 159.39114746 -63.69464844 159.38776367 -64.79101562 159.38427734 C-68.13691345 158.94124124 -70.02976619 158.00368555 -72.72265625 155.99609375 C-73.72265625 153.62109375 -73.72265625 153.62109375 -73.72265625 150.99609375 C-71.80587221 147.2656438 -69.52570801 144.65348289 -66.47265625 141.80859375 C-47.40173076 123.0149515 -39.22155203 95.56571084 -38.71142578 69.37207031 C-38.84834543 40.40463428 -50.54144357 14.05234964 -70.99609375 -6.26171875 C-72.97193165 -8.25543754 -73.63753306 -9.19484091 -73.72265625 -12.00390625 C-71.46111779 -16.63467548 -71.46111779 -16.63467548 -68.72265625 -18.00390625 C-44.10147117 -21.90667727 -19.1959754 -16.04213426 0 0 Z M-51.72265625 -6.00390625 C-50.31050551 -2.96024154 -48.61085157 -0.43192421 -46.59765625 2.24609375 C-28.01226049 28.67522203 -22.70556127 60.70472414 -27.625 92.2265625 C-30.85497869 110.54828498 -38.39671849 129.24668869 -50.5078125 143.52734375 C-51.82888258 144.80684474 -51.82888258 144.80684474 -51.72265625 145.99609375 C-36.09929622 146.79050189 -20.63801325 141.2202631 -8.73876953 131.06420898 C7.37613506 116.38952534 16.35386724 96.55122146 17.53515625 74.87109375 C18.3046595 53.30837755 12.18055216 32.0200719 -2.72265625 15.99609375 C-3.55023437 15.05056641 -3.55023437 15.05056641 -4.39453125 14.0859375 C-16.69820761 0.75695478 -34.16414413 -4.77739254 -51.72265625 -6.00390625 Z " fill="currentColor" transform="translate(732.72265625,537.00390625)"/>
<path d="M0 0 C0.87648193 -0.00524185 1.75296387 -0.0104837 2.65600586 -0.0158844 C4.50861553 -0.02230619 6.36126596 -0.02096555 8.21386719 -0.01245117 C11.05216841 -0.00393724 13.88846001 -0.03270536 16.7265625 -0.06445312 C18.52604106 -0.06606509 20.3255232 -0.06548769 22.125 -0.0625 C23.40008423 -0.07935097 23.40008423 -0.07935097 24.70092773 -0.09654236 C30.53463817 -0.02734987 30.53463817 -0.02734987 33.12890625 2.23803711 C34.55118654 5.58285056 33.95782735 7.98018825 33.0625 11.43359375 C29.22292778 13.99330856 26.05004434 13.73942739 21.59765625 13.734375 C20.35307899 13.74080269 20.35307899 13.74080269 19.08335876 13.74736023 C17.32910067 13.75310128 15.57481877 13.75360544 13.82055664 13.74926758 C11.13842074 13.74610955 8.45738999 13.76956193 5.77539062 13.79492188 C4.07031389 13.79719511 2.36523419 13.79789825 0.66015625 13.796875 C-0.14099106 13.80608475 -0.94213837 13.81529449 -1.76756287 13.82478333 C-5.04714756 13.79757534 -7.51062982 13.65535366 -10.44750977 12.12963867 C-11.9375 10.43359375 -11.9375 10.43359375 -12.375 6.93359375 C-11.9375 3.43359375 -11.9375 3.43359375 -10.65795898 1.74009705 C-7.5929114 -0.58747647 -3.70381317 -0.01279099 0 0 Z " fill="currentColor" transform="translate(493.9375,600.56640625)"/>
<path d="M0 0 C2 2 2 2 2.41918945 4.79418945 C1.86512598 9.03146809 0.34486854 10.34731202 -2.70703125 13.29296875 C-3.4288282 14.00203117 -3.4288282 14.00203117 -4.16520691 14.72541809 C-5.70074861 16.22750586 -7.25579387 17.70738872 -8.8125 19.1875 C-9.8483734 20.19325421 -10.88289463 21.20040307 -11.91601562 22.20898438 C-13.81589746 24.05996295 -15.72427269 25.90023487 -17.63989258 27.73510742 C-19.00769794 29.04773082 -20.36055088 30.37709523 -21.6706543 31.74731445 C-23.71769398 33.6763063 -25.21322793 33.93364828 -28 34 C-30.875 32.5 -30.875 32.5 -33 30 C-32.90757599 24.02029929 -31.153809 21.42109752 -26.94140625 17.3203125 C-26.43705551 16.82207977 -25.93270477 16.32384705 -25.41307068 15.81051636 C-23.80980385 14.23403597 -22.18662253 12.67995453 -20.5625 11.125 C-19.47459349 10.05863459 -18.38799023 8.99093789 -17.30273438 7.921875 C-7.67037477 -1.50668076 -7.67037477 -1.50668076 0 0 Z " fill="currentColor" transform="translate(552,669)"/>
<path d="M0 0 C5.17579486 3.73138699 8.63599014 7.45239097 10.25 13.75 C11.05369096 19.3166174 10.31732888 23.95334813 7.6875 28.9375 C3.58280123 34.23736166 -1.16507472 36.98432596 -7.7890625 37.921875 C-13.23081821 37.95557008 -17.49132237 35.98973597 -22.125 33.3125 C-26.10169802 28.99494215 -28.03801911 24.17255867 -28.75 18.375 C-27.75052572 10.52198782 -25.37095634 6.37436048 -19.25 1.28515625 C-13.82188308 -2.49044927 -6.05199661 -1.94120646 0 0 Z M-13 12.5625 C-15.56557173 14.75896475 -15.56557173 14.75896475 -15.875 17.9375 C-15.18887987 21.59680734 -14.34497414 22.80657223 -11.3125 24.9375 C-8.8125 25.60416667 -8.8125 25.60416667 -6.3125 24.9375 C-3.28002586 22.80657223 -2.43612013 21.59680734 -1.75 17.9375 C-2.05942827 14.75896475 -2.05942827 14.75896475 -4.625 12.5625 C-8.20759125 10.39628203 -9.41740875 10.39628203 -13 12.5625 Z " fill="currentColor" transform="translate(479.3125,730.0625)"/>
</svg>
