<?xml version="1.0" encoding="UTF-8"?>
<svg version="1.1" xmlns="http://www.w3.org/2000/svg" width="1254" height="1254" viewBox="385.22 377.72 482.85 482.85">
<path d="M0 0 C1.31004334 -0.00382555 2.62008668 -0.00765109 3.96982831 -0.01159257 C7.58626245 -0.02183736 11.20259706 -0.01969977 14.81903923 -0.01541197 C18.72713331 -0.01293831 22.63520382 -0.02196688 26.54328918 -0.02944946 C34.19225812 -0.04218101 41.84119193 -0.04399206 49.49016968 -0.0416492 C55.70982196 -0.03986405 61.9294636 -0.04161991 68.14911461 -0.04587364 C69.03532148 -0.04646883 69.92152836 -0.04706402 70.83458998 -0.04767724 C72.6351044 -0.04888904 74.43561882 -0.05010317 76.23613324 -0.05131962 C93.11140185 -0.06218935 109.98665047 -0.06003544 126.8619202 -0.05393478 C142.28563186 -0.04876691 157.70928033 -0.06001863 173.13297949 -0.07903299 C188.98514229 -0.09842514 204.83727523 -0.10666493 220.68944997 -0.10290974 C229.58315211 -0.10099969 238.47680049 -0.10346612 247.37049294 -0.11762428 C254.9424114 -0.12955665 262.51424302 -0.13092225 270.08616272 -0.11883412 C273.94590123 -0.11295825 277.80548102 -0.11180998 281.66520882 -0.12383652 C285.85798545 -0.13674845 290.05038672 -0.12620015 294.24316406 -0.11352539 C296.0550159 -0.12458682 296.0550159 -0.12458682 297.90347081 -0.13587171 C314.4128657 -0.03118682 328.38994482 5.37633076 340.8120575 16.26069641 C341.42694031 16.79307922 342.04182312 17.32546204 342.67533875 17.87397766 C353.13512149 27.59160287 360.02330665 41.82763673 361.00759697 56.09506989 C361.09193518 59.35174384 361.11656668 62.60350919 361.11845398 65.86128235 C361.1267775 67.09326859 361.13510101 68.32525482 361.14367676 69.59457397 C361.16353834 72.94764549 361.17439611 76.30046984 361.1795032 79.65357876 C361.18316229 81.75140123 361.18940982 83.84920036 361.19650459 85.94701385 C361.2209267 93.27310218 361.2340383 100.59912025 361.2375946 107.92524719 C361.24123935 114.74481724 361.27121971 121.56393992 361.31299919 128.38337302 C361.34768834 134.25196485 361.36314268 140.12040798 361.36384064 145.98910165 C361.36463298 149.48867311 361.37335366 152.98778623 361.4018383 156.48725128 C361.43285841 160.38424114 361.42396598 164.28058348 361.41142273 168.1776886 C361.43367416 169.91083061 361.43367416 169.91083061 361.45637512 171.6789856 C361.376449 180.37642319 361.376449 180.37642319 358.39178467 183.4533844 C354.38467409 186.26069641 354.38467409 186.26069641 351.8120575 186.26069641 C345.31952018 184.02189044 345.31952018 184.02189044 342.8120575 180.26069641 C342.56151772 178.0069294 342.56151772 178.0069294 342.5605011 175.31785583 C342.55242683 173.78743904 342.55242683 173.78743904 342.54418945 172.22610474 C342.54831345 171.10717331 342.55243744 169.98824188 342.5566864 168.83540344 C342.55125572 167.06653526 342.55125572 167.06653526 342.54571533 165.26193237 C342.53700486 162.02370069 342.53680935 158.78558464 342.53906679 155.54734659 C342.53831835 152.14877144 342.52324639 148.75026975 342.50868225 145.35173035 C342.46170789 133.77714177 342.43774773 122.20256355 342.43119812 110.62788391 C342.42742864 104.23612632 342.40924213 97.84456348 342.37610376 91.45288932 C342.35930764 88.07601738 342.34999624 84.69949938 342.35904312 81.32258987 C342.36616171 77.54141082 342.34872886 73.76103776 342.32621765 69.97993469 C342.33439011 68.88124557 342.34256256 67.78255646 342.35098267 66.65057373 C342.21907591 54.10340259 338.56055113 41.69276591 329.9995575 32.26460266 C319.46166613 22.38532951 307.90031641 19.95761615 293.94055176 19.99327087 C292.64038437 19.98873976 291.34021698 19.98420865 290.00065058 19.97954023 C286.40250566 19.96733456 282.80445388 19.96756782 279.20629299 19.96992898 C275.3213368 19.97033777 271.43641022 19.959292 267.5514679 19.94981384 C259.94367142 19.93321569 252.33590595 19.92770481 244.72809289 19.92658909 C238.54176374 19.92563795 232.3554448 19.92152437 226.16911888 19.91518784 C208.61858713 19.89757784 191.06807983 19.88834846 173.51753918 19.88984878 C172.5717981 19.8899287 171.62605701 19.89000861 170.6516571 19.89009094 C169.70475723 19.8901727 168.75785735 19.89025447 167.78226354 19.8903387 C152.44247258 19.8911513 137.10277988 19.87201966 121.76301733 19.84381421 C106.00131782 19.81506234 90.23966618 19.80127522 74.47793978 19.80300176 C65.63337122 19.80366492 56.78890563 19.79820537 47.94436073 19.77664566 C40.41263421 19.75840343 32.88105734 19.75411136 25.34931824 19.76766451 C21.50979797 19.77417917 17.67056455 19.77436622 13.83107185 19.75695801 C9.65999305 19.73824172 5.48957379 19.75082101 1.31848145 19.76622009 C0.11699787 19.75593297 -1.0844857 19.74564584 -2.32237786 19.73504698 C-15.76384495 19.84437793 -25.63739167 23.78505183 -35.1566925 33.20991516 C-45.84786737 44.73916941 -47.34345959 57.87396952 -47.31391907 73.01338196 C-47.3157872 74.1671936 -47.31765533 75.32100525 -47.31958008 76.50978088 C-47.32356971 79.00386012 -47.32565759 81.49794298 -47.32604218 83.99202538 C-47.32991306 89.9782966 -47.35599329 95.96447517 -47.37925863 101.95069468 C-47.41429628 111.1273677 -47.44091347 120.30392145 -47.43843079 129.48066711 C-47.43667235 136.35002382 -47.46092959 143.2189181 -47.50031281 150.08815956 C-47.51079127 152.70483693 -47.51228337 155.32156615 -47.50466156 157.9382534 C-47.49507601 161.59140043 -47.51615287 165.24317184 -47.54438782 168.89619446 C-47.53419113 169.9783876 -47.52399445 171.06058075 -47.51348877 172.17556763 C-47.61531919 179.50698756 -47.61531919 179.50698756 -50.59706116 183.43167114 C-54.60272111 186.25945532 -56.37287053 185.94856384 -61.1879425 185.26069641 C-63.61913873 183.39054547 -64.82863423 181.97931296 -66.1879425 179.26069641 C-66.2870079 177.64286714 -66.32300142 176.02099704 -66.3283844 174.40014648 C-66.33409454 173.37282913 -66.33980469 172.34551178 -66.34568787 171.2870636 C-66.34680573 170.15518616 -66.34792358 169.02330872 -66.34907532 167.85713196 C-66.35404022 166.66827896 -66.35900513 165.47942596 -66.36412048 164.25454712 C-66.37624723 160.98529611 -66.3836937 157.7160809 -66.38813114 154.44681144 C-66.39106371 152.40006278 -66.39516918 150.35331971 -66.39963531 148.30657387 C-66.41332259 141.8913134 -66.42297948 135.47606573 -66.42683721 129.06079167 C-66.43130127 121.67870452 -66.44876652 114.29680408 -66.4778378 106.91477364 C-66.49956289 101.19737621 -66.50954745 95.48003083 -66.51087832 89.76259261 C-66.51191997 86.35443909 -66.51768767 82.94646075 -66.53569794 79.53835106 C-66.55288203 75.72129381 -66.55084701 71.90468166 -66.54438782 68.08760071 C-66.5536026 66.97798981 -66.56281738 65.86837891 -66.5723114 64.72514343 C-66.47947046 47.08209036 -60.47477078 31.09118966 -48.1879425 18.26069641 C-34.40252805 4.80826298 -18.87679706 -0.05873696 0 0 Z " fill="currentColor" transform="translate(479.1879425048828,395.7393035888672)"/>
<path d="M0 0 C8.81270878 1.79241535 15.96131371 11.8917971 22.09375 18.05859375 C23.06858645 19.0353001 24.04364749 20.01178234 25.0189209 20.98805237 C27.55936301 23.53227461 30.09678509 26.07948736 32.63354492 28.62738037 C35.23301127 31.23715882 37.83538494 33.84403482 40.4375 36.45117188 C45.52364918 41.54797872 50.6066047 46.64795508 55.6875 51.75 C55.70208252 51.10973877 55.71666504 50.46947754 55.73168945 49.80981445 C55.80641382 46.89345169 55.90299293 43.97820313 56 41.0625 C56.02255859 40.05509766 56.04511719 39.04769531 56.06835938 38.00976562 C56.41565775 28.44327392 56.41565775 28.44327392 59.6875 24.75 C63.30373139 23.2097533 65.57556222 22.49728687 69.4375 23.375 C71.98935956 24.93446973 73.11134728 26.21797369 74.6875 28.75 C75.07518005 31.0955658 75.07518005 31.0955658 75.09155273 33.71459961 C75.10423691 34.69919662 75.11692108 35.68379364 75.12998962 36.69822693 C75.12705399 37.75558548 75.12411835 38.81294403 75.12109375 39.90234375 C75.1263356 40.99462784 75.13157745 42.08691193 75.13697815 43.21229553 C75.14339901 45.52132314 75.14206055 47.83038346 75.13354492 50.1394043 C75.12503973 53.6710034 75.15378977 57.20098277 75.18554688 60.73242188 C75.18715909 62.97656202 75.18658096 65.22070502 75.18359375 67.46484375 C75.19482773 68.52017807 75.20606171 69.57551239 75.21763611 70.66282654 C75.14829048 77.96444102 75.14829048 77.96444102 72.84399414 81.89282227 C69.68951455 84.60946737 67.12559534 84.87743156 63.11181641 84.91113281 C62.18720612 84.92074036 61.26259583 84.9303479 60.30996704 84.94024658 C58.81461929 84.9466214 58.81461929 84.9466214 57.2890625 84.953125 C56.2619516 84.95882507 55.2348407 84.96452515 54.17660522 84.97039795 C52.00283844 84.97984633 49.82905734 84.98638129 47.65527344 84.99023438 C44.3324279 84.99994178 41.01020041 85.03096785 37.6875 85.0625 C35.57552451 85.06903 33.46354459 85.07428049 31.3515625 85.078125 C30.35871246 85.0904718 29.36586243 85.1028186 28.34292603 85.11553955 C19.71966191 85.08773972 19.71966191 85.08773972 15.6875 81.75 C13.58648405 79.0759797 13.68903024 77.70715315 13.8125 74.25 C14.76493195 70.44027219 15.60956165 69.10371756 18.6875 66.75 C21.54256049 65.79831317 23.59687282 65.5599054 26.57421875 65.43359375 C27.51201172 65.39169922 28.44980469 65.34980469 29.41601562 65.30664062 C30.39248047 65.26732422 31.36894531 65.22800781 32.375 65.1875 C33.36306641 65.14431641 34.35113281 65.10113281 35.36914062 65.05664062 C37.80845546 64.95058346 40.24787113 64.84852286 42.6875 64.75 C42.19701172 64.3367749 41.70652344 63.9235498 41.20117188 63.49780273 C36.19263743 59.20742133 31.64619669 54.66539516 27.1875 49.8125 C19.75156034 41.81177187 12.09570702 34.05911145 4.33154297 26.37792969 C2.10864279 24.17681617 -0.10242059 21.96397726 -2.3125 19.75 C-3.22 18.8425 -4.1275 17.935 -5.0625 17 C-8.3125 13.75 -8.3125 13.75 -8.6875 10 C-8.63162628 6.54824548 -8.31971115 5.76048895 -6.25 2.75 C-3.3125 0.75 -3.3125 0.75 0 0 Z " fill="currentColor" transform="translate(480.3125,463.25)"/>
<path d="M0 0 C3.75514634 2.0408404 4.77457968 3.28395898 6.0625 7.375 C5.95279739 13.73775124 1.56497835 17.68537099 -2.76855469 21.99560547 C-3.22755661 22.45489944 -3.68655853 22.91419342 -4.1594696 23.3874054 C-5.65890742 24.8854638 -7.16527451 26.37633588 -8.671875 27.8671875 C-9.72034728 28.9119247 -10.76837521 29.957108 -11.815979 31.00271606 C-14.56026602 33.73940558 -17.31050778 36.47003257 -20.06207275 39.19940186 C-22.87446061 41.99124722 -25.6811206 44.78883805 -28.48828125 47.5859375 C-33.98662655 53.06290148 -39.49128124 58.53346762 -45 64 C-44.42556152 64.01458252 -43.85112305 64.02916504 -43.25927734 64.04418945 C-40.63054304 64.11913725 -38.00301448 64.21563994 -35.375 64.3125 C-34.47136719 64.33505859 -33.56773437 64.35761719 -32.63671875 64.38085938 C-27.39348418 64.59135419 -23.53276919 65.07985061 -19 68 C-16.61300715 71.14649057 -16.52748634 74.14113846 -17 78 C-19.15090451 81.33761045 -20.20412799 82.73470933 -24 84 C-25.52280833 84.10129018 -27.0495641 84.14831892 -28.57568359 84.16113281 C-29.50029388 84.17074036 -30.42490417 84.1803479 -31.37753296 84.19024658 C-32.87288071 84.1966214 -32.87288071 84.1966214 -34.3984375 84.203125 C-35.4255484 84.20882507 -36.4526593 84.21452515 -37.51089478 84.22039795 C-39.68466156 84.22984633 -41.85844266 84.23638129 -44.03222656 84.24023438 C-47.3550721 84.24994178 -50.67729959 84.28096785 -54 84.3125 C-56.11197549 84.31903 -58.22395541 84.32428049 -60.3359375 84.328125 C-61.32878754 84.3404718 -62.32163757 84.3528186 -63.34457397 84.36553955 C-72.07901687 84.3373813 -72.07901687 84.3373813 -76 81 C-78.14706994 77.77939509 -78.26075183 76.86621079 -78.30639648 73.14892578 C-78.32238388 72.16425323 -78.33837128 71.17958069 -78.35484314 70.16506958 C-78.36020584 69.10254974 -78.36556854 68.04002991 -78.37109375 66.9453125 C-78.38012222 65.85161346 -78.3891507 64.75791443 -78.39845276 63.631073 C-78.41296797 61.31608829 -78.42184514 59.00106243 -78.42553711 56.68603516 C-78.43743128 53.14545498 -78.48660531 49.60661837 -78.53710938 46.06640625 C-78.54657364 43.81771685 -78.55380866 41.56901673 -78.55859375 39.3203125 C-78.57812607 38.26184113 -78.59765839 37.20336975 -78.61778259 36.11282349 C-78.57266221 28.75592116 -78.57266221 28.75592116 -75.61743164 24.85498047 C-72.82233523 22.87408853 -71.42127732 22 -68 22 C-64.06385984 23.54358438 -62.36773424 24.44839864 -60 28 C-59.68115234 30.4519043 -59.68115234 30.4519043 -59.5859375 33.32421875 C-59.54726563 34.35224609 -59.50859375 35.38027344 -59.46875 36.43945312 C-59.4378125 37.51130859 -59.406875 38.58316406 -59.375 39.6875 C-59.33632813 40.77095703 -59.29765625 41.85441406 -59.2578125 42.97070312 C-59.16349491 45.64696467 -59.07789995 48.32321843 -59 51 C-58.37803741 50.3758168 -57.75607483 49.75163361 -57.11526489 49.10853577 C-51.2613553 43.23461218 -45.40505991 37.36308009 -39.54605293 31.49424076 C-36.5337673 28.47673035 -33.52242149 25.45829419 -30.51318359 22.43774414 C-27.6105886 19.52430594 -24.70557741 16.61329751 -21.79885483 13.70397758 C-20.68877124 12.59204235 -19.57957004 11.47922548 -18.47125626 10.3655262 C-16.92210958 8.80915013 -15.36989179 7.25590166 -13.81689453 5.70336914 C-12.93309113 4.81734512 -12.04928772 3.93132111 -11.13870239 3.01844788 C-7.50154901 -0.41419639 -4.95409456 -0.41983852 0 0 Z " fill="currentColor" transform="translate(776,464)"/>
<path d="M0 0 C1.10857613 -0.0076664 1.10857613 -0.0076664 2.23954773 -0.01548767 C4.66840853 -0.02932069 7.09698353 -0.02843155 9.52587891 -0.02612305 C11.22449854 -0.0300137 12.9231172 -0.03434913 14.62173462 -0.03910828 C18.17737993 -0.04655716 21.73292593 -0.04628908 25.28857422 -0.04101562 C29.83007591 -0.03522561 34.37116916 -0.05214702 38.91260338 -0.0753603 C42.41977285 -0.0901408 45.92684496 -0.09096343 49.43404007 -0.08785057 C51.10767042 -0.08836171 52.78130652 -0.09356025 54.45490646 -0.10366249 C56.8022335 -0.11609255 59.14877787 -0.10919649 61.49609375 -0.09765625 C62.17791214 -0.10529999 62.85973053 -0.11294373 63.56221008 -0.12081909 C69.98399918 -0.051543 75.29321223 1.51464245 80.18994141 5.6496582 C85.55749109 12.09071782 86.52448247 16.88750191 86.55444336 25.11328125 C86.56101456 25.89920151 86.56758575 26.68512177 86.57435608 27.49485779 C86.59404171 30.0920319 86.6057422 32.68914827 86.61572266 35.28637695 C86.61979818 36.17614542 86.62387371 37.06591389 86.62807274 37.98264503 C86.64891508 42.69383129 86.66322373 47.40498859 86.67260742 52.11621094 C86.68365732 56.96711739 86.71804605 61.81756332 86.75777912 66.6683073 C86.78400365 70.41141069 86.79230451 74.15440539 86.7958889 77.89759254 C86.80074116 79.68485429 86.81231612 81.47211163 86.8309269 83.25928307 C87.02507541 103.1417061 87.02507541 103.1417061 80.96528625 109.83427429 C75.60129855 114.67970473 70.50098708 115.57391398 63.5012207 115.56518555 C62.33434219 115.57526138 62.33434219 115.57526138 61.14389038 115.58554077 C58.57974811 115.60449195 56.01586805 115.60844363 53.45166016 115.6105957 C51.66193028 115.61702614 49.87220145 115.62375468 48.08247375 115.63076782 C44.33254562 115.64273374 40.58270955 115.6464494 36.83276367 115.64526367 C32.04116329 115.64506064 27.25015704 115.67234963 22.45869732 115.70680809 C18.76194071 115.7291102 15.06532627 115.73310018 11.36850929 115.73204422 C9.60276049 115.73439569 7.8370075 115.74319357 6.0713253 115.75870895 C3.59441627 115.77843454 1.11877776 115.77250575 -1.3581543 115.76049805 C-2.07894669 115.77173706 -2.79973907 115.78297607 -3.54237366 115.79455566 C-8.94772145 115.72838881 -13.081038 114.21372784 -17.62255859 111.2746582 C-19.68115234 109.0559082 -19.68115234 109.0559082 -21.06005859 106.7746582 C-21.53314453 106.0218457 -22.00623047 105.2690332 -22.49365234 104.4934082 C-24.79573871 99.96889243 -24.77592603 95.61801457 -24.78369141 90.61962891 C-24.78865631 89.85321579 -24.79362122 89.08680267 -24.79873657 88.29716492 C-24.81332447 85.76491389 -24.82015564 83.23272558 -24.82568359 80.70043945 C-24.83143915 78.93409728 -24.83719683 77.16775512 -24.84295654 75.40141296 C-24.85345787 71.69680491 -24.85930578 67.99221849 -24.86279297 64.28759766 C-24.86826664 59.55784051 -24.89227414 54.82837285 -24.92076492 50.09870625 C-24.93946121 46.44824917 -24.94460068 42.79786074 -24.94612885 39.14735985 C-24.94914167 37.40477102 -24.95712355 35.662183 -24.97031403 33.91964149 C-25.11218563 13.73155925 -25.11218563 13.73155925 -19.79052734 6.93481445 C-19.13697266 6.40758789 -18.48341797 5.88036133 -17.81005859 5.3371582 C-16.84132813 4.51924805 -16.84132813 4.51924805 -15.85302734 3.68481445 C-10.82247365 0.50437683 -5.82668837 -0.02104656 0 0 Z M-4.62255859 19.2746582 C-7.06435166 22.9373478 -6.87575626 24.70293068 -6.88134766 29.06933594 C-6.88485229 29.75585236 -6.88835693 30.44236877 -6.89196777 31.14968872 C-6.90077084 33.41931264 -6.89494046 35.68862485 -6.88818359 37.95825195 C-6.88953081 39.53621989 -6.89147182 41.11418742 -6.89398193 42.69215393 C-6.89693139 46.00005035 -6.8926419 49.30783878 -6.88330078 52.61572266 C-6.87191564 56.853842 -6.87846081 61.09170777 -6.89044571 65.32981777 C-6.89767712 68.588912 -6.89537034 71.84794626 -6.89019012 75.10704231 C-6.88885669 76.66953626 -6.89049064 78.23203567 -6.89514923 79.79452324 C-6.90023451 81.98002387 -6.89247599 84.1651157 -6.88134766 86.35058594 C-6.87975647 87.59396225 -6.87816528 88.83733856 -6.87652588 90.11839294 C-6.63676301 93.09812798 -6.19256956 94.77361291 -4.62255859 97.2746582 C4.60013347 97.320938 13.82278574 97.35650514 23.04556847 97.37828255 C27.32778389 97.38873303 31.60992005 97.40291517 35.89208984 97.42553711 C40.02232267 97.44722058 44.1524791 97.4592173 48.28276443 97.46441269 C49.86087879 97.46811656 51.43898882 97.47534901 53.01707077 97.48611832 C55.22241092 97.5005737 57.42743283 97.50263868 59.6328125 97.50170898 C61.51811172 97.50837082 61.51811172 97.50837082 63.4414978 97.51516724 C66.50010882 97.58333352 66.50010882 97.58333352 68.37744141 95.2746582 C68.67868838 92.08954017 68.67868838 92.08954017 68.62036133 88.28637695 C68.62320885 87.20811142 68.62320885 87.20811142 68.62611389 86.10806274 C68.62982612 83.72598449 68.61911119 81.34420947 68.60791016 78.9621582 C68.60671847 77.31071 68.60626517 75.65926111 68.60652161 74.0078125 C68.60495596 70.54430914 68.59666024 67.08090903 68.58325195 63.61743164 C68.566262 59.17176023 68.56243758 54.72620239 68.56319714 50.28050232 C68.56292555 46.86965851 68.55744623 43.45883967 68.55019569 40.04800415 C68.5470074 38.40850005 68.54504124 36.76899312 68.54430199 35.12948608 C68.54214013 32.84058793 68.53339924 30.55181156 68.52270508 28.26293945 C68.51889328 26.95881104 68.51508148 25.65468262 68.51115417 24.31103516 C68.58758321 21.35541607 68.58758321 21.35541607 67.37744141 19.2746582 C58.0243862 19.20523989 48.67141925 19.15188873 39.31816292 19.11922169 C34.97536261 19.10354551 30.63273815 19.08227196 26.29003906 19.04833984 C22.10144185 19.01581552 17.9130141 18.9978199 13.72430038 18.99002647 C12.12384242 18.98447045 10.52339405 18.97362125 8.92300797 18.95746803 C6.68642159 18.93578514 4.45054124 18.93268734 2.21386719 18.93408203 C0.30192062 18.92408928 0.30192062 18.92408928 -1.64865112 18.91389465 C-2.63004059 19.03294662 -3.61143005 19.1519986 -4.62255859 19.2746582 Z " fill="currentColor" transform="translate(595.62255859375,564.725341796875)"/>
<path d="M0 0 C2.12423335 3.18635002 2.25206281 3.98015446 2.26501465 7.63240051 C2.27742439 9.05967972 2.27742439 9.05967972 2.29008484 10.51579285 C2.28910294 11.55834732 2.28812103 12.60090179 2.28710938 13.67504883 C2.29394241 14.77465942 2.30077545 15.87427002 2.30781555 17.00720215 C2.32142423 19.40038311 2.33046419 21.79359333 2.33552551 24.18680763 C2.34380917 27.98415354 2.36431482 31.78125833 2.38806152 35.57853699 C2.43636138 43.65649263 2.46926508 51.7344633 2.5 59.8125 C2.53560184 69.1376114 2.57794072 78.46259636 2.63594055 87.78760338 C2.65586889 91.51082833 2.66430398 95.23396269 2.67224121 98.95722961 C2.46107341 126.32091926 2.46107341 126.32091926 15.125 149.9375 C26.85053875 160.31921296 39.83970776 162.30937353 54.87713623 162.26069641 C56.77398757 162.26643473 56.77398757 162.26643473 58.70915914 162.27228898 C62.19405661 162.28251656 65.67885061 162.28040062 69.16375637 162.27610838 C72.93212921 162.27363154 76.70047774 162.28266725 80.46884155 162.29014587 C87.84228345 162.30286896 95.21568888 162.3046895 102.58913991 162.30234561 C108.5861158 162.30055939 114.58308066 162.30231862 120.58005524 162.30657005 C121.4350202 162.30716524 122.28998517 162.30776043 123.17085816 162.30837366 C124.90799258 162.30958547 126.64512701 162.3107996 128.38226143 162.31201603 C144.65909457 162.32288265 160.93590698 162.32073341 177.21274129 162.31463119 C192.08215117 162.30946448 206.9514955 162.32071254 221.82089242 162.33972941 C237.11035059 162.35913267 252.39977777 162.36735934 267.68924832 162.36360615 C276.26441941 162.36169767 284.83953473 162.36414707 293.41469574 162.37832069 C300.71607607 162.39026733 308.01736632 162.39160284 315.31874797 162.37953053 C319.03899993 162.37366439 322.7590874 162.37247903 326.47932816 162.38453293 C330.52465723 162.397487 334.56959913 162.38687343 338.6149292 162.3742218 C339.77352219 162.38159609 340.93211519 162.38897037 342.12581706 162.39656812 C354.42733549 162.31609007 365.98886591 160.55260411 376 153 C376.54269531 152.443125 377.08539062 151.88625 377.64453125 151.3125 C379 150 379 150 381 150 C381.26941406 149.4328125 381.53882813 148.865625 381.81640625 148.28125 C383.46317415 145.1072815 385.4765741 142.18844176 387.46484375 139.21875 C391.65220846 130.43913543 392.43984516 121.29689373 392.38476562 111.70141602 C392.3901384 110.53726669 392.39551117 109.37311737 392.40104675 108.1736908 C392.41076303 105.66932894 392.41378772 103.16493367 392.41069031 100.66055489 C392.40618523 96.69692101 392.41986189 92.73357273 392.43908691 88.77000427 C392.4799165 79.65245481 392.49149454 70.53491521 392.50261688 61.41728973 C392.5131383 53.03356945 392.52991361 44.6499878 392.57071257 36.26635307 C392.59196948 31.69566657 392.59022039 27.12530086 392.58459473 22.55458069 C392.59393157 20.16732429 392.60409944 17.78007095 392.61523438 15.39282227 C392.60601204 13.76493271 392.60601204 13.76493271 392.59660339 12.10415649 C392.67260394 2.84594593 392.67260394 2.84594593 396 -1 C399.15796107 -2.57898053 402.60670636 -2.81928171 406 -2 C409.21480935 0.21063273 410.72391881 1.55613203 411.46701431 5.44242287 C411.65322739 8.6282614 411.67519574 11.78065086 411.64697266 14.97192383 C411.66011505 16.79252319 411.66011505 16.79252319 411.67352295 18.64990234 C411.69175217 21.97550288 411.68748426 25.29954627 411.67162752 28.62505937 C411.65892485 32.12096567 411.67072361 35.6168076 411.67855835 39.11271667 C411.68765557 44.9947799 411.67567932 50.87652938 411.65185547 56.75854492 C411.62478273 63.51993684 411.63335578 70.28057154 411.6609875 77.04194432 C411.6838432 82.87161131 411.68679509 88.70105302 411.67379415 94.53075045 C411.66607108 98.00104689 411.66475419 101.47099064 411.68147659 104.9412632 C411.7622202 124.36865209 411.26467963 140.97879577 399 157 C398.35417969 157.85078125 397.70835937 158.7015625 397.04296875 159.578125 C387.58898242 171.01411588 374.61344437 178.46588028 360 181 C350.35758548 181.88348759 340.63117408 181.68570812 330.95624804 181.6389643 C327.02026717 181.62546919 323.0843788 181.6410703 319.14840698 181.65278625 C311.45887301 181.67107654 303.7695947 181.66270896 296.08006893 181.64469803 C289.8267388 181.63062153 283.57347766 181.62679003 277.32013321 181.6301403 C275.98062259 181.63085647 275.98062259 181.63085647 274.61405114 181.6315871 C272.79944791 181.63261352 270.98484469 181.63366888 269.17024149 181.63475286 C253.15820256 181.64330224 237.14628639 181.62670125 221.13427734 181.59692383 C205.6244593 181.56808105 190.11481799 181.56100978 174.60498047 181.57641602 C157.68102349 181.59320411 140.75715024 181.59718657 123.83319104 181.57970566 C122.02620579 181.57786142 120.21922053 181.57602669 118.41223526 181.57420158 C117.52335331 181.57328949 116.63447135 181.5723774 115.71865358 181.57143768 C109.47730647 181.56584923 103.23600047 181.56912353 96.99465561 181.57574654 C89.38229957 181.58350438 81.77011702 181.57663902 74.15779577 181.5515715 C70.2795034 181.53913415 66.40148034 181.53285926 62.5231781 181.54411316 C58.9639044 181.55424581 55.40516467 181.54550733 51.84595527 181.52253198 C49.96818783 181.51503118 48.09037277 181.52683642 46.21263397 181.53963572 C28.73179259 181.37120887 14.20060341 175.06706517 1.796875 162.921875 C-11.68493225 149.14738265 -16.31686632 133.50183285 -16.2746582 114.65307617 C-16.27976913 113.45995819 -16.28488007 112.26684021 -16.29014587 111.03756714 C-16.3015871 107.79614293 -16.30412869 104.55487897 -16.30158257 101.31344008 C-16.30050619 98.59942176 -16.30541243 95.88542656 -16.310188 93.17141324 C-16.3212389 86.77058893 -16.32174355 80.36982335 -16.31567383 73.96899414 C-16.30961728 67.37502588 -16.32199753 60.78127009 -16.3432439 54.18733805 C-16.3608618 48.50980912 -16.36686155 42.83234787 -16.36360615 37.15479261 C-16.36179576 33.77050146 -16.36440633 30.38636243 -16.37832069 27.00209618 C-16.39063001 23.23454623 -16.38392754 19.46749291 -16.37231445 15.69995117 C-16.37995819 14.58349716 -16.38760193 13.46704315 -16.39547729 12.3167572 C-16.38846298 11.28939453 -16.38144867 10.26203186 -16.3742218 9.20353699 C-16.37438954 8.31408984 -16.37455729 7.4246427 -16.37473011 6.50824261 C-15.91065263 3.40195659 -14.83787557 1.52915315 -13 -1 C-7.87419911 -3.79589139 -4.96081378 -2.76660769 0 0 Z " fill="currentColor" transform="translate(429,661)"/>
<path d="M0 0 C0.92453476 -0.00953201 1.84906952 -0.01906403 2.80162048 -0.02888489 C4.2892263 -0.02751778 4.2892263 -0.02751778 5.80688477 -0.02612305 C6.83258072 -0.03040817 7.85827667 -0.0346933 8.91505432 -0.03910828 C11.08284772 -0.04484762 13.25066038 -0.04535475 15.41845703 -0.04101562 C18.73251245 -0.03785684 22.04567414 -0.06131626 25.35961914 -0.08666992 C27.46703989 -0.08894308 29.57446304 -0.08964633 31.68188477 -0.08862305 C32.67159775 -0.09783279 33.66131073 -0.10704254 34.68101501 -0.11653137 C43.38569003 -0.05808537 43.38569003 -0.05808537 47.31079102 3.2746582 C49.47787258 6.52528055 49.56899415 7.4713 49.60131836 11.23339844 C49.61407806 12.24131943 49.62683777 13.24924042 49.63998413 14.28770447 C49.64220978 15.37523514 49.64443542 16.46276581 49.64672852 17.58325195 C49.65671371 19.26065208 49.65671371 19.26065208 49.66690063 20.97193909 C49.67703111 23.33820957 49.68171753 25.70450864 49.68139648 28.07080078 C49.68576979 31.69456947 49.72208743 35.31712071 49.76000977 38.94067383 C49.76587771 41.2381957 49.76984725 43.53572336 49.77172852 45.83325195 C49.78609955 46.91875839 49.80047058 48.00426483 49.8152771 49.12266541 C49.80912384 50.13373856 49.80297058 51.14481171 49.79663086 52.18652344 C49.7994809 53.0746019 49.80233093 53.96268036 49.80526733 54.87767029 C49.14933438 58.05732381 47.78876212 59.24662633 45.31079102 61.2746582 C42.29052974 62.35885456 40.77781813 62.40809452 37.68579102 61.5246582 C34.03142641 59.60130841 32.62420226 58.21489193 31.31079102 54.2746582 C31.16363903 52.64898741 31.06357235 51.01878963 30.99438477 49.38793945 C30.95249023 48.45014648 30.9105957 47.51235352 30.86743164 46.54614258 C30.82811523 45.56967773 30.78879883 44.59321289 30.74829102 43.5871582 C30.70510742 42.5990918 30.66192383 41.61102539 30.61743164 40.59301758 C30.51137447 38.15370274 30.40931388 35.71428707 30.31079102 33.2746582 C25.30841527 38.2515249 20.31008618 43.23242975 15.31445312 48.21606445 C13.61712435 49.90838731 11.91889624 51.5998087 10.21972656 53.2902832 C7.7671976 55.73058189 5.31800006 58.17418326 2.86938477 60.6184082 C2.11805771 61.36457397 1.36673065 62.11073975 0.59263611 62.8795166 C-3.51956043 66.99128188 -7.45932885 71.19172021 -11.245224 75.60658264 C-15.07921809 80.03557042 -18.72765711 83.598261 -24.31420898 85.5246582 C-27.68920898 85.2746582 -27.68920898 85.2746582 -31.12670898 83.3371582 C-33.73391297 80.22123149 -34.66197191 78.45498971 -34.3327179 74.36079407 C-33.55493702 71.83937355 -32.48235182 70.5297143 -30.70556641 68.58398438 C-30.07024994 67.8877597 -29.43493347 67.19153503 -28.78036499 66.47421265 C-25.12392611 62.62823637 -21.38665431 58.87069435 -17.61499023 55.13793945 C-16.76873581 54.29547165 -15.92248138 53.45300385 -15.05058289 52.58500671 C-12.37005283 49.91660218 -9.68629701 47.25147972 -7.00170898 44.5871582 C-3.45323837 41.06531776 0.09188462 37.5401567 3.63500977 34.01293945 C4.44548264 33.21076492 5.25595551 32.40859039 6.09098816 31.58210754 C9.72672675 27.96221463 13.23468502 24.39759846 16.31079102 20.2746582 C14.34045898 20.20118164 14.34045898 20.20118164 12.33032227 20.1262207 C10.59462507 20.05116353 8.85894899 19.97561698 7.12329102 19.8996582 C5.82681641 19.85325195 5.82681641 19.85325195 4.50415039 19.8059082 C-0.75771312 19.56398344 -4.97431094 19.11691045 -9.43920898 16.0871582 C-11.42524658 13.20740369 -11.57011846 10.72828342 -11.68920898 7.2746582 C-10.46669032 4.37921925 -9.55393889 2.80652701 -6.8690033 1.15510559 C-4.42024129 0.16601864 -2.63506441 0.01497038 0 0 Z " fill="currentColor" transform="translate(505.689208984375,696.725341796875)"/>
<path d="M0 0 C0.92468582 -0.00960754 1.84937164 -0.01921509 2.80207825 -0.02911377 C3.80413803 -0.03336365 4.80619781 -0.03761353 5.83862305 -0.04199219 C7.38141182 -0.0505423 7.38141182 -0.0505423 8.95536804 -0.05926514 C11.13511117 -0.06872338 13.31486865 -0.07525238 15.49462891 -0.07910156 C18.82634531 -0.08879735 22.1574424 -0.11980935 25.48901367 -0.15136719 C27.60554646 -0.15789812 29.72208367 -0.16314824 31.83862305 -0.16699219 C32.83461014 -0.17933899 33.83059723 -0.19168579 34.85676575 -0.20440674 C43.62125679 -0.17624925 43.62125679 -0.17624925 47.5378418 3.16113281 C50.03815834 6.91160763 50.07387734 8.71969547 49.5378418 13.16113281 C46.99647021 16.32067587 45.3916152 17.87654168 41.5378418 19.16113281 C38.04821893 19.23049178 34.57042455 19.15847614 31.08081055 19.09863281 C27.77766372 19.15690222 24.78156263 19.58198856 21.5378418 20.16113281 C22.14727631 20.7661261 22.75671082 21.37111938 23.38461304 21.9944458 C29.12829577 27.69804715 34.86714963 33.40645379 40.60063744 39.12030411 C43.5484168 42.05764826 46.49802683 44.99310374 49.4519043 47.92431641 C52.30271826 50.75339283 55.14861265 53.58733306 57.99116898 56.42470551 C59.07627372 57.50611615 60.1631367 58.58576551 61.25178146 59.66361237 C62.77680085 61.1741049 64.29543691 62.6907505 65.81274414 64.20898438 C66.67878265 65.07058167 67.54482117 65.93217896 68.43710327 66.81988525 C71.53114928 70.26816194 72.57955638 71.99312437 72.4128418 76.66113281 C71.44607856 80.52818574 70.77296259 81.88780468 67.5378418 84.16113281 C64.10974062 85.25520766 62.41287293 85.60096197 59.16304016 83.967453 C56.27318506 81.97903046 53.94650834 79.80963743 51.47216797 77.32250977 C50.99351288 76.84414673 50.51485779 76.36578369 50.021698 75.8729248 C48.45327648 74.3031188 46.89204376 72.7263665 45.33081055 71.14941406 C44.23980267 70.05467293 43.14835008 68.96037484 42.05647278 67.86650085 C39.19318946 64.99560576 36.33596513 62.11875407 33.47998047 59.24060059 C30.56086089 56.3009696 27.63602411 53.36703917 24.71166992 50.43261719 C18.98146438 44.68100507 13.25765014 38.92308465 7.5378418 33.16113281 C7.53167847 34.16696411 7.53167847 34.16696411 7.52539062 35.19311523 C7.49239536 38.24583672 7.4217456 41.29657811 7.3503418 44.34863281 C7.34454102 45.40373047 7.33874023 46.45882812 7.33276367 47.54589844 C7.10966353 55.40398124 7.10966353 55.40398124 4.1394043 59.33691406 C1.35242483 61.29114741 -0.06093596 62.16113281 -3.4621582 62.16113281 C-7.39829836 60.61754844 -9.09442396 59.71273417 -11.4621582 56.16113281 C-11.73631287 53.93582153 -11.73631287 53.93582153 -11.76855469 51.31005859 C-11.78454208 50.32538605 -11.80052948 49.3407135 -11.81700134 48.32620239 C-11.82236404 47.26368256 -11.82772675 46.20116272 -11.83325195 45.10644531 C-11.84228043 44.01274628 -11.8513089 42.91904724 -11.86061096 41.79220581 C-11.87512617 39.4772211 -11.88400334 37.16219524 -11.88769531 34.84716797 C-11.89958949 31.30658779 -11.94876351 27.76775118 -11.99926758 24.22753906 C-12.00873184 21.97884966 -12.01596686 19.73014954 -12.02075195 17.48144531 C-12.04028427 16.42297394 -12.05981659 15.36450256 -12.0799408 14.2739563 C-12.03476739 6.90840781 -12.03476739 6.90840781 -9.05224609 3.01611328 C-5.68466402 0.60430363 -4.06969486 0.03407769 0 0 Z " fill="currentColor" transform="translate(709.462158203125,696.8388671875)"/>
</svg>
