<?xml version="1.0" encoding="UTF-8" standalone="no"?>
<svg
   version="1.0"
   width="457.73273pt"
   height="487.61972pt"
   viewBox="0 0 457.73273 487.61972"
   preserveAspectRatio="xMidYMid"
   id="svg11"
   xmlns="http://www.w3.org/2000/svg"
   xmlns:svg="http://www.w3.org/2000/svg">
  <defs
     id="defs11" />
  <metadata
     id="metadata1">
Created by potrace 1.16, written by Peter Selinger 2001-2019
</metadata>
  <g
     transform="matrix(0.1,0,0,-0.1,-309.1334,773.61938)"
     fill="currentColor"
     stroke="none"
     id="g11">
    <path
       d="m 3343,7730 c -94,-19 -179,-87 -222,-179 l -26,-56 -3,-2049 c -2,-1806 0,-2057 13,-2109 23,-92 78,-162 160,-205 l 50,-27 1022,-3 c 922,-2 1023,-1 1037,14 21,21 20,67 -2,87 -17,16 -101,17 -998,17 -643,0 -992,4 -1016,10 -48,14 -94,53 -118,101 -20,38 -20,73 -20,2085 v 2048 l 21,44 c 13,26 38,54 62,70 l 41,27 1663,3 c 1636,2 1664,2 1702,-17 48,-25 87,-71 101,-119 6,-24 10,-406 10,-1119 V 5271 l 22,-15 c 30,-21 61,-20 82,2 15,18 16,104 14,1138 l -3,1119 -29,53 c -36,65 -82,107 -156,141 l -55,26 -1655,1 c -910,1 -1674,-2 -1697,-6 z"
       id="path1" />
    <path
       d="m 3932,7060 c -125,-26 -231,-110 -289,-228 -37,-73 -38,-80 -38,-182 0,-98 2,-110 32,-173 60,-126 182,-217 315,-236 306,-42 548,240 458,532 -37,120 -143,231 -261,272 -54,19 -162,27 -217,15 z m 204,-144 c 105,-48 168,-145 168,-261 0,-270 -322,-398 -503,-200 -62,69 -86,134 -78,217 12,138 104,240 240,268 56,11 111,3 173,-24 z"
       id="path2" />
    <path
       d="m 4060,6709 -71,-62 -27,22 c -51,40 -69,46 -97,27 -44,-29 -34,-65 36,-130 88,-82 93,-81 242,60 71,68 80,91 47,124 -31,31 -54,24 -130,-41 z"
       id="path3" />
    <path
       d="m 4792,6704 c -15,-10 -22,-25 -22,-49 0,-68 -37,-65 770,-65 814,0 774,-4 768,68 -2,27 -9,40 -28,49 -19,10 -187,13 -745,13 -636,0 -723,-2 -743,-16 z"
       id="path4" />
    <path
       d="m 3917,5970 c -97,-25 -200,-100 -256,-188 -143,-226 -22,-543 237,-618 89,-26 213,-16 294,24 187,92 278,299 218,494 -53,173 -197,286 -373,294 -45,2 -99,-1 -120,-6 z m 210,-135 c 198,-83 241,-346 81,-490 -79,-71 -178,-92 -288,-59 -78,23 -162,109 -186,189 -47,164 42,326 206,372 52,15 136,9 187,-12 z"
       id="path5" />
    <path
       d="m 4060,5620 c -36,-33 -68,-60 -71,-60 -3,0 -23,14 -44,30 -44,35 -65,37 -88,12 -31,-35 -21,-65 42,-125 85,-81 95,-79 215,34 56,53 96,99 96,110 0,26 -35,59 -62,59 -14,-1 -50,-26 -88,-60 z"
       id="path6" />
    <path
       d="m 4792,5614 c -15,-10 -22,-25 -22,-49 0,-68 -37,-65 765,-65 558,0 726,3 745,13 19,9 26,22 28,49 6,72 46,68 -768,68 -640,0 -728,-2 -748,-16 z"
       id="path7" />
    <path
       d="m 6425,4990 c -292,-53 -545,-206 -716,-433 -67,-88 -149,-243 -149,-280 0,-35 32,-59 72,-55 27,2 36,10 53,43 125,253 267,400 490,506 156,74 249,94 430,93 167,-1 246,-17 385,-77 166,-72 334,-220 424,-373 211,-360 145,-836 -158,-1140 -388,-387 -1016,-376 -1399,25 -82,86 -143,181 -182,284 -28,76 -46,147 -36,147 3,0 39,-30 80,-66 56,-50 79,-64 99,-62 32,4 66,49 58,75 -7,21 -264,262 -296,277 -37,17 -66,-5 -180,-135 -119,-135 -135,-166 -104,-200 33,-37 69,-25 136,46 33,36 63,63 65,61 2,-2 10,-33 18,-69 30,-146 127,-324 245,-450 127,-136 274,-229 461,-291 127,-43 208,-56 355,-56 422,-1 793,228 982,605 84,168 119,340 109,540 -23,475 -326,839 -807,967 -85,23 -348,34 -435,18 z"
       id="path8" />
    <path
       d="m 3933,4890 c -123,-26 -240,-120 -296,-237 -30,-63 -32,-75 -32,-173 1,-97 3,-110 32,-173 78,-167 255,-262 437,-236 75,10 102,21 175,68 69,45 135,134 161,218 79,257 -104,523 -370,538 -36,2 -84,0 -107,-5 z m 203,-144 c 61,-28 115,-82 146,-145 28,-56 31,-174 6,-233 -24,-55 -96,-128 -153,-154 -70,-33 -170,-33 -242,0 -223,104 -230,416 -11,525 81,41 176,43 254,7 z"
       id="path9" />
    <path
       d="m 6542,4574 c -22,-15 -22,-15 -22,-354 v -339 l 33,-23 c 17,-12 121,-93 230,-180 135,-108 205,-158 222,-158 30,0 65,32 65,60 0,27 -12,39 -238,219 l -192,154 v 299 c 0,285 -1,299 -20,318 -24,24 -48,25 -78,4 z"
       id="path10" />
    <path
       d="m 4792,4534 c -15,-10 -22,-25 -22,-49 0,-63 11,-65 310,-65 299,0 310,2 310,65 0,63 -11,65 -310,65 -224,0 -269,-2 -288,-16 z"
       id="path11" />
  </g>
</svg>
