<?xml version="1.0" encoding="UTF-8" standalone="no"?>
<svg
   version="1.0"
   width="472.5134pt"
   height="431.81866pt"
   viewBox="0 0 472.5134 431.81866"
   preserveAspectRatio="xMidYMid"
   id="svg6"
   xmlns="http://www.w3.org/2000/svg"
   xmlns:svg="http://www.w3.org/2000/svg">
  <defs
     id="defs6" />
  <g
     transform="matrix(0.1,0,0,-0.1,-273.98659,748.79366)"
     fill="currentColor"
     stroke="none"
     id="g6">
    <path
       d="m 4972,7472 c -65,-24 -148,-80 -184,-125 -15,-19 -67,-106 -116,-193 -49,-88 -213,-379 -364,-649 -344,-613 -941,-1672 -1195,-2120 -396,-698 -377,-657 -371,-801 3,-81 8,-100 41,-167 63,-128 179,-214 318,-236 89,-15 3919,-15 4008,0 140,22 255,108 318,237 37,74 38,79 38,187 0,97 -3,116 -26,165 -26,57 -96,180 -856,1525 -393,696 -779,1380 -1037,1840 -116,208 -168,270 -264,317 -58,29 -77,33 -161,35 -74,3 -108,-1 -149,-15 z m 205,-157 c 82,-24 121,-69 231,-270 133,-241 289,-520 594,-1060 140,-247 384,-679 543,-960 158,-280 381,-675 495,-876 114,-201 220,-390 236,-420 74,-146 0,-329 -153,-375 -71,-22 -3967,-21 -4039,1 -126,37 -207,182 -175,310 6,26 76,160 155,298 78,139 213,378 300,532 87,154 178,314 201,355 247,434 945,1674 1148,2040 96,173 192,334 213,358 28,30 56,49 94,62 67,24 92,24 157,5 z"
       id="path1" />
    <path
       d="m 4995,6221 c -197,-32 -383,-140 -494,-288 -134,-180 -187,-387 -146,-583 9,-47 18,-123 19,-170 1,-63 7,-97 23,-131 40,-89 129,-165 226,-194 l 42,-12 5,-79 c 6,-94 27,-135 89,-179 l 43,-30 h 303 303 l 44,30 c 64,45 88,95 88,181 v 71 l 61,22 c 84,31 155,92 198,171 32,58 35,73 37,150 1,47 10,123 19,170 54,263 -59,551 -284,721 -79,61 -172,106 -266,131 -80,21 -236,31 -310,19 z m 311,-146 c 44,-14 102,-38 130,-54 123,-71 231,-204 281,-346 24,-69 27,-95 28,-195 0,-71 -5,-130 -13,-153 -8,-21 -14,-79 -15,-131 -2,-83 -5,-97 -29,-134 -33,-49 -100,-90 -175,-108 -80,-18 -83,-23 -83,-120 0,-88 -10,-129 -38,-150 -13,-10 -79,-13 -277,-14 -143,0 -270,3 -283,6 -37,10 -52,53 -52,153 0,104 -4,109 -95,130 -71,17 -131,55 -163,103 -24,37 -27,52 -28,127 -1,47 -9,122 -19,165 -52,233 49,488 251,632 166,118 384,152 580,89 z"
       id="path2" />
    <path
       d="m 4758,5531 c -137,-44 -185,-197 -96,-305 39,-47 81,-66 151,-66 182,0 253,238 102,342 -44,30 -113,43 -157,29 z m 96,-132 c 34,-27 35,-71 1,-104 -44,-45 -109,-22 -121,42 -5,26 -1,37 19,57 31,31 65,33 101,5 z"
       id="path3" />
    <path
       d="m 5348,5526 c -60,-22 -86,-43 -110,-89 -77,-149 52,-314 214,-272 124,32 180,167 115,278 -44,75 -141,112 -219,83 z m 107,-131 c 14,-13 25,-36 25,-50 0,-33 -41,-75 -73,-75 -40,0 -77,36 -77,75 0,24 7,39 26,54 35,28 69,26 99,-4 z"
       id="path4" />
    <path
       d="m 5052,5151 c -15,-16 -43,-59 -62,-96 -33,-63 -34,-67 -19,-93 13,-23 21,-27 54,-25 22,1 54,2 70,3 17,0 49,-2 73,-6 48,-7 82,13 82,49 0,27 -87,175 -110,187 -32,17 -61,11 -88,-19 z"
       id="path5" />
    <path
       d="m 4225,4826 c -56,-24 -115,-112 -115,-172 0,-5 -13,-23 -30,-39 -65,-62 -77,-168 -27,-244 51,-77 177,-107 264,-63 l 39,20 157,-71 c 86,-40 157,-74 157,-78 0,-3 -70,-38 -155,-77 l -156,-71 -47,22 c -96,43 -206,16 -258,-63 -51,-77 -39,-182 26,-245 17,-16 30,-34 30,-39 0,-61 60,-149 117,-172 42,-18 115,-18 156,0 48,19 103,89 117,146 l 11,47 167,76 c 92,42 225,103 297,136 121,56 131,59 160,47 16,-7 150,-68 297,-136 l 267,-123 12,-50 c 13,-57 66,-123 116,-144 42,-17 127,-17 162,1 56,29 111,114 111,172 0,5 13,23 30,39 112,107 61,284 -93,326 -44,12 -114,0 -155,-27 -21,-14 -33,-11 -182,57 -88,39 -160,74 -160,78 0,3 71,38 158,77 l 157,71 44,-20 c 78,-34 174,-21 235,32 76,67 72,205 -8,280 -14,14 -26,29 -26,35 0,61 -60,148 -117,172 -39,17 -111,18 -150,3 -57,-21 -112,-93 -127,-166 -7,-30 -19,-37 -303,-168 -267,-123 -299,-135 -322,-125 -14,6 -148,68 -298,137 -258,120 -273,128 -279,157 -15,72 -71,144 -127,165 -38,15 -115,13 -152,-3 z m 130,-119 c 18,-15 30,-38 36,-70 4,-25 15,-57 24,-70 18,-28 650,-327 690,-327 35,0 643,285 676,316 19,18 30,42 35,73 8,51 49,101 84,101 49,0 90,-50 90,-110 0,-24 9,-40 39,-67 44,-39 57,-73 40,-106 -28,-51 -81,-61 -139,-26 -59,36 -87,29 -345,-89 -184,-84 -243,-116 -255,-136 -14,-23 -13,-27 5,-45 21,-20 460,-225 507,-236 20,-5 42,0 78,19 65,34 94,33 132,-4 38,-38 33,-71 -19,-117 -29,-26 -38,-43 -44,-85 -9,-60 -43,-98 -85,-98 -37,0 -79,47 -87,98 -4,25 -18,54 -35,71 -33,37 -629,313 -676,314 -45,1 -643,-276 -678,-314 -17,-17 -30,-46 -35,-71 -8,-52 -50,-98 -88,-98 -39,0 -72,39 -80,96 -6,40 -15,56 -46,84 -54,49 -59,81 -21,120 36,35 67,38 122,10 68,-35 93,-28 347,87 129,59 242,113 249,121 19,18 18,46 -3,65 -10,8 -122,63 -250,121 -250,114 -275,121 -343,86 -58,-29 -93,-26 -125,12 -34,40 -28,71 25,118 28,25 40,44 40,63 0,95 75,146 135,94 z"
       id="path6" />
  </g>
</svg>
