<?xml version="1.0" encoding="UTF-8" standalone="no"?>
<svg
   version="1.0"
   width="395.57626pt"
   height="439.90683pt"
   viewBox="0 0 395.57626 439.90683"
   preserveAspectRatio="xMidYMid"
   id="svg8"
   xmlns="http://www.w3.org/2000/svg"
   xmlns:svg="http://www.w3.org/2000/svg">
  <defs
     id="defs8" />
  <g
     transform="matrix(0.1,0,0,-0.1,-314.5,744.90434)"
     fill="currentColor"
     stroke="none"
     id="g8">
    <path
       d="m 4901,7429 c -216,-46 -374,-132 -536,-294 -157,-157 -250,-323 -297,-526 -30,-131 -30,-336 0,-467 95,-416 410,-731 827,-828 99,-22 327,-25 430,-5 78,15 219,62 280,94 202,102 386,291 488,499 47,95 97,263 97,325 0,48 -45,93 -94,93 -60,0 -83,-31 -111,-145 -88,-355 -368,-619 -718,-675 -105,-17 -289,-8 -385,20 -311,88 -561,355 -627,669 -19,90 -19,274 -1,361 81,381 402,667 785,699 275,24 532,-70 720,-262 l 53,-55 -92,-3 c -86,-4 -93,-6 -116,-32 -32,-38 -32,-86 2,-126 l 26,-31 h 219 c 218,0 220,0 244,24 33,33 37,65 33,270 l -3,178 -28,24 c -40,34 -99,33 -132,-2 -21,-22 -25,-37 -25,-85 0,-33 -1,-59 -3,-59 -1,0 -32,27 -67,61 -159,149 -354,249 -559,284 -117,21 -295,18 -410,-6 z"
       id="path1" />
    <path
       d="m 3430,6074 c -30,-8 -73,-25 -95,-39 -58,-34 -132,-117 -163,-183 l -27,-57 V 4570 3345 l 30,-60 c 58,-114 173,-202 296,-225 32,-6 653,-10 1653,-10 1750,0 1658,-3 1768,57 94,51 173,160 197,271 15,70 16,2305 1,2382 -31,165 -153,288 -315,320 -36,7 -124,10 -218,8 l -159,-3 -24,-28 c -30,-35 -32,-94 -5,-128 19,-23 25,-24 203,-29 184,-5 185,-5 234,-35 37,-23 56,-44 77,-84 l 27,-55 V 4581 c 0,-777 -4,-1158 -11,-1184 -6,-21 -26,-56 -45,-77 -69,-76 71,-71 -1755,-68 l -1635,3 -42,27 c -22,15 -54,49 -69,75 l -28,48 -3,1135 c -2,792 0,1150 8,1186 13,60 56,116 113,147 38,19 62,22 225,27 178,5 184,6 203,29 27,34 25,93 -5,128 l -24,28 -179,2 c -133,2 -192,-1 -233,-13 z"
       id="path2" />
    <path
       d="m 3730,4927 c -67,-23 -99,-107 -64,-167 54,-90 184,-72 215,30 27,89 -60,167 -151,137 z"
       id="path3" />
    <path
       d="m 4169,4897 c -44,-34 -51,-102 -15,-144 l 24,-28 1144,-3 c 1057,-3 1145,-2 1175,14 59,31 67,114 16,154 -25,20 -44,20 -1177,20 -889,-1 -1155,-3 -1167,-13 z"
       id="path4" />
    <path
       d="m 3724,4350 c -11,-4 -33,-23 -48,-41 -24,-28 -27,-39 -23,-78 7,-64 49,-101 116,-101 60,0 96,26 111,80 25,92 -68,176 -156,140 z"
       id="path5" />
    <path
       d="m 4184,4330 c -52,-21 -71,-102 -35,-149 11,-14 33,-26 57,-30 21,-3 546,-4 1166,-1 l 1127,5 23,23 c 16,16 23,34 23,63 0,34 -6,46 -33,70 l -32,29 -1138,-1 c -625,0 -1147,-4 -1158,-9 z"
       id="path6" />
    <path
       d="m 3708,3754 c -76,-41 -74,-159 2,-199 132,-68 242,101 125,193 -32,26 -87,28 -127,6 z"
       id="path7" />
    <path
       d="m 4159,3721 c -21,-22 -29,-39 -29,-66 0,-27 8,-44 29,-66 l 29,-29 h 1149 c 1258,0 1176,-4 1203,59 9,23 9,38 0,66 -23,69 55,65 -1210,65 H 4188 Z"
       id="path8" />
  </g>
</svg>
