<?xml version="1.0" encoding="UTF-8" standalone="no"?>
<svg
   version="1.0"
   width="475.91934pt"
   height="402.61917pt"
   viewBox="0 0 475.91934 402.61917"
   preserveAspectRatio="xMidYMid"
   id="svg6"
   xmlns="http://www.w3.org/2000/svg"
   xmlns:svg="http://www.w3.org/2000/svg">
  <defs
     id="defs6" />
  <metadata
     id="metadata1">
Created by potrace 1.16, written by Peter Selinger 2001-2019
</metadata>
  <g
     transform="matrix(0.1,0,0,-0.1,-280.08066,719.61916)"
     fill="currentColor"
     stroke="none"
     id="g6">
    <path
       d="m 3122,7189 c -122,-24 -230,-110 -285,-227 l -32,-67 -3,-1244 c -3,-1362 -5,-1296 55,-1398 36,-62 124,-138 191,-165 l 57,-23 1012,-3 c 1004,-2 1013,-2 1033,18 27,27 27,81 -1,106 -20,18 -52,19 -1013,19 h -992 l -60,30 c -64,33 -115,95 -134,163 -6,24 -10,448 -10,1228 0,1351 -5,1260 80,1345 86,86 -63,80 1815,77 l 1660,-3 40,-22 c 53,-28 99,-78 124,-133 20,-44 21,-63 21,-742 0,-431 4,-707 10,-723 20,-52 113,-53 125,-1 3,11 4,350 3,751 l -3,730 -28,57 c -43,88 -107,152 -195,195 l -76,38 -1675,1 c -922,1 -1695,-2 -1719,-7 z"
       id="path1" />
    <path
       d="m 4383,6468 c -12,-6 -25,-18 -28,-27 -4,-9 -62,-178 -131,-376 -68,-198 -129,-370 -134,-382 l -10,-23 h -368 c -345,0 -370,-1 -385,-18 -24,-26 -21,-77 5,-102 21,-19 33,-20 419,-20 h 398 l 25,23 c 19,17 50,95 127,322 56,165 103,302 105,304 10,11 13,1 207,-684 177,-623 197,-689 211,-704 21,-20 74,-18 95,5 17,18 50,106 287,762 48,133 90,242 94,242 4,0 38,-54 75,-120 37,-67 77,-127 89,-135 17,-13 85,-15 414,-15 h 393 l 24,25 c 30,29 32,68 5,95 -19,19 -33,20 -389,20 h -368 l -105,178 c -114,193 -133,211 -186,182 -31,-18 -22,4 -217,-537 -82,-227 -151,-413 -154,-413 -4,0 -19,46 -34,103 -16,56 -103,363 -194,682 -138,486 -169,584 -189,603 -27,24 -47,26 -81,10 z"
       id="path2" />
    <path
       d="m 6080,5284 c -345,-74 -610,-322 -716,-669 -26,-83 -28,-103 -28,-260 0,-156 2,-177 27,-258 100,-326 344,-564 673,-659 68,-20 102,-23 244,-23 192,0 262,15 415,90 84,40 203,121 234,158 12,15 41,-10 276,-238 177,-171 270,-255 285,-255 28,0 70,43 70,72 0,16 -72,93 -262,278 l -262,256 38,58 c 53,80 100,186 127,286 33,120 33,356 1,475 -94,346 -382,619 -726,689 -97,20 -305,20 -396,0 z m 411,-133 c 247,-63 465,-259 558,-499 39,-101 51,-174 51,-299 0,-235 -86,-433 -259,-595 -89,-84 -178,-136 -306,-181 -87,-31 -95,-32 -255,-32 -158,0 -169,2 -258,32 -121,41 -217,98 -309,187 -117,111 -182,216 -229,373 -23,76 -27,106 -27,218 0,112 4,142 27,220 98,325 343,540 681,596 75,12 240,2 326,-20 z"
       id="path3" />
    <path
       d="m 6592,4764 -22,-15 v -394 -394 l 22,-15 c 30,-21 61,-20 81,2 15,17 17,60 17,410 v 391 l -22,15 c -12,9 -29,16 -38,16 -9,0 -26,-7 -38,-16 z"
       id="path4" />
    <path
       d="m 6230,4510 c -20,-20 -20,-31 -18,-287 l 3,-267 28,-16 c 24,-13 30,-13 55,0 l 27,16 3,269 c 2,265 2,270 -19,288 -28,23 -54,22 -79,-3 z"
       id="path5" />
    <path
       d="m 5867,4282 c -14,-16 -17,-43 -17,-170 0,-145 1,-152 22,-166 29,-21 61,-20 80,2 28,31 30,309 2,336 -21,22 -67,20 -87,-2 z"
       id="path6" />
  </g>
</svg>
