<?xml version="1.0" encoding="UTF-8" standalone="no"?>
<svg
   version="1.0"
   width="366.07663pt"
   height="411.7897pt"
   viewBox="0 0 366.07663 411.7897"
   preserveAspectRatio="xMidYMid"
   id="svg5"
   xmlns="http://www.w3.org/2000/svg"
   xmlns:svg="http://www.w3.org/2000/svg">
  <defs
     id="defs5" />
  <metadata
     id="metadata1">
Created by potrace 1.16, written by Peter Selinger 2001-2019
</metadata>
  <g
     transform="matrix(0.1,0,0,-0.1,-341.92375,742)"
     fill="currentColor"
     stroke="none"
     id="g5">
    <path
       d="m 3738,7401 c -155,-50 -274,-181 -307,-339 -15,-70 -16,-3294 -1,-3372 15,-81 53,-154 112,-216 64,-68 107,-97 187,-124 59,-19 82,-20 839,-20 677,0 781,2 792,15 10,12 4,24 -34,66 -25,28 -46,55 -46,60 0,5 -334,10 -747,11 l -748,3 -42,23 c -66,35 -110,79 -140,140 l -28,57 v 1660 c 0,1612 1,1661 19,1710 25,65 94,137 159,166 l 52,24 957,3 957,3 3,-313 3,-313 27,-58 c 36,-76 112,-149 185,-179 55,-22 73,-23 335,-26 l 278,-3 2,-556 3,-557 70,-17 c 53,-14 71,-15 77,-6 5,7 7,289 6,627 -3,497 -6,620 -17,639 -12,22 -410,458 -675,741 -65,69 -134,135 -154,147 l -37,23 -1015,-1 c -956,0 -1018,-1 -1072,-18 z m 2433,-542 c 156,-170 286,-315 288,-320 2,-7 -71,-10 -220,-7 -248,3 -259,6 -317,72 -17,20 -36,52 -41,73 -13,45 -15,493 -3,493 5,0 137,-140 293,-311 z"
       id="path1" />
    <path
       d="m 4076,6109 c -32,-25 -35,-75 -7,-110 l 19,-24 644,-3 c 353,-2 672,0 706,3 76,8 102,29 102,79 0,25 -7,40 -26,55 -26,21 -34,21 -719,21 -685,0 -693,0 -719,-21 z"
       id="path2" />
    <path
       d="m 4118,5593 c -63,-7 -89,-74 -49,-124 l 19,-24 h 705 c 679,0 706,1 726,19 28,26 29,86 0,112 -19,17 -52,18 -692,20 -370,1 -689,0 -709,-3 z"
       id="path3" />
    <path
       d="m 6015,5138 c -252,-25 -497,-120 -585,-226 -63,-76 -60,-45 -60,-688 0,-672 -5,-632 92,-719 154,-138 452,-212 813,-202 342,10 582,83 716,216 91,92 89,72 89,706 0,631 2,614 -86,702 -165,165 -568,252 -979,211 z m 574,-162 c 141,-32 263,-88 316,-147 33,-37 37,-46 32,-81 -3,-22 -16,-51 -28,-64 -63,-68 -212,-128 -394,-160 -141,-25 -452,-25 -590,0 -278,51 -446,151 -421,251 16,62 112,131 245,174 221,72 588,84 840,27 z m -942,-514 c 245,-104 709,-121 1028,-38 77,20 176,60 226,92 l 39,24 v -167 c 0,-192 -5,-208 -82,-261 -286,-197 -1025,-188 -1296,15 -57,42 -62,64 -62,247 v 165 l 48,-27 c 26,-15 70,-38 99,-50 z m -75,-496 c 156,-84 375,-128 648,-129 276,-1 510,48 667,139 23,13 44,24 47,24 3,0 6,-75 6,-166 0,-194 -3,-204 -92,-264 -222,-148 -761,-182 -1101,-69 -104,34 -159,65 -207,114 l -35,36 -3,175 c -2,95 -1,174 2,174 3,0 34,-15 68,-34 z"
       id="path4" />
    <path
       d="m 4072,5037 c -31,-33 -29,-80 4,-106 26,-20 38,-21 370,-21 188,0 350,3 359,6 24,10 46,60 39,89 -14,54 -19,55 -399,55 h -352 z"
       id="path5" />
  </g>
</svg>
