<?xml version="1.0" encoding="UTF-8" standalone="no"?>
<svg
   version="1.0"
   width="386.93585pt"
   height="438.5pt"
   viewBox="0 0 386.93585 438.5"
   preserveAspectRatio="xMidYMid"
   id="svg7"
   xmlns="http://www.w3.org/2000/svg"
   xmlns:svg="http://www.w3.org/2000/svg">
  <defs
     id="defs7" />
  <g
     transform="matrix(0.1,0,0,-0.1,-319.06414,750)"
     fill="currentColor"
     stroke="none"
     id="g7">
    <path
       d="m 3452,7480 c -106,-38 -183,-108 -230,-208 l -27,-57 -3,-1740 c -3,-1922 -7,-1781 60,-1887 40,-63 88,-104 168,-142 l 65,-31 634,-3 c 481,-2 642,0 664,9 36,15 61,67 48,101 -21,55 6,53 -680,58 l -636,5 -45,25 c -24,14 -58,45 -75,68 l -30,44 -3,1711 c -2,1214 0,1723 8,1750 14,49 65,106 115,128 38,18 91,19 933,19 h 892 v -313 c 0,-359 3,-374 77,-457 25,-28 69,-63 97,-78 l 51,-27 290,-5 290,-5 5,-673 5,-674 24,-19 c 32,-26 77,-24 106,6 l 25,24 v 738 c 0,677 -1,741 -17,763 -22,33 -731,812 -784,863 l -29,27 h -973 c -929,-1 -974,-2 -1025,-20 z m 2268,-517 c 129,-142 252,-276 273,-299 21,-23 34,-44 30,-47 -4,-3 -106,-3 -225,-2 -250,4 -267,8 -305,85 -22,42 -23,55 -23,282 0,131 4,238 8,238 4,0 113,-116 242,-257 z"
       id="path1" />
    <path
       d="m 3956,6275 c -50,-18 -94,-59 -119,-115 -18,-38 -22,-72 -27,-217 -6,-195 -11,-211 -89,-248 -49,-24 -61,-39 -61,-78 0,-43 17,-67 65,-87 73,-31 79,-49 86,-250 4,-146 9,-182 25,-220 48,-107 189,-166 249,-105 50,49 25,115 -49,134 -25,6 -50,19 -55,29 -5,9 -11,94 -13,187 -3,151 -6,175 -26,216 -12,25 -33,56 -47,69 l -24,22 29,37 c 55,68 63,102 68,276 2,88 8,168 13,177 5,10 28,22 50,28 78,21 104,86 54,135 -28,29 -69,32 -129,10 z"
       id="path2" />
    <path
       d="m 5212,6284 c -21,-10 -43,-62 -36,-89 8,-31 49,-65 79,-65 12,0 30,-9 41,-21 17,-18 20,-42 24,-193 6,-183 13,-212 66,-269 l 25,-28 -27,-32 c -56,-66 -64,-98 -64,-267 0,-182 -11,-220 -68,-231 -64,-13 -94,-66 -68,-118 17,-32 34,-41 77,-41 78,0 170,73 194,154 10,34 15,97 15,200 0,180 9,205 86,245 54,29 77,63 68,101 -8,35 -22,49 -66,67 -21,8 -48,29 -61,47 -20,28 -22,45 -27,206 -5,163 -7,179 -31,225 -32,63 -98,106 -167,111 -26,2 -53,1 -60,-2 z"
       id="path3" />
    <path
       d="m 4314,5610 c -55,-22 -70,-95 -29,-135 31,-32 75,-32 111,-1 69,59 1,171 -82,136 z"
       id="path4" />
    <path
       d="m 4605,5609 c -52,-30 -62,-93 -20,-134 50,-51 135,-17 135,55 0,21 -8,47 -17,59 -22,25 -71,35 -98,20 z"
       id="path5" />
    <path
       d="m 4905,5608 c -75,-41 -50,-158 35,-158 82,0 112,118 39,155 -33,18 -47,18 -74,3 z"
       id="path6" />
    <path
       d="m 6299,4985 c -15,-8 -30,-22 -35,-32 -5,-10 -11,-81 -14,-158 l -5,-140 -536,-5 -536,-5 -49,-30 c -60,-38 -109,-108 -124,-179 -17,-83 -9,-1099 10,-1149 18,-51 82,-122 134,-150 l 41,-22 h 625 c 602,0 626,1 665,20 57,28 120,97 139,152 21,61 22,186 1,207 -25,24 -52,28 -84,12 -40,-21 -61,-53 -61,-94 0,-18 -6,-48 -14,-67 -28,-67 -12,-65 -650,-65 h -576 l -32,29 -33,29 -3,536 -3,536 35,37 34,38 570,3 569,2 21,23 c 18,19 21,36 23,130 1,59 5,107 8,107 4,0 111,-105 239,-233 l 232,-232 -234,-234 -233,-233 -7,32 c -3,18 -6,70 -6,116 0,77 -2,84 -26,103 -26,20 -39,21 -300,21 -273,0 -273,0 -300,-24 -36,-30 -39,-86 -6,-119 22,-21 30,-22 247,-25 l 225,-3 v -139 c 0,-130 1,-141 23,-165 26,-31 79,-45 124,-33 33,9 146,117 491,469 l 172,177 -1,48 c 0,27 -4,57 -8,67 -9,25 -589,616 -626,639 -36,21 -90,23 -126,3 z"
       id="path7" />
  </g>
</svg>
