<?xml version="1.0" encoding="UTF-8" standalone="no"?>
<svg
   version="1.0"
   width="473.45001pt"
   height="450.12607pt"
   viewBox="0 0 473.45001 450.12607"
   preserveAspectRatio="xMidYMid"
   id="svg5"
   xmlns="http://www.w3.org/2000/svg"
   xmlns:svg="http://www.w3.org/2000/svg">
  <defs
     id="defs5" />
  <g
     transform="matrix(0.1,0,0,-0.1,-299.99866,750.18201)"
     fill="currentColor"
     stroke="none"
     id="g5">
    <path
       d="m 4605,7498 c -862,-29 -1523,-319 -1595,-699 -14,-75 -13,-2787 1,-2865 18,-96 72,-188 169,-285 233,-235 619,-393 1140,-466 185,-26 674,-25 859,1 139,20 171,34 171,75 0,10 -17,33 -37,51 -34,30 -40,32 -92,27 -271,-27 -324,-29 -546,-24 -343,8 -582,46 -844,133 -348,115 -584,279 -661,460 -18,42 -20,70 -20,324 v 279 l 88,-70 c 99,-80 326,-198 477,-248 293,-98 629,-151 982,-154 176,-2 183,-1 204,20 27,26 29,75 6,101 -15,17 -40,20 -215,26 -526,18 -959,119 -1254,293 -101,60 -225,175 -258,239 l -25,49 -3,344 -3,344 38,-32 c 263,-219 624,-354 1118,-418 95,-12 211,-17 427,-17 l 297,-1 41,40 c 40,39 48,66 30,95 -8,13 -47,15 -272,12 -369,-5 -601,19 -893,93 -381,96 -678,271 -760,447 -25,53 -25,54 -25,386 v 334 l 48,-39 c 187,-156 471,-281 797,-351 202,-44 323,-60 557,-74 541,-31 1119,62 1496,242 117,56 251,142 296,189 17,17 33,31 38,31 4,0 8,-109 8,-243 0,-242 0,-244 23,-265 28,-27 67,-28 96,-4 l 22,17 -3,470 -3,470 -32,66 c -91,183 -315,338 -653,449 -367,121 -737,166 -1235,148 z m 385,-148 c 407,-24 761,-103 1027,-230 125,-59 181,-96 256,-169 219,-211 125,-440 -258,-631 -783,-390 -2230,-306 -2737,159 -87,81 -128,158 -128,245 1,80 25,131 97,208 240,252 799,410 1508,426 33,1 139,-3 235,-8 z"
       id="path1" />
    <path
       d="m 6260,5694 c -14,-2 -56,-9 -95,-15 -38,-6 -115,-26 -171,-44 -714,-233 -1102,-1017 -855,-1729 146,-422 515,-761 940,-866 748,-185 1490,299 1642,1071 20,101 17,397 -4,499 -99,463 -421,847 -846,1007 -142,53 -256,74 -426,78 -88,2 -171,2 -185,-1 z m 415,-173 c 210,-52 389,-149 539,-291 366,-348 481,-876 291,-1335 -212,-514 -739,-813 -1285,-730 -512,77 -928,498 -999,1009 -23,161 -9,362 35,515 47,164 166,369 290,497 176,182 432,315 679,354 99,15 358,4 450,-19 z"
       id="path2" />
    <path
       d="m 6195,5159 c -17,-4 -44,-22 -60,-39 -27,-28 -30,-39 -35,-113 l -5,-82 -198,-5 c -182,-5 -200,-7 -213,-24 -35,-48 2,-116 63,-116 31,0 31,0 37,-62 6,-67 36,-475 61,-824 8,-116 19,-224 25,-240 15,-39 56,-81 102,-105 35,-18 63,-19 429,-19 375,0 395,1 435,21 48,23 86,67 102,119 6,19 13,85 17,145 4,61 20,295 36,520 16,226 29,418 29,428 0,13 8,17 35,17 45,0 75,29 75,73 0,62 -14,66 -226,69 l -189,3 -5,75 c -7,88 -25,120 -86,150 -36,18 -59,20 -220,19 -98,0 -193,-5 -209,-10 z m 370,-189 v -45 l -162,-3 -163,-2 v 50 50 l 163,-2 162,-3 z m 315,-194 c 0,-2 -9,-127 -20,-278 -10,-150 -27,-385 -36,-523 -11,-174 -20,-257 -30,-272 -14,-22 -20,-23 -157,-24 -78,0 -246,-1 -374,-2 -200,-2 -235,0 -248,14 -13,13 -20,72 -35,295 -11,153 -24,342 -30,419 -6,77 -13,193 -17,258 l -6,117 h 476 c 263,0 477,-2 477,-4 z"
       id="path3" />
    <path
       d="m 6187,4582 c -15,-17 -17,-57 -17,-365 0,-334 1,-348 20,-367 25,-25 61,-26 91,-1 l 24,19 v 345 c 0,325 -1,346 -19,366 -24,26 -77,28 -99,3 z"
       id="path4" />
    <path
       d="m 6520,4580 c -19,-19 -20,-33 -20,-364 v -345 l 26,-20 c 35,-27 59,-26 89,4 l 25,24 v 331 c 0,328 -3,362 -34,382 -21,14 -66,8 -86,-12 z"
       id="path5" />
  </g>
</svg>
