<?xml version="1.0" encoding="UTF-8" standalone="no"?>
<svg
   version="1.0"
   width="424.78888pt"
   height="419.71664pt"
   viewBox="0 0 424.78888 419.71664"
   preserveAspectRatio="xMidYMid"
   id="svg6"
   xmlns="http://www.w3.org/2000/svg"
   xmlns:svg="http://www.w3.org/2000/svg">
  <defs
     id="defs6" />
  <g
     transform="matrix(0.1,0,0,-0.1,-315.13917,735.77463)"
     fill="currentColor"
     stroke="none"
     id="g6">
    <path
       d="m 3458,7341 c -160,-52 -273,-186 -298,-356 -7,-47 -10,-621 -8,-1770 3,-1645 4,-1702 22,-1750 59,-155 182,-264 331,-295 33,-7 340,-9 898,-8 l 849,3 19,24 c 25,30 24,72 -1,104 l -21,26 -862,3 -862,3 -50,27 c -62,33 -108,80 -134,138 -20,45 -21,57 -21,1770 v 1725 l 24,50 c 12,28 43,69 69,92 83,76 32,73 1093,73 h 943 l 3,-332 3,-333 30,-54 c 31,-56 88,-106 148,-128 22,-8 128,-12 329,-12 322,-1 317,0 339,-58 5,-14 9,-296 9,-653 v -629 l 22,-15 c 31,-22 84,-20 108,4 20,20 20,33 20,723 v 702 l -25,52 c -19,42 -102,132 -407,442 -267,272 -398,399 -433,418 l -50,28 -1015,2 c -962,2 -1018,1 -1072,-16 z m 2462,-543 295,-298 h -268 -267 l -32,29 -33,29 -3,271 c -2,149 1,270 5,269 4,0 141,-135 303,-300 z"
       id="path1" />
    <path
       d="m 4386,6568 c -19,-17 -52,-98 -128,-308 l -103,-285 -250,-3 c -239,-2 -250,-3 -272,-24 -31,-29 -31,-77 0,-106 23,-22 29,-22 312,-22 280,0 289,1 311,21 14,14 49,96 96,230 40,115 76,209 79,209 3,0 54,-159 113,-352 171,-558 153,-508 188,-522 36,-16 71,-10 93,14 13,14 193,413 229,505 7,17 11,13 32,-30 13,-27 32,-56 41,-62 13,-10 89,-13 299,-13 h 283 l 20,26 c 27,34 27,64 0,97 l -20,27 -247,2 -246,3 -39,80 c -21,44 -48,90 -60,103 -27,29 -82,30 -112,2 -12,-11 -66,-122 -120,-245 -54,-124 -102,-222 -106,-218 -4,5 -33,91 -63,193 -141,470 -206,665 -227,683 -29,24 -73,21 -103,-5 z"
       id="path2" />
    <path
       d="m 3632,5097 c -29,-31 -29,-77 1,-105 l 23,-22 h 796 797 l 20,26 c 12,15 21,37 21,49 0,12 -9,34 -21,49 l -20,26 h -798 -798 z"
       id="path3" />
    <path
       d="m 6599,4904 c -22,-24 -24,-34 -27,-154 l -4,-129 -451,-3 c -448,-3 -452,-3 -502,-26 -60,-28 -100,-64 -128,-117 -22,-39 -22,-49 -25,-570 -2,-476 -1,-534 14,-574 21,-55 75,-116 128,-144 40,-21 53,-22 422,-25 374,-3 381,-3 407,18 36,28 38,86 4,118 -23,22 -28,22 -376,22 -301,0 -358,2 -386,16 -65,31 -65,30 -65,548 0,498 1,507 50,551 21,19 40,20 529,25 278,3 507,7 508,8 17,17 28,63 33,135 l 5,87 243,-242 242,-243 -245,-245 -245,-245 v 93 c 0,106 -13,143 -58,161 -20,8 -118,11 -346,9 l -318,-3 -24,-28 c -31,-36 -31,-71 1,-102 l 24,-25 h 281 280 v -130 c 0,-146 11,-183 58,-201 66,-25 75,-18 429,334 356,354 362,362 330,423 -16,30 -623,637 -667,667 -38,26 -92,22 -121,-9 z"
       id="path4" />
    <path
       d="m 3655,4608 c -51,-27 -60,-84 -20,-123 l 24,-25 h 646 646 l 24,25 c 40,39 32,96 -16,120 -24,13 -124,15 -656,15 -435,-1 -634,-4 -648,-12 z"
       id="path5" />
    <path
       d="m 3632,4047 c -29,-31 -29,-77 1,-105 l 23,-22 h 651 652 l 20,26 c 27,34 27,64 0,98 l -20,26 h -653 -653 z"
       id="path6" />
  </g>
</svg>
