<?xml version="1.0" encoding="UTF-8"?>
<svg version="1.1" xmlns="http://www.w3.org/2000/svg" width="1254" height="1254" viewBox="303.66 282.31 648.66 648.66">
<path d="M0 0 C0.76756622 0.00093658 1.53513245 0.00187317 2.32595825 0.00283813 C84.12580967 0.21811486 157.09225394 33.34876942 215 90.1875 C244.91168927 120.31573596 268.04753534 159.33948735 282 199.1875 C282.47276367 200.52941406 282.47276367 200.52941406 282.95507812 201.8984375 C307.6407407 273.01788292 304.12715431 351.22500915 274 420.1875 C273.66419922 420.96077637 273.32839844 421.73405273 272.98242188 422.53076172 C259.80963358 452.48198292 241.11886118 479.20599788 219 503.1875 C218.16210938 504.12851562 217.32421875 505.06953125 216.4609375 506.0390625 C192.71200138 532.63804421 162.25990558 554.07087348 130.06347656 569.21337891 C128.65481974 569.87837426 127.25066716 570.55297424 125.85058594 571.23583984 C95.17390432 586.18518906 61.89329003 594.81830562 28 598.1875 C26.9495752 598.29336426 26.9495752 598.29336426 25.87792969 598.40136719 C-20.48485344 602.79363085 -68.89481177 595.6734859 -112 578.1875 C-112.7532959 577.88263672 -113.5065918 577.57777344 -114.28271484 577.26367188 C-140.78974054 566.3569819 -165.5011371 551.93023147 -188 534.1875 C-188.87011719 533.50945313 -189.74023438 532.83140625 -190.63671875 532.1328125 C-208.56723784 517.84074911 -224.93560087 501.28559306 -238.68945312 482.93505859 C-240.02642764 481.15225987 -241.38010143 479.38296143 -242.734375 477.61328125 C-277.72193069 431.42278319 -300.77497042 371.53523405 -301.23828125 313.2578125 C-301.2480751 312.23763031 -301.25786896 311.21744812 -301.26795959 310.16635132 C-301.43310616 288.51231706 -301.42798179 267.47324578 -297 246.1875 C-296.79632813 245.13981445 -296.59265625 244.09212891 -296.3828125 243.01269531 C-291.44687709 217.86837002 -283.39805944 193.14931369 -272 170.1875 C-271.52723633 169.22038086 -271.05447266 168.25326172 -270.56738281 167.25683594 C-256.68422126 139.02034825 -238.85886423 112.04035064 -216 90.1875 C-213.39164423 87.59659142 -210.80507441 84.98761167 -208.23828125 82.35546875 C-202.15625453 76.1379411 -195.95715871 70.43475796 -189 65.1875 C-188.08863281 64.48238281 -187.17726563 63.77726562 -186.23828125 63.05078125 C-143.68557126 30.49710592 -93.89402449 10.1146149 -40.9375 2.4375 C-40.14239014 2.32196777 -39.34728027 2.20643555 -38.52807617 2.08740234 C-25.722218 0.35293301 -12.90191991 -0.02051849 0 0 Z M-179 88.1875 C-177.72429396 90.98657671 -176.4108322 93.02118832 -174.22192383 95.17675781 C-173.66406693 95.73123596 -173.10621002 96.28571411 -172.53144836 96.85699463 C-171.92939072 97.44559265 -171.32733307 98.03419067 -170.70703125 98.640625 C-170.08277756 99.25967712 -169.45852386 99.87872925 -168.81535339 100.51654053 C-166.8191003 102.49501147 -164.816312 104.46668743 -162.8125 106.4375 C-160.82736234 108.39482784 -158.8437716 110.35365943 -156.86320496 112.31561279 C-155.63274322 113.53402827 -154.39962165 114.74976621 -153.1632843 115.96221924 C-150.15566449 118.93559584 -147.28179055 121.96804931 -144.51635742 125.16894531 C-141.105387 129.1164519 -137.49367832 132.80601048 -133.78125 136.46875 C-133.11967896 137.12653442 -132.45810791 137.78431885 -131.77648926 138.46203613 C-129.68677265 140.53967274 -127.59382685 142.61400627 -125.5 144.6875 C-122.736583 147.4240815 -119.97666278 150.16412263 -117.21875 152.90625 C-116.28875183 153.82380066 -116.28875183 153.82380066 -115.33996582 154.7598877 C-111.63642315 158.44295639 -108.16598379 162.25930494 -104.75183105 166.21081543 C-101.89636997 169.43278472 -98.84484581 172.44615872 -95.78125 175.46875 C-95.11967896 176.12653442 -94.45810791 176.78431885 -93.77648926 177.46203613 C-91.68677265 179.53967274 -89.59382685 181.61400627 -87.5 183.6875 C-84.736583 186.4240815 -81.97666278 189.16412263 -79.21875 191.90625 C-78.28875183 192.82380066 -78.28875183 192.82380066 -77.33996582 193.7598877 C-74.28170883 196.80123798 -71.34612895 199.89466207 -68.52734375 203.16015625 C-64.97911633 207.26668766 -61.20392687 211.09433413 -57.34375 214.90625 C-56.63778687 215.60842651 -55.93182373 216.31060303 -55.20446777 217.03405762 C-52.97208642 219.25434603 -50.73647889 221.47133955 -48.5 223.6875 C-45.54909622 226.61159479 -42.60166797 229.53913057 -39.65625 232.46875 C-38.66063049 233.451922 -38.66063049 233.451922 -37.64489746 234.45495605 C-33.83426956 238.24584102 -30.24807311 242.15806645 -26.7364502 246.22619629 C-23.88744653 249.44411839 -20.83962101 252.45131359 -17.78125 255.46875 C-17.11967896 256.12653442 -16.45810791 256.78431885 -15.77648926 257.46203613 C-13.68677265 259.53967274 -11.59382685 261.61400627 -9.5 263.6875 C-6.736583 266.4240815 -3.97666278 269.16412263 -1.21875 271.90625 C-0.28875183 272.82380066 -0.28875183 272.82380066 0.66003418 273.7598877 C4.37230089 277.4516322 7.85284175 281.27671617 11.27502441 285.2376709 C13.98310679 288.29875645 16.87143859 291.1633415 19.78125 294.03125 C20.39842896 294.64464233 21.01560791 295.25803467 21.65148926 295.89001465 C23.59854038 297.82500058 25.54882407 299.75667405 27.5 301.6875 C30.07593219 304.23656624 32.64834314 306.78911354 35.21875 309.34375 C35.79500122 309.91170288 36.37125244 310.47965576 36.96496582 311.06481934 C39.88123153 313.96380534 42.66754193 316.91937026 45.34960938 320.03710938 C49.40816055 324.72930842 53.78019558 329.07496848 58.1875 333.4375 C59.04883545 334.29504883 59.9101709 335.15259766 60.79760742 336.03613281 C63.5293112 338.75570889 66.26423275 341.472012 69 344.1875 C72.60711851 347.76788026 76.21081802 351.35165181 79.8125 354.9375 C80.62936279 355.74606445 81.44622559 356.55462891 82.2878418 357.38769531 C86.44212054 361.52432923 90.40055803 365.7430332 94.22338867 370.18603516 C97.56641525 373.95216569 101.17128622 377.45969884 104.75 381 C105.56694336 381.81315674 106.38388672 382.62631348 107.22558594 383.46411133 C109.81462671 386.04103297 112.40688737 388.61467625 115 391.1875 C118.41962719 394.58037153 121.83582149 397.97664657 125.25 401.375 C126.02311523 402.13981689 126.79623047 402.90463379 127.59277344 403.69262695 C131.65332359 407.73499421 135.51008754 411.87028081 139.24829102 416.2109375 C142.37613582 419.74027987 145.74072576 423.03005407 149.09375 426.34375 C149.84410522 427.0903186 150.59446045 427.83688721 151.36755371 428.6060791 C153.7425992 430.96902025 156.12086817 433.3286737 158.5 435.6875 C161.63839217 438.79910646 164.77332745 441.91413755 167.90625 445.03125 C168.96749084 446.08004333 168.96749084 446.08004333 170.0501709 447.15002441 C174.0062144 451.08678276 177.75778612 455.13152959 181.40206909 459.35803223 C184.8772973 463.33681378 188.65622075 467.02967099 192.39038086 470.76318359 C193.83281856 472.20784996 195.26701565 473.66039854 196.70117188 475.11328125 C197.61060547 476.02464844 198.52003906 476.93601562 199.45703125 477.875 C200.6941687 479.11830078 200.6941687 479.11830078 201.95629883 480.38671875 C203.79611657 482.40786955 203.79611657 482.40786955 206 482.1875 C207.77102367 480.14098376 209.42587049 478.08799718 211.0625 475.9375 C211.55564697 475.29707764 212.04879395 474.65665527 212.55688477 473.99682617 C213.56711281 472.68217709 214.57451589 471.36535243 215.57910156 470.04638672 C216.8078958 468.43881982 218.05467193 466.84502777 219.3046875 465.25390625 C263.35709626 408.37304878 281.10283599 335.24286942 272.8125 264.3125 C266.30098787 213.8389906 245.06209879 165.61637945 213 126.1875 C212.57348145 125.65801758 212.14696289 125.12853516 211.70751953 124.58300781 C199.38289404 109.39124232 185.52845318 94.98266223 169.69921875 83.43359375 C167.92744985 82.13429655 166.1819187 80.80449794 164.4375 79.46875 C87.92752366 21.39183657 -14.96096431 8.6463319 -179 88.1875 Z M-200.5 108.5 C-204.52420108 112.57441393 -208.14945619 116.89104426 -211.7265625 121.359375 C-213.17511102 123.16134945 -214.64694922 124.94501872 -216.1484375 126.703125 C-256.33802516 174.0020621 -277.28059699 238.24789761 -277.1875 299.75 C-277.18656342 300.55007477 -277.18562683 301.35014954 -277.18466187 302.17446899 C-277.15479034 313.94929282 -276.98448993 325.55270525 -275 337.1875 C-274.84402344 338.10901855 -274.68804687 339.03053711 -274.52734375 339.97998047 C-269.13041276 370.84742744 -259.95088987 400.56353657 -245 428.1875 C-244.65114746 428.83976562 -244.30229492 429.49203125 -243.94287109 430.1640625 C-235.92584114 445.08214607 -226.64876172 459.02096147 -216 472.1875 C-215.57058105 472.72133301 -215.14116211 473.25516602 -214.69873047 473.80517578 C-202.70661051 488.58472487 -189.16789313 502.65990122 -174 514.1875 C-172.75245031 515.1843786 -171.50648452 516.18324114 -170.26171875 517.18359375 C-159.74046734 525.54891241 -148.69983483 532.58977947 -137 539.1875 C-136.22962402 539.62690918 -135.45924805 540.06631836 -134.66552734 540.51904297 C-98.5307127 560.96730641 -54.99847409 574.17006008 -13.27734375 574.390625 C-12.3822258 574.39763931 -11.48710785 574.40465363 -10.56486511 574.41188049 C-7.68902496 574.42929172 -4.81339094 574.43573359 -1.9375 574.4375 C-0.46177521 574.43851212 -0.46177521 574.43851212 1.04376221 574.43954468 C71.61720174 574.36267042 135.64498028 546.82559228 188 500.1875 C186.64768813 497.15772571 185.14519457 495.10277387 182.76953125 492.796875 C182.13080078 492.16910156 181.49207031 491.54132813 180.83398438 490.89453125 C180.16689453 490.24871094 179.49980469 489.60289062 178.8125 488.9375 C177.50393952 487.66409488 176.19794451 486.38804814 174.89453125 485.109375 C174.31550049 484.54831055 173.73646973 483.98724609 173.13989258 483.40917969 C171.29469368 481.49345693 169.56419081 479.53608226 167.83081055 477.52050781 C163.70368167 472.77449258 159.28073432 468.36034245 154.8125 463.9375 C153.95116455 463.07995117 153.0898291 462.22240234 152.20239258 461.33886719 C149.4706888 458.61929111 146.73576725 455.902988 144 453.1875 C140.39288149 449.60711974 136.78918198 446.02334819 133.1875 442.4375 C132.37063721 441.62893555 131.55377441 440.82037109 130.7121582 439.98730469 C126.54046346 435.83332874 122.56175575 431.59723904 118.72290039 427.13525391 C115.67552107 423.69016503 112.39582551 420.48123738 109.125 417.25 C108.39684082 416.52562744 107.66868164 415.80125488 106.91845703 415.05493164 C104.61474354 412.76331697 102.30780526 410.47499348 100 408.1875 C96.95535221 405.16964919 93.91417033 402.14836584 90.875 399.125 C89.84656982 398.10901733 89.84656982 398.10901733 88.79736328 397.07250977 C85.65005986 393.94101613 82.60631827 390.77967815 79.71875 387.40625 C75.46137632 382.4736638 70.8370433 377.91213009 66.21405029 373.3263855 C64.58766731 371.71296486 62.96460304 370.09626729 61.34228516 368.47875977 C57.89768516 365.04549254 54.44915219 361.61619316 51 358.1875 C46.99767795 354.20891817 42.99706185 350.2286508 39.00067139 346.24411011 C37.41478994 344.66462934 35.82588904 343.08823203 34.23681641 341.51196289 C29.51919403 336.81798643 24.93413436 332.07511088 20.60571289 327.01806641 C17.81264415 323.83387461 14.79508304 320.87974455 11.78125 317.90625 C11.11967896 317.24846558 10.45810791 316.59068115 9.77648926 315.91296387 C7.68677265 313.83532726 5.59382685 311.76099373 3.5 309.6875 C0.736583 306.9509185 -2.02333722 304.21087737 -4.78125 301.46875 C-5.40124878 300.85704956 -6.02124756 300.24534912 -6.66003418 299.6151123 C-9.7002891 296.59166457 -12.61886105 293.51842784 -15.41796875 290.26953125 C-19.25183132 285.83275748 -23.36366324 281.71530089 -27.53125 277.59375 C-28.32599731 276.80278931 -29.12074463 276.01182861 -29.9395752 275.19689941 C-32.45728432 272.69130477 -34.97821446 270.18899142 -37.5 267.6875 C-40.82588189 264.3883832 -44.14832336 261.08585626 -47.46875 257.78125 C-48.21999146 257.03830688 -48.97123291 256.29536377 -49.74523926 255.52990723 C-53.7741429 251.51954808 -57.59789979 247.41067321 -61.30773926 243.10461426 C-64.07010836 239.97520455 -67.02897972 237.05480057 -70 234.125 C-70.639375 233.48941162 -71.27875 232.85382324 -71.9375 232.19897461 C-73.95588397 230.1926635 -75.97749876 228.18965999 -78 226.1875 C-93.05945648 211.27950357 -93.05945648 211.27950357 -98.1875 205.22265625 C-102.70574782 200.14936506 -107.66789552 195.46045309 -112.5 190.6875 C-124.7519613 178.58551899 -124.7519613 178.58551899 -128.46875 174.21875 C-133.60334149 168.19391187 -139.37402 162.74747688 -145 157.1875 C-147.29470974 154.91971143 -149.58585376 152.64840292 -151.875 150.375 C-152.38562988 149.87266846 -152.89625977 149.37033691 -153.42236328 148.8527832 C-156.2078291 146.08581497 -158.85058648 143.24425512 -161.41845703 140.2734375 C-164.92816844 136.22068413 -168.63384148 132.40881813 -172.4296875 128.625 C-173.44338913 127.60986328 -173.44338913 127.60986328 -174.47756958 126.57421875 C-175.88974374 125.16137005 -177.30315749 123.74975932 -178.71777344 122.33935547 C-180.89375805 120.16878865 -183.06427483 117.9928546 -185.234375 115.81640625 C-186.61165812 114.43978289 -187.98925085 113.0634692 -189.3671875 111.6875 C-190.34363724 110.70801392 -190.34363724 110.70801392 -191.33981323 109.70874023 C-195.9033983 104.61207035 -195.9033983 104.61207035 -200.5 108.5 Z " fill="#5e534a" transform="translate(629,306.8125)"/>
<path d="M0 0 C11.77799559 9.04894783 19.28418574 20.78429818 22.25 35.34375 C23.6948921 52.10449836 20.41717402 67.28957792 9.49609375 80.4609375 C-1.18844237 91.81445173 -13.93409803 97.85191327 -29.53515625 98.43945312 C-45.5768514 98.63012304 -58.37318151 93.79730372 -70.1875 82.78125 C-80.34720476 71.98542777 -85.32290674 58.63666276 -85.9375 43.90625 C-85.26655782 27.95514073 -78.71570711 14.10574973 -67.171875 3.2265625 C-48.00881985 -12.59664589 -20.61730172 -14.14442793 0 0 Z M-55.4375 24.96875 C-61.18437815 33.43181435 -62.25852126 40.79981519 -61.4375 50.96875 C-59.76297696 58.18130405 -56.07681495 64.17160118 -50.4375 68.96875 C-41.90170009 74.25594809 -33.57769112 76.6126775 -23.62109375 74.3203125 C-13.99844587 71.18860234 -8.024146 66.00699304 -3.34765625 57.08203125 C-0.22495226 49.83146105 -0.13043622 41.0925121 -2.49609375 33.62890625 C-6.46649534 25.09630879 -11.63890478 19.49045516 -20.1875 15.53125 C-33.27190964 10.89551591 -46.35612499 14.63616332 -55.4375 24.96875 Z " fill="#5e534a" transform="translate(790.4375,460.03125)"/>
<path d="M0 0 C12.9937972 6.1340399 24.20227185 13.09287107 34.78125 22.81640625 C36.15410156 24.01136719 36.15410156 24.01136719 37.5546875 25.23046875 C41.29812651 28.5017623 44.86360767 31.78342783 48.09375 35.56640625 C58.19285644 47.30955327 69.47658694 59.6838427 85.78125 61.81640625 C100.45606676 62.7724928 111.9126875 58.55695765 123.46875 49.44140625 C127.62291198 46.32279185 130.52347246 44.71176135 135.76953125 45.2109375 C139.32801317 46.28193691 141.22865603 48.13618258 143.78125 50.81640625 C145.38243763 54.01878152 145.13219997 57.33390267 144.78125 60.81640625 C141.17760463 70.05074752 129.20698468 76.66293821 120.78125 80.81640625 C103.29458698 88.11153554 84.68592452 89.5857351 66.78125 82.81640625 C51.80238913 76.23116673 39.91435734 65.18198842 29.34375 52.87890625 C11.72240296 32.55916268 -9.91290318 19.17759525 -37.21875 16.75390625 C-38.02006348 16.69879883 -38.82137695 16.64369141 -39.64697266 16.58691406 C-45.39624582 16.13954686 -50.15773266 15.22092648 -54.09375 10.62890625 C-55.56390615 6.95351586 -55.9074916 3.68395522 -55.21875 -0.18359375 C-46.36580529 -17.25712998 -13.79367424 -5.98225654 0 0 Z " fill="#5e534a" transform="translate(681.21875,542.18359375)"/>
<path d="M0 0 C0.85726181 -0.0049649 1.71452362 -0.00992981 2.59776306 -0.01504517 C5.43725383 -0.02966398 8.2766887 -0.03646893 11.11621094 -0.04199219 C13.09055584 -0.04774462 15.06490073 -0.05350234 17.03924561 -0.05926514 C21.1819281 -0.06977484 25.3245912 -0.07561746 29.46728516 -0.07910156 C34.76784473 -0.08458102 40.06814675 -0.1085975 45.36862564 -0.13707352 C49.44877869 -0.15572713 53.52887011 -0.16090699 57.60906219 -0.16243744 C59.56263382 -0.1654592 61.51620449 -0.17347162 63.46973419 -0.18662262 C66.20788461 -0.20373721 68.94541108 -0.20178948 71.68359375 -0.1953125 C72.48592941 -0.20452728 73.28826508 -0.21374207 74.11491394 -0.22323608 C79.33671423 -0.18467463 82.96169452 0.71669755 87.60058594 3.16113281 C90.55903637 6.50131879 91.19574233 9.70159803 91.01855469 14.16503906 C90.24061876 17.88022839 88.36080703 19.58492646 85.60058594 22.16113281 C81.19547281 24.52680266 76.83896991 24.45081509 71.95825195 24.43579102 C70.66951172 24.44345741 70.66951172 24.44345741 69.35473633 24.45127869 C66.5212503 24.46515229 63.6880081 24.46421964 60.85449219 24.46191406 C58.88060923 24.46580211 56.90672711 24.470137 54.93284607 24.47489929 C50.79789517 24.48235662 46.66302966 24.48207366 42.52807617 24.47680664 C37.2341784 24.47101152 31.94063044 24.48794649 26.6467905 24.51115131 C22.57095808 24.52589602 18.49520977 24.52675936 14.41935539 24.52364159 C12.46775558 24.52415439 10.51615101 24.5293844 8.5645771 24.53945351 C5.83359278 24.55181533 3.10328822 24.54502785 0.37231445 24.53344727 C-0.83186882 24.54491287 -0.83186882 24.54491287 -2.06037903 24.55661011 C-7.70148792 24.5038438 -12.00358587 23.47434624 -16.21191406 19.41113281 C-17.88248668 16.24583733 -18.27612707 13.73645549 -18.39941406 10.16113281 C-16.87043428 5.97655658 -15.24482878 3.4443478 -11.39941406 1.16113281 C-7.57916006 -0.11228519 -3.98115354 0.00549135 0 0 Z " fill="#5e534a" transform="translate(455.3994140625,545.8388671875)"/>
<path d="M0 0 C1.15087097 -0.00708481 2.30174194 -0.01416962 3.48748779 -0.02146912 C5.36021111 -0.01775299 5.36021111 -0.01775299 7.27076721 -0.01396179 C8.61003401 -0.018313 9.94929832 -0.02349751 11.28855896 -0.02944946 C14.91461929 -0.04280635 18.54057518 -0.04342187 22.1666553 -0.04088616 C25.1984055 -0.03981427 28.23013476 -0.04470537 31.26188046 -0.04949158 C38.41638868 -0.06057518 45.5708444 -0.06103055 52.72535706 -0.05497742 C60.09626856 -0.04893693 67.46698921 -0.0612531 74.83786815 -0.08254749 C81.17606267 -0.10018244 87.51419653 -0.10616189 93.85241467 -0.10290974 C97.63365151 -0.10109986 101.41475218 -0.10370353 105.19596672 -0.11762428 C108.75259015 -0.13022907 112.3089167 -0.12823376 115.86553574 -0.11521339 C117.78571095 -0.11173257 119.70589534 -0.12300587 121.6260376 -0.13478088 C134.75371838 -0.05496603 134.75371838 -0.05496603 140.03468323 5.13960266 C142.03832653 9.0391665 141.74576488 13.00176549 141.12452698 17.26069641 C138.78535477 21.41922478 136.56894685 22.80452235 132.12452698 24.26069641 C129.35523319 24.515172 129.35523319 24.515172 126.28665161 24.52139282 C124.53499695 24.53202003 124.53499695 24.53202003 122.74795532 24.54286194 C121.47560532 24.54038452 120.20325531 24.5379071 118.89234924 24.53535461 C117.53190329 24.53970427 116.17145978 24.54488827 114.8110199 24.55084229 C111.12298652 24.56421605 107.43505573 24.56481279 103.74700284 24.56227899 C100.66550211 24.56120821 97.58402204 24.56609535 94.50252575 24.57088441 C87.23157224 24.58197389 79.9606704 24.58242009 72.68971252 24.57637024 C65.19440308 24.57032952 57.6992813 24.58264515 50.20400387 24.60394031 C43.7630861 24.62156549 37.32222803 24.62755624 30.88128704 24.62430257 C27.03691086 24.62249108 23.19266858 24.62511237 19.34831429 24.63901711 C15.7326129 24.6516059 12.11720378 24.64964164 8.50150681 24.63660622 C6.54653917 24.63311869 4.59156256 24.64441057 2.6366272 24.65617371 C-8.11050733 24.59177559 -8.11050733 24.59177559 -12.87547302 21.26069641 C-15.69610402 18.39235918 -16.30683051 16.30968998 -16.31297302 12.32319641 C-16.19639437 8.88159177 -15.92523071 7.35255676 -14.25047302 4.26069641 C-9.98753032 0.67084993 -5.45003134 0.01123694 0 0 Z " fill="#5e534a" transform="translate(437.87547302246094,621.7393035888672)"/>
<path d="M0 0 C3.02508145 1.73602105 5.41790069 3.83580137 7 7 C7.86440447 14.61374439 5.20653486 19.79047166 1.8125 26.5 C1.27222168 27.59296387 0.73194336 28.68592773 0.17529297 29.81201172 C-13.01690052 56.26861181 -27.98100994 81.46799871 -44.59179688 105.9140625 C-45.8343006 107.75455346 -47.04844064 109.61035821 -48.2578125 111.47265625 C-50.29747275 114.43153559 -51.67230954 115.63867208 -55 117 C-61.56693369 117.83389634 -61.56693369 117.83389634 -64.8125 115.9453125 C-67.62958664 113.65642961 -69.76111744 111.78345717 -70.25366211 108.10620117 C-70.49164676 101.89095906 -69.07875687 98.35137876 -65.5625 93.3125 C-65.1094751 92.62679932 -64.6564502 91.94109863 -64.18969727 91.23461914 C-63.25735166 89.825131 -62.31683323 88.42101446 -61.36816406 87.02246094 C-59.34118029 84.02611305 -57.38936593 80.98308764 -55.4375 77.9375 C-55.06794189 77.36418945 -54.69838379 76.79087891 -54.31762695 76.20019531 C-43.82316334 59.88005587 -34.05479908 42.97277112 -25.23046875 25.6953125 C-24.76142876 24.77884949 -24.76142876 24.77884949 -24.28291321 23.84387207 C-22.75895859 20.86050261 -21.24945948 17.87146234 -19.75708008 14.87207031 C-11.25679797 -1.92138296 -11.25679797 -1.92138296 0 0 Z " fill="#5e534a" transform="translate(663,675)"/>
<path d="M0 0 C0.79044708 -0.00817749 1.58089417 -0.01635498 2.39529419 -0.02478027 C5.0177535 -0.04964297 7.6401586 -0.06615353 10.26269531 -0.08056641 C11.15804237 -0.08589008 12.05338943 -0.09121376 12.97586823 -0.09669876 C17.7159998 -0.12343567 22.456105 -0.14280779 27.19628906 -0.15722656 C32.09024896 -0.17386509 36.98353422 -0.2186344 41.87723923 -0.26959801 C45.64167037 -0.30327312 49.40594154 -0.31480433 53.17050934 -0.32045364 C54.97422687 -0.32716668 56.77793386 -0.34239018 58.58150482 -0.36634445 C61.10958084 -0.39800218 63.6358399 -0.39803231 66.1640625 -0.390625 C66.90610931 -0.40703033 67.64815613 -0.42343567 68.41268921 -0.44033813 C72.28272658 -0.39403871 74.7938433 0.17048295 77.78936768 2.5418396 C80.82944788 5.70056897 81.27016923 7.23908148 81.59082031 11.56787109 C81.31853542 15.51600197 80.85623578 17.17437254 78.34082031 20.19287109 C73.72302306 23.03206118 69.81222576 23.63069553 64.50292969 23.59692383 C63.74115921 23.60378708 62.97938873 23.61065033 62.1945343 23.61772156 C59.69102027 23.63593638 57.18813601 23.6321603 54.68457031 23.62646484 C52.93631793 23.63102877 51.18806733 23.63633498 49.43981934 23.64234924 C45.7815826 23.65126955 42.1235643 23.64886906 38.46533203 23.63891602 C33.78450328 23.62741971 29.10442819 23.64765316 24.42369843 23.67683315 C20.81536089 23.69520412 17.20720375 23.69490106 13.59883118 23.68919563 C11.87330568 23.68904257 10.14776784 23.69507449 8.42228699 23.70748711 C6.00728418 23.72241512 3.59367113 23.71170859 1.17871094 23.69458008 C0.11714531 23.70908203 0.11714531 23.70908203 -0.96586609 23.72387695 C-5.97082156 23.64978426 -8.81158407 22.34108819 -12.65917969 19.19287109 C-15.34039045 15.17105495 -15.47262303 11.92050718 -14.65917969 7.19287109 C-11.01726915 0.65367857 -6.94608985 0.03944576 0 0 Z " fill="#5e534a" transform="translate(481.6591796875,700.80712890625)"/>
</svg>
