<?xml version="1.0" encoding="UTF-8"?>
<svg version="1.1" xmlns="http://www.w3.org/2000/svg" width="1254" height="1254" viewBox="291.07 283.39 671.10 671.10">
<path d="M0 0 C0.864042 -0.00367669 1.72808399 -0.00735338 2.61830908 -0.01114148 C5.51911005 -0.02217104 8.41987518 -0.02602099 11.32069397 -0.02983093 C13.39868788 -0.0360963 15.47668067 -0.04274317 17.55467224 -0.04974365 C24.3856071 -0.07078373 31.21654217 -0.08114835 38.04750061 -0.09111023 C40.40107803 -0.09515829 42.75465532 -0.09927522 45.1082325 -0.10346031 C56.16979505 -0.12251457 67.23135092 -0.13674318 78.29292673 -0.14507228 C91.04789939 -0.15483558 103.8026981 -0.18113053 116.5576095 -0.22157317 C126.42363057 -0.25177833 136.28960192 -0.26654547 146.15566832 -0.26985329 C152.04425592 -0.27219942 157.93265774 -0.28110258 163.8211956 -0.30631447 C169.36736159 -0.32967603 174.91322054 -0.33379588 180.45942307 -0.32355309 C182.48741111 -0.32305952 184.51541467 -0.32932653 186.54335594 -0.34310913 C206.00171493 -0.46788003 220.58611193 2.99759899 235.19984436 16.74092102 C244.75316628 26.64806968 250.43947675 39.3110261 250.82997131 53.07929993 C250.85029356 53.77896252 250.87061581 54.47862511 250.89155388 55.19948959 C250.95715446 57.54912301 251.01472503 59.89885762 251.07093811 62.24873352 C251.09175257 63.07277302 251.11256702 63.89681252 251.13401222 64.74582291 C251.6576421 85.83370219 251.70754239 106.92394069 251.70545959 128.01728821 C251.70535593 133.51734109 251.71927398 139.01727071 251.7362318 144.51729393 C251.74733695 148.81358932 251.74937965 153.10985399 251.74884987 157.40616226 C251.75002192 159.43704803 251.75439962 161.4679348 251.76218224 163.498806 C251.77200044 166.31186232 251.76910252 169.12463734 251.76307678 171.93769836 C251.76869629 172.75625809 251.7743158 173.57481781 251.78010559 174.41818237 C251.746771 180.5554693 251.51572759 186.79944075 247.39515686 191.64717102 C243.65276997 193.5997207 240.65538767 194.14129722 236.52015686 193.14717102 C233.82910488 190.97142686 232.06482758 189.23651246 230.52015686 186.14717102 C230.42345162 184.37274034 230.39111917 182.59465891 230.38885498 180.81759644 C230.38284271 179.12083015 230.38284271 179.12083015 230.37670898 177.38978577 C230.3772377 176.14255737 230.37776642 174.89532898 230.37831116 173.61030579 C230.3729774 171.60063274 230.36763767 169.59095969 230.36207449 167.58128726 C230.35687105 165.41595215 230.35396161 163.25062313 230.35149193 161.08528328 C230.34558003 156.56639919 230.32903499 152.04759382 230.31015015 147.52874756 C230.30381221 145.98078637 230.29748659 144.43282514 230.29117298 142.88486385 C230.28800717 142.10944016 230.28484136 141.33401647 230.28157961 140.5350951 C230.23954853 130.01428118 230.20656694 119.49350267 230.19422913 108.97261047 C230.18582387 101.87807197 230.16323738 94.78372725 230.12487346 87.6892857 C230.10518539 83.93801791 230.09268365 80.18703934 230.09770775 76.43571663 C230.10238655 72.89871418 230.08837502 69.36225761 230.06069565 65.82536507 C230.05059261 63.92503872 230.05998317 62.02463915 230.07019043 60.12431335 C229.9507107 49.0408309 227.31362632 39.31687693 219.52015686 31.14717102 C211.03984229 23.54770379 202.63212354 20.99726929 191.33766174 21 C190.5176844 20.99632331 189.69770705 20.99264662 188.85288191 20.98885852 C186.10720155 20.97785193 183.36155908 20.97398295 180.61585999 20.97016907 C178.64609152 20.96390202 176.67632423 20.957255 174.70655823 20.95025635 C168.23818278 20.92923816 161.76980715 20.91885442 155.30140686 20.90888977 C153.0713398 20.90484105 150.84127286 20.90072409 148.61120605 20.89653969 C138.13056939 20.87749108 127.64993975 20.86326068 117.16928911 20.85492772 C105.08897818 20.84516334 93.00885087 20.8188632 80.9286046 20.77842683 C71.58060571 20.748215 62.2326593 20.73345394 52.88461256 20.73014671 C47.30679134 20.72780157 41.72916636 20.71891117 36.15139771 20.69368553 C30.89823043 20.67031185 25.6453873 20.66620889 20.3921814 20.67644691 C18.47223326 20.67694017 16.55226866 20.67068244 14.63237 20.65689087 C1.1085224 20.56523886 -11.7355356 20.86353756 -22.54624939 30.16670227 C-32.05754628 39.90857605 -33.93117282 50.25174385 -33.86460876 63.46626282 C-33.87285562 65.47458355 -33.88110327 67.48290428 -33.88938141 69.49122488 C-33.89535238 71.63312065 -33.89400883 73.77489937 -33.89053345 75.91679955 C-33.88368641 80.39292617 -33.89965361 84.86879931 -33.91893005 89.34487915 C-33.95987645 99.64896693 -33.9713292 109.95304677 -33.98246002 120.25720215 C-33.99297759 129.71460905 -34.00977604 139.171893 -34.05055571 148.62922412 C-34.06887684 153.07586998 -34.07281754 157.52222268 -34.06562042 161.96889722 C-34.06446372 164.06842758 -34.07010925 166.16780773 -34.07879639 168.26731873 C-34.08933174 170.82264076 -34.0892544 173.37803796 -34.07644653 175.93334961 C-34.15317219 186.51385954 -34.15317219 186.51385954 -37.47984314 191.14717102 C-41.49134082 193.8215028 -44.76424975 193.96619514 -49.47984314 193.14717102 C-53.04665156 190.4720647 -54.7099888 188.48161995 -55.47984314 184.14717102 C-55.57156313 182.38761304 -55.61037893 180.62496588 -55.61355591 178.86302185 C-55.61782089 177.79232956 -55.62208588 176.72163727 -55.6264801 175.61849976 C-55.62602692 174.44863022 -55.62557373 173.27876068 -55.62510681 172.07344055 C-55.62846542 170.83713394 -55.63182404 169.60082733 -55.63528442 168.32705688 C-55.64316013 164.93594724 -55.64646241 161.54489885 -55.64710021 158.15378428 C-55.64781201 156.02962769 -55.64994896 153.90547748 -55.65259743 151.78132248 C-55.66185345 144.35411423 -55.66593264 136.92692391 -55.66514587 129.49971008 C-55.6645474 122.60617243 -55.67505316 115.71271361 -55.69088954 108.81919587 C-55.70403698 102.88178682 -55.70932666 96.94440328 -55.70869046 91.00697982 C-55.70843726 87.46975999 -55.71118795 83.93261 -55.72186852 80.39540482 C-55.73349854 76.43518868 -55.728759 72.47507713 -55.72276306 68.5148468 C-55.72838257 67.36521957 -55.73400208 66.21559235 -55.73979187 65.03112793 C-55.66625 45.7643045 -51.56386518 29.81447944 -38.22984314 15.45967102 C-27.65495657 5.45129623 -14.44811123 -0.00329561 0 0 Z " fill="#5e534a" transform="translate(529.4798431396484,344.8528289794922)"/>
<path d="M0 0 C1.18172791 -0.01606293 2.36345581 -0.03212585 3.58099365 -0.04867554 C8.99280328 -0.09305691 14.40446679 -0.13463751 19.81640625 -0.15722656 C22.67220189 -0.17055166 25.52728054 -0.19837573 28.3828125 -0.23925781 C32.49523959 -0.29813219 36.60689989 -0.31589636 40.71972656 -0.33056641 C41.9949115 -0.35323578 43.27009644 -0.37590515 44.58392334 -0.39926147 C54.46252316 -0.37568824 54.46252316 -0.37568824 58.14648438 2.50683594 C60.9182666 5.86977683 61.43788857 7.85079843 61.36035156 12.19287109 C59.74624111 15.93081108 57.8053065 18.07311821 54.36035156 20.19287109 C51.67311096 20.57382202 51.67311096 20.57382202 48.56958008 20.58105469 C46.8224044 20.59523941 46.8224044 20.59523941 45.03993225 20.60971069 C43.78570969 20.603638 42.53148712 20.59756531 41.23925781 20.59130859 C39.94720932 20.59417877 38.65516083 20.59704895 37.32395935 20.6000061 C34.59110741 20.60442412 31.85855006 20.59801676 29.12573242 20.58398438 C25.63081379 20.56690922 22.13658721 20.57672553 18.64169407 20.59470177 C15.29916061 20.60818101 11.95681091 20.5987283 8.61425781 20.59130859 C6.73596031 20.60041763 6.73596031 20.60041763 4.81971741 20.60971069 C3.65178146 20.60025421 2.48384552 20.59079773 1.28051758 20.58105469 C0.25555679 20.57866791 -0.76940399 20.57628113 -1.82542419 20.57382202 C-5.09316801 20.13147986 -6.97744795 19.10528036 -9.63964844 17.19287109 C-11.97032421 13.97431884 -12.10705981 11.08796583 -11.63964844 7.19287109 C-8.27095427 1.24151139 -6.66086804 0.08210197 0 0 Z " fill="#5e534a" transform="translate(602.6396484375,396.80712890625)"/>
<path d="M0 0 C2.66016521 2.12813217 3.78958501 3.61105877 4.3046875 7.01123047 C4.49662617 13.10128451 3.1548516 16.34959136 -0.5 21.125 C-1.43081998 22.43654263 -2.35650288 23.75174434 -3.27734375 25.0703125 C-3.73995605 25.72805664 -4.20256836 26.38580078 -4.67919922 27.06347656 C-30.07570683 64.29916942 -37.6870375 116.68173023 -29.5390625 160.31542969 C-24.87063655 183.56452923 -17.04681381 207.36089876 -3.27734375 226.93359375 C-2.81642334 227.59302979 -2.35550293 228.25246582 -1.88061523 228.93188477 C-0.99132298 230.18349875 -0.08192138 231.42118364 0.85131836 232.64038086 C3.8254046 236.77394581 4.4757667 239.91007003 4.36572266 244.98876953 C3.71807974 248.55037323 1.87776495 249.99807656 -1 252 C-4.69483652 253.25781669 -6.33021763 253.27376026 -9.953125 251.79296875 C-29.04223528 240.55976155 -40.94714498 201.80245196 -46.39941406 181.39794922 C-47.70468295 176.28766785 -48.8840117 171.15468039 -50 166 C-50.18224121 165.1646875 -50.36448242 164.329375 -50.55224609 163.46875 C-55.55743714 139.24462137 -55.09714445 111.15300544 -50 87 C-49.82839355 86.15163574 -49.65678711 85.30327148 -49.47998047 84.42919922 C-43.69207801 56.33795862 -32.48006721 20.30641405 -11 0 C-7.1430655 -1.28564483 -3.86050383 -1.10300109 0 0 Z " fill="#5e534a" transform="translate(370,491)"/>
<path d="M0 0 C3.06648037 2.02912084 4.77220551 4.85051413 6.7265625 7.890625 C7.1582373 8.55352539 7.58991211 9.21642578 8.03466797 9.89941406 C27.94026095 40.91493778 41.99716833 77.4884729 42.33984375 114.734375 C42.35446655 116.05223999 42.35446655 116.05223999 42.36938477 117.39672852 C42.53437743 136.11184682 42.50225722 154.09718656 38.1015625 172.390625 C37.91964355 173.20708496 37.73772461 174.02354492 37.55029297 174.86474609 C31.85539795 200.33655087 20.42243835 234.70393676 0.1015625 252.390625 C-3.15345418 253.36020444 -5.21915323 253.55235935 -8.5234375 252.765625 C-11.57898139 250.99662591 -13.07707332 249.42623196 -14.8984375 246.390625 C-15.70654787 242.71739606 -15.44975075 240.42631889 -13.67578125 237.09375 C-12.50305838 235.26396964 -11.30500539 233.45031355 -10.08984375 231.6484375 C17.06628309 191.27729707 27.51667836 140.90054205 18.93774414 92.94091797 C13.49495417 65.33868974 3.46426853 38.69660636 -13.5 16.06640625 C-15.29074901 12.63997309 -15.22837103 10.20715337 -14.8984375 6.390625 C-13.62845431 3.53316283 -12.6146372 1.90925237 -10.0859375 0.078125 C-6.62076229 -1.01093007 -3.47596908 -1.11574316 0 0 Z " fill="#5e534a" transform="translate(894.8984375,490.609375)"/>
<path d="M0 0 C15.27159999 14.45111541 26.1907288 36.15841933 27.7434082 57.29199219 C28.42399538 85.19877795 21.7978528 109.38046993 2.31494141 130.17724609 C-14.64313999 147.63701495 -36.92565011 157.39653431 -61.22924805 158.16845703 C-85.33116009 158.48938795 -107.64450553 149.78195099 -125.13671875 133.17578125 C-125.8946875 132.41910156 -126.65265625 131.66242188 -127.43359375 130.8828125 C-128.1915625 130.13644531 -128.94953125 129.39007812 -129.73046875 128.62109375 C-139.41392534 118.52024679 -146.27860029 106.21137975 -150.43359375 92.8828125 C-150.75199219 91.89023437 -151.07039062 90.89765625 -151.3984375 89.875 C-157.71422882 66.1835063 -153.67370726 40.69902381 -141.51611328 19.66699219 C-128.20438414 -2.27304312 -108.62818023 -16.39025384 -84.05859375 -22.9296875 C-53.15780581 -29.91523797 -23.64201373 -20.56817246 0 0 Z M-113.43359375 16.8828125 C-114.12839844 17.54539062 -114.82320312 18.20796875 -115.5390625 18.890625 C-127.5748667 31.13594997 -133.46322148 49.0684693 -133.68359375 65.9453125 C-133.51172468 85.30922815 -126.32539588 103.19355679 -112.80859375 117.0703125 C-98.36453083 131.25369318 -80.76789369 137.18598831 -60.81518555 137.125 C-41.88019675 136.83621931 -25.39069833 128.75054429 -12.0390625 115.5078125 C1.20403127 101.45212426 8.02236976 83.38277851 7.78125 64.06640625 C6.43814888 44.16408965 -1.26121793 27.00542337 -15.80078125 13.1328125 C-31.30332637 -0.11565336 -50.04858035 -5.52903648 -70.20068359 -4.31982422 C-87.01659004 -2.79377979 -101.72369616 4.8609283 -113.43359375 16.8828125 Z " fill="#5e534a" transform="translate(690.43359375,553.1171875)"/>
<path d="M0 0 C3.83424481 2.66730074 4.84292467 4.30438067 5.875 8.875 C5.57309363 14.29155538 2.62482729 18.22833558 -0.22167969 22.64599609 C-8.21342063 35.34882167 -12.90899351 50.20072134 -15 65 C-15.12890625 65.86238281 -15.2578125 66.72476563 -15.390625 67.61328125 C-19.03418718 96.90560355 -11.27774222 125.58338666 5 150 C5.54559913 153.0668414 5.52771825 155.93061835 5 159 C2.76418211 162.06626454 1.10526016 163.5346273 -2.375 165 C-6.2315632 165 -8.94722122 164.3043556 -12 162 C-14.80926608 158.59193344 -16.88849017 154.86959098 -19 151 C-19.32645508 150.40993164 -19.65291016 149.81986328 -19.98925781 149.21191406 C-37.64152236 116.97072138 -42.16206255 79.44280651 -32.15112305 43.98754883 C-27.90984347 29.94620006 -21.67705553 11.52702665 -11 1 C-6.9046341 -1.02539091 -4.4185611 -1.38080034 0 0 Z " fill="#5e534a" transform="translate(416,535)"/>
<path d="M0 0 C7.12997676 3.91663532 11.13552893 13.74733272 14.44604492 20.78466797 C14.9171167 21.78111328 15.38818848 22.77755859 15.87353516 23.80419922 C31.21015141 57.26398465 32.44449957 95.96177125 19.86694336 130.50488281 C18.06622643 135.13721371 16.04834028 139.6572554 13.94604492 144.15966797 C13.35424438 145.43837769 13.35424438 145.43837769 12.75048828 146.74291992 C9.4630111 153.51806255 5.53507022 160.90461154 -1.11645508 164.78466797 C-5.2646767 165.1303531 -7.5452806 164.12346813 -11.11645508 162.03466797 C-13.32420553 159.39961098 -14.03217348 157.73633766 -14.44067383 154.33544922 C-14.01144214 149.96556034 -12.26237352 147.22135861 -9.99145508 143.53466797 C6.68180108 115.14002431 11.43972967 82.69898994 3.29760742 50.734375 C0.23772357 39.66354523 -4.53508381 29.8104971 -10.12182617 19.81738281 C-14.74090493 11.53841544 -14.74090493 11.53841544 -13.76489258 5.86669922 C-12.69909137 2.85548979 -10.78877012 1.62533168 -8.11645508 0.03466797 C-4.95633691 -1.01870475 -3.16231078 -1.00019195 0 0 Z " fill="#5e534a" transform="translate(847.116455078125,534.96533203125)"/>
<path d="M0 0 C3.47032954 2.0340634 5.70165148 4.10495445 7 8 C7.09358489 9.73871537 7.12897692 11.48081533 7.13130188 13.2220459 C7.13531006 14.30411316 7.13931824 15.38618042 7.14344788 16.5010376 C7.14291916 17.68856628 7.14239044 18.87609497 7.1418457 20.09960938 C7.14705734 21.97570892 7.14705734 21.97570892 7.15237427 23.88970947 C7.15973719 26.61196908 7.1654078 29.33417975 7.16866493 32.05644226 C7.1745843 36.36957792 7.19113605 40.68263144 7.21000671 44.99572754 C7.21634435 46.47405238 7.22266998 47.95237727 7.22898388 49.43070221 C7.23214969 50.17115438 7.2353155 50.91160654 7.23857725 51.67449665 C7.28058784 61.71397252 7.31359285 71.7534109 7.32592773 81.79296875 C7.33433513 88.56633176 7.35692792 95.33949188 7.3952834 102.11275339 C7.41496152 105.69298239 7.42747652 109.2729087 7.42244911 112.85319519 C7.41689522 116.85748767 7.44232716 120.86103325 7.4699707 124.86523438 C7.46336929 126.03656921 7.45676788 127.20790405 7.44996643 128.41473389 C7.57792338 139.75163698 10.44682836 148.52909737 18.35546875 156.765625 C26.45028246 163.60496539 34.83922124 166.1496222 45.18959045 166.14717102 C46.43876752 166.15268605 46.43876752 166.15268605 47.71318048 166.1583125 C50.50809335 166.16933918 53.30296903 166.17319149 56.09790039 166.17700195 C58.10032265 166.18326746 60.10274375 166.18991434 62.10516357 166.19691467 C68.68598624 166.21795019 75.26680912 166.22831779 81.84765625 166.23828125 C84.11460317 166.24232924 86.38154996 166.24644618 88.64849663 166.25063133 C99.30106001 166.26968327 109.95361646 166.28391331 120.6061936 166.2922433 C132.89368501 166.30201081 145.18099604 166.32831773 157.4684239 166.36874419 C166.97093483 166.39893257 176.47339415 166.41371484 185.97595209 166.41702431 C191.64873822 166.41937202 197.32133165 166.42829612 202.99406624 166.45348549 C208.33503554 166.47681817 213.67568599 166.48097845 219.01669312 166.47072411 C220.97134399 166.47022987 222.92601084 166.47651694 224.88061333 166.49028015 C238.74998833 166.58243414 250.25599483 165.78734717 261 156 C267.5608083 149.29008242 271.11258858 141.01654021 271.13803101 131.66201782 C271.14621101 130.03863747 271.14621101 130.03863747 271.15455627 128.38246155 C271.1555986 127.20002365 271.15664093 126.01758575 271.15771484 124.79931641 C271.16279556 123.55015945 271.16787628 122.3010025 271.17311096 121.01399231 C271.18381656 118.29937964 271.19281682 115.58481799 271.19923019 112.8701973 C271.20992851 108.5751565 271.23017788 104.28019396 271.25234985 99.98519897 C271.31421369 87.77272118 271.36828281 75.56024847 271.40136719 63.34765625 C271.41972487 56.60072831 271.4486731 49.853932 271.4893719 43.10710084 C271.51041879 39.53883156 271.52589589 35.97072796 271.52817917 32.40239334 C271.53072971 28.42128186 271.55621139 24.44049529 271.58349609 20.45947266 C271.58048996 19.28108322 271.57748383 18.10269379 271.5743866 16.88859558 C271.63219018 11.21977787 271.67814293 6.84055201 275 2 C278.34725336 -0.62998478 281.8824152 -0.43342998 286 0 C288.75329021 1.79562405 290.52627461 3.05254922 292 6 C292.10173867 7.75712505 292.1394709 9.51810136 292.14717102 11.27815247 C292.15790398 12.95796204 292.15790398 12.95796204 292.16885376 14.67170715 C292.17154266 15.90644272 292.17423157 17.14117828 292.17700195 18.41333008 C292.18357315 19.70947235 292.19014435 21.00561462 292.19691467 22.34103394 C292.21797837 26.6505204 292.22832717 30.96000728 292.23828125 35.26953125 C292.24232958 36.75572923 292.24644652 38.24192702 292.25063133 39.72812462 C292.26969724 46.71896485 292.28391876 53.70979451 292.2922433 60.70065576 C292.3019863 68.74895266 292.32822244 76.79697237 292.36874419 84.84517175 C292.39903028 91.07636383 292.41372441 97.30747711 292.41702431 103.53874129 C292.41936293 107.2543493 292.42816476 110.96966172 292.45348549 114.6851902 C292.48137042 118.84474314 292.47689723 123.00368924 292.4699707 127.16333008 C292.48918579 128.98203362 292.48918579 128.98203362 292.50878906 130.83747864 C292.41516861 146.35444021 286.96993062 160.04806496 276.25 171.3125 C263.31600146 183.48452581 249.00217009 188.16069215 231.50816345 188.14044189 C230.69111752 188.14341302 229.87407158 188.14638414 229.03226668 188.1494453 C226.31438788 188.15806622 223.59655346 188.15963491 220.87866211 188.16113281 C218.92154854 188.16576572 216.96443586 188.17079101 215.00732422 188.17617798 C209.70324127 188.1892596 204.39917096 188.1957388 199.09507442 188.20018864 C195.77554008 188.2031266 192.45600914 188.20723278 189.13647652 188.21169281 C178.7337985 188.22535742 168.33112831 188.23502879 157.92844194 188.2388947 C145.95122511 188.24337114 133.97412263 188.26090424 121.99694055 188.2898953 C112.71848761 188.31156839 103.4400667 188.321602 94.16158873 188.32293582 C88.62961741 188.32397994 83.09775374 188.32980357 77.56580925 188.34775543 C72.35613549 188.36433338 67.14664919 188.36634477 61.93695831 188.35761642 C60.03559171 188.35685119 58.13421462 188.36112007 56.23287392 188.37107468 C35.86884612 188.4713533 18.63629357 186.10909366 3.21484375 171.3125 C-10.53705002 156.9542617 -14.15301748 141.06839812 -14.14526367 121.6965332 C-14.14862228 120.48420013 -14.1519809 119.27186707 -14.15544128 118.02279663 C-14.16327835 114.71930169 -14.16661662 111.41586962 -14.16725707 108.11236978 C-14.16797044 106.04588508 -14.17011005 103.97940688 -14.17275429 101.91292381 C-14.18198329 94.69707193 -14.18609175 87.48123845 -14.18530273 80.26538086 C-14.18470077 73.5476717 -14.19528198 66.83004253 -14.2110464 60.11235362 C-14.22412401 54.33296498 -14.22948662 48.55360251 -14.22884732 42.77419919 C-14.22859265 39.32731025 -14.23142792 35.88049268 -14.24202538 32.43361855 C-14.25351033 28.59414152 -14.24895822 24.75477461 -14.24291992 20.9152832 C-14.24853943 19.77698563 -14.25415894 18.63868805 -14.25994873 17.46589661 C-14.25575424 16.41881531 -14.25155975 15.37173401 -14.24723816 14.29292297 C-14.24778293 13.3861295 -14.24832769 12.47933603 -14.24888897 11.54506397 C-13.84223549 7.38674738 -12.67759828 4.71631818 -9.8125 1.6875 C-6.15886171 -0.50468298 -4.20117804 -0.6633439 0 0 Z " fill="#5e534a" transform="translate(488,705)"/>
<path d="M0 0 C0.6847641 -0.00817749 1.3695282 -0.01635498 2.07504272 -0.02478027 C4.34518559 -0.04962838 6.61526595 -0.0661489 8.88549805 -0.08056641 C9.66073507 -0.08589008 10.4359721 -0.09121376 11.23470116 -0.09669876 C15.33826077 -0.12342819 19.44178998 -0.14280345 23.54541016 -0.15722656 C27.78260851 -0.17387168 32.01902864 -0.21864781 36.25593281 -0.26959801 C39.51505927 -0.30326546 42.7740009 -0.31480335 46.03328514 -0.32045364 C47.59501275 -0.32716791 49.15672812 -0.34239478 50.71828651 -0.36634445 C52.90658464 -0.39799064 55.09278283 -0.3980352 57.28125 -0.390625 C59.14750786 -0.40275528 59.14750786 -0.40275528 61.0514679 -0.41513062 C65.24617262 0.36165717 66.70182975 1.90790212 69.3347168 5.19287109 C70.62016371 8.96887139 70.54402461 10.63104485 69.1472168 14.38037109 C67.30687366 17.23607596 66.23122966 18.49586606 63.3347168 20.19287109 C60.27456665 20.58728027 60.27456665 20.58728027 56.6418457 20.61279297 C55.97790298 20.62126251 55.31396027 20.62973206 54.62989807 20.63845825 C52.44016232 20.66181198 50.25113005 20.66285077 48.0612793 20.66162109 C46.53437012 20.66872451 45.00746361 20.67642378 43.4805603 20.68469238 C40.28115419 20.69813399 37.0819948 20.69970786 33.88256836 20.69384766 C29.79114108 20.68795647 25.70090247 20.7185187 21.60970497 20.75896454 C18.45600047 20.78487195 15.30258087 20.78771618 12.14878464 20.78407288 C10.64094433 20.7857618 9.13309054 20.79538252 7.62535477 20.81321716 C-5.63519482 20.95279583 -5.63519482 20.95279583 -9.57739258 17.7824707 C-12.08965867 14.66652047 -12.68372965 13.07021872 -12.91137695 9.19287109 C-12.49592925 5.8165342 -10.82456344 3.72231366 -8.6652832 1.19287109 C-5.77144524 -0.25404789 -3.23322572 0.03348455 0 0 Z " fill="#5e534a" transform="translate(598.665283203125,826.80712890625)"/>
</svg>
