<?xml version="1.0" encoding="UTF-8"?>
<svg version="1.1" xmlns="http://www.w3.org/2000/svg" width="1254" height="1254" viewBox="329.82 311.83 612.36 612.36">
<path d="M0 0 C10.21876274 7.32344663 15.47490145 18.25218815 17.53125 30.4921875 C17.6213124 32.6334575 17.65854702 34.77722736 17.65988445 36.92039013 C17.6631089 38.22696833 17.66633335 39.53354653 17.6696555 40.87971801 C17.66818439 42.32803049 17.66661667 43.77634287 17.66496277 45.22465515 C17.66683096 46.7645194 17.66913169 48.30438318 17.67182809 49.84424621 C17.67795169 54.07783734 17.67781183 58.31140874 17.67663372 62.54500329 C17.67642985 67.11025127 17.68194719 71.67549289 17.68669128 76.24073792 C17.69500181 85.18632979 17.69774632 94.13191508 17.69830366 103.0775105 C17.6987787 110.34942764 17.70083282 117.6213426 17.70400429 124.89325905 C17.71281249 145.5092984 17.71742348 166.12533255 17.71667381 186.7413738 C17.71661388 188.40889694 17.71661388 188.40889694 17.71655273 190.11010742 C17.71651185 191.22314673 17.71647097 192.33618605 17.71642885 193.48295382 C17.71602249 211.51749808 17.72558921 229.55202146 17.7396911 247.58655968 C17.75405567 266.10315094 17.76096122 284.61973202 17.76009732 303.136329 C17.75976535 313.53237433 17.76251256 323.92839778 17.77327538 334.3244381 C17.7823815 343.17704899 17.78455475 352.02962808 17.77776595 360.88224163 C17.77450113 365.39785667 17.77444269 369.91341069 17.7831192 374.42901993 C17.79098691 378.56630988 17.78954998 382.70349044 17.78083507 386.84077773 C17.77930066 388.33406733 17.781114 389.8273651 17.78669515 391.32064506 C17.83841061 406.14447335 16.33353483 419.58704935 5.78125 430.9296875 C-3.37395415 439.38064518 -13.15239463 440.98040239 -25.13671875 440.765625 C-40.84385131 440.07871424 -53.72140876 427.93178872 -65.765625 418.9765625 C-69.65790523 416.08470771 -73.57789509 413.23730267 -77.53125 410.4296875 C-93.92050932 398.77611448 -110.13526254 386.88991014 -126.29296875 374.91796875 C-134.47422864 368.86322174 -142.69670232 362.88543944 -151.03320312 357.04614258 C-158.85470698 351.55111462 -166.52828645 345.85637514 -174.19970703 340.15454102 C-174.94849121 339.60596436 -175.69727539 339.0573877 -176.46875 338.4921875 C-177.39671387 337.61506104 -178.32467773 336.73793457 -179.28076172 335.83422852 C-184.91622723 331.85401676 -192.11497158 332.82853943 -198.71875 332.890625 C-200.21981961 332.88511353 -201.72088163 332.87697878 -203.22192383 332.86636353 C-207.16840814 332.84353312 -211.11433777 332.84766461 -215.06085205 332.86016846 C-221.3465719 332.87849138 -227.63195856 332.8680473 -233.91760254 332.83430862 C-236.088239 332.82831286 -238.25813297 332.84133304 -240.42871094 332.85629272 C-258.34904561 332.87257945 -272.88197409 329.4840703 -286.18359375 316.8359375 C-299.05679088 303.63265839 -302.77366843 288.89478803 -302.75927734 270.86083984 C-302.76599457 269.63662323 -302.77271179 268.41240662 -302.77963257 267.15109253 C-302.79528346 263.8200614 -302.80198227 260.48927978 -302.80326414 257.15822935 C-302.80469453 255.06785381 -302.80898084 252.97750372 -302.81425858 250.88713455 C-302.83271714 243.56780614 -302.84093483 236.24855014 -302.83935547 228.92919922 C-302.83815661 222.15021912 -302.8592193 215.37155869 -302.8908428 208.59265935 C-302.91716527 202.73746409 -302.92771607 196.88237216 -302.92644465 191.02711833 C-302.92593949 187.54572878 -302.93137066 184.06462351 -302.95280075 180.58329391 C-303.07706084 158.88667586 -302.8220397 138.79692746 -286.96875 122.2421875 C-274.9354673 110.40323345 -259.43214269 106.15282022 -242.82483768 106.20940685 C-241.46031634 106.22372356 -240.09583371 106.24229464 -238.73142433 106.26488876 C-236.54686975 106.29787788 -234.36342757 106.3058545 -232.17863464 106.30715942 C-225.97932424 106.31269531 -219.78095598 106.34190826 -213.58227539 106.43359375 C-209.75951662 106.48837343 -205.93871897 106.49860863 -202.11563683 106.48144913 C-200.67603554 106.48337258 -199.23634821 106.50150341 -197.79718971 106.53725815 C-188.22091185 106.76869231 -182.80498353 105.43289257 -175.77714539 98.76289368 C-175.01537491 98.01356064 -174.25360443 97.2642276 -173.46875 96.4921875 C-171.96772043 95.31671085 -170.45003535 94.16170103 -168.90625 93.04296875 C-168.18244141 92.51251953 -167.45863281 91.98207031 -166.71289062 91.43554688 C-165.97232422 90.89736328 -165.23175781 90.35917969 -164.46875 89.8046875 C-162.81244106 88.59252845 -161.1561928 87.38028648 -159.5 86.16796875 C-158.66597656 85.55904785 -157.83195313 84.95012695 -156.97265625 84.32275391 C-152.96261912 81.39107895 -148.96613775 78.44107332 -144.96875 75.4921875 C-140.23269313 72.00087289 -135.49553442 68.51108921 -130.75390625 65.02734375 C-122.60546509 59.03720671 -114.48586208 53.01240762 -106.40625 46.9296875 C-99.39223091 41.6518789 -92.32240804 36.46192155 -85.19384766 31.34008789 C-79.69478552 27.38684227 -74.23067461 23.38854746 -68.78125 19.3671875 C-67.98976563 18.78453125 -67.19828125 18.201875 -66.3828125 17.6015625 C-62.67038763 14.86641504 -58.96811473 12.11974755 -55.2890625 9.33984375 C-38.58207218 -3.22600947 -19.89391243 -12.15039588 0 0 Z M-45.1015625 33.1875 C-49.44143247 36.48970218 -53.85120114 39.68744635 -58.28125 42.8671875 C-66.93009199 49.08633864 -75.51026039 55.39533703 -84.07763672 61.72607422 C-88.03866172 64.6517486 -92.00394799 67.57163501 -95.96875 70.4921875 C-97.54818112 71.65624452 -99.1276082 72.82030702 -100.70703125 73.984375 C-103.91138898 76.34561947 -107.11727217 78.70477296 -110.32421875 81.0625 C-118.37670761 86.98497568 -126.4094548 92.93082501 -134.39550781 98.94262695 C-140.474305 103.51236806 -146.59916356 108.01878099 -152.73632812 112.50976562 C-154.19623028 113.5810335 -155.64512168 114.66754625 -157.08004284 115.77205086 C-159.46875 117.4921875 -159.46875 117.4921875 -161.8283205 118.71743584 C-164.68942617 120.38324041 -166.45430284 121.84409831 -168.46875 124.4921875 C-169.89186445 130.44594411 -169.79386045 136.33485646 -169.77612305 142.43017578 C-169.80307084 144.27221678 -169.83369915 146.11420706 -169.86772156 147.95613098 C-169.94710899 152.9505044 -169.96831665 157.94348979 -169.97406363 162.93843317 C-169.98047034 166.06327697 -169.99970144 169.18777016 -170.02353859 172.3125267 C-170.10677401 183.22713284 -170.14356026 194.14075108 -170.13647461 205.05566406 C-170.13107303 215.20874599 -170.2259179 225.3575154 -170.36816758 235.50950634 C-170.48613865 244.2420423 -170.53411793 252.97317488 -170.52837592 261.70650089 C-170.52608819 266.91575149 -170.55130451 272.12117186 -170.64697838 277.32962418 C-172.311541 299.39822239 -172.311541 299.39822239 -164.50735474 318.85882568 C-160.83074139 321.90122521 -156.99123693 323.93661695 -152.55027199 325.64253616 C-149.74267017 326.78856424 -147.533444 328.46792645 -145.1875 330.3671875 C-144.12789062 331.15125977 -144.12789062 331.15125977 -143.046875 331.95117188 C-142.36109375 332.45970703 -141.6753125 332.96824219 -140.96875 333.4921875 C-134.82932714 338.0306847 -128.66527994 342.53198819 -122.46875 346.9921875 C-116.27220586 351.45239703 -110.10898977 355.95478385 -103.96875 360.4921875 C-95.58937325 366.68244245 -87.15767429 372.79693208 -78.70263672 378.88330078 C-74.95515205 381.58230886 -71.21223405 384.28763501 -67.46875 386.9921875 C-65.97917086 388.06771414 -64.48958752 389.14323496 -63 390.21875 C-59.89438429 392.46154465 -56.79044799 394.70664111 -53.6875 396.953125 C-49.28580524 400.13915663 -44.87885346 403.31780846 -40.46875 406.4921875 C-39.43234375 407.23984375 -38.3959375 407.9875 -37.328125 408.7578125 C-28.3209435 415.42216694 -28.3209435 415.42216694 -17.46875 416.4921875 C-12.86207715 414.32434145 -10.47567565 411.70208484 -8.29377925 407.10867512 C-6.49302955 401.39779967 -6.92606853 395.34778365 -6.96754456 389.41673279 C-6.96364889 387.87626144 -6.95800631 386.33579369 -6.95077366 384.7953344 C-6.93603926 380.57400785 -6.94618814 376.35305511 -6.96051037 372.13174069 C-6.97162767 367.57476743 -6.95967509 363.01784628 -6.95066833 358.46087646 C-6.93673938 349.53871227 -6.94428937 340.61668965 -6.95934392 331.69453221 C-6.97620789 321.30439109 -6.97299329 310.91428521 -6.96924984 300.52413464 C-6.96337196 281.98619461 -6.9775404 263.44832252 -7.00219727 244.91040039 C-7.02612128 226.9214422 -7.03320007 208.93257476 -7.02270508 190.94360352 C-7.01129671 171.35396704 -7.00936455 151.76437253 -7.02380317 132.17473656 C-7.02532901 130.08606057 -7.02684937 127.99738457 -7.02836418 125.90870857 C-7.0295009 124.36720621 -7.0295009 124.36720621 -7.03066059 122.79456238 C-7.03540377 115.55165359 -7.03355176 108.30876353 -7.02929878 101.06585503 C-7.02437301 92.24028801 -7.03035265 83.4148068 -7.05019308 74.58925944 C-7.06006692 70.08612788 -7.06516916 65.58312702 -7.05730057 61.07998848 C-7.05024482 56.95771646 -7.05704585 52.83570818 -7.0749042 48.71347094 C-7.07894935 47.22234873 -7.07794766 45.73120249 -7.07138533 44.24008923 C-6.91756654 31.82675665 -6.91756654 31.82675665 -13.15625 21.5546875 C-24.87174879 14.26013165 -36.1031274 26.32672326 -45.1015625 33.1875 Z M-270.74609375 140.42578125 C-275.91977237 146.63184926 -278.57869816 153.71511057 -278.61592102 161.72732544 C-278.62307632 162.78697006 -278.63023163 163.84661469 -278.63760376 164.93836975 C-278.64029266 166.09582199 -278.64298157 167.25327423 -278.64575195 168.44580078 C-278.65232315 169.66902542 -278.65889435 170.89225006 -278.66566467 172.15254211 C-278.68539543 176.20586391 -278.69706509 180.25914615 -278.70703125 184.3125 C-278.71108093 185.71147557 -278.71519792 187.11045094 -278.71938133 188.50942612 C-278.73842577 195.08538484 -278.75265652 201.66133241 -278.7609933 208.23731339 C-278.77075341 215.80963331 -278.79704366 223.38165995 -278.83749419 230.95387661 C-278.86773777 236.81818635 -278.88247008 242.68241243 -278.88577431 248.54679859 C-278.88811605 252.04375356 -278.89696064 255.54039499 -278.92223549 259.03726578 C-278.95002867 262.94567296 -278.94565993 266.85370014 -278.9387207 270.76220703 C-278.95153076 271.90751389 -278.96434082 273.05282074 -278.97753906 274.23283386 C-278.91299758 284.23929159 -276.47189307 292.33319144 -269.53515625 299.734375 C-249.62416882 316.67188794 -210.87167374 307.4921875 -192.46875 307.4921875 C-192.46875 249.4121875 -192.46875 191.3321875 -192.46875 131.4921875 C-231.43219845 126.73585632 -231.43219845 126.73585632 -270.74609375 140.42578125 Z " fill="currentColor" transform="translate(655.46875,400.5078125)"/>
<path d="M0 0 C35.54588732 21.76278815 59.1131917 82.36714073 68.30957031 120.02734375 C70.23041893 128.29758873 71.78067689 136.59827556 73 145 C73.17571533 146.20970459 73.17571533 146.20970459 73.35498047 147.44384766 C79.92405873 195.18435549 71.22103288 244.85877259 50 288 C49.6385791 288.74588379 49.2771582 289.49176758 48.90478516 290.26025391 C39.12098454 310.26970421 21.01529971 346.49235014 0 357 C-4.79937735 357.51816286 -8.73409126 357.71207367 -13 355.3125 C-16.1270675 351.69682821 -17.09235655 349.48641769 -16.79296875 344.66796875 C-15.90278836 340.55033629 -14.68856808 338.76772957 -11.9375 335.625 C-11.12023437 334.67496094 -10.30296875 333.72492188 -9.4609375 332.74609375 C-7.97326511 331.08604028 -6.48006709 329.43088424 -4.9765625 327.78515625 C30.99821384 288.3597381 50.57689639 232.38252434 50.3125 179.4375 C50.31034485 178.65386078 50.3081897 177.87022156 50.30596924 177.06283569 C50.24801723 163.85865479 49.54070245 150.98888102 47 138 C46.70996094 136.5159668 46.70996094 136.5159668 46.4140625 135.00195312 C38.26857542 94.9533083 19.83674281 57.76997126 -7.2109375 27.1484375 C-7.66186768 26.63684082 -8.11279785 26.12524414 -8.57739258 25.59814453 C-9.59062244 24.45989112 -10.61517218 23.33167154 -11.6472168 22.21044922 C-15.29633041 18.15612028 -16.90337023 15.60149332 -17.17578125 10.078125 C-16.84971283 6.22327164 -14.92308259 4.07692968 -12.5 1.25 C-8.77654724 -1.8528773 -4.36142747 -1.3540894 0 0 Z " fill="currentColor" transform="translate(844,439)"/>
<path d="M0 0 C7.31106428 3.63956912 12.31499716 12.52408852 17 19 C17.4115332 19.55800293 17.82306641 20.11600586 18.24707031 20.69091797 C44.29526141 56.28735386 53.44047582 101.4384357 47.35498047 144.72412109 C43.06068113 172.25607325 31.43846676 199.25630874 14 221 C13.5261084 221.59586914 13.0522168 222.19173828 12.56396484 222.80566406 C11.09902972 224.63311181 9.61779607 226.44525775 8.125 228.25 C7.6724585 228.79994629 7.21991699 229.34989258 6.75366211 229.91650391 C3.25824041 234.02178179 0.9718128 235.78090969 -4.375 236.375 C-8.69296607 235.92831385 -10.69326548 234.7684289 -14 232 C-16.59036348 228.58542996 -16.43108741 225.16717829 -16 221 C-13.69468807 217.16841258 -11.0227925 213.71705654 -8.19458008 210.25878906 C5.98227563 192.8588962 15.77988561 172.83646688 21 151 C21.16371094 150.32630371 21.32742188 149.65260742 21.49609375 148.95849609 C26.22099302 128.56040306 25.45496986 106.37047208 21 86 C20.61714844 84.14181641 20.61714844 84.14181641 20.2265625 82.24609375 C15.14886843 60.65424787 4.42767859 41.17082521 -9.51953125 24.12109375 C-15.85955166 16.14365074 -15.85955166 16.14365074 -16.4375 11.4375 C-15.85964406 6.89720333 -14.38088746 4.54022063 -11.375 1.1875 C-7.57372777 -0.71313612 -4.14862612 -0.82122974 0 0 Z " fill="currentColor" transform="translate(785,500)"/>
<path d="M0 0 C0.85207031 -0.04898438 1.70414063 -0.09796875 2.58203125 -0.1484375 C7.29554565 0.79850542 9.51286079 4.4416841 12.21484375 8.1796875 C26.76106721 31.5607338 32.71019975 59.95016621 26.5 87.125 C22.85143388 101.82397669 17.06336959 117.49913041 6.1875 128.375 C1.68190359 129.87686547 -2.15463337 130.09089695 -6.5625 128.1875 C-9.20228907 126.06100325 -10.46567388 124.49396575 -11.8125 121.375 C-12.46446529 115.15858679 -10.82146298 111.92102039 -7.625 106.875 C3.89208015 87.53397588 6.79904068 66.14720829 1.68359375 44.30615234 C-0.73623076 34.88646146 -5.04314018 26.87612578 -10.23828125 18.76171875 C-12.23885574 14.45775328 -12.28187665 12.07844441 -11.8125 7.375 C-9.23997798 2.20049959 -5.57827435 0.21744398 0 0 Z " fill="currentColor" transform="translate(728.8125,553.625)"/>
</svg>
