<?xml version="1.0" encoding="UTF-8"?>
<svg version="1.1" xmlns="http://www.w3.org/2000/svg" width="1254" height="1254" viewBox="314.78 282.45 679.24 679.24">
<path d="M0 0 C1.42141029 -0.00302341 2.84281896 -0.00691384 4.26422477 -0.01159257 C8.15655378 -0.02185713 12.04879053 -0.01969467 15.94112706 -0.01541197 C20.14440096 -0.0129419 24.3476528 -0.02196248 28.55091858 -0.02944946 C36.78088934 -0.04219131 45.01082747 -0.04399074 53.24080643 -0.0416492 C59.93245039 -0.03986507 66.62408446 -0.04161772 73.31572723 -0.04587364 C74.74515378 -0.04676643 74.74515378 -0.04676643 76.20345764 -0.04767724 C78.13950159 -0.04888902 80.07554555 -0.05010315 82.0115895 -0.05131962 C100.16397271 -0.06219348 118.31633734 -0.06003358 136.4687216 -0.05393478 C153.06293634 -0.04876748 169.65709235 -0.06001639 186.25129548 -0.07903299 C203.30123935 -0.09842163 220.35115545 -0.10666548 237.40111041 -0.10290974 C246.96887568 -0.10099904 256.53659097 -0.10347243 266.10434723 -0.11762428 C274.25087342 -0.12955222 282.39731889 -0.13092724 290.54384622 -0.11883412 C294.69723743 -0.11295494 298.8504811 -0.11181922 303.00386238 -0.12383652 C306.81243568 -0.13472769 310.62073884 -0.13155386 314.42929968 -0.11757483 C316.4461305 -0.11369523 318.46297347 -0.12444862 320.47977567 -0.13587171 C336.6872235 -0.04019156 352.17494185 4.75720734 364.0211792 16.26069641 C372.89668303 26.30211208 378.05900681 37.02335434 380.0211792 50.26069641 C380.98797607 50.55202454 381.95477295 50.84335266 382.9508667 51.14350891 C397.92941013 55.79561382 410.98579454 62.83442339 418.64060783 77.29149437 C425.79555199 92.67967012 424.52338344 109.48321883 424.36475801 126.03942847 C424.33069796 130.08157889 424.32064089 134.12379701 424.30809021 138.1660614 C424.28377794 145.15472392 424.24637452 152.1432131 424.20138168 159.13177109 C424.13159749 170.18339218 424.10611458 181.23491854 424.08786011 192.28672791 C424.08109155 196.07591088 424.07408849 199.86509341 424.06704903 203.65427589 C424.0653083 204.60087861 424.06356757 205.54748132 424.0617741 206.52276897 C424.04153829 217.26990301 424.01352093 228.01701041 423.98114014 238.76411438 C423.9781964 239.74532736 423.97525266 240.72654033 423.97221972 241.73748703 C423.92317697 257.66343673 423.83637885 273.5890125 423.7393875 289.51473205 C423.64091262 305.89372772 423.59607082 322.272304 423.59758866 338.65159571 C423.59656969 348.74155275 423.55194115 358.82941449 423.45085807 368.91887398 C423.38535905 375.82827661 423.37088857 382.73660298 423.3963825 389.64626448 C423.40948814 393.63062801 423.39990643 397.61151194 423.32876015 401.59533691 C422.1065713 418.03800287 422.1065713 418.03800287 428.10309219 432.28334427 C431.46733174 435.01766746 435.04252753 436.59155169 439.0211792 438.26069641 C441.40594292 440.12145042 441.40594292 440.12145042 443.0993042 441.77241516 C443.63474854 442.29424377 444.17019287 442.81607239 444.72186279 443.35371399 C445.23313721 443.87989319 445.74441162 444.40607239 446.2711792 444.94819641 C446.84561768 445.53431702 447.42005615 446.12043762 448.01190186 446.72431946 C467.11020352 466.7996321 477.46195189 494.35310165 477.32366943 521.94551086 C476.54007353 552.42556934 463.84374423 579.59484822 441.9743042 600.63960266 C427.40728073 613.56879942 410.13474861 622.36040773 391.0211792 626.26069641 C389.44530029 626.59520813 389.44530029 626.59520813 387.83758545 626.93647766 C367.6210746 630.64662385 340.94543995 629.32080232 323.05851078 618.02078629 C314.90119141 613.05245418 306.54394363 613.59775983 297.34124756 613.7089386 C295.55629715 613.71199235 293.77134176 613.71281406 291.98638916 613.71159363 C288.13908207 613.71384112 284.29229735 613.73200692 280.44511223 613.76261139 C274.24695358 613.81190672 268.04899038 613.82590405 261.85066223 613.8361969 C251.91536318 613.8569491 241.98034093 613.90218081 232.045178 613.95714307 C220.05871543 614.02284911 208.07220898 614.06580093 196.08563232 614.10444641 C194.48876772 614.10965097 194.48876772 614.10965097 192.85964322 614.11496067 C167.91352764 614.19549955 142.96744015 614.26078159 118.0211792 614.26069641 C116.89388555 614.26069263 115.76659189 614.26068886 114.60513783 614.26068497 C99.84968447 614.25825435 85.09495108 614.21670573 70.33978462 614.12419891 C66.08762875 614.09833165 61.83567971 614.08380227 57.58344841 614.07962799 C52.62593784 614.07418779 47.66913313 614.04481528 42.71185374 613.99717236 C40.90885729 613.98367295 39.1057766 613.97831339 37.30273366 613.98213673 C20.8097214 614.00712888 7.31913229 610.83890009 -5.1585083 599.23335266 C-13.28376609 590.75548934 -18.62176839 580.00848053 -19.1038208 568.19819641 C-19.0625708 567.55882141 -19.0213208 566.91944641 -18.9788208 566.26069641 C-19.8863208 566.21944641 -20.7938208 566.17819641 -21.7288208 566.13569641 C-32.78982982 564.5044769 -43.5600931 556.69538355 -50.45928955 548.20991516 C-58.06117751 537.92680632 -62.13855371 528.08989145 -62.11304188 515.24790192 C-62.11539411 514.44236158 -62.11774634 513.63682123 -62.12016985 512.80687058 C-62.1268484 510.09660077 -62.12640197 507.38637903 -62.12599182 504.67610168 C-62.12929116 502.7176457 -62.13301687 500.75919039 -62.1371333 498.80073595 C-62.14715349 493.40998052 -62.15087013 488.01923623 -62.15352261 482.62847281 C-62.15742561 476.81775533 -62.16700395 471.00704668 -62.17573547 465.19633484 C-62.19550005 451.15893188 -62.20556611 437.12152819 -62.21446326 423.08411479 C-62.21884619 416.47403463 -62.22421299 409.86395526 -62.22945213 403.25387573 C-62.24646444 381.28109148 -62.26098353 359.30830772 -62.26820087 337.33551788 C-62.26867563 335.91467238 -62.26915152 334.49382689 -62.26962854 333.07298139 C-62.26986491 332.36837891 -62.27010129 331.66377643 -62.27034483 330.93782236 C-62.27154601 327.36803819 -62.27276146 323.79825402 -62.27398682 320.22846985 C-62.27422697 319.52003903 -62.27446712 318.8116082 -62.27471454 318.08170978 C-62.28260529 295.11910612 -62.30603257 272.15655415 -62.33854276 249.19397306 C-62.37286178 224.90937412 -62.39255396 200.62480541 -62.39584512 176.34018183 C-62.39791679 163.10529619 -62.40676041 149.87048332 -62.43230629 136.63562012 C-62.4540118 125.36433068 -62.46206438 114.09313567 -62.45233951 102.82182771 C-62.44779443 97.0724021 -62.44969343 91.32317132 -62.46910095 85.57377243 C-62.4867301 80.3056433 -62.48573664 75.03785117 -62.47020366 69.76971847 C-62.46782724 67.86856839 -62.47215285 65.96739499 -62.48403231 64.06628054 C-62.59057105 45.88348023 -59.05390518 29.99184651 -46.1663208 16.32319641 C-32.99024759 3.90004167 -17.61852755 -0.05079463 0 0 Z M-36.4397583 35.10835266 C-41.55491419 42.26178132 -43.13035528 49.42221559 -43.11304188 58.06232548 C-43.11539411 58.85718093 -43.11774634 59.65203637 -43.12016985 60.47097835 C-43.12685953 63.15090307 -43.12640163 65.8307793 -43.12599182 68.51071167 C-43.12929047 70.4449812 -43.13301604 72.37925003 -43.1371333 74.31351799 C-43.14716137 79.64198456 -43.15087139 84.97043987 -43.15352261 90.29891455 C-43.15742327 96.04076277 -43.16700178 101.78260206 -43.17573547 107.52444458 C-43.19550671 121.3976257 -43.20556697 135.27080756 -43.21446326 149.14399925 C-43.21884512 155.6751416 -43.2242122 162.20628314 -43.22945213 168.73742485 C-43.24646514 190.44510146 -43.26098452 212.15277713 -43.26820087 233.86045933 C-43.26867563 235.26436804 -43.26915152 236.66827674 -43.26962854 238.07218545 C-43.26986491 238.76839532 -43.27010129 239.46460519 -43.27034483 240.18191233 C-43.27154602 243.70923164 -43.27276147 247.23655094 -43.27398682 250.76387024 C-43.27422697 251.46387641 -43.27446712 252.16388258 -43.27471454 252.88510106 C-43.28260622 275.57735676 -43.30603514 298.26956017 -43.33854276 320.96179304 C-43.37285201 344.95550276 -43.39255191 368.94918056 -43.39584512 392.94291538 C-43.39801119 406.02125785 -43.40677419 419.09952347 -43.43230629 432.17784309 C-43.45399889 443.3152663 -43.46207076 454.45259399 -43.45233951 465.59003592 C-43.44779067 471.27237383 -43.44971523 476.95451461 -43.46910095 482.63682556 C-43.48670331 487.84136022 -43.48575845 493.04555352 -43.47020366 498.25009166 C-43.46782316 500.13037486 -43.472174 502.01068151 -43.48403231 503.89092881 C-43.57099016 518.59255778 -41.96920484 529.94613987 -31.3538208 540.94429016 C-24.94121782 546.89672951 -16.90953366 550.38769223 -8.14500046 550.38374424 C-7.16865229 550.38573529 -6.19230413 550.38772634 -5.18636966 550.38977772 C-4.1163374 550.38686488 -3.04630514 550.38395204 -1.94384766 550.38095093 C-0.23587977 550.38223256 -0.23587977 550.38223256 1.50659251 550.38354009 C5.33601483 550.38519203 9.1653937 550.37967814 12.99481201 550.3742218 C15.73428373 550.37338351 18.47375459 550.37405376 21.21322632 550.37466431 C27.11834415 550.37518887 33.02345093 550.37204911 38.92856598 550.36642647 C47.4663896 550.35830235 56.00420788 550.35569531 64.54203495 550.35443848 C78.39381002 550.3522494 92.2455792 550.3455932 106.09735107 550.33613586 C119.55373098 550.32695804 133.01010929 550.31987901 146.4664917 550.31562805 C147.71049251 550.31523397 147.71049251 550.31523397 148.97962466 550.31483192 C153.14011392 550.31352689 157.30060319 550.31226318 161.46109247 550.31102002 C195.98112562 550.30065188 230.50115177 550.28303746 265.0211792 550.26069641 C264.700761 548.17163274 264.38007092 546.08261076 264.05926514 543.99360657 C263.88070984 542.83027802 263.70215454 541.66694946 263.51818848 540.46836853 C263.15979588 538.15532127 262.78953483 535.84410197 262.4118042 533.53413391 C259.20381777 506.65120766 266.19486967 478.39499292 282.6461792 456.69819641 C300.24833635 434.44162271 323.65738963 419.79429909 352.01727295 415.61616516 C353.3228717 415.41718628 353.3228717 415.41718628 354.65484619 415.21418762 C356.7762352 414.89157337 358.89861011 414.57545305 361.0211792 414.26069641 C361.08985032 368.05947724 361.14271053 321.85826347 361.17437519 275.65700332 C361.17812729 270.20214703 361.18201026 264.74729084 361.18597412 259.29243469 C361.18676105 258.20647402 361.18754798 257.12051335 361.18835876 256.00164478 C361.2014116 238.41943284 361.22506478 220.83725034 361.25263759 203.25505586 C361.28069516 185.21323142 361.29735621 167.1714224 361.30344468 149.12957704 C361.30756039 137.99738862 361.32055819 126.86528341 361.3449286 115.73312061 C361.36079011 108.09870656 361.36557861 100.46433551 361.36168333 92.82990618 C361.35976244 88.42568075 361.36270095 84.02160069 361.37879562 79.61740112 C361.3934359 75.58164519 361.39410489 71.54613187 361.38387588 67.51036458 C361.38261236 66.05393299 361.38638291 64.59748602 361.39582875 63.14108451 C361.47979353 49.39030717 359.38133804 39.66997989 350.0211792 29.26069641 C340.11393058 20.51261399 328.58775174 18.66431114 315.78875732 18.75276184 C314.37641509 18.74814434 312.96407768 18.74178575 311.55175018 18.73385286 C307.69836872 18.71725276 303.84538674 18.72536298 299.99200439 18.73779774 C295.82559591 18.74688439 291.65925396 18.73286065 287.49285889 18.72187805 C279.34180201 18.70412668 271.19089278 18.7079177 263.03983021 18.71952862 C256.41307683 18.728576 249.78636472 18.72978129 243.15960693 18.72543335 C241.74284613 18.72451395 241.74284613 18.72451395 240.29746389 18.72357598 C238.3784898 18.72229703 236.45951572 18.72100018 234.54054165 18.71968561 C216.56221558 18.70828972 198.5839712 18.72137796 180.60565853 18.74288708 C165.19204119 18.76075716 149.77854437 18.75765277 134.3649292 18.73921204 C116.4492825 18.71778781 98.53370734 18.70938827 80.61804962 18.72166109 C78.70628358 18.72293524 76.79451753 18.72419272 74.88275146 18.72543335 C73.47195194 18.726359 73.47195194 18.726359 72.03265142 18.72730336 C65.41674928 18.7307516 58.80089265 18.72493926 52.18499756 18.71551514 C44.11826745 18.70427652 36.05169295 18.70737429 27.98498058 18.72863811 C23.87216316 18.73912352 19.75960484 18.74331344 15.64678955 18.7300415 C11.87654382 18.71805937 8.10679563 18.72477492 4.33659458 18.74595171 C2.33806096 18.75248571 0.33949237 18.73953391 -1.65900421 18.72572279 C-16.35610972 18.85279538 -27.00864903 23.89006972 -36.4397583 35.10835266 Z M380.0211792 70.26069641 C380.0211792 183.78069641 380.0211792 297.30069641 380.0211792 414.26069641 C386.6211792 415.58069641 393.2211792 416.90069641 400.0211792 418.26069641 C401.6711792 418.59069641 403.3211792 418.92069641 405.0211792 419.26069641 C406.70047163 417.58140398 406.14811756 415.51952378 406.14981365 413.21487522 C406.1530381 412.11481476 406.15626254 411.01475431 406.1595847 409.88135868 C406.1580361 408.65766211 406.1564875 407.43396554 406.15489197 406.17318726 C406.1582903 404.24075996 406.1582903 404.24075996 406.16175729 402.26929373 C406.16790584 398.67655396 406.16773811 395.08383735 406.16656291 391.49109352 C406.16635966 387.62244101 406.17187066 383.7537961 406.17662048 379.88514709 C406.18494579 372.29725583 406.18767623 364.70937234 406.18823286 357.1214769 C406.18870741 350.95215288 406.19075911 344.78283143 406.19393349 338.61350822 C406.20274745 321.12807519 406.20735204 303.64264831 406.20660301 286.15721304 C406.20656306 285.21352808 406.2065231 284.26984312 406.20648193 283.29756165 C406.20644105 282.35272537 406.20640017 281.40788909 406.20635805 280.43442141 C406.20595202 265.13819518 406.21550878 249.84199362 406.2296203 234.54577453 C406.24399048 218.84530053 406.25089004 203.14483855 406.25002652 187.44435781 C406.24969463 178.62774105 406.2524378 169.8111501 406.26320457 160.99453926 C406.27231832 153.48313911 406.27447787 145.97177646 406.26769515 138.46037317 C406.26443353 134.62932202 406.26436015 130.79834278 406.2730484 126.96729851 C406.28238257 122.80849757 406.27612748 118.64986259 406.26841736 114.49105835 C406.27356092 113.28743827 406.27870448 112.0838182 406.28400391 110.84372479 C406.23262781 98.29204739 404.41845342 87.43118204 395.7946167 77.86616516 C391.10942027 73.62472082 386.16385228 71.48923103 380.0211792 70.26069641 Z M341.0211792 435.26069641 C339.33508545 435.80403625 339.33508545 435.80403625 337.6149292 436.35835266 C324.93807512 440.81034308 314.60232218 447.95087784 305.0211792 457.26069641 C304.38567139 457.83432922 303.75016357 458.40796204 303.09539795 458.99897766 C289.46937961 471.65818317 279.98800912 493.08979455 278.8805542 511.61274719 C277.87855373 538.98239012 284.58258517 561.37078364 302.57977295 582.22554016 C318.43442941 599.0225239 340.18491935 609.43227447 363.3102417 610.60835266 C388.76871062 611.30663419 411.9304091 603.38080637 431.0211792 586.26069641 C431.65539795 585.70897766 432.2896167 585.15725891 432.9430542 584.58882141 C448.90079097 569.80229468 458.23228039 546.61377957 459.25946045 525.20991516 C459.9208425 499.74372693 451.86346276 477.3056615 434.29071045 458.56538391 C416.44345432 440.44166426 394.49494826 431.10812444 369.1461792 430.82319641 C359.16690687 430.86569099 350.48352689 432.06820078 341.0211792 435.26069641 Z M0.0211792 567.26069641 C0.16740723 568.53356506 0.31363525 569.80643372 0.46429443 571.11787415 C0.5465477 571.83386276 0.62880096 572.54985138 0.71354675 573.28753662 C1.72331491 579.76420691 6.99902781 584.71974866 11.8414917 588.72163391 C20.52478221 594.85284621 29.33391096 595.41106218 39.65127563 595.38095093 C41.25767621 595.38223256 41.25767621 595.38223256 42.89652932 595.38354009 C46.48480854 595.38518713 50.073041 595.37968618 53.66131592 595.3742218 C56.23359679 595.37393974 58.80587774 595.37409804 61.37815857 595.37466431 C66.9160091 595.37518818 72.45384784 595.37205567 77.9916954 595.36642647 C85.99845254 595.35829293 94.00520399 595.35569435 102.01196481 595.35443848 C115.00299524 595.35225087 127.99401937 595.34559868 140.98504639 595.33613586 C153.60321013 595.32695421 166.22137216 595.31987706 178.83953857 595.31562805 C180.00658283 595.31523397 180.00658283 595.31523397 181.19720374 595.31483192 C185.10042252 595.31352686 189.00364131 595.31226316 192.90686011 595.31102002 C225.27830438 595.30065648 257.64974091 595.28304609 290.0211792 595.26069641 C287.53203317 590.06283474 283.89767084 585.77466306 280.3009882 581.29504776 C279.0211792 579.26069641 279.0211792 579.26069641 278.14352322 576.32653427 C276.75400473 572.52659372 275.37586271 569.57788074 272.0211792 567.26069641 C263.85391973 564.80756757 254.678345 565.7505745 246.25775146 565.89839172 C243.57680215 565.90177709 240.8962483 565.90040454 238.21534729 565.89308167 C232.44547676 565.88679716 226.67723783 565.92435693 220.90777779 565.99193573 C212.56646491 566.0895754 204.22593879 566.12072382 195.8841164 566.13579163 C182.34968578 566.16203804 168.81612435 566.24184826 155.28216553 566.35542297 C142.13735292 566.46561715 128.99277662 566.55053489 115.84759521 566.60151672 C114.63165962 566.60624575 114.63165962 566.60624575 113.39115966 566.61107031 C109.32438821 566.62673106 105.25761508 566.64189548 101.19084084 566.65681314 C67.46699 566.78116018 33.74419124 566.99246881 0.0211792 567.26069641 Z " fill="currentColor" transform="translate(446.97882080078125,307.7393035888672)"/>
<path d="M0 0 C9.86288357 8.16066001 15.47465697 18.78310345 17.62109375 31.28515625 C18.63724107 44.92497986 15.21987148 56.94003532 6.6875 67.73046875 C-1.60530971 76.70800587 -12.5610863 82.63994991 -24.7421875 83.53125 C-40.26625377 84.05453313 -51.7576223 79.56574282 -63.06640625 69.16015625 C-71.99427586 59.92012337 -75.81158096 48.22567242 -75.74243164 35.55810547 C-75.38221575 21.57532521 -69.55287894 11.03432517 -59.62890625 1.47265625 C-42.34093398 -13.35308967 -18.19227255 -13.11396987 0 0 Z M-54.44921875 8.8828125 C-61.31763097 15.17142369 -65.79529011 24.55272724 -66.59765625 33.80859375 C-66.99412706 45.60360025 -63.34436338 54.85114789 -55.33984375 63.484375 C-47.04426264 71.41354352 -37.43888705 74.66494083 -26.05859375 74.49609375 C-15.46968521 73.66256451 -7.24294604 68.57368638 -0.06640625 60.97265625 C6.5253452 53.17285473 9.00175475 44.83561814 8.83203125 34.703125 C7.95540817 24.65442711 3.13639283 15.21968526 -4.25390625 8.41015625 C-19.66925148 -3.90473421 -39.04253747 -3.00649437 -54.44921875 8.8828125 Z " fill="currentColor" transform="translate(520.37890625,416.71484375)"/>
<path d="M0 0 C1.19109375 0.00773437 1.19109375 0.00773437 2.40625 0.015625 C3.2003125 0.01046875 3.994375 0.0053125 4.8125 0 C6.90625 0.265625 6.90625 0.265625 8.90625 2.265625 C9.16021729 4.0871582 9.16021729 4.0871582 9.16503906 6.31640625 C9.17134338 7.15067139 9.17764771 7.98493652 9.18414307 8.84448242 C9.1800946 9.74658447 9.17604614 10.64868652 9.171875 11.578125 C9.17378845 12.50278564 9.1757019 13.42744629 9.17767334 14.38012695 C9.17903566 16.33707959 9.17533596 18.29404124 9.16699219 20.25097656 C9.15629334 23.2534609 9.16688591 26.25534687 9.1796875 29.2578125 C9.17836591 31.15625133 9.17580354 33.05468978 9.171875 34.953125 C9.17592346 35.85522705 9.17997192 36.7573291 9.18414307 37.68676758 C9.17783875 38.52103271 9.17153442 39.35529785 9.16503906 40.21484375 C9.16265228 41.31832153 9.16265228 41.31832153 9.16021729 42.4440918 C8.90625 44.265625 8.90625 44.265625 6.90625 46.265625 C2.35069444 45.71006944 2.35069444 45.71006944 0.90625 44.265625 C0.81769839 41.5993647 0.79100327 38.95915386 0.80859375 36.29296875 C0.8100087 35.49532608 0.81142365 34.69768341 0.81288147 33.87586975 C0.81849684 31.31825065 0.83105188 28.76071782 0.84375 26.203125 C0.84876302 24.47330855 0.85332627 22.74349074 0.85742188 21.01367188 C0.86847125 16.76428947 0.88574614 12.51497188 0.90625 8.265625 C-0.74375 7.935625 -2.39375 7.605625 -4.09375 7.265625 C-4.21875 4.890625 -4.21875 4.890625 -4.09375 2.265625 C-2.09375 0.265625 -2.09375 0.265625 0 0 Z " fill="currentColor" transform="translate(487.09375,430.734375)"/>
<path d="M0 0 C0.68507224 -0.00523668 1.37014448 -0.01047336 2.07597649 -0.01586872 C4.37672897 -0.03089759 6.67725962 -0.03157449 8.97805786 -0.03224182 C10.62554298 -0.03986136 12.27302453 -0.04828851 13.92050171 -0.0574646 C18.39986259 -0.07943643 22.87915521 -0.08821206 27.3585639 -0.09329104 C30.15620709 -0.09693137 32.95383231 -0.10316972 35.75146866 -0.11029243 C45.50897255 -0.134796 55.26642321 -0.14784084 65.0239563 -0.15138245 C74.12345454 -0.15501871 83.22261569 -0.18491821 92.32201087 -0.22678703 C100.13101386 -0.26146049 107.93990498 -0.27693037 115.74898446 -0.27762848 C120.41449149 -0.27842229 125.07965526 -0.28720831 129.74508286 -0.31562614 C134.13320142 -0.34175659 138.52069093 -0.34404041 142.90885162 -0.3279705 C144.51932519 -0.326152 146.12983452 -0.33288297 147.74023056 -0.34878922 C149.93954716 -0.36918788 152.13664981 -0.35873842 154.3359375 -0.34057617 C156.18151402 -0.34359316 156.18151402 -0.34359316 158.06437492 -0.3466711 C162.1945815 0.44703797 163.67899038 2.05725402 166.29495239 5.27415466 C166.95901489 7.33665466 166.95901489 7.33665466 166.91995239 9.27415466 C166.93284302 9.91352966 166.94573364 10.55290466 166.95901489 11.21165466 C165.89356004 14.52083209 163.93627798 16.07279282 161.29495239 18.27415466 C158.06996155 18.90336037 158.06996155 18.90336037 154.34939575 18.90907288 C153.66261466 18.91687283 152.97583357 18.92467278 152.26824093 18.9327091 C149.9732092 18.95260985 147.67983935 18.93687425 145.38479614 18.92112732 C143.73701003 18.92790438 142.08923149 18.93680801 140.44146729 18.94767761 C135.97030688 18.97046732 131.49972347 18.96163613 127.02855301 18.94578218 C122.34902646 18.93312144 117.66954924 18.94486378 112.99002075 18.95271301 C105.13161348 18.96180907 97.27344118 18.94982283 89.41506958 18.92601013 C80.33025374 18.89879889 71.24599895 18.90761309 62.16119671 18.93514216 C54.36060885 18.95783349 46.56018986 18.96103321 38.75957966 18.94794881 C34.10085669 18.94015442 29.44239742 18.93911234 24.78369141 18.95563126 C20.40368264 18.97007717 16.02439705 18.96005252 11.6444664 18.93115997 C10.03724239 18.92454974 8.42995749 18.92644585 6.82275772 18.9374733 C4.62785398 18.95114446 2.43526529 18.9339993 0.24050903 18.90907288 C-0.98727768 18.90718775 -2.21506439 18.90530262 -3.48005676 18.90336037 C-7.60924912 18.09774215 -9.08438955 16.49107034 -11.70504761 13.27415466 C-13.1250664 9.81285886 -12.83447383 8.60419152 -11.45504761 5.08665466 C-8.32769609 0.06055401 -5.57536075 0.02108622 0 0 Z " fill="currentColor" transform="translate(586.7050476074219,444.72584533691406)"/>
<path d="M0 0 C10.36361374 7.55758114 16.94935681 17.00015425 20.6875 29.3125 C22.60168012 42.71176082 20.96181466 55.13999347 12.80859375 66.26171875 C12.29425781 66.91785156 11.77992188 67.57398438 11.25 68.25 C10.78722656 68.87519531 10.32445312 69.50039063 9.84765625 70.14453125 C2.29030167 79.75346686 -8.76403789 84.44100454 -20.6875 86.125 C-33.53389194 86.97042868 -45.77562127 83.36462942 -55.65234375 75.16015625 C-64.96557458 66.67939298 -71.04575516 56.61103914 -72.00390625 43.875 C-72.44798463 29.89369361 -69.08899721 18.63960055 -59.8671875 8.09765625 C-44.13481902 -8.46760233 -19.6082724 -12.22594156 0 0 Z M-54.5 16 C-60.51082761 23.14986572 -63.1778481 32.32911403 -63.0234375 41.59375 C-61.92018781 52.31103275 -57.70858465 60.72499219 -49.87109375 67.9921875 C-40.11728016 75.91346641 -29.9568036 77.43405995 -17.75 76.25 C-8.10716124 74.23311912 -0.16923996 69.0101066 5.5625 61 C11.55224859 51.17280803 13.5300057 42.06097132 11.625 30.75 C9.51006451 22.37899659 4.14222572 14.43497715 -2.75 9.25 C-21.32841232 -1.5406153 -39.47100142 0.20681506 -54.5 16 Z " fill="currentColor" transform="translate(516.75,529.75)"/>
<path d="M0 0 C4.0209494 2.15939875 6.32137114 3.7652772 8 8 C8.3359375 10.3671875 8.3359375 10.3671875 8.375 12.875 C8.40335937 13.69742188 8.43171875 14.51984375 8.4609375 15.3671875 C7.42842185 21.2647769 2.54187607 25.9107273 -1.25 30.375 C-1.70890625 30.92027344 -2.1678125 31.46554687 -2.640625 32.02734375 C-3.75769246 33.35386136 -4.87845702 34.67726419 -6 36 C-5.08476562 36.04898438 -4.16953125 36.09796875 -3.2265625 36.1484375 C-2.03804688 36.22320313 -0.84953125 36.29796875 0.375 36.375 C2.15003906 36.47941406 2.15003906 36.47941406 3.9609375 36.5859375 C7 37 7 37 9 39 C8.44444444 43.55555556 8.44444444 43.55555556 7 45 C5.14630389 45.08737645 3.28932459 45.10698153 1.43359375 45.09765625 C0.30888672 45.09443359 -0.81582031 45.09121094 -1.97460938 45.08789062 C-3.15861328 45.07951172 -4.34261719 45.07113281 -5.5625 45.0625 C-6.75037109 45.05798828 -7.93824219 45.05347656 -9.16210938 45.04882812 C-12.10812226 45.03699675 -15.05403681 45.02051287 -18 45 C-19.08203125 43.1953125 -19.08203125 43.1953125 -20 41 C-17.56796526 35.2094411 -13.47299709 31.07544228 -9.26171875 26.48828125 C-3.38189475 20.33788502 -3.38189475 20.33788502 -0.4375 12.625 C-0.75362546 9.66060444 -0.75362546 9.66060444 -4 8 C-6.56189845 7.84525388 -6.56189845 7.84525388 -9 9 C-9.495 9.99 -9.99 10.98 -10.5 12 C-12 15 -12 15 -14.5 16.0625 C-17 16 -17 16 -18.65625 14.49609375 C-19.0996875 14.00238281 -19.543125 13.50867188 -20 13 C-18.80539894 8.09584827 -17.97006298 4.80838582 -14 1.5 C-9.03960595 -0.98019703 -5.36157254 -1.31758872 0 0 Z " fill="currentColor" transform="translate(497,547)"/>
<path d="M0 0 C0.97292698 -0.00339833 0.97292698 -0.00339833 1.96550906 -0.00686532 C4.13096517 -0.01317689 6.29635824 -0.01237779 8.46182251 -0.0115509 C10.01768576 -0.01454416 11.57354826 -0.01794707 13.12940979 -0.02172852 C17.35052745 -0.03055553 21.57162484 -0.03290608 25.79275084 -0.0335443 C28.43128005 -0.03425551 31.06980412 -0.03639118 33.70833206 -0.03904152 C42.9170184 -0.04829046 52.12569027 -0.05237695 61.3343811 -0.05158997 C69.91230266 -0.05098921 78.49016132 -0.06154177 87.06806695 -0.07733363 C94.43807056 -0.09041728 101.80805363 -0.09577352 109.17806876 -0.09513456 C113.57744854 -0.09487982 117.9767724 -0.0977175 122.37614059 -0.10831261 C126.51461551 -0.11800752 130.65298122 -0.11806322 134.79146004 -0.11079597 C136.3075546 -0.10975188 137.82365601 -0.11210259 139.33973885 -0.11815643 C141.41501517 -0.12590438 143.48991696 -0.12121339 145.56518555 -0.11352539 C147.30454659 -0.11434254 147.30454659 -0.11434254 149.07904625 -0.1151762 C153.45713738 0.21199651 157.68162768 0.91460784 161.31973267 3.48136902 C163.45225326 6.71454541 163.03173375 10.4342181 162.40957642 14.13371277 C160.53337028 16.63532095 159.17066338 17.75316929 156.40957642 19.13371277 C154.239499 19.23244168 152.066302 19.26443444 149.89398193 19.26742554 C149.21722566 19.26969109 148.54046938 19.27195665 147.84320533 19.27429086 C145.56469342 19.28064506 143.28624077 19.27980059 141.00772095 19.27897644 C139.37846804 19.28196706 137.74921585 19.28536937 136.1199646 19.28915405 C131.68606779 19.29800851 127.25219026 19.30033278 122.81828547 19.30096984 C119.12039163 19.3019179 115.42250231 19.30559504 111.72461021 19.30914193 C103.00159532 19.31729213 94.27859076 19.31972567 85.55557251 19.3190155 C76.54992308 19.31841468 67.54433354 19.3289661 58.53869927 19.34475917 C50.81381673 19.3578247 43.08895379 19.36319981 35.36406028 19.36256009 C30.74731524 19.3623048 26.13062338 19.36517329 21.51388931 19.37573814 C17.17191267 19.38540244 12.83004026 19.38550981 8.48806 19.37822151 C6.89330519 19.37717356 5.29854395 19.379551 3.7038002 19.38558197 C1.52878941 19.39327534 -0.64585908 19.38867492 -2.82086182 19.38095093 C-4.64764623 19.38176808 -4.64764623 19.38176808 -6.51133537 19.38260174 C-9.49838221 19.14115266 -11.13603066 18.80347541 -13.59042358 17.13371277 C-16.13602211 13.48502155 -16.71688519 11.87983624 -15.96542358 7.44621277 C-14.01651054 2.75110407 -14.01651054 2.75110407 -11.59042358 1.13371277 C-7.69292384 0.13523816 -4.01316869 0.0058037 0 0 Z " fill="currentColor" transform="translate(590.5904235839844,559.8662872314453)"/>
<path d="M0 0 C1.06347656 0.77150391 1.06347656 0.77150391 2.1484375 1.55859375 C12.28489671 9.65611001 17.87883896 21.46435199 19.37890625 34.22265625 C19.86115825 47.02566895 16.21694441 58.21372501 8 68 C7.52304687 68.62261719 7.04609375 69.24523437 6.5546875 69.88671875 C0.59620028 76.82788842 -10.87542228 82.90679979 -20 84 C-33.99079473 85.0064133 -45.66599595 82.70374995 -57 74 C-57.86625 73.4225 -58.7325 72.845 -59.625 72.25 C-68.11509119 64.20675572 -73.40917046 53.30067076 -74.23828125 41.65234375 C-74.52297511 27.402667 -70.63932363 15.00336529 -60.875 4.3125 C-43.82911863 -11.49979785 -18.877703 -13.72039239 0 0 Z M-53.3125 10.3125 C-60.64536697 17.18706279 -64.20353873 25.39628377 -65.25 35.38671875 C-65.57091476 46.87947858 -61.55467037 56.22537812 -53.875 64.75 C-45.7231472 72.4116523 -35.59279193 75.37507934 -24.64453125 75.2109375 C-14.09236244 74.36925786 -5.88432929 69.27939996 1.3125 61.75 C8.31179928 53.50978909 10.82655518 43.62276472 10 33 C7.77690412 20.82949207 1.23570034 11.71127915 -8.796875 4.75390625 C-23.46615464 -3.80317354 -40.8088345 0.03744279 -53.3125 10.3125 Z " fill="currentColor" transform="translate(519,647)"/>
<path d="M0 0 C3.21553156 2.98585074 4.41102011 5.22427567 5.625 9.4375 C5.41383243 13.59046221 4.77137102 16.86021497 2.625 20.4375 C3.099375 20.911875 3.57375 21.38625 4.0625 21.875 C6.33554035 25.60278618 6.72310458 29.10580535 6.625 33.4375 C5.13331326 38.6086807 2.27201154 40.95155938 -2.2578125 43.5234375 C-6.71592181 45.44815628 -10.12814801 44.90201349 -14.5625 43.25 C-18.49120261 40.71816943 -20.73432117 38.23140073 -22.3125 33.8125 C-22.375 31.4375 -22.375 31.4375 -21.1875 29.5625 C-19.375 28.4375 -19.375 28.4375 -17.3125 28.4375 C-15.375 29.4375 -15.375 29.4375 -14.125 32 C-13.8775 32.804375 -13.63 33.60875 -13.375 34.4375 C-10.735 34.7675 -8.095 35.0975 -5.375 35.4375 C-3.30139488 33.19800647 -2.41309079 31.95807408 -2.1875 28.875 C-3.10752355 26.3216487 -3.10752355 26.3216487 -5.19921875 25.62890625 C-6.6501732 25.16783096 -8.10200181 24.70949764 -9.5546875 24.25390625 C-11.375 23.4375 -11.375 23.4375 -12.5 20.875 C-12.375 18.4375 -12.375 18.4375 -10.375 16.4375 C-8.39143517 15.72341666 -6.39184563 15.05132258 -4.375 14.4375 C-4.33245644 12.43795254 -4.33419217 10.43708364 -4.375 8.4375 C-5.48296961 7.12629347 -5.48296961 7.12629347 -8.25 7.0625 C-9.28125 7.18625 -10.3125 7.31 -11.375 7.4375 C-12.40513277 9.08571244 -13.40614628 10.75253702 -14.375 12.4375 C-16.9375 12.875 -16.9375 12.875 -19.375 12.4375 C-20.035 11.7775 -20.695 11.1175 -21.375 10.4375 C-21.23723126 5.4778254 -18.65431205 2.87296976 -15.375 -0.5625 C-9.99046376 -2.35734541 -5.17444314 -2.39557553 0 0 Z " fill="currentColor" transform="translate(499.375,663.5625)"/>
<path d="M0 0 C0.67775956 -0.00382555 1.35551912 -0.00765109 2.05381685 -0.01159257 C4.32384447 -0.02190763 6.59361845 -0.01793333 8.86366272 -0.01396179 C10.4915897 -0.01830909 12.11951464 -0.0234923 13.74743652 -0.02944946 C18.168905 -0.04284862 22.59028805 -0.04341713 27.01177287 -0.04088616 C30.70222175 -0.0398171 34.3926533 -0.04469816 38.08309847 -0.04949158 C46.78893774 -0.06058989 55.49473386 -0.06102232 64.20057678 -0.05497742 C73.18356264 -0.04893602 82.16639192 -0.0612521 91.14935106 -0.08254749 C98.86070885 -0.10015657 106.57201676 -0.10616595 114.28339392 -0.10290974 C118.88954363 -0.10109567 123.49558166 -0.1037454 128.10171318 -0.11762428 C132.43309853 -0.1301868 136.76423958 -0.12827354 141.09562111 -0.11521339 C142.68511919 -0.11284463 144.27463438 -0.11559302 145.86411285 -0.12383652 C148.03444874 -0.13428073 150.20396137 -0.12622292 152.37426758 -0.11352539 C154.19577284 -0.113777 154.19577284 -0.113777 156.05407619 -0.1140337 C159.55937421 0.29689088 161.44616761 1.15463696 164.25062561 3.26069641 C165.82960614 6.41865748 166.06990732 9.86740277 165.25062561 13.26069641 C162.64558734 16.4834345 161.15032342 18.08594185 157.02563477 18.8871088 C155.1839547 18.88798827 155.1839547 18.88798827 153.30506897 18.8888855 C152.61828788 18.89597989 151.93150679 18.90307427 151.22391415 18.91038364 C148.92885857 18.927948 146.63550022 18.9098693 144.34046936 18.89179993 C142.69268524 18.8969394 141.04490661 18.9042209 139.3971405 18.91348267 C134.92596211 18.93200148 130.45537983 18.91905525 125.98422623 18.89939237 C121.3047084 18.88300844 116.6252284 18.8918184 111.94569397 18.89691162 C104.08728004 18.90143287 96.2291041 18.88556084 88.3707428 18.85762024 C79.28598558 18.82556817 70.20165762 18.82558395 61.11686993 18.84283501 C52.376824 18.85869997 43.63693541 18.85196674 34.89689636 18.83489799 C31.1776765 18.82802622 27.45858271 18.82906124 23.73936462 18.83644295 C19.3594324 18.84410534 14.97998856 18.8319814 10.60013962 18.80459404 C8.99291814 18.7977086 7.38565106 18.79761397 5.77843094 18.80480957 C3.58380345 18.81350268 1.39068371 18.79755346 -0.80381775 18.77536011 C-2.03160446 18.77255319 -3.25939117 18.76974627 -4.52438354 18.76685429 C-8.37344236 18.1627498 -10.02912419 17.00538117 -12.74937439 14.26069641 C-14.06096207 10.48988182 -13.93593347 8.77127916 -12.56187439 5.01069641 C-9.24652448 -0.01948965 -5.79023073 0.00979158 0 0 Z " fill="currentColor" transform="translate(587.7493743896484,675.7393035888672)"/>
<path d="M0 0 C5.50759222 0.25468635 5.50759222 0.25468635 7.68391418 1.8684845 C9.24669762 3.9733749 9.35717071 5.09500213 9.3972168 7.69799805 C9.42690804 8.9289344 9.42690804 8.9289344 9.4571991 10.18473816 C9.46358902 11.06607925 9.46997894 11.94742035 9.4765625 12.85546875 C9.4945137 13.76126175 9.5124649 14.66705475 9.53096008 15.60029602 C9.58515034 18.49389996 9.61898661 21.38733815 9.65234375 24.28125 C9.68550914 26.24286165 9.71999807 28.20445141 9.75585938 30.16601562 C9.84088181 34.97514097 9.90765135 39.78421641 9.96484375 44.59375 C11.75100098 44.60776855 11.75100098 44.60776855 13.57324219 44.62207031 C17.99419467 44.66196387 22.41445078 44.72772073 26.83496094 44.80126953 C28.74763031 44.82948286 30.66041635 44.85069561 32.57324219 44.86474609 C35.32417548 44.88617081 38.0737055 44.9328174 40.82421875 44.984375 C42.1056778 44.98621796 42.1056778 44.98621796 43.4130249 44.98809814 C47.2510858 45.08263737 49.3233123 45.13424478 52.50488281 47.41308594 C54.65693873 50.62749455 54.50426379 52.81780974 53.96484375 56.59375 C52.31740581 59.05443824 51.01734704 60.38268381 48.05651855 60.97644043 C45.63861505 61.15438599 43.24868093 61.19963821 40.82421875 61.203125 C39.94203674 61.21966125 39.05985474 61.23619751 38.15093994 61.25323486 C35.33883725 61.30174194 32.52727543 61.32309155 29.71484375 61.34375 C27.80596233 61.37190746 25.89710614 61.40183457 23.98828125 61.43359375 C19.31384661 61.50750154 14.63971269 61.55705955 9.96484375 61.59375 C9.95549805 62.78452148 9.94615234 63.97529297 9.93652344 65.20214844 C9.89662988 69.62310092 9.83087302 74.04335703 9.75732422 78.46386719 C9.72911089 80.37653656 9.70789814 82.2893226 9.69384766 84.20214844 C9.67242294 86.95308173 9.62577635 89.70261175 9.57421875 92.453125 C9.57237579 93.73458405 9.57237579 93.73458405 9.57049561 95.04193115 C9.42490813 100.95242568 9.42490813 100.95242568 7.14550781 104.12988281 C3.90393508 106.30593186 1.77138985 106.20551634 -2.03515625 105.59375 C-4.399349 103.48444185 -5.83140399 101.77729601 -6.37902832 98.59628296 C-6.49819679 96.17243197 -6.48476583 93.78153335 -6.42578125 91.35546875 C-6.42012146 90.47470169 -6.41446167 89.59393463 -6.40863037 88.68647766 C-6.38630955 85.88417307 -6.33612202 83.08316554 -6.28515625 80.28125 C-6.26508566 78.37697164 -6.24683586 76.47267316 -6.23046875 74.56835938 C-6.18645892 69.90965947 -6.11746174 65.25192435 -6.03515625 60.59375 C-7.22592773 60.61469727 -8.41669922 60.63564453 -9.64355469 60.65722656 C-14.06400514 60.72965962 -18.48440321 60.77556172 -22.90527344 60.81347656 C-24.8181236 60.83358452 -26.73091236 60.86087507 -28.64355469 60.89550781 C-31.39403436 60.94406249 -34.14370102 60.96672658 -36.89453125 60.984375 C-37.74883728 61.00502014 -38.60314331 61.02566528 -39.4833374 61.04693604 C-45.39451834 61.04916695 -45.39451834 61.04916695 -48.57519531 58.78808594 C-50.72044929 55.56374768 -50.57544679 53.37578376 -50.03515625 49.59375 C-48.57519531 47.39941406 -48.57519531 47.39941406 -46.03515625 45.59375 C-42.98315496 45.04379237 -39.98689973 45.12839489 -36.89453125 45.203125 C-36.01234924 45.20878479 -35.13016724 45.21444458 -34.22125244 45.22027588 C-31.40866412 45.24263409 -28.5973583 45.29282868 -25.78515625 45.34375 C-23.87632051 45.36381575 -21.96746476 45.38206639 -20.05859375 45.3984375 C-15.3836218 45.442497 -10.70960633 45.51152016 -6.03515625 45.59375 C-6.05610352 44.40821533 -6.07705078 43.22268066 -6.09863281 42.0012207 C-6.17114956 37.59379196 -6.2169984 33.18641574 -6.25488281 28.77856445 C-6.27497171 26.8725497 -6.30224819 24.96659638 -6.33691406 23.06079102 C-6.38555267 20.31771674 -6.40815204 17.57545875 -6.42578125 14.83203125 C-6.44642639 13.98288651 -6.46707153 13.13374176 -6.48834229 12.25886536 C-6.48988896 8.16108279 -6.35807092 6.11121961 -4.13793945 2.5534668 C-2.03515625 0.59375 -2.03515625 0.59375 0 0 Z " fill="currentColor" transform="translate(814.03515625,775.40625)"/>
<path d="M0 0 C3.81148684 1.47261991 4.7733597 2.50894602 6.5 6.25 C7.11089597 10.8317198 6.26445065 13.01769024 4 17 C0.31540813 19.45639458 -2.72230442 19.80884302 -7 19 C-10.34664567 16.57902228 -11.69586639 14.91240083 -13 11 C-13 7.34076304 -12.24243223 5.86103423 -10 3 C-6.8142144 -0.1857856 -4.43606442 -0.54319156 0 0 Z " fill="currentColor" transform="translate(476,792)"/>
<path d="M0 0 C2.74483673 1.24765306 4.47294058 2.35315435 6.375 4.6875 C7.34637358 8.28158224 7.1124099 11.45192136 6 15 C3.2935264 18.18408658 1.68025817 18.88868503 -2.4375 19.5625 C-7.08575513 18.82856498 -8.94854964 17.57242969 -12 14 C-12.74640732 11.17390816 -12.68717509 8.83459723 -12 6 C-8.61619562 0.69870647 -6.21952213 -0.48780566 0 0 Z " fill="currentColor" transform="translate(516,792)"/>
</svg>
