<?xml version="1.0" encoding="UTF-8"?>
<svg version="1.1" xmlns="http://www.w3.org/2000/svg" width="1254" height="1254" viewBox="207.94 239.83 761.52 761.52">
<path d="M0 0 C4.88604944 3.88575586 8.76672639 8.86729722 12.80859375 13.59375 C16.38537687 17.52119814 20.20592339 21.21079173 24.02587891 24.90087891 C32.55304249 33.25839459 32.55304249 33.25839459 33.4375 38.68359375 C32.89954952 41.5318494 32.23833605 42.25349996 30 44.0625 C29.27167969 44.65546875 28.54335938 45.2484375 27.79296875 45.859375 C22.93229614 49.58475764 18.04620994 53.27174722 13.1171875 56.90625 C10.45539827 58.88052431 7.8653533 60.90876633 5.3203125 63.03125 C4.74756592 63.50071045 4.17481934 63.9701709 3.5847168 64.45385742 C2.03363173 65.73320949 0.49865527 67.03202017 -1.03515625 68.33203125 C-4.85432066 70.48062572 -6.83810948 70.15275385 -11 69 C-13.0625 66.75 -13.0625 66.75 -14 64 C-12.8225753 59.69679307 -10.76536433 57.51019067 -7.4375 54.625 C-6.63183594 53.91601562 -5.82617188 53.20703125 -4.99609375 52.4765625 C-1.06599279 49.22795232 2.96016017 46.11047138 7 43 C-64.40414007 32.89644154 -138.22620788 30.41672993 -209.00048828 46.38891602 C-212.90843109 47.18507269 -216.03848269 47.52321927 -220 47 C-222.44703913 44.93531073 -222.87828805 43.60855973 -223.5 40.5 C-223 38 -223 38 -221.2265625 36.03125 C-216.42084242 33.00585722 -211.39347035 32.14562229 -205.875 31 C-204.68374512 30.74508789 -203.49249023 30.49017578 -202.26513672 30.22753906 C-182.72092067 26.15700372 -162.91079074 23.43987251 -143 22 C-141.86788086 21.91314941 -140.73576172 21.82629883 -139.56933594 21.73681641 C-125.88951545 20.79912751 -112.20753752 20.75753996 -98.5 20.75 C-97.22432159 20.74899292 -95.94864319 20.74798584 -94.63430786 20.74694824 C-60.78689603 20.76491494 -27.52343257 23.49603067 6 28 C2.90526957 24.33401319 -0.16403964 20.70473911 -3.625 17.375 C-10.83744126 10.17855085 -10.83744126 10.17855085 -11.5 5.375 C-11 2 -11 2 -9.4375 0 C-5.70145257 -1.53273741 -3.8687826 -1.22511449 0 0 Z " fill="#5e534a" transform="translate(724,377)"/>
<path d="M0 0 C1.26277566 -0.00260775 2.52555133 -0.00521549 3.82659292 -0.00790226 C5.21524921 -0.00574047 6.60390535 -0.00348382 7.99256134 -0.0011425 C9.47793697 -0.00229539 10.96331232 -0.00388404 12.44868708 -0.00586975 C16.52320321 -0.01004118 20.59769591 -0.0079821 24.67221212 -0.00488353 C29.07081606 -0.00262029 33.46941597 -0.00611398 37.8680191 -0.00886345 C46.4888445 -0.01331287 55.10966119 -0.01234757 63.73048693 -0.00945081 C70.750936 -0.00719002 77.77138264 -0.0068872 84.79183197 -0.00797462 C85.79216462 -0.00812786 86.79249727 -0.00828109 87.82314304 -0.00843897 C89.85578263 -0.00875872 91.88842222 -0.00908293 93.92106181 -0.00941156 C112.99584652 -0.01226483 132.07062644 -0.00898355 151.14541036 -0.00361119 C167.45322776 0.00084029 183.76103802 0.00009435 200.06885529 -0.00452995 C219.03940082 -0.00990686 238.00994211 -0.01197291 256.9804883 -0.00891769 C259.01287874 -0.00859918 261.04526917 -0.00828481 263.07765961 -0.00797462 C264.07736875 -0.00782035 265.0770779 -0.00766607 266.10708126 -0.00750712 C273.0932366 -0.00665005 280.07938922 -0.00808761 287.06554413 -0.01045418 C295.6184957 -0.01328784 304.17143811 -0.01244068 312.72438866 -0.00717343 C317.07450523 -0.00458124 321.42460667 -0.00345292 325.77472305 -0.00682259 C336.36396767 -0.01410917 346.95178704 0.02062834 357.54053497 0.12584114 C358.26411579 0.1322362 358.98769661 0.13863125 359.73320413 0.1452201 C364.02037733 0.1850217 368.30617236 0.24785138 372.59248477 0.34308328 C374.50803792 0.3822146 376.42392046 0.4040719 378.33975744 0.4251374 C391.8780118 0.79158282 403.09187699 4.72873096 412.79834747 14.36802864 C415.76668038 17.62114625 418.48996727 20.90735348 420.85303497 24.62584114 C422.35849488 27.40371336 422.35849488 27.40371336 425.54053497 28.12584114 C426.79053497 31.06334114 426.79053497 31.06334114 427.54053497 34.12584114 C427.21053497 34.78584114 426.88053497 35.44584114 426.54053497 36.12584114 C426.44675112 38.9698586 426.41485944 41.78919856 426.42700958 44.63333321 C426.42686072 45.52440106 426.42671186 46.41546892 426.42655849 47.33353883 C426.42725632 50.33749065 426.43511377 53.34138229 426.44287872 56.34532356 C426.44479672 58.49186862 426.44626107 60.63841413 426.44730377 62.78495979 C426.45047183 67.41706539 426.45675114 72.0491529 426.46537018 76.68125153 C426.47885809 84.00500924 426.48477972 91.32876087 426.48950958 98.65252876 C426.50157355 115.52834629 426.5236012 132.40414813 426.54573822 149.27995491 C426.56591105 164.73008331 426.58398788 180.18020637 426.59395313 195.63034517 C426.59893792 202.91081678 426.60880203 210.19126062 426.62238312 217.47172105 C426.62984411 222.00406621 426.63315876 226.53640754 426.63534927 231.06875801 C426.63722107 233.17020903 426.64082161 235.27165934 426.6462822 237.3731041 C426.65350485 240.2432308 426.65453568 243.11329659 426.65406036 245.98343086 C426.65765532 246.81379441 426.66125029 247.64415796 426.66495419 248.49968404 C426.65856855 252.10320217 426.49682636 255.41895756 425.96312714 258.99802303 C425.29002855 262.18808587 425.29002855 262.18808587 426.66553497 265.31334114 C427.54053497 268.12584114 427.54053497 268.12584114 426.41553497 270.37584114 C424.54053497 272.12584114 424.54053497 272.12584114 422.59912872 273.00474739 C420.20147283 274.31049168 419.25715139 275.57034329 417.72803497 277.81334114 C409.54790078 289.13021852 400.19978638 295.06081499 386.54053497 298.12584114 C381.01775832 298.66455135 375.53394099 298.66808215 369.99304962 298.63377571 C368.35354355 298.63839349 366.71404163 298.64475226 365.07454824 298.65268469 C360.60247849 298.6692808 356.13075308 298.66117624 351.65868258 298.64873981 C346.82287513 298.63965158 341.98712494 298.65367769 337.15132904 298.6646595 C327.69109642 298.68240916 318.23099103 298.67862059 308.7707535 298.66700894 C301.07951671 298.65796088 293.38831548 298.65675655 285.69707489 298.6611042 C284.60077124 298.66171713 283.5044676 298.66233007 282.37494263 298.66296157 C280.14754807 298.66424052 277.92015352 298.66553738 275.69275898 298.66685194 C254.82582693 298.67824733 233.95896527 298.66516036 213.09204477 298.64365047 C195.20260653 298.62578045 177.31327212 298.62888485 159.42383575 298.64732552 C138.62955787 298.66875061 117.83534163 298.67714879 97.04105425 298.66487646 C94.82203453 298.66360232 92.6030148 298.66234483 90.38399506 298.6611042 C88.74646354 298.66017855 88.74646354 298.66017855 87.07585058 298.6592342 C79.39737151 298.65578622 71.71893167 298.66159773 64.04045868 298.67102242 C54.67791407 298.68226199 45.31550353 298.67916119 35.9529742 298.65789944 C31.17967025 298.6474154 26.40658953 298.64322193 21.63328743 298.65649605 C17.2573368 298.66848077 12.88181475 298.661758 8.50590259 298.64058584 C6.92935856 298.6361454 5.35277776 298.63832797 3.77625769 298.64808899 C-11.56346554 298.73572344 -25.44745438 295.83894596 -36.81493378 284.84849739 C-39.55403523 281.84995464 -41.97227105 278.96557749 -44.01415253 275.44615364 C-45.33030213 272.92418238 -45.33030213 272.92418238 -48.08446503 271.62584114 C-50.45946503 270.12584114 -50.45946503 270.12584114 -51.33446503 267.87584114 C-51.45946503 265.12584114 -51.45946503 265.12584114 -50.975214 262.02842999 C-50.3930712 257.62344984 -50.32063706 253.37018199 -50.33248138 248.93441963 C-50.33092139 248.03020698 -50.3293614 247.12599433 -50.32775414 246.1943813 C-50.32377757 243.17599373 -50.32692081 240.15765679 -50.3300705 237.13926888 C-50.32871498 234.97065896 -50.3269342 232.80204927 -50.32476044 230.63344002 C-50.32020424 224.75140211 -50.32196816 218.86938176 -50.32513952 212.98734355 C-50.32767215 206.8308773 -50.32532309 200.67441255 -50.32375336 194.51794624 C-50.32193444 184.18061745 -50.32433084 173.8432958 -50.32909393 163.50596809 C-50.33453745 151.5538642 -50.33277212 139.60177736 -50.32726753 127.64967388 C-50.32273021 117.38710205 -50.32208884 107.12453536 -50.3247062 96.86196285 C-50.32626537 90.73282693 -50.32647252 84.60369901 -50.32316971 78.4745636 C-50.32028199 72.71341846 -50.32228332 66.95229533 -50.32806396 61.19115257 C-50.32938665 59.07637951 -50.32900576 56.9616046 -50.3268013 54.84683228 C-50.32407059 51.96128948 -50.32749451 49.0758173 -50.33248138 46.19027901 C-50.33025066 45.35263132 -50.32801994 44.51498363 -50.32572162 43.65195268 C-50.33724729 40.21575143 -50.45697935 37.13911128 -51.0924015 33.74681377 C-51.45946503 31.12584114 -51.45946503 31.12584114 -49.45946503 28.12584114 C-48.81622284 27.82033333 -48.17298065 27.51482552 -47.51024628 27.20005989 C-44.92758313 25.84723634 -44.13255715 24.42574466 -42.64696503 21.93834114 C-35.79248904 11.27202439 -25.89718654 4.06105895 -13.45946503 1.12584114 C-8.93001704 0.39042498 -4.58667497 0.00068551 0 0 Z M-30.85009003 27.90709114 C-36.42263597 35.58963021 -37.60998792 43.36727979 -37.59990692 52.67019844 C-37.60287804 53.52904445 -37.60584917 54.38789047 -37.60891032 55.27276212 C-37.61757992 58.14982374 -37.61910411 61.02684367 -37.62059784 63.90391731 C-37.62522727 65.96722184 -37.63025209 68.03052552 -37.63564301 70.0938282 C-37.64875753 75.69939637 -37.65521019 81.30495256 -37.65965366 86.91053367 C-37.66258609 90.41410594 -37.66669124 93.91767495 -37.67115784 97.42124557 C-37.68483066 108.38722601 -37.69449821 119.35319898 -37.69835973 130.31918734 C-37.70283922 142.9700077 -37.72038303 155.62071995 -37.74936032 168.27150744 C-37.77099086 178.05512532 -37.78106475 187.8387128 -37.78240085 197.62235433 C-37.78344794 203.46328756 -37.78933551 209.30411914 -37.80722046 215.14502716 C-37.82372463 220.64191427 -37.82584517 226.13862356 -37.81708145 231.63552666 C-37.81631232 233.64864453 -37.82063737 235.66177206 -37.8305397 237.67486572 C-37.89789243 252.22522794 -37.39350229 263.62222599 -27.45946503 275.12584114 C-17.94529816 284.16429966 -7.94991616 284.56514409 4.54489899 284.51352119 C6.18635075 284.51769654 7.82779963 284.52317516 9.46924317 284.52984101 C13.96974632 284.54428806 18.47006623 284.54005319 22.97057939 284.53267419 C27.82822527 284.52794299 32.68583149 284.54045197 37.54346466 284.5506916 C47.05615927 284.567886 56.56878784 284.56871826 66.08149396 284.5634787 C73.81387159 284.55943688 81.54622971 284.56088071 89.27860641 284.56622696 C90.37922904 284.56697538 91.47985167 284.5677238 92.61382649 284.5684949 C94.84976291 284.57002639 97.08569933 284.57156473 99.32163574 284.57310987 C120.28906463 284.58683729 141.2564562 284.58139557 162.22388424 284.56992466 C181.4028411 284.55999255 200.58170149 284.57293216 219.76064347 284.59685885 C239.45707121 284.62124586 259.15345401 284.63085866 278.84989655 284.62420613 C289.90655264 284.62071296 300.96313453 284.62295242 312.01977921 284.64045715 C321.43229701 284.65517414 330.84468837 284.65582112 340.25720368 284.63838624 C345.0584591 284.62986968 349.85948859 284.62774277 354.66073227 284.6430378 C359.0589228 284.65687524 363.45669365 284.65213386 367.85485984 284.63279856 C369.44294303 284.62903535 371.03105975 284.63196982 372.61911307 284.64241021 C385.6682038 284.72207528 394.70089411 282.80437136 404.33740997 273.63755989 C410.9698085 266.07615519 412.68850578 258.30055859 412.69443512 248.52537727 C412.69881737 247.64837905 412.70319963 246.77138083 412.70771468 245.86780691 C412.72109039 242.92321718 412.72727885 239.97865737 412.73340607 237.03404427 C412.74130814 234.92487134 412.74957715 232.81569977 412.75818634 230.70652962 C412.78439911 223.77339658 412.79971545 216.84025753 412.81397247 209.90709114 C412.81933288 207.51882104 412.82471039 205.13055098 412.83010483 202.74228096 C412.85173441 192.80497702 412.87046964 182.86767469 412.88172722 172.93035316 C412.89795605 158.69911564 412.93110737 144.46815159 412.98812807 130.23701715 C413.02686939 120.22579144 413.04636502 110.21463874 413.05164778 100.20334005 C413.05529607 94.22698905 413.06726199 88.25092979 413.09975052 82.27466011 C413.12990379 76.6471961 413.13611686 71.02019923 413.12436676 65.39267159 C413.12414662 63.33361759 413.13240196 61.27454145 413.1500206 59.21556282 C413.26040826 45.56590462 412.64685405 33.36948506 402.70459747 22.87974739 C395.34273158 16.91318099 387.28256911 14.00570287 377.94144344 13.99162006 C377.27659277 13.98926783 376.6117421 13.9869156 375.92674443 13.98449209 C373.68905909 13.97781171 371.45143196 13.97826003 369.21373749 13.97867012 C367.59707744 13.97537089 365.98041822 13.9716452 364.36376005 13.96752864 C359.91321445 13.95750715 355.46268233 13.9537916 351.01212704 13.95113933 C346.21507196 13.9472367 341.41802757 13.93765831 336.62097931 13.92892647 C325.03183819 13.90916053 313.44269618 13.89909552 301.85354242 13.89019868 C296.39630139 13.88581585 290.93906132 13.88044901 285.48182106 13.87520981 C267.34102677 13.85819714 249.20023308 13.84370301 231.05943203 13.83646107 C226.35139147 13.83455116 221.64335091 13.83263083 216.93531036 13.83067513 C215.76514618 13.83019138 214.59498199 13.82970764 213.38935829 13.82920925 C194.43392475 13.82090914 175.47855433 13.79557271 156.52314835 13.76309445 C137.06302378 13.73002319 117.60293128 13.71201223 98.14277846 13.70881683 C87.21624658 13.70665176 76.28980672 13.69790354 65.36330223 13.67235565 C56.05759397 13.65064776 46.75200009 13.64259869 37.44626939 13.65232243 C32.69958984 13.65686689 27.95314628 13.65497234 23.2064991 13.63556099 C18.85683786 13.617927 14.50758471 13.61892893 10.15791912 13.63445828 C8.58853479 13.636834 7.01912219 13.63251267 5.44978105 13.62062963 C-9.28271808 13.51602979 -21.03639715 16.26961463 -30.85009003 27.90709114 Z " fill="#5e534a" transform="translate(440.45946502685547,470.87415885925293)"/>
<path d="M0 0 C0.71607422 -0.00773437 1.43214844 -0.01546875 2.16992188 -0.0234375 C8.97703574 0.0017974 8.97703574 0.0017974 12.0625 2.25 C13.1945585 5.11788153 13.36522443 6.53315904 12.16015625 9.38671875 C8.7378799 12.42661785 4.97337243 11.7890877 0.5625 11.6875 C-0.73880859 11.69813477 -0.73880859 11.69813477 -2.06640625 11.70898438 C-8.41098914 11.64524436 -8.41098914 11.64524436 -10.71679688 9.91430664 C-11.9375 8.25 -11.9375 8.25 -11.8125 5.1875 C-10.02359127 -0.81812217 -5.31457674 -0.05709483 0 0 Z " fill="#5e534a" transform="translate(357.9375,497.75)"/>
<path d="M0 0 C1.3096875 -0.00515625 2.619375 -0.0103125 3.96875 -0.015625 C7.16045296 0.22445885 8.92440047 0.41930426 11.5 2.25 C12.5 4.625 12.5 4.625 12.5 7.25 C11.06640625 9.38671875 11.06640625 9.38671875 8.5 11.25 C5.4673891 11.81696966 2.51352512 11.76324009 -0.5625 11.6875 C-1.37783203 11.69458984 -2.19316406 11.70167969 -3.03320312 11.70898438 C-8.97904246 11.64547089 -8.97904246 11.64547089 -11.25952148 9.91430664 C-12.5 8.25 -12.5 8.25 -12.4375 5.1875 C-11.5 2.25 -11.5 2.25 -9.91015625 1.08203125 C-6.5530271 -0.07691285 -3.54397339 -0.01395265 0 0 Z " fill="#5e534a" transform="translate(898.5,497.75)"/>
<path d="M0 0 C0.86141266 2.81916869 1.23546207 4.41134483 0.125 7.1875 C-2.68320679 9.5827352 -5.21394664 9.85617388 -8.79296875 10.4921875 C-11.19576985 10.91787835 -11.19576985 10.91787835 -13.6875 12.6875 C-16 14 -16 14 -19.1875 13.875 C-22 13 -22 13 -24 10 C-24 8.125 -24 8.125 -23 6 C-16.26897463 -0.42506967 -9.09440056 -3.6810669 0 0 Z " fill="#5e534a" transform="translate(327,500)"/>
<path d="M0 0 C6.11156395 0.11514541 11.48247601 1.90376313 16.203125 5.8515625 C17.4375 7.375 17.4375 7.375 17.25 9.9375 C16.4375 12.375 16.4375 12.375 14.4375 14.375 C11.20723776 14.13572132 8.42260939 13.87353714 5.5078125 12.3984375 C3.23973111 11.277235 1.16127675 10.75930698 -1.3125 10.25 C-2.51132812 9.99863281 -2.51132812 9.99863281 -3.734375 9.7421875 C-4.33765625 9.62101562 -4.9409375 9.49984375 -5.5625 9.375 C-6.1875 6 -6.1875 6 -6.5625 2.375 C-4.12323259 -0.06426741 -3.36080814 0.05259481 0 0 Z " fill="#5e534a" transform="translate(935.5625,498.625)"/>
<path d="M0 0 C2.5 0.4375 2.5 0.4375 4.13671875 1.89453125 C6.18737031 5.71967213 5.89680629 9.29322946 5.8125 13.5625 C5.81572266 14.38621094 5.81894531 15.20992187 5.82226562 16.05859375 C5.76725072 22.17024928 5.76725072 22.17024928 3.5 24.4375 C0.5 24.6875 0.5 24.6875 -2.5 24.4375 C-5.69612421 21.24137579 -5.09104161 17.36176742 -5.3125 13 C-5.37630859 12.12794922 -5.44011719 11.25589844 -5.50585938 10.35742188 C-5.55162109 9.51888672 -5.59738281 8.68035156 -5.64453125 7.81640625 C-5.68940674 7.0488501 -5.73428223 6.28129395 -5.78051758 5.49047852 C-5.28915806 1.89444527 -3.45277273 0.60423523 0 0 Z " fill="#5e534a" transform="translate(963.5,526.5625)"/>
<path d="M0 0 C2.5 0.4375 2.5 0.4375 4.16796875 1.92578125 C6.15068533 5.6644521 5.65587801 8.92809006 5.3125 13.0625 C5.26802734 13.83851563 5.22355469 14.61453125 5.17773438 15.4140625 C4.7734375 21.1640625 4.7734375 21.1640625 2.5 23.4375 C-0.5 23.6875 -0.5 23.6875 -3.5 23.4375 C-6.2633734 20.6741266 -5.78850252 18.78202557 -5.82226562 15.00976562 C-5.81904297 14.18154297 -5.81582031 13.35332031 -5.8125 12.5 C-5.82861328 11.67564453 -5.84472656 10.85128906 -5.86132812 10.00195312 C-5.86197266 9.20853516 -5.86261719 8.41511719 -5.86328125 7.59765625 C-5.86626221 6.87199463 -5.86924316 6.14633301 -5.87231445 5.39868164 C-5.20827299 1.90081604 -3.40316622 0.59555409 0 0 Z " fill="#5e534a" transform="translate(294.5,527.5625)"/>
<path d="M0 0 C0.64186202 -0.00382555 1.28372403 -0.00765109 1.94503641 -0.01159257 C4.08758734 -0.02187992 6.22986816 -0.01793868 8.37243652 -0.01396179 C9.91184232 -0.01831058 11.45124594 -0.02349429 12.99064636 -0.02944946 C17.16619709 -0.04283135 21.34165727 -0.04341914 25.51722527 -0.04088616 C29.0039278 -0.03981611 32.49061204 -0.04470059 35.97731066 -0.04949158 C44.20229494 -0.06058351 52.42723354 -0.06102565 60.65222168 -0.05497742 C69.1370633 -0.04893409 77.62173925 -0.06125843 86.1065526 -0.08254749 C93.3933062 -0.10015816 100.68000704 -0.10616578 107.96678114 -0.10290974 C112.31805394 -0.10109622 116.6692085 -0.10374013 121.02046204 -0.11762428 C125.11137816 -0.13018969 129.20203567 -0.12827085 133.29294777 -0.11521339 C134.7937561 -0.11284541 136.29458256 -0.11559026 137.7953701 -0.12383652 C139.84524461 -0.13428728 141.89424858 -0.12621801 143.9440918 -0.11352539 C145.09076073 -0.11369313 146.23742966 -0.11386087 147.41884613 -0.1140337 C150.86845172 0.30934871 152.74519582 1.12377814 155.4720459 3.26069641 C156.5345459 6.69819641 156.5345459 6.69819641 156.4720459 10.26069641 C154.31854218 13.22730193 153.10425806 14.15569125 149.45822048 14.76126766 C148.2711604 14.76147695 147.08410032 14.76168623 145.86106873 14.76190186 C144.866814 14.77020345 144.866814 14.77020345 143.85247332 14.77867275 C141.63275278 14.79227976 139.41415661 14.77731135 137.19445801 14.7624054 C135.60269188 14.76618855 134.01092903 14.77168857 132.41917419 14.77877808 C128.09689364 14.79274941 123.7750104 14.78155179 119.45275187 14.76506686 C114.93245164 14.75122737 110.41217473 14.75767509 105.89186096 14.76119995 C98.30158068 14.76390267 90.71145849 14.75042024 83.12121582 14.72724915 C74.3403933 14.70062942 65.55983497 14.6988951 56.77898592 14.71063751 C48.33742571 14.72140817 39.89596125 14.71523446 31.45440865 14.70108223 C27.8591543 14.69531719 24.26396991 14.69540914 20.66871452 14.70014763 C16.43743765 14.70491212 12.20645092 14.69483788 7.97522926 14.67319298 C6.42037815 14.66761805 4.86549919 14.66716627 3.31064606 14.67214584 C1.1921195 14.67808089 -0.92551456 14.66562942 -3.04396057 14.64837646 C-4.82398515 14.64473162 -4.82398515 14.64473162 -6.63996983 14.64101315 C-9.5279541 14.26069641 -9.5279541 14.26069641 -11.38242245 12.88881016 C-12.94784353 10.66391871 -13.3298912 8.96755605 -13.5279541 6.26069641 C-12.9029541 4.07319641 -12.9029541 4.07319641 -11.5279541 2.26069641 C-7.60928206 0.28693478 -4.35497946 0.00779668 0 0 Z " fill="#5e534a" transform="translate(466.5279541015625,555.7393035888672)"/>
<path d="M0 0 C2.3125 1.25 2.3125 1.25 3.3125 2.25 C3.46607265 5.22104013 3.54418121 8.15277553 3.5625 11.125 C3.583125 11.95386719 3.60375 12.78273438 3.625 13.63671875 C3.63015625 14.43464844 3.6353125 15.23257813 3.640625 16.0546875 C3.65464355 17.15272705 3.65464355 17.15272705 3.66894531 18.27294922 C3.20789853 20.83017991 2.39201434 21.72764999 0.3125 23.25 C-2.8125 23.0625 -2.8125 23.0625 -5.6875 22.25 C-7.39256094 18.83987813 -6.95612177 15.07140181 -7 11.3125 C-7.02900391 10.48814453 -7.05800781 9.66378906 -7.08789062 8.81445312 C-7.1516205 2.77972403 -7.1516205 2.77972403 -4.8359375 0.13671875 C-2.6875 -0.75 -2.6875 -0.75 0 0 Z " fill="#5e534a" transform="translate(965.6875,569.75)"/>
<path d="M0 0 C1.875 1.0625 1.875 1.0625 3 3 C3.6395948 6.77360929 4.05350835 9.38642261 1.9152832 12.66137695 C-4.63050598 19.83940061 -11.54701056 26.65531464 -18.4375 33.5 C-19.75479059 34.81226585 -21.07184986 36.12476395 -22.38867188 37.4375 C-25.5897861 40.62768506 -28.79401865 43.81470651 -32 47 C-27.98878333 51.81715122 -23.78739891 56.33913892 -19.32421875 60.73828125 C-18.71359085 61.34512253 -18.10296295 61.95196381 -17.47383118 62.57719421 C-15.54749227 64.49143922 -13.61791543 66.40236661 -11.6875 68.3125 C-9.12605066 70.84740255 -6.56790438 73.38557218 -4.01171875 75.92578125 C-3.42323654 76.50596512 -2.83475433 77.08614899 -2.22843933 77.68391418 C2.9241289 82.80503011 2.9241289 82.80503011 3.25 87.9375 C3.20772751 90.53021243 3.18341547 91.70074319 1.8125 93.9375 C-0.59968218 95.35153783 -2.18407585 95.86902678 -5 96 C-11.29373525 93.69859475 -15.42708419 89.00574084 -20.046875 84.3515625 C-21.32549408 83.07724869 -21.32549408 83.07724869 -22.62994385 81.77719116 C-24.42544343 79.9837286 -26.2171779 78.18648975 -28.00537109 76.38574219 C-30.7437966 73.63123982 -33.49786869 70.89311769 -36.25390625 68.15625 C-37.99835872 66.40981543 -39.74188051 64.66245064 -41.484375 62.9140625 C-42.3083075 62.0962027 -43.13223999 61.2783429 -43.98114014 60.43569946 C-44.74243225 59.66495087 -45.50372437 58.89420227 -46.28808594 58.10009766 C-46.9583783 57.42741852 -47.62867065 56.75473938 -48.3192749 56.06167603 C-50.88332216 52.9164652 -51.97446608 50.17456048 -52.0625 46.125 C-50.72429715 42.18910925 -48.6266475 40.27506453 -45.59375 37.515625 C-43.89387108 36.07103944 -43.89387108 36.07103944 -43 34 C-42.34 34 -41.68 34 -41 34 C-40.73050034 33.40583786 -40.46100067 32.81167572 -40.18333435 32.19950867 C-39.00183753 30.00341549 -37.8192796 28.56585915 -36.06665039 26.80786133 C-35.47586197 26.21076859 -34.88507355 25.61367584 -34.27638245 24.99848938 C-33.6399028 24.3660582 -33.00342316 23.73362701 -32.34765625 23.08203125 C-31.69171982 22.42418137 -31.03578339 21.76633148 -30.35997009 21.08854675 C-28.97461647 19.70183421 -27.58674219 18.31763591 -26.1965332 16.93579102 C-24.06683307 14.81681126 -21.94802112 12.68736453 -19.83007812 10.55664062 C-18.48241179 9.2102956 -17.13412535 7.86457096 -15.78515625 6.51953125 C-15.15070084 5.88102737 -14.51624542 5.2425235 -13.86256409 4.58467102 C-13.2686235 3.99703476 -12.67468292 3.4093985 -12.06274414 2.80395508 C-11.28236534 2.02596306 -11.28236534 2.02596306 -10.48622131 1.23225403 C-7.05484328 -1.612766 -4.06343459 -1.01585865 0 0 Z " fill="#5e534a" transform="translate(260,571)"/>
<path d="M0 0 C2.3125 1.25 2.3125 1.25 3.3125 2.25 C3.46607265 5.22104013 3.54418121 8.15277553 3.5625 11.125 C3.583125 11.95386719 3.60375 12.78273438 3.625 13.63671875 C3.63015625 14.43464844 3.6353125 15.23257813 3.640625 16.0546875 C3.65464355 17.15272705 3.65464355 17.15272705 3.66894531 18.27294922 C3.20791366 20.83009602 2.39452902 21.73066512 0.3125 23.25 C-5.12228261 22.81521739 -5.12228261 22.81521739 -6.6875 21.25 C-6.99217105 18.1343708 -6.96579403 15.00370638 -7 11.875 C-7.02900391 10.9984375 -7.05800781 10.121875 -7.08789062 9.21875 C-7.15179743 2.78874175 -7.15179743 2.78874175 -4.8359375 0.1015625 C-2.6875 -0.75 -2.6875 -0.75 0 0 Z " fill="#5e534a" transform="translate(295.6875,569.75)"/>
<path d="M0 0 C2.48514953 1.80553547 4.55730947 3.95096778 6.68359375 6.16015625 C7.30218765 6.78345322 7.92078156 7.40675018 8.55812073 8.04893494 C10.52991767 10.04202273 12.48343897 12.05203706 14.4375 14.0625 C15.74694197 15.38846184 17.05747879 16.71334342 18.36914062 18.03710938 C23.96180491 23.70279003 29.53289177 29.36544498 34.65112305 35.4699707 C36.12864939 37.14592683 37.72946198 38.61509246 39.375 40.125 C42.27207696 43.29798905 43.09081961 44.73147838 43 49 C40.6432723 53.83213953 36.98646175 57.46441902 33.3125 61.3125 C32.63276123 62.02728516 31.95302246 62.74207031 31.25268555 63.47851562 C28.8450511 65.99543165 26.42419952 68.49903416 24 71 C23.51337891 71.50335876 23.02675781 72.00671753 22.52539062 72.52532959 C19.33901135 75.81959158 16.13847277 79.09923975 12.92147827 82.36361694 C11.85194069 83.45137133 10.78568826 84.54236599 9.72280884 85.6366272 C8.21691547 87.18442542 6.69828344 88.71855854 5.17578125 90.25 C4.29833252 91.14203125 3.42088379 92.0340625 2.5168457 92.953125 C-0.14519466 95.11808246 -1.61166746 95.77418173 -5 96 C-8.81263347 94.93600927 -9.75011007 94.3748349 -12 91 C-12.4516129 84.67741935 -12.4516129 84.67741935 -10 81 C-9.34 81 -8.68 81 -8 81 C-7.72958893 80.40427185 -7.45917786 79.8085437 -7.18057251 79.19476318 C-6.00982981 77.01827427 -4.85681177 75.61457863 -3.11083984 73.88378906 C-2.5303891 73.30348938 -1.94993835 72.7231897 -1.35189819 72.12530518 C-0.72788116 71.51161072 -0.10386414 70.89791626 0.5390625 70.265625 C1.17991791 69.62759949 1.82077332 68.98957397 2.48104858 68.33221436 C4.52437821 66.30005931 6.57455982 64.27497782 8.625 62.25 C10.0134786 60.8715547 11.4015049 59.49265364 12.7890625 58.11328125 C16.18748697 54.73688106 19.59207254 51.36680712 23 48 C18.98878333 43.18284878 14.78739891 38.66086108 10.32421875 34.26171875 C9.71359085 33.65487747 9.10296295 33.04803619 8.47383118 32.42280579 C6.54749227 30.50856078 4.61791543 28.59763339 2.6875 26.6875 C0.12605066 24.15259745 -2.43209562 21.61442782 -4.98828125 19.07421875 C-5.57676346 18.49403488 -6.16524567 17.91385101 -6.77156067 17.31608582 C-11.9241289 12.19496989 -11.9241289 12.19496989 -12.25 7.0625 C-12.20226923 3.29858791 -12.20226923 3.29858791 -10.6875 1.0625 C-6.87276022 -1.3393732 -4.21897939 -1.23753753 0 0 Z " fill="#5e534a" transform="translate(771,571)"/>
<path d="M0 0 C1.21564636 -0.0071553 2.43129272 -0.01431061 3.68377686 -0.02168274 C5.04334997 -0.02452329 6.40292335 -0.02723499 7.76249695 -0.02983093 C9.18470935 -0.03609274 10.60692009 -0.04273929 12.02912903 -0.04974365 C15.90317606 -0.06718028 19.77721073 -0.07771272 23.65128732 -0.08594918 C26.06999888 -0.09109389 28.48870656 -0.09716986 30.90741539 -0.10346031 C38.47008618 -0.12252014 46.03274715 -0.13674936 53.59543735 -0.14507228 C62.33432989 -0.1548475 71.07296932 -0.18117094 79.81177264 -0.22157317 C86.55999702 -0.25170487 93.30814874 -0.26653836 100.0564391 -0.26985329 C104.08978593 -0.27220727 108.12286261 -0.2812122 112.15613747 -0.30631447 C115.95074193 -0.32954885 119.74489751 -0.33384744 123.5395546 -0.32355309 C124.93275251 -0.32305647 126.32597217 -0.32941408 127.71910286 -0.34310913 C129.62027074 -0.36075336 131.5216324 -0.35136096 133.42285156 -0.34057617 C134.48714543 -0.34296453 135.5514393 -0.34535288 136.6479845 -0.34781361 C140.11554703 0.27544058 141.32122438 1.34253761 143.40190125 4.14717102 C143.40190125 7.70967102 143.40190125 7.70967102 142.40190125 11.14717102 C139.27703078 14.26148321 136.87794472 14.52209092 132.55693054 14.52139282 C131.36240265 14.52840714 130.16787476 14.53542145 128.93714905 14.54264832 C127.63000946 14.53500458 126.32286987 14.52736084 124.97612 14.51948547 C123.58302031 14.52191395 122.18992236 14.52563381 120.79682922 14.5305481 C117.01583327 14.53995319 113.23509636 14.530535 109.45412064 14.51721597 C105.4975048 14.50589904 101.54090167 14.51000916 97.58427429 14.51196289 C90.93978138 14.51284579 84.2953905 14.50176635 77.65092468 14.48335266 C69.96874321 14.46218508 62.28671122 14.45867518 54.60450649 14.46491462 C47.21481795 14.47060923 39.82518205 14.46496148 32.4355011 14.45374107 C29.29045132 14.44909637 26.14543375 14.44822068 23.00038147 14.45032692 C19.29691318 14.45221052 15.59359703 14.44410047 11.89016342 14.42826653 C9.88233651 14.42199981 7.87448653 14.42553111 5.86665344 14.42933655 C4.0748616 14.41870934 4.0748616 14.41870934 2.24687195 14.40786743 C1.20859756 14.40581456 0.17032318 14.40376169 -0.89941406 14.40164661 C-3.67598489 14.13982666 -5.2933746 13.69674951 -7.59809875 12.14717102 C-9.03559875 9.33467102 -9.03559875 9.33467102 -9.59809875 6.14717102 C-7.03404643 0.65277319 -5.86653488 0.02358108 0 0 Z " fill="#5e534a" transform="translate(462.5980987548828,604.8528289794922)"/>
<path d="M0 0 C1.423125 0.4021875 1.423125 0.4021875 2.875 0.8125 C4.58413373 4.23076747 4.05958479 8.04604763 4.0625 11.8125 C4.07474609 12.64523437 4.08699219 13.47796875 4.09960938 14.3359375 C4.10250977 15.53089844 4.10250977 15.53089844 4.10546875 16.75 C4.10957764 17.48089844 4.11368652 18.21179688 4.11791992 18.96484375 C3.875 20.8125 3.875 20.8125 1.875 22.8125 C-1.125 23.0625 -1.125 23.0625 -4.125 22.8125 C-6.8883734 20.0491266 -6.41350252 18.15702557 -6.44726562 14.38476562 C-6.44404297 13.55654297 -6.44082031 12.72832031 -6.4375 11.875 C-6.45361328 11.05064453 -6.46972656 10.22628906 -6.48632812 9.37695312 C-6.48697266 8.58353516 -6.48761719 7.79011719 -6.48828125 6.97265625 C-6.49126221 6.24699463 -6.49424316 5.52133301 -6.49731445 4.77368164 C-5.73724221 0.76996993 -3.91347495 -0.2348085 0 0 Z " fill="#5e534a" transform="translate(295.125,611.1875)"/>
<path d="M0 0 C2.875 0.75 2.875 0.75 3.875 1.75 C4.12466567 4.8882345 4.06021791 8.04049613 4.0625 11.1875 C4.07474609 12.07244141 4.08699219 12.95738281 4.09960938 13.86914062 C4.10250977 15.13854492 4.10250977 15.13854492 4.10546875 16.43359375 C4.10957764 17.21275146 4.11368652 17.99190918 4.11791992 18.79467773 C3.875 20.75 3.875 20.75 1.875 22.75 C-1.125 23 -1.125 23 -4.125 22.75 C-6.8883734 19.9866266 -6.41350252 18.09452557 -6.44726562 14.32226562 C-6.44404297 13.49404297 -6.44082031 12.66582031 -6.4375 11.8125 C-6.45361328 10.98814453 -6.46972656 10.16378906 -6.48632812 9.31445312 C-6.48697266 8.52103516 -6.48761719 7.72761719 -6.48828125 6.91015625 C-6.49126221 6.18449463 -6.49424316 5.45883301 -6.49731445 4.71118164 C-5.7348811 0.69503269 -3.92420372 -0.3139363 0 0 Z " fill="#5e534a" transform="translate(965.125,611.25)"/>
<path d="M0 0 C3 0.25 3 0.25 5 2.25 C5.44360072 5.20852109 5.32412652 8.19948451 5.3125 11.1875 C5.32861328 12.01185547 5.34472656 12.83621094 5.36132812 13.68554688 C5.36197266 14.47896484 5.36261719 15.27238281 5.36328125 16.08984375 C5.36775269 17.17833618 5.36775269 17.17833618 5.37231445 18.28881836 C4.89331408 20.81197245 4.03499371 21.72352716 2 23.25 C-1.34192692 23.00546876 -2.60543557 22.64456443 -5 20.25 C-5.25878906 18.40234375 -5.25878906 18.40234375 -5.265625 16.1875 C-5.26820313 15.39085937 -5.27078125 14.59421875 -5.2734375 13.7734375 C-5.26570313 12.94070313 -5.25796875 12.10796875 -5.25 11.25 C-5.25773437 10.41726563 -5.26546875 9.58453125 -5.2734375 8.7265625 C-5.27085937 7.92992187 -5.26828125 7.13328125 -5.265625 6.3125 C-5.26336914 5.58160156 -5.26111328 4.85070312 -5.25878906 4.09765625 C-4.77490843 0.6429311 -3.26461814 0.27205151 0 0 Z " fill="#5e534a" transform="translate(294,652.75)"/>
<path d="M0 0 C0.77444458 -0.00350464 1.54888916 -0.00700928 2.34680176 -0.01062012 C4.90316773 -0.01941249 7.45925628 -0.01359713 10.015625 -0.00683594 C11.79394585 -0.00818331 13.57226635 -0.01012444 15.35058594 -0.01263428 C19.07620758 -0.01558216 22.80173327 -0.01129869 26.52734375 -0.00195312 C31.30238482 0.00944121 36.07720106 0.00287995 40.85223389 -0.00909805 C44.52394301 -0.01632571 48.19559884 -0.01402455 51.86730957 -0.00884247 C53.62797065 -0.00750848 55.38863657 -0.00914492 57.14929199 -0.01380157 C59.610075 -0.01888167 62.07049409 -0.0111358 64.53125 0 C65.6223407 -0.00607269 65.6223407 -0.00607269 66.73547363 -0.01226807 C70.3802733 0.01828165 73.22774535 0.12562736 76.265625 2.25878906 C77.79054498 5.30862902 77.50125048 7.90112596 77.265625 11.25878906 C76.25024414 12.95718384 76.25024414 12.95718384 74.265625 14.25878906 C71.5222671 14.55488556 69.00580543 14.66861525 66.26171875 14.64697266 C65.44679962 14.65222961 64.63188049 14.65748657 63.79226685 14.66290283 C61.09569186 14.67611807 58.3997061 14.6673595 55.703125 14.65722656 C53.83129767 14.65924686 51.95947111 14.66215793 50.08764648 14.66592407 C46.16349803 14.67034949 42.23955435 14.66390938 38.31542969 14.64990234 C33.28122153 14.63281033 28.24749316 14.64265035 23.21330261 14.66061974 C19.34774144 14.6714517 15.48229432 14.66801393 11.61672974 14.66023636 C9.76034488 14.65823273 7.90394973 14.66069933 6.0475769 14.66767502 C3.45461531 14.67527988 0.86243457 14.6636992 -1.73046875 14.64697266 C-2.50043182 14.65304535 -3.2703949 14.65911804 -4.06369019 14.66537476 C-9.24476985 14.60334447 -9.24476985 14.60334447 -11.68383789 12.88687134 C-13.12871887 10.64765 -13.5400532 8.91452039 -13.734375 6.25878906 C-12.95418007 3.77635065 -12.28303322 2.63532127 -10.13574219 1.16168213 C-6.77509788 -0.10189075 -3.54045184 -0.01970512 0 0 Z " fill="#5e534a" transform="translate(466.734375,652.7412109375)"/>
<path d="M0 0 C3 0.25 3 0.25 5 2.25 C5.46905236 5.20739487 5.37034561 8.19705241 5.375 11.1875 C5.39949219 12.01185547 5.42398438 12.83621094 5.44921875 13.68554688 C5.47855783 19.70494782 5.47855783 19.70494782 3.14453125 22.36328125 C1 23.25 1 23.25 -1.6875 22.5 C-4 21.25 -4 21.25 -5 20.25 C-5.12667764 17.25981839 -5.18520838 14.30305892 -5.1875 11.3125 C-5.19974609 10.47525391 -5.21199219 9.63800781 -5.22460938 8.77539062 C-5.22654297 7.97423828 -5.22847656 7.17308594 -5.23046875 6.34765625 C-5.23457764 5.61039307 -5.23868652 4.87312988 -5.24291992 4.11352539 C-4.7906819 0.64424616 -3.27066946 0.27255579 0 0 Z " fill="#5e534a" transform="translate(964,652.75)"/>
<path d="M0 0 C3 0.25 3 0.25 5 2.25 C5.58884735 5.19345214 5.65171883 8.19324204 5.8125 11.1875 C5.87630859 12.01185547 5.94011719 12.83621094 6.00585938 13.68554688 C6.05162109 14.47896484 6.09738281 15.27238281 6.14453125 16.08984375 C6.18940674 16.81550537 6.23428223 17.54116699 6.28051758 18.28881836 C5.91282872 20.85944032 5.03100079 21.68739068 3 23.25 C0.5 23.6875 0.5 23.6875 -2 23.25 C-3.96488261 21.46331677 -4.89170539 20.00796434 -5.27001953 17.36010742 C-5.36776936 15.10751115 -5.35977605 12.87912227 -5.3125 10.625 C-5.31572266 9.84898437 -5.31894531 9.07296875 -5.32226562 8.2734375 C-5.24744127 0.43728677 -5.24744127 0.43728677 0 0 Z " fill="#5e534a" transform="translate(294,693.75)"/>
<path d="M0 0 C3 0.25 3 0.25 5 2.25 C5.19936596 4.91798565 5.27831079 7.45906728 5.25 10.125 C5.25773438 10.84558594 5.26546875 11.56617188 5.2734375 12.30859375 C5.24778591 19.27299926 5.24778591 19.27299926 3 22.25 C0.0625 23.125 0.0625 23.125 -3 23.25 C-3.99 22.59 -4.98 21.93 -6 21.25 C-6.28051758 19.31054688 -6.28051758 19.31054688 -6.14453125 16.96875 C-6.09876953 16.12699219 -6.05300781 15.28523437 -6.00585938 14.41796875 C-5.91014648 13.09732422 -5.91014648 13.09732422 -5.8125 11.75 C-5.76802734 10.86957031 -5.72355469 9.98914063 -5.67773438 9.08203125 C-5.14102487 0.42841874 -5.14102487 0.42841874 0 0 Z " fill="#5e534a" transform="translate(964,693.75)"/>
<path d="M0 0 C3.65362859 0.40595873 6.46461187 1.81172256 9.8125 3.3125 C11.09736051 3.71019492 12.38915771 4.08630905 13.6875 4.4375 C16.8125 5.3125 16.8125 5.3125 17.8125 6.3125 C18 9.25 18 9.25 17.8125 12.3125 C15.48385666 14.64114334 14.97927929 14.63095037 11.8125 14.6875 C6.39342711 14.5733218 1.52286015 12.97487748 -3.1875 10.3125 C-5.1875 7.3125 -5.1875 7.3125 -4.9375 4.75 C-3.99730854 1.69437774 -3.24773062 0.46396152 0 0 Z " fill="#5e534a" transform="translate(310.1875,728.6875)"/>
<path d="M0 0 C2 2 2 2 2.125 4.875 C0.8442029 8.43276973 0.35056937 8.69378596 -2.875 10.3125 C-6.81763673 12.03649429 -10.23692046 13.1518692 -14.5625 13.1875 C-15.74005859 13.20876953 -15.74005859 13.20876953 -16.94140625 13.23046875 C-19 13 -19 13 -21 11 C-21.25 8 -21.25 8 -21 5 C-18.60549427 2.60549427 -17.40903764 2.54571545 -14.125 2 C-11.43949937 1.55108049 -9.2844853 1.14224265 -6.84375 -0.078125 C-4.24645915 -1.37677043 -2.7114597 -0.85625043 0 0 Z " fill="#5e534a" transform="translate(950,730)"/>
<path d="M0 0 C0.87591797 0.00322266 1.75183594 0.00644531 2.65429688 0.00976562 C3.52634766 -0.00634766 4.39839844 -0.02246094 5.296875 -0.0390625 C6.55467773 -0.0400293 6.55467773 -0.0400293 7.83789062 -0.04101562 C8.60544678 -0.04399658 9.37300293 -0.04697754 10.16381836 -0.05004883 C12.76598003 0.42186181 13.67418188 1.19795299 15.21679688 3.32226562 C15.02929688 6.44726562 15.02929688 6.44726562 14.21679688 9.32226562 C10.68075727 11.09028543 6.61108433 10.50691476 2.71679688 10.50976562 C1.83636719 10.52201172 0.9559375 10.53425781 0.04882812 10.546875 C-0.79292969 10.54880859 -1.6346875 10.55074219 -2.50195312 10.55273438 C-3.27474609 10.55684326 -4.04753906 10.56095215 -4.84375 10.56518555 C-6.78320312 10.32226562 -6.78320312 10.32226562 -8.78320312 8.32226562 C-9.03320312 5.32226562 -9.03320312 5.32226562 -8.78320312 2.32226562 C-5.96326442 -0.49767308 -3.85416153 0.03263724 0 0 Z " fill="#5e534a" transform="translate(355.783203125,732.677734375)"/>
<path d="M0 0 C0.87205078 -0.02449219 1.74410156 -0.04898438 2.64257812 -0.07421875 C9.00936075 -0.10358131 9.00936075 -0.10358131 11.70703125 2.23046875 C12.5625 4.375 12.5625 4.375 11.8125 7.0625 C10.5625 9.375 10.5625 9.375 9.5625 10.375 C6.44604012 10.65242966 3.31485077 10.60676472 0.1875 10.625 C-0.6890625 10.645625 -1.565625 10.66625 -2.46875 10.6875 C-3.73332031 10.69523438 -3.73332031 10.69523438 -5.0234375 10.703125 C-6.18431885 10.71714355 -6.18431885 10.71714355 -7.36865234 10.73144531 C-9.97648064 10.2821381 -10.87850584 9.48337792 -12.4375 7.375 C-11.8364398 -0.83948936 -6.73629635 0.00991361 0 0 Z " fill="#5e534a" transform="translate(898.4375,732.625)"/>
<path d="M0 0 C2.33386235 3.50079353 2.53196921 4.87984635 2 9 C0.1640625 11.2734375 0.1640625 11.2734375 -2.375 13.375 C-3.72851562 14.51388672 -3.72851562 14.51388672 -5.109375 15.67578125 C-6.06328125 16.44277344 -7.0171875 17.20976563 -8 18 C-8.95390625 18.77730469 -9.9078125 19.55460938 -10.890625 20.35546875 C-13.24592507 22.25653237 -15.61794856 24.13271391 -18 26 C-7.98632562 27.85178486 2.06233311 28.98662866 12.1875 30 C13.0471637 30.08648804 13.90682739 30.17297607 14.7925415 30.26208496 C43.40853407 33.1040595 72.24050851 34.6395178 101 34 C102.02416016 33.98066406 103.04832031 33.96132813 104.10351562 33.94140625 C134.99986169 33.2925639 165.63412473 29.80394237 195.86035156 23.38232422 C199.9863444 22.64506899 204.22024255 21.99888643 208 24.125 C209.504106 26.94519875 209.44912849 28.85610056 209 32 C206.12433853 35.60498067 203.74912235 36.65609647 199.28515625 37.5625 C198.13893799 37.80000977 196.99271973 38.03751953 195.81176758 38.28222656 C193.95588013 38.63752441 193.95588013 38.63752441 192.0625 39 C190.1302356 39.38236816 190.1302356 39.38236816 188.15893555 39.77246094 C179.24807449 41.50712 170.30107204 42.97570831 161.3125 44.25 C160.2613501 44.40082031 159.2102002 44.55164063 158.12719727 44.70703125 C135.82838254 47.66930928 113.47374676 48.37562231 91.00778198 48.31765366 C88.8403901 48.31241637 86.67301265 48.31050053 84.50561523 48.30899048 C61.23658034 48.28082468 38.14831135 47.50097277 15 45 C14.32706909 44.92785278 13.65413818 44.85570557 12.96081543 44.78137207 C6.58869449 44.09414859 0.2249579 43.35960682 -6.1328125 42.55078125 C-9.78000096 42.10126976 -13.3185961 41.86984936 -17 42 C-16.34 42.61875 -15.68 43.2375 -15 43.875 C-13 46 -13 46 -13 48 C-12.01 48.33 -11.02 48.66 -10 49 C-8.28125 50.7421875 -8.28125 50.7421875 -6.5 52.875 C-4.01951373 55.83359139 -4.01951373 55.83359139 -1.30859375 58.57421875 C0 60 0 60 0.4375 62.9375 C0 66 0 66 -1.5625 68.4375 C-4.22884517 70.14669562 -5.88281534 70.58628822 -9.01171875 69.9296875 C-14.18061057 67.51279899 -17.90752964 62.45047122 -21.54541016 58.19018555 C-24.61160083 54.61820893 -27.74044164 51.21509131 -31.1484375 47.96484375 C-31.84324219 47.30033203 -32.53804688 46.63582031 -33.25390625 45.95117188 C-34.68227908 44.59513837 -36.12002419 43.24891704 -37.56640625 41.91210938 C-40.82371803 38.76785626 -42.77361188 36.64692119 -44.2890625 32.31640625 C-44 29 -44 29 -42.0625 26.48046875 C-41.051875 25.66191406 -40.04125 24.84335937 -39 24 C-38.40574219 23.49291504 -37.81148438 22.98583008 -37.19921875 22.46337891 C-35.15417346 20.71904543 -33.0815674 19.01305057 -31 17.3125 C-30.25613037 16.70253174 -29.51226074 16.09256348 -28.74584961 15.46411133 C-7.76869895 -1.6647212 -7.76869895 -1.6647212 0 0 Z " fill="#5e534a" transform="translate(544,795)"/>
</svg>
