<?xml version="1.0" encoding="UTF-8"?>
<svg xmlns="http://www.w3.org/2000/svg" viewBox="220 340 820 590">
  <path d="M0 0 C7.82349771 0.65195814 13.41046434 5.32636859 19.0625 10.4375 C19.70840088 11.00936035 20.35430176 11.5812207 21.01977539 12.17041016 C22.93895344 13.87460415 24.84645619 15.59087522 26.75 17.3125 C27.28657227 17.79654297 27.82314453 18.28058594 28.37597656 18.77929688 C30.70370619 20.88224899 33.02264004 22.99446455 35.3359375 25.11328125 C38.0968586 27.62848931 40.90386748 30.08528871 43.72265625 32.53515625 C46.08489173 34.60609487 48.41795853 36.70762848 50.75 38.8125 C56.11016811 43.64477276 61.52009574 48.41068856 67.0078125 53.09765625 C68.21356676 54.12757479 69.41929523 55.15752353 70.625 56.1875 C71.5377771 56.96697998 71.5377771 56.96697998 72.46899414 57.76220703 C76.00623858 60.79142533 79.49392577 63.86398583 82.9375 67 C86.22942205 69.9916816 89.59591307 72.83774423 93.0625 75.625 C98.51376101 80.03388108 103.62713498 84.7477398 108.75 89.52734375 C111.7121924 92.28916341 114.7402134 94.96552434 117.8046875 97.61328125 C120.0866529 99.60656428 122.32228574 101.64743027 124.5625 103.6875 C127.96083552 106.75996773 131.42590523 109.69692622 135 112.5625 C140.07262842 116.66072522 144.80907994 121.04359151 149.55322266 125.51025391 C153.89258852 129.57387809 158.39723205 133.35412566 163.0390625 137.0703125 C166.03904531 139.55156629 168.9015203 142.16115956 171.75 144.8125 C175.48325033 148.28671336 179.2737138 151.61318926 183.25 154.8125 C187.76777813 158.44749389 192.02818516 162.2796029 196.26953125 166.2265625 C199.50211747 169.21691358 202.81705866 172.05036329 206.25 174.8125 C211.36245985 178.92902611 216.17576554 183.3047884 220.98828125 187.76171875 C225.56170939 191.98583272 230.26670681 196.04682248 235 200.08984375 C236.20837948 201.12234183 237.4167115 202.15489546 238.625 203.1875 C239.2336792 203.70731445 239.8423584 204.22712891 240.46948242 204.76269531 C244.00662058 207.79168656 247.49409531 210.86414023 250.9375 214 C254.27227114 217.02962868 257.68287639 219.91858092 261.1875 222.75 C265.96428509 226.61308217 270.48946882 230.69161435 275.0078125 234.8515625 C277.65015883 237.22289895 280.35694167 239.46502997 283.125 241.6875 C287.91980275 245.55339509 292.41715828 249.65973298 296.90917969 253.86621094 C301.14512864 257.8105456 305.556439 261.47738001 310.0703125 265.1015625 C312.88253315 267.4218495 315.56797263 269.84321134 318.25 272.3125 C321.80670244 275.58668423 325.42161811 278.71892433 329.1875 281.75 C333.7239673 285.40885769 338.008661 289.26118963 342.27148438 293.22851562 C345.48281228 296.1995119 348.77618789 299.01203832 352.1875 301.75 C356.96541338 305.59295479 361.43994984 309.68081329 365.91162109 313.86865234 C370.12429105 317.79156854 374.51413555 321.43161024 379.00390625 325.03515625 C382.01319052 327.53076469 384.88938654 330.15015143 387.75 332.8125 C391.48327255 336.28669243 395.27371111 339.6131871 399.25 342.8125 C403.76858176 346.4481405 408.02983329 350.28086402 412.27172852 354.22875977 C415.4829905 357.19965628 418.77627815 360.01211077 422.1875 362.75 C426.96701922 366.59424639 431.44320344 370.68339045 435.91601562 374.87304688 C439.24137277 377.97015465 442.63710807 380.90864376 446.1875 383.75 C451.89577779 388.33164402 457.19296038 393.30052436 462.52734375 398.3046875 C465.57195734 401.1585182 468.68241757 403.92395212 471.83984375 406.65234375 C477.77530833 411.81097861 483.56343638 417.14037631 489.375 422.4375 C493.07828145 425.80929892 496.81833199 429.12878285 500.6015625 432.41015625 C502.77043293 434.33059243 504.89840814 436.29175605 507.02294922 438.26098633 C511.43010862 442.34456267 515.87871791 446.29231276 520.5625 450.0625 C524.31201601 453.08145129 527.75610496 456.20491495 531.10546875 459.65625 C534.15465149 462.72716089 537.46891729 465.49426595 540.75 468.3125 C543.21021735 470.43532439 545.66786468 472.56110947 548.125 474.6875 C548.78016602 475.25388184 549.43533203 475.82026367 550.11035156 476.40380859 C553.77942238 479.58202465 557.41055003 482.79415099 561 486.0625 C567.10327939 491.59170856 573.50810978 496.75615405 579.97265625 501.85546875 C592.09368134 511.51138629 592.09368134 511.51138629 593.109375 518.94140625 C593.41954111 525.27396433 592.64440614 529.29076577 588.75 534.3125 C584.81191079 537.79267186 581.35182924 538.85420435 576.2890625 539.52734375 C568.78999563 538.89280732 563.92888558 535.22380521 558.75 530.0625 C557.52417812 528.88204293 556.29762196 527.70234787 555.0703125 526.5234375 C554.2045459 525.68184082 554.2045459 525.68184082 553.32128906 524.82324219 C551.47460208 523.04771406 549.56932783 521.35522889 547.625 519.6875 C544.27206104 516.79505051 541.00686198 513.81210907 537.75 510.8125 C534.4497517 507.77357665 531.1405059 504.75093844 527.75 501.8125 C523.81832786 498.40505081 519.99638756 494.88120327 516.16967773 491.35717773 C513.41526572 488.82509884 510.64257501 486.32214732 507.8125 483.875 C504.2204131 480.76285791 500.73449863 477.5437604 497.25 474.3125 C493.14413693 470.50537245 489.00871976 466.7493673 484.7734375 463.0859375 C481.26779731 460.0134266 477.84201629 456.85261349 474.3984375 453.7109375 C472.24428693 451.76012857 470.07281531 449.83856388 467.875 447.9375 C464.2642767 444.8022629 460.7561171 441.56344553 457.25 438.3125 C453.1178291 434.48140659 448.959613 430.69614575 444.6953125 427.01171875 C442.4133471 425.01843572 440.17771426 422.97756973 437.9375 420.9375 C434.51770672 417.84613199 431.03041476 414.88790968 427.4375 412 C422.6249471 408.11058842 418.1040148 403.9850675 413.59106445 399.7590332 C409.35505142 395.81459561 404.94365192 392.14769299 400.4296875 388.5234375 C397.61746685 386.2031505 394.93202737 383.78178866 392.25 381.3125 C388.69329756 378.03831577 385.07838189 374.90607567 381.3125 371.875 C376.18252873 367.73438033 371.345352 363.3398268 366.51171875 358.86328125 C361.93829061 354.63916728 357.23329319 350.57817752 352.5 346.53515625 C351.29162052 345.50265817 350.0832885 344.47010454 348.875 343.4375 C348.2663208 342.91768555 347.6576416 342.39787109 347.03051758 341.86230469 C343.49337942 338.83331344 340.00590469 335.76085977 336.5625 332.625 C333.27057795 329.6333184 329.90408693 326.78725577 326.4375 324 C321.62414563 320.10994069 317.1023855 315.98378166 312.58886719 311.75683594 C308.37606859 307.83371407 303.98604648 304.19353586 299.49609375 300.58984375 C296.48680853 298.09423453 293.61062978 295.47483195 290.75 292.8125 C286.14001057 288.52289593 281.37216484 284.50838878 276.46484375 280.55859375 C272.68432714 277.43082821 269.10519125 274.09976117 265.49609375 270.77734375 C262.83124834 268.38542703 260.10168175 266.11995116 257.3125 263.875 C252.77683557 260.21678985 248.4929883 256.36507035 244.23071289 252.39868164 C240.99806025 249.40823 237.68303234 246.57470993 234.25 243.8125 C230.27368119 240.61316303 226.4835424 237.2864272 222.75 233.8125 C218.2161272 229.59848609 213.5375909 225.63024568 208.71875 221.74609375 C203.25894979 217.27049437 197.97073691 212.59415266 192.64648438 207.95898438 C187.95215479 203.88347475 183.22101259 199.85066153 178.49707031 195.80957031 C176.71164376 194.27963241 174.92963855 192.74579199 173.1484375 191.2109375 C167.83640779 186.63769076 162.51463508 182.09412622 157.0625 177.6875 C152.37549065 173.88573839 147.93509322 169.86374184 143.49609375 165.77734375 C140.83124834 163.38542703 138.10168175 161.11995116 135.3125 158.875 C130.77763839 155.21743736 126.49463817 151.36632973 122.23291016 147.40087891 C118.12220724 143.59851193 113.82724416 140.06979408 109.46484375 136.55859375 C106.64326505 134.2241941 103.94409288 131.79259402 101.25 129.3125 C96.7801488 125.19871091 92.15955107 121.34162703 87.43359375 117.52734375 C83.94449084 114.64769113 80.62003079 111.60556124 77.27734375 108.55859375 C74.68037607 106.25062402 72.01595987 104.05694137 69.3125 101.875 C64.54003797 98.01541397 60.01890891 93.94050009 55.50390625 89.78515625 C51.91792716 86.56540481 48.18298508 83.55344824 44.43359375 80.52734375 C40.94306571 77.64651493 37.61725932 74.60315597 34.2734375 71.5546875 C31.69917642 69.26734096 29.05710511 67.09701729 26.375 64.9375 C21.82139288 61.25613311 17.51417484 57.38475527 13.23095703 53.39892578 C9.99823796 50.40837359 6.68312334 47.57478315 3.25 44.8125 C-0.83451545 41.50570479 -4.83326848 38.12769064 -8.75 34.625 C-9.7296875 33.75488281 -10.709375 32.88476562 -11.71875 31.98828125 C-15.79734607 27.67680238 -17.67895667 23.75866054 -17.6875 17.8125 C-17.50775155 12.04491946 -15.92892993 8.94128953 -11.7890625 4.87890625 C-7.73522072 1.24691095 -5.22856947 0.50274706 0 0 Z " fill="currentColor" transform="translate(316.25,361.6875)"/>
  <path d="M0 0 C1.62276855 0.24943359 1.62276855 0.24943359 3.27832031 0.50390625 C84.88449506 13.09817157 160.42272571 50.07855696 225 101 C226.13597881 101.87986241 227.272722 102.75873866 228.41015625 103.63671875 C239.49691071 112.22363958 250.1372848 121.30225272 260.50708008 130.7421875 C262.04240964 132.13272004 263.58501988 133.5153222 265.1394043 134.88452148 C272.23368348 141.15569473 278.95692653 147.7707647 285.65014648 154.46484375 C287.5575894 156.37009504 289.47291467 158.26717613 291.38867188 160.1640625 C297.68154321 166.4288684 303.68044713 172.72207156 309.17260742 179.71118164 C310.94295048 181.92854519 312.80477495 183.99831748 314.75 186.0625 C318.70248336 190.47716891 322.23800986 195.17087828 325.75 199.9375 C326.30526367 200.67685791 326.86052734 201.41621582 327.43261719 202.17797852 C333.96293237 211.17642098 337.4294351 219.78786844 336 231 C334.02621402 239.20354798 329.07106105 245.43108106 324 252 C323.29617188 252.9590625 322.59234375 253.918125 321.8671875 254.90625 C314.25475061 265.27444362 305.92936713 274.9888632 297.265625 284.48828125 C296.01635154 285.87325166 294.77379803 287.26476655 293.56225586 288.68286133 C288.79528218 294.24539231 283.70084493 299.45234987 278.51196289 304.6184082 C277.06475615 306.06025221 275.62297974 307.50737116 274.18164062 308.95507812 C269.49373689 313.64629564 264.74734302 318.21496303 259.7097168 322.53100586 C257.3714486 324.54005337 255.12945291 326.64777703 252.875 328.75 C247.5902561 333.57360974 242.04788315 337.97968045 236.390625 342.35546875 C233.45357673 344.63028958 230.59625422 346.98711494 227.75 349.375 C214.5808742 360.17945066 200.37448255 369.65679369 185.98193359 378.73925781 C184.35947486 379.77133183 182.76346548 380.84487974 181.17578125 381.9296875 C179 383 179 383 176.97265625 382.93359375 C174.34448888 381.68976801 172.55965303 380.05179996 170.4375 378.0625 C169.14005859 376.85980469 169.14005859 376.85980469 167.81640625 375.6328125 C166.88699219 374.76398438 165.95757813 373.89515625 165 373 C162.96406407 371.13949766 160.91919611 369.28891664 158.875 367.4375 C157.24977016 365.95858587 155.62468456 364.47951313 154 363 C155.17333043 359.4800087 155.76622361 359.26607632 158.875 357.50390625 C160.09255981 356.79923218 160.09255981 356.79923218 161.3347168 356.08032227 C162.21426025 355.57944092 163.09380371 355.07855957 164 354.5625 C183.90964564 342.91288036 202.35659471 328.83362338 220 314 C220.78141357 313.34596191 220.78141357 313.34596191 221.57861328 312.67871094 C235.16235002 301.28436692 247.94707403 289.13769224 260.5 276.625 C261.43199219 275.69768066 262.36398437 274.77036133 263.32421875 273.81494141 C268.42402394 268.7031778 273.32001182 263.49739376 278 258 C278.86882812 257.01257813 279.73765625 256.02515625 280.6328125 255.0078125 C286.10454475 248.67844197 291.27234499 242.16336491 296.25 235.4375 C296.83539551 234.6635791 297.42079102 233.8896582 298.02392578 233.09228516 C298.55743652 232.35929199 299.09094727 231.62629883 299.640625 230.87109375 C300.12047852 230.22068115 300.60033203 229.57026855 301.09472656 228.90014648 C302.18651899 227.03707338 302.18651899 227.03707338 301.77539062 224.94091797 C300.51573119 221.78780319 298.36595297 219.30282957 296.25 216.6875 C295.51571777 215.76880127 295.51571777 215.76880127 294.76660156 214.83154297 C279.71489967 196.1474903 263.43227016 177.46441618 245.1484375 161.8671875 C242.96797516 159.9721675 240.84621902 158.02061402 238.72924805 156.05517578 C233.63242482 151.32719629 228.44025352 146.78797923 223.01953125 142.4296875 C220.7933284 140.63835739 218.58511884 138.83261697 216.38671875 137.0078125 C207.22827481 129.43408549 197.79287064 122.36154022 188.09716797 115.49169922 C186.17173649 114.12215482 184.257377 112.73898659 182.34765625 111.34765625 C173.45362164 104.88362372 164.30718564 98.8519429 155 93 C154.39639648 92.62020996 153.79279297 92.24041992 153.17089844 91.84912109 C66.60570925 37.78835936 -35.539303 15.82964844 -135.69335938 38.43652344 C-153.31675246 42.60886432 -171.1448688 47.64585606 -187.95556641 54.41210938 C-192.0500733 55.98529134 -194.80834691 56.38603995 -199 55 C-201.15089371 53.34237791 -202.96986136 51.77262701 -204.875 49.875 C-205.92255874 48.87305103 -206.97073722 47.87174961 -208.01953125 46.87109375 C-208.7787085 46.13608643 -208.7787085 46.13608643 -209.55322266 45.38623047 C-211.50780914 43.5134424 -213.52477909 41.71909333 -215.5625 39.9375 C-216.16191406 39.41027344 -216.76132812 38.88304687 -217.37890625 38.33984375 C-219.17154435 36.8116003 -219.17154435 36.8116003 -222 35 C-222 34.34 -222 33.68 -222 33 C-185.97619672 16.44852282 -147.04655637 6.16832298 -108 0 C-106.34532715 -0.27118652 -106.34532715 -0.27118652 -104.65722656 -0.54785156 C-71.00739113 -5.84878085 -33.58541284 -5.58840148 0 0 Z " fill="currentColor" transform="translate(685,414)"/>
  <path d="M0 0 C5.01660514 3.64720319 9.74449022 7.42633665 14.25 11.6875 C17.38311279 14.63182266 20.4902471 17.50139019 24 20 C22.78580771 23.64257688 21.86223696 23.98530826 18.65234375 25.93359375 C17.74476318 26.49401367 16.83718262 27.05443359 15.90209961 27.63183594 C14.92378174 28.22770508 13.94546387 28.82357422 12.9375 29.4375 C3.85490552 35.08889212 -4.79027103 41.05148886 -13.22558594 47.62255859 C-14.9445333 48.95694233 -16.67623267 50.27236969 -18.4140625 51.58203125 C-26.18090454 57.45303899 -33.62852756 63.64358326 -41 70 C-41.71671875 70.61488281 -42.4334375 71.22976563 -43.171875 71.86328125 C-53.16177215 80.51155998 -62.7520784 89.56534161 -72.09204102 98.90673828 C-73.69204519 100.50453893 -75.29993615 102.09411551 -76.90820312 103.68359375 C-82.66310227 109.40807926 -88.03449487 115.23189937 -93.07348633 121.60595703 C-94.96358321 123.95474553 -96.94618595 126.16905158 -99 128.375 C-102.24998214 132.01235375 -105.21147063 135.79703221 -108.0625 139.75 C-108.83722656 140.81734375 -109.61195313 141.8846875 -110.41015625 142.984375 C-112.19112599 145.80273874 -112.19112599 145.80273874 -112.01953125 148.515625 C-110.67244131 151.798189 -108.82987205 154.21782706 -106.625 157 C-105.95670166 157.84594727 -105.95670166 157.84594727 -105.27490234 158.70898438 C-103.86307558 160.48373975 -102.43521126 162.24411483 -101 164 C-100.55269531 164.54785156 -100.10539062 165.09570312 -99.64453125 165.66015625 C-89.18679977 178.38730746 -77.87276325 190.21681552 -66.25 201.875 C-65.75431519 202.37336365 -65.25863037 202.87172729 -64.7479248 203.38519287 C-59.01286714 209.14373737 -53.20288897 214.74419362 -47 220 C-45.84707112 220.9967194 -44.69471182 221.9940981 -43.54296875 222.9921875 C-40.03944006 226.00748583 -36.52323548 229.00776131 -33 232 C-31.69095703 233.11181641 -31.69095703 233.11181641 -30.35546875 234.24609375 C43.36338705 295.6591248 137.60054379 343.61908031 235 346 C236.2387085 346.03287109 236.2387085 346.03287109 237.50244141 346.06640625 C277.47771767 346.97441934 317.87027343 341.21766262 355.91015625 328.7890625 C356.96710693 328.44601074 358.02405762 328.10295898 359.11303711 327.74951172 C361.05922284 327.10367526 362.99724665 326.43244592 364.92407227 325.73095703 C371.17148739 323.62349488 371.17148739 323.62349488 375.21484375 325.4609375 C376.13394531 326.29882812 377.05304687 327.13671875 378 328 C378.515625 328.45181641 379.03125 328.90363281 379.5625 329.36914062 C381.22140252 330.83816876 382.83143941 332.34848994 384.4375 333.875 C387.99401909 337.21819888 391.54444017 340.51827312 395.3125 343.625 C396.199375 344.40875 397.08625 345.1925 398 346 C398 346.66 398 347.32 398 348 C367.98597689 359.87577759 337.12127216 368.99090345 305.25 374.25 C304.34209717 374.40122314 303.43419434 374.55244629 302.4987793 374.70825195 C283.87910703 377.58795151 265.25216067 378.37658055 246.4375 378.3125 C245.34770844 378.31100952 244.25791687 378.30951904 243.13510132 378.3079834 C225.90403682 378.26575773 209.05989036 377.58449754 192 375 C190.51089111 374.7831958 190.51089111 374.7831958 188.99169922 374.56201172 C137.62902852 366.92233265 87.55822463 349.01656082 42.4609375 323.38916016 C40.09070163 322.05119963 37.70620757 320.74463102 35.3125 319.44921875 C-3.86256837 298.1937182 -40.54506632 271.24887383 -73.49194336 241.27270508 C-75.07930582 239.83429788 -76.67310552 238.40293569 -78.27563477 236.98144531 C-84.62704911 231.33837938 -90.69380496 225.45734935 -96.6875 219.4375 C-97.58533203 218.54353516 -98.48316406 217.64957031 -99.40820312 216.72851562 C-104.48152268 211.64776263 -109.35001804 206.46973107 -114 201 C-114.88877508 199.97868967 -115.77806257 198.95782492 -116.66796875 197.9375 C-147.98497969 161.42526399 -147.98497969 161.42526399 -147.32421875 144.76953125 C-145.97948772 133.28261197 -137.91668118 124.76128496 -131 116 C-130.27039063 115.05511719 -129.54078125 114.11023438 -128.7890625 113.13671875 C-124.62762522 107.81177758 -120.17710121 102.79719764 -115.58984375 97.8359375 C-114.25973267 96.37943578 -112.93198045 94.9195525 -111.65844727 93.41333008 C-105.85051959 86.56605982 -99.44808541 80.29772081 -93.09399414 73.96362305 C-91.0673702 71.94235732 -89.04614453 69.91580426 -87.02539062 67.88867188 C-80.85465899 61.71447052 -74.69610713 55.60998408 -68 50 C-66.91608151 49.05163183 -65.83401306 48.10114457 -64.75390625 47.1484375 C-56.5227824 39.96877665 -48.00687733 33.24121272 -39.26367188 26.69726562 C-36.94466648 24.95851179 -34.63650053 23.20595787 -32.328125 21.453125 C-21.92692108 13.61379396 -11.23886245 6.57950131 0 0 Z " fill="currentColor" transform="translate(376,492)"/>
  <path d="M0 0 C4.40893628 3.96686379 8.61701812 8.11026096 12.796875 12.31640625 C13.55226563 13.06277344 14.30765625 13.80914063 15.0859375 14.578125 C36.63340948 36.9543459 47.26353267 67.76844137 47.109375 98.50390625 C47.10200317 100.2660144 47.10200317 100.2660144 47.09448242 102.0637207 C46.86378087 119.34030927 43.94233969 136.87790922 35.796875 152.31640625 C28.98206139 147.51284136 22.85701272 142.0323209 16.796875 136.31640625 C15.82878906 135.54683594 14.86070312 134.77726563 13.86328125 133.984375 C11.796875 131.31640625 11.796875 131.31640625 12.1484375 127.71484375 C12.5467247 126.36568771 12.97275829 125.02450373 13.421875 123.69140625 C13.84195144 122.26086686 14.25601671 120.82854862 14.6640625 119.39453125 C14.86612305 118.69779297 15.06818359 118.00105469 15.27636719 117.28320312 C16.40518206 113.0178501 16.63858715 108.70717369 16.796875 104.31640625 C16.83683594 103.53523437 16.87679687 102.7540625 16.91796875 101.94921875 C17.54600262 79.41388594 9.80019305 55.31587392 -5.203125 38.31640625 C-5.84507812 37.53265625 -6.48703125 36.74890625 -7.1484375 35.94140625 C-22.49436717 17.82075129 -44.96035861 5.61095865 -68.57421875 2.59765625 C-86.48975628 1.20915388 -103.37565407 2.34033419 -120.02832031 9.42236328 C-122.53284579 10.46667372 -124.6263587 11.33722814 -127.3671875 11.23828125 C-129.91180383 9.96055901 -131.70056722 8.2759998 -133.765625 6.31640625 C-139.06147989 1.39939046 -144.5720741 -3.15520111 -150.203125 -7.68359375 C-146.65098735 -11.88330609 -142.40402129 -13.84225207 -137.515625 -16.12109375 C-136.67781494 -16.51433838 -135.84000488 -16.90758301 -134.97680664 -17.31274414 C-123.94448204 -22.34556083 -112.20671229 -25.8693433 -100.203125 -27.68359375 C-99.11837891 -27.84988281 -99.11837891 -27.84988281 -98.01171875 -28.01953125 C-63.48435194 -32.34275484 -26.60368426 -22.80197471 0 0 Z " fill="currentColor" transform="translate(710.203125,540.68359375)"/>
  <path d="M0 0 C4.9447107 3.11532083 9.25414095 6.69228715 13.625 10.5625 C14.92861125 11.71085833 16.23326759 12.85803157 17.5390625 14.00390625 C18.10834473 14.50736572 18.67762695 15.0108252 19.26416016 15.52954102 C20.99513379 17.08402066 20.99513379 17.08402066 23.20068359 18.27319336 C25 20 25 20 25.390625 22.9765625 C25.32101562 24.78253906 25.32101562 24.78253906 25.25 26.625 C25.21510557 27.97589938 25.1807009 29.32681149 25.14672852 30.67773438 C25.12184357 31.38373779 25.09695862 32.08974121 25.07131958 32.81713867 C24.27739932 57.11646619 28.63765506 77.95516206 43 98 C43.59296875 98.82757812 44.1859375 99.65515625 44.796875 100.5078125 C61.06602629 121.95351193 84.61716592 134.22649436 110.83203125 138.45703125 C113.22923638 138.74748421 115.58741371 138.90645869 118 139 C118.93199219 139.0515625 119.86398437 139.103125 120.82421875 139.15625 C129.27732722 139.41079781 137.31908646 138.1843433 145.6171875 136.75390625 C146.36097656 136.63080078 147.10476563 136.50769531 147.87109375 136.38085938 C149.84085214 136.02847141 151.79326115 135.58257073 153.7421875 135.12890625 C157 135 157 135 159.703125 136.7734375 C160.54359375 137.63195312 161.3840625 138.49046875 162.25 139.375 C163.17941406 140.29152344 164.10882812 141.20804688 165.06640625 142.15234375 C165.54352051 142.62655762 166.02063477 143.10077148 166.51220703 143.58935547 C169.77768274 146.68550228 173.41971713 149.34582397 176.98046875 152.08984375 C177.64691406 152.72019531 178.31335938 153.35054687 179 154 C179 154.99 179 155.98 179 157 C171.19981388 160.7028616 163.47916454 163.62405517 155.125 165.8125 C154.3414917 166.0189917 153.5579834 166.2254834 152.75073242 166.43823242 C121.16871784 174.40146198 85.5909611 168.69881842 57.57397461 152.47338867 C26.12895653 133.55385673 5.37151789 104.5697 -3.97265625 69.33203125 C-8.8402748 46.75986521 -7.6594457 21.80526884 0 0 Z " fill="currentColor" transform="translate(502,602)"/>
</svg>
