<?xml version="1.0" encoding="UTF-8"?>
<svg version="1.1" xmlns="http://www.w3.org/2000/svg" viewBox="279.588 421.91 721.514 381.365">
<path d="M0 0 C0.83015625 0.64324219 1.6603125 1.28648437 2.515625 1.94921875 C24.85013812 19.38521136 44.04880964 41.07769978 56 67 C56 67.66 56 68.32 56 69 C56.93232951 68.99829126 56.93232951 68.99829126 57.88349396 68.996548 C94.71775359 68.92942093 131.55200417 68.87794394 168.38631243 68.84680401 C172.80856711 68.84305187 177.23082167 68.8391689 181.65307617 68.83520508 C182.97366895 68.83402468 182.97366895 68.83402468 184.32094037 68.83282044 C198.57815477 68.81976477 212.8353329 68.79611004 227.09252579 68.76854161 C241.72056785 68.74049189 256.34859091 68.72382466 270.97665876 68.71773452 C280.00373046 68.71361718 289.03069964 68.70061054 298.05773979 68.6762506 C304.24703085 68.66039877 310.43626888 68.65559839 316.62557877 68.65949587 C320.19706124 68.66141828 323.76836449 68.65846109 327.33981514 68.64238358 C331.21290228 68.62507561 335.08575595 68.63103586 338.95887756 68.63923645 C340.08631742 68.63049793 341.21375728 68.6217594 342.37536198 68.61275607 C349.60281195 68.65420494 354.87069408 69.19164853 360.4375 74.1875 C361.283125 75.115625 362.12875 76.04375 363 77 C364.24848407 78.20989957 365.49864408 79.41807092 366.75 80.625 C370.67518473 84.54284793 374.11387727 88.75636342 377.58203125 93.078125 C380.12597785 96.15223171 382.78116975 99.08174801 385.5 102 C388.93238156 105.68713555 392.22560101 109.44113532 395.375 113.375 C399.48210697 118.49960002 403.90479687 123.26414651 408.48388672 127.96630859 C413.72926059 133.46169112 417.54439338 138.89022662 418.1015625 146.6640625 C417.82550811 153.01331358 415.41656629 158.46406705 411 163 C409.7964812 164.064437 408.58458938 165.11943821 407.3671875 166.16796875 C403.07856652 169.90201412 398.93701721 173.77398007 394.8125 177.6875 C386.00260883 186.0114346 377.15726909 194.29193489 368.125 202.375 C363.8177798 206.23179194 359.59321072 210.17159113 355.375 214.125 C351.01237821 218.21267566 346.637921 222.26197546 342.09375 226.1484375 C340.3086124 227.7270853 338.57302171 229.33761073 336.84375 230.9765625 C336.27285645 231.51458496 335.70196289 232.05260742 335.11376953 232.60693359 C333.98419688 233.67433376 332.85984219 234.74729285 331.74169922 235.82666016 C325.91145598 241.3209899 320.09036423 244.16126972 312 244 C304.90451836 243.05393578 300.63008824 239.26849444 295.58203125 234.4453125 C293.0793375 232.07513658 290.49938223 229.90746691 287.8125 227.75 C277.61005391 219.48674224 267.77188615 210.76556725 258 202 C254.07636538 203.61616378 251.28626689 206.31349476 248.25 209.1875 C247.16985004 210.1933307 246.08912149 211.19854041 245.0078125 212.203125 C244.48735352 212.68845703 243.96689453 213.17378906 243.43066406 213.67382812 C240.35374121 216.5260201 237.17883749 219.26266772 234 222 C233.49210938 222.43957031 232.98421875 222.87914062 232.4609375 223.33203125 C228.88175953 226.42908251 225.28517252 229.50432068 221.67480469 232.56494141 C220.17478801 233.85023267 218.69894911 235.16361594 217.2265625 236.48046875 C211.85658824 241.13049378 207.26675541 244 200 244 C187.87303974 242.64786506 178.47915448 230.69861457 169.98828125 222.77734375 C162.24787519 215.56244642 154.08824497 208.81829188 146 202 C142.16293038 205.21184409 138.45606369 208.48061892 134.87890625 211.98046875 C134.17056641 212.66947266 133.46222656 213.35847656 132.73242188 214.06835938 C131.28192714 215.48490914 129.83921758 216.90947331 128.40429688 218.34179688 C127.69466797 219.02693359 126.98503906 219.71207031 126.25390625 220.41796875 C125.62814697 221.03438232 125.0023877 221.6507959 124.35766602 222.28588867 C116.91132067 227.6996601 109.39838639 227.40483017 100.53125 227.29296875 C98.61717346 227.28660149 98.61717346 227.28660149 96.66442871 227.28010559 C93.29738106 227.26621934 89.93096124 227.23933995 86.56408691 227.20599365 C83.11830017 227.17512035 79.67244815 227.16156367 76.2265625 227.14648438 C69.48420374 227.11349903 62.74213806 227.063362 56 227 C55.7014209 227.92635254 55.4028418 228.85270508 55.09521484 229.80712891 C49.56103504 245.94087911 36.64069085 260.8905565 25 273 C24.55720703 273.46857422 24.11441406 273.93714844 23.65820312 274.41992188 C-7.42774415 307.21154527 -51.31331023 325.58725786 -96.26171875 327.2265625 C-147.83846228 328.40003627 -193.16986851 308.01150813 -230.703125 273.515625 C-237.55462698 266.92267026 -243.36395564 259.63115886 -249 252 C-249.62624268 251.1642041 -249.62624268 251.1642041 -250.26513672 250.31152344 C-277.65754784 213.30297434 -288.1153424 164.21399341 -281.47827148 118.98388672 C-275.66446035 83.78069974 -259.36245221 51.66405836 -236 25 C-235.13337641 23.94698831 -234.26877251 22.892311 -233.40625 21.8359375 C-231.45825401 19.54008508 -229.60624322 17.61305017 -227.3125 15.6875 C-225.14619997 13.85570218 -223.03017219 12.02946503 -221 10.046875 C-201.68111219 -8.58205253 -175.82300936 -21.34254828 -150 -28 C-148.85700439 -28.29511475 -148.85700439 -28.29511475 -147.69091797 -28.59619141 C-98.28578085 -40.93967652 -40.21634409 -32.93579904 0 0 Z M-211.4609375 35.10498047 C-239.63177938 62.97596896 -257.77640598 102.4512855 -258.24169922 142.28686523 C-258.34742488 186.39623434 -242.93239764 225.09698095 -212.1328125 256.89453125 C-183.36473563 285.7936103 -142.43445299 301.60881938 -102 302.25 C-60.6828917 301.59482286 -23.48194828 285.80420234 6 257 C6.6496875 256.4121875 7.299375 255.824375 7.96875 255.21875 C16.65675216 247.18644612 23.24111265 236.59922531 29.25 226.5 C29.62552002 225.87367676 30.00104004 225.24735352 30.38793945 224.60205078 C33.09445497 219.93200776 35.3902661 215.10303239 37.65527344 210.20898438 C37.97793182 209.51456238 38.30059021 208.82014038 38.63302612 208.10467529 C39.42318806 206.40366017 40.21175546 204.70190449 41 203 C42.26667763 203.01118614 42.26667763 203.01118614 43.5589447 203.02259827 C51.54737401 203.08511877 59.53449709 203.10411196 67.523139 203.07515812 C71.6296392 203.06178454 75.73472234 203.0647851 79.84106445 203.10620117 C83.80996005 203.14561199 87.77663076 203.1407112 91.74554634 203.10607719 C93.25369226 203.1005114 94.76198393 203.11046831 96.26991081 203.13676643 C104.99200629 203.37516748 104.99200629 203.37516748 112.84939575 200.04830933 C115.09661881 197.80543166 117.03542358 195.48933941 119 193 C120.30643075 191.78296561 121.63608812 190.58974928 123 189.4375 C125.14127738 187.60822511 127.25234354 185.76758948 129.32421875 183.859375 C130.10410156 183.14265625 130.88398437 182.4259375 131.6875 181.6875 C132.39261719 181.03136719 133.09773438 180.37523437 133.82421875 179.69921875 C137.63658299 176.72187863 141.13937702 175.71023992 145.9375 175.6875 C146.75089844 175.67074219 147.56429688 175.65398437 148.40234375 175.63671875 C154.47400643 176.48583849 158.38687163 180.0062536 162.6875 184.125 C166.61269022 187.83393818 170.5948759 191.36892944 174.8125 194.75 C178.55020513 197.75944167 181.98629851 200.8710166 185.32421875 204.3125 C190.44124183 209.46530646 196.0252223 213.89234033 202 218 C202.4125 217.57589844 202.825 217.15179687 203.25 216.71484375 C206.97969394 212.92687334 210.81697834 209.34421866 214.84375 205.875 C217.19962958 203.82640906 219.5050746 201.72796998 221.8125 199.625 C226.19719563 195.66397895 230.72489333 191.91902164 235.32421875 188.2109375 C238.64103821 185.47032463 241.7969319 182.57703176 244.9296875 179.62890625 C248.68235931 176.67633239 252.20876892 175.70991105 256.9375 175.6875 C258.15759766 175.66236328 258.15759766 175.66236328 259.40234375 175.63671875 C265.64344767 176.50953479 269.9628565 180.40390675 274.5 184.4375 C275.73943892 185.51969667 276.97902643 186.60172318 278.21875 187.68359375 C278.84652344 188.23515137 279.47429688 188.78670898 280.12109375 189.35498047 C283.05976596 191.92784603 286.03026198 194.46313053 289 197 C292.61655129 200.09289469 296.22600378 203.19316669 299.81640625 206.31640625 C300.44353516 206.85974609 301.07066406 207.40308594 301.71679688 207.96289062 C302.91217281 208.9988831 304.1050511 210.03776743 305.29492188 211.08007812 C308.37387423 213.7426597 311.4360715 216.02888871 315 218 C315.4846875 217.50371094 315.969375 217.00742187 316.46875 216.49609375 C320.40818581 212.50362708 324.42546813 208.69650287 328.67578125 205.0390625 C331.62410362 202.45246708 334.49916154 199.79164876 337.375 197.125 C341.2259865 193.55565857 345.08877553 190.00353983 349 186.5 C355.06083005 181.06581473 361.02644847 175.52965336 367 170 C374.96669454 162.62946851 382.95608124 155.28627511 391 148 C387.5389882 140.18067705 380.86762183 133.71838646 374.78515625 127.84375 C372.68115081 125.6706853 370.82495609 123.36366508 368.9375 121 C364.53251573 115.51841028 359.80117826 110.40145772 354.96069336 105.30273438 C354.3910083 104.70138672 353.82132324 104.10003906 353.234375 103.48046875 C352.73131836 102.95348389 352.22826172 102.42649902 351.70996094 101.88354492 C350 100 350 100 348.15202045 96.92974663 C346.33300298 94.77099451 345.32633623 94.07440852 342.54524934 93.44028783 C339.3030766 93.22379266 336.10708252 93.20272175 332.85771179 93.24050903 C331.61203975 93.23129893 330.36636771 93.22208883 329.08294803 93.21259964 C325.62748043 93.1930786 322.17395108 93.20042034 318.71860301 93.21906328 C314.99193234 93.23264004 311.2654382 93.21164217 307.5388031 93.19483948 C301.08304523 93.17046563 294.62757706 93.16800654 288.17178917 93.18042374 C278.83786386 93.19834513 269.5042222 93.18322904 260.17031918 93.16004442 C245.02685402 93.12332676 229.88349378 93.11333482 214.73999023 93.12011719 C200.02934196 93.12664853 185.31878739 93.12061341 170.6081543 93.09765625 C169.24805474 93.09554027 169.24805474 93.09554027 167.86047842 93.09338154 C163.31167359 93.08622712 158.76286919 93.07882541 154.21406496 93.07130075 C116.47603326 93.00919419 78.73807819 92.99044702 41 93 C40.17671204 91.34886955 40.17671204 91.34886955 39.33679199 89.66438293 C38.60932172 88.2069867 37.88182179 86.74960528 37.15429688 85.29223633 C36.7934198 84.56828926 36.43254272 83.84434219 36.06072998 83.09845734 C15.789946 42.50845349 -15.1363253 12.4940142 -58.53808594 -2.1953125 C-111.63168997 -19.5491918 -171.71121445 -3.17451795 -211.4609375 35.10498047 Z " fill="currentColor" transform="translate(573,466)"/>
<path d="M0 0 C13.18223969 11.29906259 20.82788522 26.78699483 22.35546875 44.05078125 C22.82760175 60.94493158 17.37463677 76.87370379 6.4453125 89.765625 C-4.81285349 101.2309965 -19.55519524 108.76808412 -35.8034668 109.07006836 C-53.17813957 109.13402421 -68.23411691 104.08958132 -80.93774414 91.94946289 C-93.42113117 79.52986425 -99.16886897 65.47713802 -99.3671875 47.953125 C-99.26812914 29.71267008 -92.76043655 15.70437316 -79.9296875 2.828125 C-79.38828125 2.26351562 -78.846875 1.69890625 -78.2890625 1.1171875 C-56.54730029 -19.63631279 -22.70335704 -16.83075535 0 0 Z M-64.9296875 21.828125 C-72.84094388 30.82494851 -75.58046763 39.44740674 -75.2734375 51.33203125 C-74.36822014 60.53850322 -70.54407225 68.3599145 -63.9296875 74.828125 C-53.5421337 82.82914214 -43.93812764 84.91897952 -30.9296875 83.828125 C-20.00263459 81.25016077 -11.91757592 74.08791001 -5.9296875 64.828125 C-1.68001052 57.12266674 -0.96818753 47.67039114 -2.9921875 39.203125 C-6.21658825 29.12324157 -11.8519924 20.65264558 -21.30078125 15.546875 C-36.34667385 8.62922323 -52.5169728 10.72749256 -64.9296875 21.828125 Z " fill="currentColor" transform="translate(449.9296875,566.171875)"/>
</svg>
