<?xml version="1.0" encoding="UTF-8"?>
<svg xmlns="http://www.w3.org/2000/svg" viewBox="220 340 820 560">
  <path d="M0 0 C0.76156403 0.00093658 1.52312805 0.00187317 2.30776978 0.00283813 C80.64000068 0.20988008 157.42538968 25.82804053 224.125 66.1875 C224.94210449 66.67653809 225.75920898 67.16557617 226.60107422 67.66943359 C252.44355513 83.16503028 277.07549743 100.77176754 300.125 120.1875 C301.16518918 121.05359613 302.20556449 121.91946873 303.24609375 122.78515625 C309.7177735 128.19181531 316.02363896 133.74642417 322.203125 139.484375 C324.03266733 141.17694625 325.87461258 142.85631601 327.734375 144.515625 C335.04076979 151.06181686 341.99484425 157.94887666 348.9375 164.875 C349.43754547 165.37245728 349.93759094 165.86991455 350.45278931 166.38244629 C356.23079921 172.13687247 361.84613026 177.96847664 367.125 184.1875 C368.10952211 185.31741364 369.09516692 186.44635022 370.08203125 187.57421875 C399.0881273 221.00666704 399.0881273 221.00666704 398.4609375 238.375 C396.16570173 257.59092735 377.64246118 275.37418783 365.08984375 289.0390625 C363.28503556 291.01251082 361.54548535 293.02613832 359.8125 295.0625 C356.25234893 299.1620679 352.39968098 302.94359103 348.53686523 306.75415039 C345.68944544 309.57649462 342.96779893 312.43740493 340.375 315.5 C337.5540193 318.81277394 334.47516124 321.59584114 331.16015625 324.40625 C329.05131472 326.2519923 327.08901458 328.18889417 325.125 330.1875 C321.28932336 334.06760533 317.27123682 337.64435217 313.125 341.1875 C312.12855469 342.04988281 311.13210938 342.91226562 310.10546875 343.80078125 C294.91461775 356.93076311 279.43328257 369.46366578 263.125 381.1875 C262.20460938 381.85136719 261.28421875 382.51523437 260.3359375 383.19921875 C257.95107344 384.89157074 255.54512657 386.54590032 253.125 388.1875 C252.50898926 388.60676758 251.89297852 389.02603516 251.25830078 389.45800781 C233.3922633 401.59044844 214.97191977 412.65000105 196.125 423.1875 C195.41585449 423.58678711 194.70670898 423.98607422 193.97607422 424.39746094 C132.70211451 458.70135778 60.39374825 477.65045954 -9.875 476.1875 C-10.62700684 476.17493164 -11.37901367 476.16236328 -12.15380859 476.14941406 C-51.47717796 475.35138337 -90.77749816 466.94159454 -127.875 454.1875 C-129.00019043 453.80368164 -130.12538086 453.41986328 -131.28466797 453.02441406 C-191.42583164 432.27178152 -246.61182167 398.08595274 -295.875 358.1875 C-296.72320312 357.50300781 -297.57140625 356.81851562 -298.4453125 356.11328125 C-317.28146866 340.8192011 -334.76757046 324.37883591 -351.9375 307.25 C-352.57414581 306.61603302 -353.21079163 305.98206604 -353.86672974 305.32888794 C-360.42141497 298.79512225 -366.92337062 292.28451758 -372.875 285.1875 C-373.76309259 284.16559615 -374.65236224 283.14471368 -375.54296875 282.125 C-403.3936431 249.65413626 -403.3936431 249.65413626 -401.875 229.1875 C-400.03509548 218.54342427 -392.42729074 210.37087001 -385.875 202.1875 C-385.09511719 201.19363281 -384.31523437 200.19976563 -383.51171875 199.17578125 C-378.10775282 192.40847474 -372.25864792 186.08902263 -366.34521484 179.77099609 C-364.13862166 177.39438311 -361.98139447 174.97350362 -359.8125 172.5625 C-354.74297478 167.02740614 -349.48619615 161.69053361 -344.1875 156.375 C-343.39142334 155.57433105 -342.59534668 154.77366211 -341.77514648 153.94873047 C-337.52927354 149.71388806 -333.20524334 145.63798436 -328.65942383 141.72680664 C-326.24347071 139.64272067 -323.90600767 137.47741999 -321.5625 135.3125 C-317.13003526 131.27470678 -312.59757823 127.41442566 -307.9296875 123.65234375 C-305.6918842 121.84664825 -303.47018101 120.02770688 -301.2578125 118.19140625 C-276.34203853 97.58055051 -248.97642159 79.17831506 -220.875 63.1875 C-220.04758301 62.71473633 -219.22016602 62.24197266 -218.36767578 61.75488281 C-161.29487487 29.3607538 -97.62443321 6.40989127 -31.875 1.1875 C-30.26963379 1.05831177 -30.26963379 1.05831177 -28.63183594 0.92651367 C-19.07716165 0.21966919 -9.57739297 -0.01542338 0 0 Z M-47.875 35.1875 C-48.86177734 35.32140137 -49.84855469 35.45530273 -50.86523438 35.59326172 C-140.75106371 47.94432921 -224.81361076 94.32613758 -295.875 155.1875 C-296.59042969 155.80109375 -297.30585938 156.4146875 -298.04296875 157.046875 C-306.58547586 164.44451003 -314.87120562 172.09056866 -322.796875 180.14453125 C-324.75629443 182.07080261 -326.77651115 183.85285096 -328.875 185.625 C-332.72531412 188.93717967 -336.04794042 192.58739099 -339.3984375 196.3984375 C-341.15081435 198.37193446 -342.91552218 200.30891914 -344.7265625 202.2265625 C-351.01094219 208.88874215 -356.88462532 215.73612385 -362.4453125 223.015625 C-363.90845431 224.92570724 -365.39624831 226.81775462 -366.9296875 228.671875 C-367.48914063 229.35765625 -368.04859375 230.0434375 -368.625 230.75 C-369.32882812 231.58724609 -369.32882812 231.58724609 -370.046875 232.44140625 C-371.31081349 235.10640864 -370.84489125 236.41868182 -369.875 239.1875 C-368.33420183 241.450999 -366.79389647 243.51913526 -365.0625 245.625 C-364.57112549 246.23480713 -364.07975098 246.84461426 -363.57348633 247.47290039 C-362.0201358 249.38870758 -360.45086872 251.29018542 -358.875 253.1875 C-358.3903125 253.77273438 -357.905625 254.35796875 -357.40625 254.9609375 C-345.9673204 268.70008664 -333.61549997 281.53333376 -321 294.1875 C-320.50776947 294.68240936 -320.01553894 295.17731873 -319.50839233 295.68722534 C-313.81073485 301.4084195 -308.02623999 306.95359352 -301.875 312.1875 C-300.7068617 313.20925748 -299.54017069 314.23267217 -298.375 315.2578125 C-267.19769177 342.51972809 -233.61161261 366.27608813 -197.875 387.1875 C-197.15828125 387.60854004 -196.4415625 388.02958008 -195.703125 388.46337891 C-108.52318129 439.32517407 -8.0108248 457.68306088 90.22875977 431.94920349 C126.48713823 422.25581412 161.700183 407.0508424 194.125 388.1875 C194.9279248 387.72085937 195.73084961 387.25421875 196.55810547 386.7734375 C223.14003913 371.24265337 248.2069106 353.55158518 272.125 334.1875 C272.96160156 333.51460937 273.79820312 332.84171875 274.66015625 332.1484375 C292.76328771 317.48463441 309.69636616 301.69061597 326.1875 285.25 C326.68072754 284.75945129 327.17395508 284.26890259 327.68212891 283.76348877 C333.38423809 278.08494005 338.90720953 272.31692739 344.125 266.1875 C345.09737033 265.08063418 346.07127739 263.97511608 347.046875 262.87109375 C352.38977396 256.76518904 357.54867827 250.53931408 362.4375 244.0625 C362.92379883 243.43529053 363.41009766 242.80808105 363.91113281 242.16186523 C366.45964221 238.9945603 366.45964221 238.9945603 366.84790039 235.14868164 C361.94784661 221.85515513 346.52355415 208.4545674 337.125 198.1875 C336.45065918 197.4454834 336.45065918 197.4454834 335.76269531 196.68847656 C326.71721462 186.73661054 317.56198112 176.81102128 307.3046875 168.0859375 C304.98761178 166.06783929 302.74338603 163.98459394 300.49853516 161.88696289 C295.18159297 156.92186585 289.7875883 152.13608961 284.109375 147.58203125 C281.89472458 145.80509315 279.70007619 144.01254198 277.515625 142.19921875 C267.69468177 134.07532662 257.55033031 126.51624372 247.125 119.1875 C246.44969238 118.71070801 245.77438477 118.23391602 245.07861328 117.74267578 C184.09956604 74.80031986 116.20015595 44.60970217 42.125 34.1875 C41.196875 34.05472656 40.26875 33.92195313 39.3125 33.78515625 C10.75329026 29.91050737 -19.43829547 31.07071811 -47.875 35.1875 Z " fill="currentColor" transform="translate(628.875,387.8125)"/>
  <path d="M0 0 C0.67708008 0.16628906 1.35416016 0.33257812 2.05175781 0.50390625 C36.19006458 9.0266458 67.42742055 30.62241898 87 60 C87.36786621 60.55059082 87.73573242 61.10118164 88.11474609 61.66845703 C103.51288049 85.05080926 111.44346079 112.23111267 111.3125 140.1875 C111.30686035 141.45907959 111.3012207 142.73065918 111.29541016 144.04077148 C111.16794397 153.97114461 110.41107971 163.3643463 108 173 C107.70198486 174.19496094 107.70198486 174.19496094 107.39794922 175.4140625 C97.57547107 213.43845731 72.88121561 245.54005111 39.12011719 265.60498047 C8.59390422 283.1243073 -30.56886976 290.28290276 -65 281 C-103.98181837 270.16668071 -136.92454024 245.91122891 -157.38085938 210.78076172 C-174.90540785 179.40459905 -180.99215085 139.35669345 -171.29980469 104.48046875 C-160.07532833 65.90780283 -135.35627953 33.87565117 -100.4375 13.8125 C-70.33213629 -2.71848322 -33.50453116 -8.56610694 0 0 Z M-60 29 C-60.65097656 29.1556543 -61.30195312 29.31130859 -61.97265625 29.47167969 C-88.99850698 36.20127771 -114.40838916 54.40039919 -128.96923828 78.23730469 C-145.21433653 106.01788482 -150.97684746 136.46941354 -144 168 C-139.50557194 185.11017463 -131.38500775 200.54340827 -120 214 C-118.82824219 215.41732422 -118.82824219 215.41732422 -117.6328125 216.86328125 C-100.23810502 237.02403238 -76.09149407 249.56874499 -50 254 C-49.26136719 254.13148438 -48.52273438 254.26296875 -47.76171875 254.3984375 C-17.81092153 258.7020472 12.54164733 250.04088234 36.84765625 232.46484375 C61.72338341 213.35650239 78.09094613 186.3901976 82.27734375 155.15161133 C85.82072419 124.75455465 77.59762871 94.36587719 59 70 C55.53630721 65.7993513 51.82135495 61.87525276 48 58 C47.22011719 57.20722656 46.44023438 56.41445313 45.63671875 55.59765625 C23.16511759 34.10800741 -7.00945564 25.18737387 -37.52734375 25.75 C-45.20828577 26.01748884 -52.54478255 27.17281262 -60 29 Z " fill="currentColor" transform="translate(659,484)"/>
  <path d="M0 0 C1.38969302 1.02198227 2.76580436 2.06279396 4.125 3.125 C4.73859375 3.56457031 5.3521875 4.00414062 5.984375 4.45703125 C11.46680765 8.66588994 14.83975162 14.11559765 18.125 20.125 C18.78242187 21.32189453 18.78242187 21.32189453 19.453125 22.54296875 C24.06916385 32.76651958 24.09013897 47.65181194 20.5625 58.25 C19.4453125 60.71484375 19.4453125 60.71484375 18.125 63.125 C17.62742187 64.05441406 17.12984375 64.98382812 16.6171875 65.94140625 C9.62121948 77.89963066 -0.19593972 84.83862139 -13.234375 89.265625 C-26.84451028 92.47831788 -40.63839775 90.02262154 -52.625 83 C-64.09780488 75.11766535 -71.27100861 64.294172 -74.3125 50.6875 C-76.4209103 35.75473838 -72.52296341 22.29466417 -63.875 10.125 C-48.7998625 -8.54298354 -20.09501463 -12.87707514 0 0 Z " fill="currentColor" transform="translate(652.875,582.875)"/>
</svg>
