<?xml version="1.0" encoding="UTF-8" standalone="no"?>
<svg
   version="1.0"
   width="517.90289pt"
   height="521.59277pt"
   viewBox="0 0 517.90289 521.59277"
   preserveAspectRatio="xMidYMid"
   id="svg7"
   xmlns="http://www.w3.org/2000/svg"
   xmlns:svg="http://www.w3.org/2000/svg">
  <defs
     id="defs7" />
  <g
     transform="matrix(0.1,0,0,-0.1,-257.06576,800.70867)"
     fill="currentColor"
     stroke="none"
     id="g7">
    <path
       d="m 4970,8004 c -539,-50 -1030,-241 -1425,-553 -107,-84 -298,-274 -388,-386 -331,-410 -530,-910 -577,-1445 -42,-485 59,-1016 275,-1440 344,-675 1024,-1185 1786,-1340 276,-56 666,-65 925,-21 442,75 843,254 1201,533 56,44 105,89 109,100 11,34 -5,86 -34,109 -42,33 -87,21 -163,-41 -183,-149 -472,-314 -689,-394 -130,-48 -325,-101 -456,-123 -153,-25 -602,-25 -749,0 -638,111 -1182,441 -1564,947 -254,336 -386,673 -452,1150 -17,119 -17,476 0,590 85,583 320,1063 705,1445 332,328 757,549 1241,644 300,59 660,56 975,-9 294,-61 626,-194 802,-321 46,-33 93,-62 104,-65 33,-8 84,23 99,60 24,57 5,98 -68,150 -235,167 -689,333 -1067,391 -102,16 -489,28 -590,19 z"
       id="path1" />
    <path
       d="m 7070,7339 c -280,-47 -440,-363 -316,-624 105,-223 366,-313 593,-206 216,102 305,386 191,606 -85,165 -277,257 -468,224 z m 186,-199 c 154,-75 196,-264 89,-405 -87,-113 -299,-113 -393,1 -112,135 -62,339 100,409 50,22 154,19 204,-5 z"
       id="path2" />
    <path
       d="m 6180,6329 c -52,-16 -86,-45 -109,-92 -21,-43 -21,-49 -21,-1093 0,-996 1,-1051 19,-1089 22,-50 71,-92 114,-100 18,-4 120,-5 228,-3 l 196,3 37,29 c 21,16 47,48 57,72 19,41 19,80 17,1102 l -3,1058 -25,37 c -13,20 -43,46 -65,59 -37,21 -52,23 -225,25 -105,1 -200,-3 -220,-8 z m 368,-1186 -3,-1018 h -160 -160 l -3,1018 -2,1017 h 165 165 z"
       id="path3" />
    <path
       d="m 7474,6330 c -28,-11 -54,-48 -54,-78 0,-13 18,-76 39,-140 124,-367 145,-784 60,-1182 -29,-134 -107,-363 -173,-509 -31,-69 -56,-135 -56,-148 0,-32 51,-83 84,-83 54,0 74,20 122,119 131,271 212,550 244,836 15,133 12,422 -5,569 -22,186 -69,389 -127,544 -26,70 -74,96 -134,72 z"
       id="path4" />
    <path
       d="m 5335,5742 c -57,-27 -102,-82 -110,-134 -3,-24 -5,-378 -3,-788 3,-832 -1,-779 75,-837 l 36,-28 211,-3 c 238,-3 254,1 310,71 l 31,39 3,775 c 2,775 2,776 -19,820 -13,27 -37,55 -62,71 -40,27 -43,27 -236,30 -173,2 -201,0 -236,-16 z m 380,-887 v -730 h -160 -160 l -3,720 c -1,396 0,726 3,733 3,10 42,12 162,10 l 158,-3 z"
       id="path5" />
    <path
       d="m 4525,5275 c -59,-15 -108,-64 -124,-122 -16,-55 -15,-1028 1,-1074 17,-52 46,-88 88,-109 35,-18 60,-20 235,-20 213,0 239,5 287,56 15,16 32,42 37,57 7,19 11,208 11,558 0,508 -1,531 -20,569 -41,81 -106,100 -330,99 -79,0 -156,-6 -185,-14 z m 365,-660 v -495 l -162,2 -163,3 -3,480 c -1,264 0,486 3,493 3,9 46,12 165,12 h 160 z"
       id="path6" />
    <path
       d="m 3655,4826 c -37,-17 -80,-62 -94,-99 -7,-18 -11,-144 -11,-339 0,-303 1,-311 22,-350 13,-22 41,-51 64,-64 39,-23 47,-24 248,-24 171,0 213,3 239,16 45,23 66,44 88,86 17,34 19,63 19,343 0,280 -2,309 -19,343 -22,42 -43,63 -88,86 -43,21 -420,23 -468,2 z m 400,-431 v -270 l -167,-3 -168,-2 v 275 275 l 168,-2 167,-3 z"
       id="path7" />
  </g>
</svg>
