<?xml version="1.0" encoding="UTF-8" standalone="no"?>
<svg
   version="1.0"
   width="516pt"
   height="503.9256pt"
   viewBox="0 0 516 503.9256"
   preserveAspectRatio="xMidYMid"
   id="svg1"
   xmlns="http://www.w3.org/2000/svg"
   xmlns:svg="http://www.w3.org/2000/svg">
  <defs
     id="defs1" />
  <g
     transform="matrix(0.1,0,0,-0.1,0,503.9256)"
     fill="currentColor"
     stroke="none"
     id="g1">
    <path
       d="m 2355,5015 -25,-24 v -815 -816 l -343,-457 c -189,-252 -396,-529 -460,-616 -64,-86 -122,-157 -128,-157 -6,0 -63,38 -127,85 -121,90 -156,102 -208,72 -26,-14 -25,-13 -360,-452 C 110,1057 26,945 14,911 4,884 1,768 0,438 V 0 h 2580 2580 v 458 c 0,381 -3,467 -15,509 -12,40 -51,97 -167,245 -83,106 -313,400 -511,653 -197,253 -374,475 -393,493 -26,25 -42,32 -73,32 -37,0 -53,-11 -213,-149 -95,-82 -176,-147 -180,-145 -4,3 -159,186 -345,407 -185,221 -427,509 -538,640 -110,131 -205,246 -212,255 -8,12 -13,96 -15,282 l -3,265 585,5 c 322,3 592,9 602,13 23,12 42,62 34,92 -3,13 -74,99 -157,191 -82,91 -149,170 -147,174 2,5 59,70 128,146 69,76 137,153 153,172 34,44 35,85 2,117 l -24,25 h -584 -585 l -4,57 c -4,46 -10,61 -32,80 -36,30 -80,30 -111,-2 z m 1095,-301 c 0,-4 -39,-50 -88,-103 -185,-203 -184,-184 -22,-363 l 119,-133 -476,-3 c -262,-1 -478,0 -481,3 -4,4 -5,307 -3,543 l 1,62 h 475 c 261,0 475,-3 475,-6 z"
       id="path1" />
  </g>
</svg>
