<?xml version="1.0" encoding="UTF-8" standalone="no"?>
<svg
   version="1.0"
   width="515.87659pt"
   height="503.22949pt"
   viewBox="0 0 515.87659 503.22949"
   preserveAspectRatio="xMidYMid"
   id="svg3"
   xmlns="http://www.w3.org/2000/svg"
   xmlns:svg="http://www.w3.org/2000/svg">
  <defs
     id="defs3" />
  <g
     transform="matrix(0.1,0,0,-0.1,-254.12339,772.9256)"
     fill="currentColor"
     stroke="none"
     id="g3">
    <path
       d="m 4895,7705 -25,-24 v -815 -816 l -343,-457 c -189,-252 -396,-529 -460,-615 -64,-87 -122,-158 -128,-158 -6,0 -63,38 -127,85 -121,90 -156,102 -208,72 -28,-15 -26,-13 -862,-1110 -126,-165 -185,-251 -193,-280 -30,-111 29,-234 141,-293 33,-18 73,-19 671,-22 633,-3 636,-2 662,18 38,30 38,90 1,119 -26,21 -35,21 -636,21 -669,0 -653,-1 -678,60 -17,41 -9,57 94,189 45,58 228,297 405,531 444,585 450,592 466,586 16,-6 165,-116 165,-122 0,-2 -27,-40 -60,-85 -64,-87 -71,-112 -40,-152 25,-31 64,-41 96,-25 13,7 222,279 464,603 587,786 669,895 679,895 5,0 49,-48 98,-107 50,-60 245,-293 434,-519 727,-868 747,-891 773,-898 30,-7 80,15 90,39 18,48 6,81 -54,151 -33,38 -60,72 -60,75 0,5 224,200 260,226 15,11 45,-24 256,-295 242,-313 327,-420 594,-757 85,-108 154,-205 160,-224 11,-41 4,-76 -23,-115 -40,-57 -24,-56 -785,-56 -692,0 -700,0 -726,-21 -37,-29 -37,-89 1,-119 26,-20 28,-20 752,-18 l 726,3 58,29 c 97,47 167,159 167,266 0,86 -25,132 -182,332 -83,106 -313,400 -511,653 -197,253 -374,475 -393,493 -26,25 -42,32 -73,32 -37,0 -53,-11 -213,-149 -95,-82 -176,-147 -180,-145 -4,3 -159,186 -345,407 -185,221 -427,509 -538,640 -110,131 -205,246 -212,255 -8,12 -13,96 -15,282 l -3,265 585,5 c 322,3 592,9 602,13 23,12 42,62 34,92 -3,13 -74,99 -157,191 -82,91 -149,170 -147,174 2,5 59,70 128,146 69,76 137,153 153,172 34,44 35,85 2,117 l -24,25 h -584 -585 l -4,57 c -4,46 -10,61 -32,80 -36,30 -80,30 -111,-2 z m 1095,-301 c 0,-4 -39,-50 -88,-103 -185,-203 -184,-184 -22,-363 l 119,-133 -476,-3 c -262,-1 -478,0 -481,3 -4,4 -5,307 -3,543 l 1,62 h 475 c 261,0 475,-3 475,-6 z"
       id="path1" />
    <path
       d="m 4960,4973 c -14,-9 -121,-107 -237,-216 -205,-192 -213,-201 -213,-237 0,-62 59,-97 113,-69 18,10 141,122 353,321 l 40,39 95,-74 c 842,-655 845,-657 883,-657 63,0 100,80 59,128 -10,10 -218,175 -463,364 -245,190 -465,362 -490,382 -51,41 -99,47 -140,19 z"
       id="path2" />
    <path
       d="m 4860,4235 c -315,-65 -565,-300 -635,-597 -18,-76 -20,-289 -3,-321 24,-46 63,-58 112,-36 35,16 38,30 37,154 -3,195 50,327 183,460 89,88 158,130 276,167 105,32 263,32 370,-1 192,-58 340,-194 413,-379 36,-92 47,-233 27,-334 -44,-227 -240,-422 -480,-478 -77,-19 -222,-16 -300,4 -95,25 -247,112 -238,137 3,7 456,400 521,451 l 37,30 v -81 c 0,-69 3,-83 23,-107 33,-38 81,-37 114,1 24,27 24,29 21,217 -4,246 14,228 -233,228 -169,0 -184,-1 -209,-21 -20,-16 -26,-29 -26,-58 0,-55 27,-75 106,-81 l 65,-5 -264,-228 c -363,-312 -357,-306 -357,-348 0,-29 11,-44 78,-110 60,-58 100,-86 173,-122 128,-63 205,-81 354,-80 235,2 420,85 587,262 135,143 201,313 200,516 -1,213 -82,400 -239,551 -187,178 -465,260 -713,209 z"
       id="path3" />
  </g>
</svg>
