<?xml version="1.0" encoding="UTF-8" standalone="no"?>
<svg
   version="1.0"
   width="341.01456pt"
   height="540.99194pt"
   viewBox="0 0 341.01456 540.99194"
   preserveAspectRatio="xMidYMid"
   id="svg9"
   xmlns="http://www.w3.org/2000/svg"
   xmlns:svg="http://www.w3.org/2000/svg">
  <defs
     id="defs9" />
  <g
     transform="matrix(0.1,0,0,-0.1,-349.05997,795.99191)"
     fill="currentColor"
     stroke="none"
     id="g9">
    <path
       d="m 3773,7939 c -246,-78 -359,-380 -226,-606 48,-83 168,-173 254,-190 l 29,-6 -2,-350 -3,-350 -40,-12 c -113,-34 -201,-110 -256,-220 -32,-66 -34,-75 -34,-175 0,-94 3,-111 28,-164 53,-115 143,-196 255,-231 l 52,-17 v -343 -343 l -32,-7 c -87,-19 -191,-96 -247,-184 -65,-100 -77,-253 -31,-374 41,-108 172,-222 278,-243 l 32,-7 -2,-344 -3,-344 -53,-18 c -110,-38 -202,-123 -254,-238 -19,-40 -23,-66 -23,-153 0,-94 3,-111 28,-164 74,-159 209,-247 378,-248 223,-2 399,160 416,382 15,188 -111,372 -290,425 l -42,12 -3,345 -2,345 31,7 c 87,17 203,105 255,193 83,142 65,339 -43,471 -44,54 -134,114 -197,132 l -46,13 2,345 3,345 49,14 c 202,59 326,282 272,491 -36,141 -145,257 -279,297 l -42,12 -3,351 -2,350 32,7 c 57,12 146,66 194,117 25,27 60,79 77,116 29,61 32,75 32,167 0,91 -3,106 -31,166 -95,200 -305,294 -511,228 z"
       id="path1" />
    <path
       d="m 4776,7649 c -33,-26 -36,-79 -6,-109 20,-20 33,-20 1055,-20 1022,0 1035,0 1055,20 30,30 27,83 -6,109 -27,21 -30,21 -1049,21 -1019,0 -1022,0 -1049,-21 z"
       id="path2" />
    <path
       d="m 4775,7205 c -31,-30 -33,-77 -5,-105 20,-20 33,-20 643,-20 699,0 667,-3 667,70 0,30 -6,43 -26,59 -26,21 -35,21 -641,21 h -614 z"
       id="path3" />
    <path
       d="m 4772,6127 c -31,-33 -29,-80 4,-106 27,-21 30,-21 1051,-21 h 1024 l 24,25 c 31,30 33,77 5,105 -20,20 -33,20 -1053,20 H 4793 Z"
       id="path4" />
    <path
       d="m 4776,5689 c -34,-27 -36,-77 -3,-107 l 23,-22 h 616 c 339,0 624,3 633,6 45,18 48,111 5,134 -12,6 -251,10 -633,10 -606,0 -615,0 -641,-21 z"
       id="path5" />
    <path
       d="m 4790,4637 c -32,-16 -47,-58 -34,-94 5,-15 21,-33 34,-40 20,-10 239,-12 1048,-10 l 1024,2 19,24 c 10,13 19,36 19,51 0,15 -9,38 -19,51 l -19,24 -1024,2 c -809,2 -1028,0 -1048,-10 z"
       id="path6" />
    <path
       d="m 4776,4169 c -34,-27 -36,-77 -3,-107 l 23,-22 h 616 c 339,0 624,3 633,6 45,18 48,111 5,134 -12,6 -251,10 -633,10 -606,0 -615,0 -641,-21 z"
       id="path7" />
    <path
       d="m 4776,3119 c -34,-27 -36,-77 -3,-107 l 23,-22 h 1030 1031 l 21,23 c 31,33 29,80 -4,106 -27,21 -30,21 -1049,21 -1019,0 -1022,0 -1049,-21 z"
       id="path8" />
    <path
       d="m 4775,2675 c -31,-30 -33,-77 -5,-105 20,-20 33,-20 593,-20 h 574 l 21,23 c 29,31 28,72 -3,102 l -24,25 h -566 -566 z"
       id="path9" />
  </g>
</svg>
