<?xml version="1.0" encoding="UTF-8" standalone="no"?>
<svg
   version="1.0"
   width="510.10001pt"
   height="415.59769pt"
   viewBox="0 0 510.10001 415.59769"
   preserveAspectRatio="xMidYMid"
   id="svg3"
   xmlns="http://www.w3.org/2000/svg"
   xmlns:svg="http://www.w3.org/2000/svg">
  <defs
     id="defs3" />
  <g
     transform="matrix(0.1,0,0,-0.1,0.1,415.77353)"
     fill="currentColor"
     stroke="none"
     id="g3">
    <path
       d="M 1107,4140 C 989,4103 897,4021 843,3904 l -28,-59 -5,-320 -5,-320 -105,-5 c -88,-4 -112,-9 -148,-30 -56,-32 -71,-58 -131,-225 -27,-77 -133,-376 -236,-664 L -1,1758 2,1036 5,315 28,257 C 58,183 150,83 222,47 251,32 300,16 330,10 367,3 1120,1 2585,2 c 2081,3 2202,4 2245,21 120,47 214,147 250,265 19,61 20,94 20,768 v 704 l -80,227 c -275,790 -391,1108 -414,1138 -43,55 -97,75 -209,75 h -97 v 278 c 0,306 -9,380 -57,460 -46,79 -110,140 -192,180 l -75,37 -1405,2 c -1350,2 -1408,1 -1464,-17 z m 2868,-169 c 54,-24 103,-75 131,-136 l 24,-50 v -977 -977 l -352,-3 -353,-3 -55,-31 c -82,-46 -111,-91 -165,-256 -47,-140 -62,-170 -97,-189 -10,-6 -243,-10 -560,-10 -512,0 -544,2 -568,19 -19,14 -38,55 -75,163 -61,174 -72,197 -127,243 -72,62 -100,66 -475,66 H 970 l 2,983 c 3,1088 -2,1011 69,1092 19,21 56,49 84,61 l 50,24 h 1380 c 1315,0 1382,-1 1420,-19 z M 798,3032 c 10,-7 12,-134 10,-603 l -3,-594 -299,-3 c -292,-2 -298,-2 -293,17 2,11 68,199 145,418 78,219 169,477 203,574 46,134 66,179 83,187 25,13 136,15 154,4 z m 3676,-13 c 7,-8 32,-70 56,-139 24,-69 114,-327 202,-574 87,-247 158,-455 158,-463 0,-10 -57,-13 -295,-13 h -295 v 598 c 0,329 3,602 8,606 12,13 152,0 166,-15 z"
       id="path1" />
    <path
       d="m 1553,3150 c -35,-14 -56,-55 -49,-95 13,-69 -57,-65 1049,-65 h 998 l 24,25 c 32,31 32,75 1,112 l -24,28 -989,2 c -559,1 -998,-2 -1010,-7 z"
       id="path2" />
    <path
       d="m 1530,2610 c -42,-42 -32,-111 20,-137 19,-10 192,-13 783,-13 h 759 l 29,29 c 37,38 39,82 4,116 l -24,25 h -776 c -758,0 -775,0 -795,-20 z"
       id="path3" />
  </g>
</svg>
