<?xml version="1.0" encoding="UTF-8"?>
<svg
  version="1.1"
  xmlns="http://www.w3.org/2000/svg"
  width="583"
  height="592"
  viewBox="338 305 583 592"
>
<path d="M0 0 C5.85129053 5.08566974 11.04255417 9.95049533 15.40869141 16.40478516 C17.6414261 19.35350228 18.48642115 20.46201694 22.18212891 21.02197266 C25.32792885 20.77633085 28.25731885 20.2325242 31.34619141 19.59228516 C66.92748795 14.18400007 104.46327336 22.03848496 133.86962891 43.04541016 C163.74159063 65.21426387 183.17530069 96.07259623 189.48681641 132.78369141 C190.54241376 140.07826999 190.68993419 147.29343425 190.65869141 154.65478516 C190.65720093 155.32838074 190.65571045 156.00197632 190.6541748 156.69598389 C190.59368639 171.97382336 189.31908133 186.6645787 183.92041016 201.06103516 C183.14856381 203.52190106 183.14856381 203.52190106 183.93212891 205.63525391 C185.79456504 208.21282436 187.9591686 210.23367418 190.28369141 212.40478516 C201.32994732 223.14282466 209.10476892 235.58408663 215.34619141 249.59228516 C215.82830078 250.64673828 216.31041016 251.70119141 216.80712891 252.78759766 C230.51184053 285.26361125 228.58972565 327.32651469 215.74853516 359.74072266 C214.08080241 363.75668871 212.25309188 367.68496043 210.34619141 371.59228516 C210.03278809 372.2382666 209.71938477 372.88424805 209.39648438 373.54980469 C202.90667522 386.74388033 194.45723542 397.91301719 184.34619141 408.59228516 C183.09902344 409.93613281 183.09902344 409.93613281 181.82666016 411.30712891 C161.07739788 432.96777898 133.66800936 444.94814629 104.34619141 449.59228516 C103.94400391 450.82978516 103.94400391 450.82978516 103.53369141 452.09228516 C97.261104 470.57991119 88.05913082 486.73472813 75.34619141 501.59228516 C74.69779297 502.37603516 74.04939453 503.15978516 73.38134766 503.96728516 C68.29069544 509.96363623 62.55708356 514.78942558 56.34619141 519.59228516 C55.57404297 520.22650391 54.80189453 520.86072266 54.00634766 521.51416016 C24.53588568 544.63199418 -14.53155689 552.98999475 -51.27880859 548.84228516 C-79.72211404 545.2376349 -106.19950239 534.04385704 -127.46630859 514.59228516 C-128.3011377 513.83757935 -128.3011377 513.83757935 -129.15283203 513.06762695 C-132.44319922 510.00358394 -134.65072135 506.99361395 -137.02880859 503.15478516 C-138.79186823 500.79535247 -138.79186823 500.79535247 -141.65380859 499.59228516 C-147.33091346 499.39187309 -152.93328622 500.61891029 -158.50146484 501.59619141 C-193.74959719 507.73277381 -231.4309648 495.98800739 -260.23193359 475.78369141 C-266.00726625 471.41180497 -271.36739626 466.53686933 -276.65380859 461.59228516 C-277.54197266 460.76986328 -278.43013672 459.94744141 -279.34521484 459.10009766 C-305.67807375 433.85351601 -318.99040959 398.70868122 -320.85693359 362.67041016 C-321.0532352 346.6391126 -319.08015056 330.822156 -314.32568359 315.49072266 C-313.65482881 312.59668632 -313.46214969 311.27646733 -314.65380859 308.59228516 C-315.90072186 307.13270409 -315.90072186 307.13270409 -317.52880859 305.77978516 C-342.17866283 281.93647012 -352.79736718 246.59374159 -353.65380859 213.15478516 C-354.04629969 172.89641273 -337.31367215 135.33092654 -309.65380859 106.59228516 C-309.08533203 105.96064453 -308.51685547 105.32900391 -307.93115234 104.67822266 C-289.78449627 85.09282914 -262.46738689 74.02940175 -236.65380859 69.59228516 C-234.98733289 69.56705576 -233.32019392 69.56166301 -231.65380859 69.59228516 C-231.55003906 68.97627441 -231.44626953 68.36026367 -231.33935547 67.72558594 C-230.23050855 61.63736684 -228.59218948 56.14820663 -226.15380859 50.46728516 C-225.80705078 49.65396729 -225.46029297 48.84064941 -225.10302734 48.00268555 C-219.70320341 35.75171573 -212.38237059 24.725239 -203.65380859 14.59228516 C-203.03119141 13.83689453 -202.40857422 13.08150391 -201.76708984 12.30322266 C-196.65772075 6.27147253 -190.89734173 1.41565264 -184.65380859 -3.40771484 C-183.46078125 -4.37644531 -183.46078125 -4.37644531 -182.24365234 -5.36474609 C-129.83086259 -46.1487077 -50.00473381 -42.56381682 0 0 Z M-185.19628906 32.93212891 C-203.02839049 53.24340022 -210.70677309 78.83757909 -211.26171875 105.39819336 C-211.30052581 106.96329803 -211.33977378 108.52839183 -211.37942505 110.09347534 C-211.72440677 124.30850945 -211.9130906 138.52744178 -212.06156349 152.74573994 C-212.16330558 162.28450574 -212.31073475 171.81796421 -212.57421875 181.35375977 C-212.80498035 189.70537253 -212.95023656 198.05334443 -212.99327314 206.40811414 C-213.01870753 210.82016141 -213.08448015 215.22262442 -213.25246048 219.63173866 C-214.60755176 237.49723195 -214.60755176 237.49723195 -208.30654526 253.4121151 C-202.61379178 258.08423985 -196.36917343 260.96355066 -189.49758911 263.49550629 C-185.63977012 264.9833758 -182.34203956 266.9567859 -178.83349609 269.13525391 C-176.73224394 270.35063437 -174.63069879 271.56550846 -172.52880859 272.77978516 C-171.44728516 273.40691406 -170.36576172 274.03404297 -169.25146484 274.68017578 C-168.20603516 275.28410156 -167.16060547 275.88802734 -166.08349609 276.51025391 C-165.17841309 277.03385498 -164.27333008 277.55745605 -163.34082031 278.09692383 C-160.48600104 279.68567251 -157.57958573 281.13920162 -154.65380859 282.59228516 C-154.65234203 281.76898681 -154.65087547 280.94568846 -154.64936447 280.09744167 C-154.61230112 260.0580558 -154.55329261 240.01883911 -154.46990585 219.97959042 C-154.43010881 210.28871829 -154.39771969 200.59792744 -154.3828125 190.90698242 C-154.36979944 182.45963192 -154.34284361 174.01246021 -154.29919553 165.5652104 C-154.27657293 161.09306721 -154.26089839 156.62114462 -154.26192474 152.14893913 C-154.26267089 147.93731186 -154.24473873 143.72617238 -154.21264076 139.51467133 C-154.20414014 137.97119179 -154.20239297 136.42765755 -154.20800591 134.88416481 C-154.25392089 120.31448606 -154.25392089 120.31448606 -149.65380859 114.59228516 C-146.9909668 112.5793457 -146.9909668 112.5793457 -143.95458984 110.97900391 C-142.83673096 110.37628662 -141.71887207 109.77356934 -140.56713867 109.15258789 C-139.36688478 108.52827647 -138.16660759 107.90400985 -136.96630859 107.27978516 C-135.72905027 106.61799487 -134.49297233 105.95399327 -133.25805664 105.2878418 C-130.82144783 103.97393398 -128.38148567 102.66664917 -125.93896484 101.36376953 C-121.88900834 99.17987503 -117.91524274 96.8901934 -113.96630859 94.52978516 C-112.63823122 93.7406425 -111.31010516 92.95158178 -109.98193359 92.16259766 C-109.29808594 91.75557617 -108.61423828 91.34855469 -107.90966797 90.92919922 C-103.35839531 88.23192984 -98.78632072 85.57013606 -94.21630859 82.90478516 C-93.20052734 82.31213867 -92.18474609 81.71949219 -91.13818359 81.10888672 C-83.76086245 76.80929174 -76.36630599 72.54020207 -68.96630859 68.27978516 C-48.07886278 56.24770828 -27.28579595 44.05794457 -6.65380859 31.59228516 C-25.44956146 9.16300476 -51.75512525 -3.82940326 -80.65380859 -7.40771484 C-120.95943348 -10.21987971 -157.72822026 3.02688696 -185.19628906 32.93212891 Z M-13.46630859 64.15478516 C-15.87368506 65.59346751 -18.28301127 67.02886087 -20.69287109 68.46337891 C-21.5875132 68.99626526 -21.5875132 68.99626526 -22.50022888 69.53991699 C-27.7467059 72.65942681 -33.03334496 75.70392068 -38.34130859 78.71728516 C-45.66324834 82.87505075 -52.95001082 87.08800131 -60.21630859 91.34228516 C-69.5820135 96.82305275 -78.98975458 102.22679716 -88.41873169 107.59759521 C-98.04878115 113.08410497 -107.6362145 118.63882693 -117.19287109 124.25244141 C-118.11841797 124.79513672 -119.04396484 125.33783203 -119.99755859 125.89697266 C-120.80386719 126.37118652 -121.61017578 126.84540039 -122.44091797 127.33398438 C-124.65380859 128.59228516 -124.65380859 128.59228516 -126.88232422 129.57324219 C-129.00294825 130.53195436 -129.00294825 130.53195436 -129.65380859 133.59228516 C-129.74269691 135.57071276 -129.77141732 137.55205149 -129.76733398 139.5324707 C-129.76725845 140.75350998 -129.76718292 141.97454926 -129.7671051 143.23258972 C-129.76194382 144.5514064 -129.75678253 145.87022308 -129.75146484 147.22900391 C-129.7495994 148.59235075 -129.74817609 149.95569827 -129.74717712 151.31904602 C-129.74336192 154.90457007 -129.73354014 158.4900535 -129.72247314 162.07556152 C-129.7122376 165.73542735 -129.70767491 169.39529976 -129.70263672 173.05517578 C-129.69191698 180.23423074 -129.67485252 187.41325225 -129.65380859 194.59228516 C-125.8819989 193.90595272 -123.20015119 192.96986585 -119.89990234 190.99462891 C-118.97757813 190.44871094 -118.05525391 189.90279297 -117.10498047 189.34033203 C-116.11046875 188.74285156 -115.11595703 188.14537109 -114.09130859 187.52978516 C-111.92409656 186.24595482 -109.75609556 184.96345559 -107.58740234 183.68212891 C-106.45286621 183.01036621 -105.31833008 182.33860352 -104.14941406 181.64648438 C-98.93872852 178.57422613 -93.67921804 175.58750682 -88.42111206 172.59741211 C-78.1051206 166.73034895 -67.82714113 160.80141888 -57.5847168 154.80664062 C-50.35555584 150.57741696 -43.10227634 146.39161993 -35.84130859 142.21728516 C-25.47084094 136.25326782 -15.16587422 130.18551187 -4.89868164 124.04589844 C-2.8157341 122.80403356 -0.72790264 121.57031581 1.36523438 120.34570312 C3.33285082 119.18833856 5.28566042 118.00537626 7.22167969 116.79589844 C13.29210912 113.15875003 18.24551081 111.01219628 25.34619141 112.59228516 C29.13076559 114.1000317 32.5061608 116.08677802 35.97119141 118.21728516 C36.9633667 118.80268066 37.95554199 119.38807617 38.9777832 119.99121094 C41.06625606 121.22509219 43.14945803 122.46793455 45.22753906 123.71923828 C49.19705682 126.10331064 53.1997034 128.42771768 57.20458984 130.75170898 C60.20236652 132.49264921 63.19464439 134.24274206 66.18603516 135.99462891 C75.78844179 141.6107259 85.43340828 147.15321174 95.07275391 152.70556641 C98.31094301 154.57196895 101.54758578 156.44102278 104.78369141 158.31103516 C111.30137069 162.0769372 117.82226622 165.83721356 124.34619141 169.59228516 C125.25800171 170.11713501 125.25800171 170.11713501 126.18823242 170.65258789 C129.99816298 172.8450534 133.80986057 175.03440516 137.62359619 177.22024536 C138.83769249 177.91649275 140.05136947 178.61347195 141.2645874 179.31124878 C147.54502829 182.92239796 153.82122712 186.44147722 160.34619141 189.59228516 C160.8315901 187.76059197 161.30916327 185.92682457 161.78369141 184.09228516 C162.05052734 183.07134766 162.31736328 182.05041016 162.59228516 180.99853516 C169.22248619 151.04239371 161.96104082 120.41706566 146.34619141 94.59228516 C130.98046238 70.83864734 106.03899401 53.48466791 78.59228516 46.65869141 C44.79883524 39.53171761 15.68949628 46.63158771 -13.46630859 64.15478516 Z M-293.52880859 126.96728516 C-317.48878658 151.39062802 -327.17860495 183.34692347 -326.95733643 217.00701904 C-326.83197274 226.67288073 -325.62142322 235.41428315 -322.65380859 244.59228516 C-322.44481934 245.26324219 -322.23583008 245.93419922 -322.02050781 246.62548828 C-317.15610388 261.88550602 -309.47869028 275.75080588 -298.65380859 287.59228516 C-297.92291016 288.39279297 -297.19201172 289.19330078 -296.43896484 290.01806641 C-288.09260514 298.74580635 -278.09591883 304.66964453 -267.65380859 310.59228516 C-265.92961344 311.57899888 -264.20542208 312.5657193 -262.48146057 313.55284119 C-260.7075915 314.56769375 -258.93256625 315.58049602 -257.15722656 316.59277344 C-251.66838468 319.72359505 -246.19132451 322.87486095 -240.71630859 326.02978516 C-239.64550049 326.6467627 -238.57469238 327.26374023 -237.47143555 327.89941406 C-228.5995257 333.02275115 -219.78093472 338.23325405 -210.97485352 343.46875 C-205.12134229 346.94794205 -199.2618473 350.4156443 -193.38427734 353.85400391 C-192.777285 354.20912048 -192.17029266 354.56423706 -191.54490662 354.93011475 C-189.10078925 356.35953497 -186.65639895 357.78848269 -184.21102905 359.21575928 C-177.59011652 363.08089112 -170.991064 366.97605184 -164.44287109 370.96337891 C-163.86556244 371.31396866 -163.28825378 371.66455841 -162.69345093 372.02577209 C-159.95885307 373.68675631 -157.22903143 375.35463201 -154.50683594 377.03588867 C-153.54471191 377.62168701 -152.58258789 378.20748535 -151.59130859 378.81103516 C-150.75470703 379.32601563 -149.91810547 379.84099609 -149.05615234 380.37158203 C-146.469857 381.6857565 -144.55093313 382.38461617 -141.65380859 382.59228516 C-139.25873865 381.73447929 -139.25873865 381.73447929 -136.93505859 380.22509766 C-135.55640625 379.40259521 -135.55640625 379.40259521 -134.14990234 378.56347656 C-132.66683594 377.64961182 -132.66683594 377.64961182 -131.15380859 376.71728516 C-129.01865724 375.43559308 -126.8832273 374.154365 -124.74755859 372.87353516 C-123.59902472 372.17838186 -122.45058972 371.48306518 -121.30224609 370.78759766 C-115.44605878 367.25154559 -109.52966564 363.81720669 -103.62231445 360.36761475 C-100.46386154 358.52191953 -97.30885611 356.67035603 -94.15380859 354.81884766 C-92.56052734 353.88419678 -92.56052734 353.88419678 -90.93505859 352.93066406 C-90.18224609 352.48899902 -89.42943359 352.04733398 -88.65380859 351.59228516 C-91.48808488 348.54043308 -94.2693792 346.46147019 -97.88818359 344.41259766 C-98.92442871 343.82099854 -99.96067383 343.22939941 -101.02832031 342.61987305 C-102.14223145 341.99201904 -103.25614258 341.36416504 -104.40380859 340.71728516 C-105.57757408 340.0493314 -106.75090744 339.38061776 -107.92382812 338.71118164 C-109.72960914 337.68057889 -111.53560508 336.65038265 -113.34292603 335.6224823 C-119.09947285 332.34741317 -124.81568779 329.00495303 -130.52880859 325.65478516 C-139.20583925 320.57853491 -147.91987454 315.56969164 -156.65380859 310.59228516 C-166.36327603 305.05892918 -176.04034549 299.47347833 -185.68554688 293.82861328 C-194.35138735 288.75917627 -203.04674144 283.74192001 -211.75195312 278.74047852 C-214.72302779 277.03085125 -217.68986639 275.31424493 -220.65380859 273.59228516 C-221.60666748 273.04024414 -222.55952637 272.48820313 -223.54125977 271.91943359 C-224.43562744 271.39381836 -225.32999512 270.86820313 -226.25146484 270.32666016 C-227.04045166 269.86485352 -227.82943848 269.40304687 -228.64233398 268.92724609 C-231.9380782 266.73995038 -233.90859187 264.08271861 -235.65380859 260.59228516 C-235.76021393 258.42607322 -235.80050835 256.25653115 -235.81202698 254.08773804 C-235.81943394 253.07449555 -235.81943394 253.07449555 -235.82699054 252.04078352 C-235.8424056 249.7667749 -235.85073696 247.4927946 -235.85913086 245.21875 C-235.86870624 243.59285735 -235.87871612 241.96696721 -235.88912964 240.34107971 C-235.91622164 235.9178015 -235.9372079 231.49451257 -235.95713162 227.07119703 C-235.97896473 222.45203658 -236.00636648 217.83290933 -236.03318787 213.21377563 C-236.083151 204.46257486 -236.12807637 195.7113557 -236.17121023 186.96011889 C-236.2205517 176.99893422 -236.27548127 167.03778284 -236.33088982 157.07663035 C-236.44476544 136.58187963 -236.5515923 116.08709713 -236.65380859 95.59228516 C-257.02036195 95.59228516 -279.90698803 113.62255285 -293.52880859 126.96728516 Z M14.37744141 141.30322266 C13.33934326 141.88386475 12.30124512 142.46450684 11.23168945 143.06274414 C10.1144751 143.69124268 8.99726074 144.31974121 7.84619141 144.96728516 C6.71157471 145.6041626 5.57695801 146.24104004 4.40795898 146.8972168 C-3.43172906 151.31019801 -11.22144599 155.79749979 -18.95068359 160.40087891 C-21.40321279 161.86099229 -23.87000992 163.28922212 -26.35693359 164.68994141 C-27.46552734 165.31771484 -28.57412109 165.94548828 -29.71630859 166.59228516 C-30.67666016 167.12853516 -31.63701172 167.66478516 -32.62646484 168.21728516 C-33.63 168.89791016 -33.63 168.89791016 -34.65380859 169.59228516 C-34.65380859 170.25228516 -34.65380859 170.91228516 -34.65380859 171.59228516 C-32.49016361 173.16310129 -32.49016361 173.16310129 -29.66162109 174.76025391 C-28.57727783 175.39850098 -27.49293457 176.03674805 -26.37573242 176.69433594 C-25.17687389 177.38968585 -23.97789604 178.08483007 -22.77880859 178.77978516 C-21.54760334 179.50041373 -20.31673185 180.22161281 -19.08618164 180.94335938 C-15.28185109 183.17085304 -11.46885976 185.38321579 -7.65380859 187.59228516 C-6.51733887 188.25083496 -5.38086914 188.90938477 -4.20996094 189.58789062 C1.19569567 192.71655359 6.60708806 195.83509393 12.02197266 198.94775391 C18.10482525 202.44718431 24.16470026 205.98498754 30.22119141 209.52978516 C38.89868434 214.60525919 47.61231682 219.61475352 56.34619141 224.59228516 C65.41199761 229.75943254 74.45800435 234.9586503 83.47119141 240.21728516 C84.42380859 240.77287109 85.37642578 241.32845703 86.35791016 241.90087891 C89.02378299 243.45944752 91.68523763 245.02533703 94.34619141 246.59228516 C95.27262451 247.13183838 96.19905762 247.6713916 97.15356445 248.22729492 C98.49608276 249.01704712 98.49608276 249.01704712 99.86572266 249.82275391 C100.66598877 250.29092529 101.46625488 250.75909668 102.29077148 251.24145508 C106.05319227 253.71413285 107.94316901 256.38321796 109.34619141 260.59228516 C109.4382376 262.76100619 109.46812471 264.93252235 109.46644592 267.10319519 C109.46772756 268.09934333 109.46772756 268.09934333 109.46903509 269.11561567 C109.47068468 271.34508941 109.46517702 273.57448824 109.4597168 275.80395508 C109.45943479 277.40043638 109.45959293 278.99691782 109.4601593 280.59339905 C109.46044674 284.93193733 109.45455867 289.27044807 109.44758534 293.60897994 C109.44134288 298.14136221 109.4407473 302.67374508 109.43955994 307.20613098 C109.43644926 315.79086765 109.42823941 324.37559161 109.41821045 332.96032268 C109.40704114 342.73287689 109.40153679 352.5054317 109.39651501 362.2779907 C109.38605659 382.38276261 109.36846223 402.48752309 109.34619141 422.59228516 C111.70161603 421.98486146 114.05544442 421.37210656 116.40869141 420.75634766 C117.06546875 420.58756104 117.72224609 420.41877441 118.39892578 420.24487305 C137.05264431 415.34023154 151.73704141 404.87051358 165.34619141 391.59228516 C165.98814453 391.01220703 166.63009766 390.43212891 167.29150391 389.83447266 C177.71961166 380.18241013 184.59317468 367.39749437 190.34619141 354.59228516 C190.82958984 353.52494141 191.31298828 352.45759766 191.81103516 351.35791016 C203.11933903 324.27297565 203.5630794 292.15247536 193.22265625 264.72412109 C188.34936085 252.87074631 182.14181294 241.94900669 173.34619141 232.59228516 C172.57791016 231.74537109 171.80962891 230.89845703 171.01806641 230.02587891 C161.35839101 219.82089925 149.45266574 212.84020249 137.28369141 206.02978516 C136.06652208 205.3422931 134.84973443 204.65412493 133.63330078 203.96533203 C131.11961406 202.54265987 128.60435329 201.12283387 126.08789062 199.70507812 C120.15854106 196.3612376 114.25391365 192.97413052 108.34619141 189.59228516 C106.01832024 188.2611117 103.69010305 186.93054427 101.36181641 185.60009766 C100.78506668 185.27047531 100.20831696 184.94085297 99.61408997 184.60124207 C96.07515123 182.57902221 92.53486752 180.5591774 88.99362183 178.54100037 C71.25425346 168.43118625 53.5591856 158.24872123 35.99853516 147.83056641 C34.97614746 147.2243042 33.95375977 146.61804199 32.90039062 145.9934082 C30.9436651 144.83173216 28.98820678 143.66791829 27.03417969 142.50170898 C26.16905762 141.98761475 25.30393555 141.47352051 24.41259766 140.94384766 C23.64890869 140.4883252 22.88521973 140.03280273 22.09838867 139.56347656 C18.90021682 137.79082398 17.46186258 139.57635125 14.37744141 141.30322266 Z M-69.43115234 189.67041016 C-69.99006165 189.99300812 -70.54897095 190.31560608 -71.12481689 190.64797974 C-72.95171652 191.70481461 -74.77139742 192.77346871 -76.59130859 193.84228516 C-77.85879326 194.57833626 -79.12678306 195.31351817 -80.39526367 196.04785156 C-82.94913012 197.52735889 -85.50059353 199.01088248 -88.05029297 200.49755859 C-92.96011988 203.35681074 -97.90081358 206.16146669 -102.84130859 208.96728516 C-105.17045177 210.29021244 -107.47472339 211.61055489 -109.73754883 213.04492188 C-112.25771134 214.38211652 -114.29921216 215.09451803 -117.00952148 215.86230469 C-122.36193812 217.68401492 -126.57049514 219.68463934 -129.65380859 224.59228516 C-132.45524458 235.73667603 -131.32828609 247.74301735 -130.82110596 259.11895752 C-130.6462209 263.45502721 -130.56935929 267.79275762 -130.48388672 272.13134766 C-130.30231449 280.62293985 -130.01280426 289.1063496 -129.65380859 297.59228516 C-128.87302948 298.03769653 -128.09225037 298.48310791 -127.28781128 298.9420166 C-124.32433251 300.63296348 -121.36115445 302.32443509 -118.39816284 304.01623535 C-117.12821826 304.74121009 -115.8581623 305.46598977 -114.58798218 306.19055176 C-105.95852117 311.11337284 -97.35720538 316.08086504 -88.77880859 321.09228516 C-86.82585893 322.22800337 -84.8727592 323.36346365 -82.91943359 324.49853516 C-79.67215247 326.39336443 -76.45383038 328.322446 -73.26318359 330.31103516 C-72.29807861 330.89981445 -72.29807861 330.89981445 -71.31347656 331.50048828 C-69.68630321 332.49593551 -68.07166775 333.51180406 -66.45849609 334.52978516 C-63.68275781 335.86022323 -63.68275781 335.86022323 -60.73974609 335.04150391 C-57.16070666 333.3607145 -53.77596146 331.45969081 -50.40380859 329.40478516 C-48.899376 328.50374909 -47.39411049 327.60410279 -45.88818359 326.70556641 C-44.6477832 325.9642749 -44.6477832 325.9642749 -43.38232422 325.20800781 C-37.13544541 321.50884497 -30.82665058 317.91515582 -24.53173828 314.29858398 C-22.40362374 313.07390489 -20.29679473 311.8116449 -18.21044922 310.51708984 C-15.58411583 308.96915231 -13.06536816 308.06451914 -10.14404297 307.20654297 C-4.85336296 305.38528608 -0.76108374 303.40268714 2.34619141 298.59228516 C5.40873683 288.25746018 5.05572039 277.24716409 4.89208984 266.56347656 C4.84142686 263.08182154 4.88273603 259.62206485 5.01513672 256.14257812 C6.34305172 237.56539595 6.34305172 237.56539595 0.19714355 220.73901367 C-5.14829544 216.04503376 -11.20825047 213.29562187 -17.79638672 210.74914551 C-21.71633326 209.16210974 -25.11427108 207.028181 -28.63818359 204.71728516 C-29.7865562 204.01110339 -30.93753657 203.30914162 -32.09130859 202.61181641 C-33.76965988 201.58857629 -35.44796538 200.56525729 -37.12451172 199.5390625 C-42.94691818 195.97636678 -48.79102674 192.45446836 -54.73193359 189.09228516 C-55.5869043 188.60759766 -56.441875 188.12291016 -57.32275391 187.62353516 C-62.24576866 185.44561158 -65.12004695 187.15625234 -69.43115234 189.67041016 Z M27.34619141 237.59228516 C27.34260888 238.86726836 27.34260888 238.86726836 27.33895397 240.1680088 C27.27981936 260.84960352 27.20427911 281.53108156 27.11047649 302.21254921 C27.06550991 312.21395438 27.02609721 322.21532388 26.99975586 332.21679688 C26.9767828 340.93402656 26.94339247 349.65114342 26.89748985 358.36828363 C26.87354833 362.984 26.85482563 367.59960457 26.8485775 372.21538162 C26.84253086 376.56071823 26.82254624 380.90576874 26.79191589 385.25099945 C26.78312892 386.84489073 26.77941446 388.43881939 26.78118324 390.03273392 C26.7828377 392.21173796 26.76612343 394.3898716 26.74491882 396.5687561 C26.74030986 397.78736643 26.73570089 399.00597675 26.73095226 400.26151466 C26.30054634 403.98742215 25.28255337 406.39738568 23.34619141 409.59228516 C20.99975586 411.42822266 20.99975586 411.42822266 18.20947266 412.96728516 C17.16984375 413.55251953 16.13021484 414.13775391 15.05908203 414.74072266 C13.37588867 415.65724609 13.37588867 415.65724609 11.65869141 416.59228516 C10.48125879 417.24934999 9.30484008 417.90823467 8.12939453 418.56884766 C5.71366162 419.92527325 3.29422001 421.27469874 0.87207031 422.61962891 C-4.35037376 425.52945654 -9.49976575 428.56349174 -14.65380859 431.59228516 C-24.06225607 437.09421033 -33.49853258 442.54678769 -42.94287109 447.98681641 C-51.17497464 452.73157299 -59.38508761 457.51302019 -67.58837891 462.30737305 C-76.2324908 467.35548299 -84.90058003 472.36136231 -93.57568359 477.35595703 C-100.61601454 481.41043334 -107.64024604 485.49167643 -114.65380859 489.59228516 C-98.98131853 509.07059767 -74.42136774 518.70625343 -50.43896484 523.19384766 C-16.82371667 526.73229483 15.05729557 519.51643254 41.75830078 498.45556641 C65.44463616 479.11616149 80.43387244 452.12731815 84.05775452 421.76617813 C85.10619282 410.22940493 84.90644138 398.55419537 84.94675732 386.97788405 C84.9556424 384.55200659 84.96797043 382.12616869 84.98126984 379.70031166 C85.02204494 372.0864399 85.05119017 364.47266167 85.06287551 356.85868853 C85.07638927 348.10762663 85.12946174 339.35795371 85.21587729 330.60731429 C85.28070212 323.80516636 85.31098523 317.00341064 85.31499887 310.20095712 C85.31813646 306.15172904 85.33572083 302.10382188 85.3894577 298.0549221 C85.43888418 294.25950153 85.44538413 290.46639838 85.41904068 286.67077065 C85.41673073 285.28157456 85.42974609 283.89225334 85.45941544 282.50337219 C85.81378788 274.87249468 85.81378788 274.87249468 82.36825752 268.4586277 C80.08233961 266.91072221 77.86296748 265.7159408 75.34619141 264.59228516 C74.43272949 264.04701172 73.51926758 263.50173828 72.578125 262.93994141 C71.80807129 262.51583984 71.03801758 262.09173828 70.24462891 261.65478516 C69.35283936 261.15873779 68.4610498 260.66269043 67.54223633 260.15161133 C66.14581909 259.37974487 66.14581909 259.37974487 64.72119141 258.59228516 C55.17361993 253.26892845 45.81138922 247.69044866 36.53320312 241.91064453 C35.16252686 241.06276367 35.16252686 241.06276367 33.76416016 240.19775391 C32.95744873 239.69397217 32.1507373 239.19019043 31.31958008 238.67114258 C29.42855375 237.43238644 29.42855375 237.43238644 27.34619141 237.59228516 Z M-290.65380859 326.59228516 C-291.13920729 328.42397834 -291.61678045 330.25774575 -292.09130859 332.09228516 C-292.35814453 333.11322266 -292.62498047 334.13416016 -292.89990234 335.18603516 C-299.78511449 366.29435116 -290.9771301 397.74577109 -274.45068359 424.17041016 C-257.33199367 450.2983522 -230.16665056 468.37297963 -199.81054688 475.15185547 C-166.31264556 481.99249549 -135.92532135 474.51834763 -107.12792969 457.07861328 C-102.4774569 454.28484199 -97.78097571 451.56955574 -93.09130859 448.84228516 C-91.027398 447.63934631 -88.96359704 446.43621935 -86.89990234 445.23291016 C-85.86591309 444.63027344 -84.83192383 444.02763672 -83.76660156 443.40673828 C-77.73004396 439.88801702 -71.69499743 436.36670464 -65.65991211 432.84545898 C-60.63553608 429.91412976 -55.61034924 426.98420845 -50.58349609 424.05712891 C-40.69800043 418.2994064 -30.82044635 412.52854654 -20.96630859 406.71728516 C-19.694729 405.96886353 -19.694729 405.96886353 -18.39746094 405.20532227 C-16.76818553 404.24271295 -15.14774809 403.26492973 -13.53811646 402.26982117 C-10.65380859 400.59228516 -10.65380859 400.59228516 -7.34313965 399.06369019 C-0.4480519 395.70019437 -0.4480519 395.70019437 3.48774719 389.36624146 C3.85083711 385.40273219 3.8123341 381.5567984 3.61572266 377.59228516 C3.59143807 376.14648755 3.57295088 374.70058205 3.5599823 373.25463867 C3.51062175 369.47050213 3.38323912 365.69298068 3.23883057 361.91143799 C3.10519835 358.0442457 3.04633815 354.17597037 2.98095703 350.30712891 C2.84203524 342.73251588 2.62057195 335.16333125 2.34619141 327.59228516 C0.45784752 328.52692574 -1.42938509 329.4638117 -3.31616211 330.40161133 C-4.89277367 331.18383308 -4.89277367 331.18383308 -6.50123596 331.9818573 C-11.30894089 334.43777596 -15.9471019 337.15538587 -20.59130859 339.90478516 C-21.60056396 340.49799561 -22.60981934 341.09120605 -23.6496582 341.70239258 C-25.82865325 342.98324919 -28.006768 344.26560434 -30.18408203 345.54931641 C-33.82808532 347.6967915 -37.47883778 349.83264633 -41.13037109 351.96728516 C-55.83952434 360.55400889 -55.83952434 360.55400889 -70.46630859 369.27978516 C-83.08777628 376.89064704 -95.8576315 384.25561569 -108.62646484 391.61572266 C-109.20489639 391.9491568 -109.78332794 392.28259094 -110.37928772 392.62612915 C-113.1681296 394.23327329 -115.95787879 395.8388159 -118.7487793 397.44238281 C-119.76673584 398.02810059 -120.78469238 398.61381836 -121.83349609 399.21728516 C-122.81108887 399.77939697 -123.78868164 400.34150879 -124.79589844 400.9206543 C-128.38627264 403.02071342 -131.92048398 405.20701877 -135.44091797 407.42211914 C-140.46721071 410.07999879 -144.74161057 410.15406085 -150.11083984 408.57666016 C-156.382314 406.08856836 -162.00283167 402.32392872 -167.71630859 398.77978516 C-168.96848637 398.01021073 -170.22109723 397.24134057 -171.47412109 396.47314453 C-174.00753413 394.91891313 -176.53883809 393.36133815 -179.06835938 391.80078125 C-184.08313185 388.70875227 -189.11858475 385.65085674 -194.15380859 382.59228516 C-199.65832601 379.24452544 -205.16139236 375.89448815 -210.65710449 372.5322876 C-225.76152998 363.29460248 -240.97207024 354.28102804 -256.34375 345.4921875 C-259.86446879 343.47137074 -263.37540914 341.43435517 -266.88427734 339.39306641 C-268.66857418 338.35677016 -270.45301444 337.32072127 -272.23748779 336.284729 C-273.92382892 335.3044781 -275.60842239 334.32122262 -277.29296875 333.33789062 C-278.31567871 332.74508301 -279.33838867 332.15227539 -280.39208984 331.54150391 C-281.28968018 331.01903076 -282.18727051 330.49655762 -283.11206055 329.95825195 C-285.57594362 328.63413076 -288.0374559 327.57521941 -290.65380859 326.59228516 Z " fill="currentColor" transform="translate(691.65380859375,347.40771484375)"/>
</svg>
