<?xml version="1.0" encoding="UTF-8"?>
<svg version="1.1" xmlns="http://www.w3.org/2000/svg" width="1254" height="1254" viewBox="390.667 363.418 472.526 469.7">
<path d="M0 0 C1.05548844 0.94082358 2.10883308 1.88405968 3.15966797 2.83007812 C4.49637784 4.02698366 5.85544239 5.198797 7.21630859 6.36816406 C11.45358643 10.02246072 15.26830827 13.80996875 18.87646484 18.08691406 C20.64923157 20.17581752 22.49859811 22.17559391 24.35693359 24.18847656 C33.27162484 34.22614248 40.99880904 45.45883061 47.60693359 57.12597656 C48.02442871 57.85993652 48.44192383 58.59389648 48.87207031 59.35009766 C66.23634921 90.24563314 76.44271749 124.6350249 77.60693359 160.12597656 C77.63416504 160.87331055 77.66139648 161.62064453 77.68945312 162.390625 C79.16086357 208.16166948 65.9553172 254.01561054 40.60693359 292.12597656 C39.98069092 293.06860352 39.98069092 293.06860352 39.34179688 294.03027344 C25.39454353 314.76581709 7.78700063 333.39452763 -12.39306641 348.12597656 C-13.23869141 348.75503906 -14.08431641 349.38410156 -14.95556641 350.03222656 C-22.1252925 355.22084413 -29.73741903 359.70154572 -37.39306641 364.12597656 C-37.97652832 364.46773926 -38.55999023 364.80950195 -39.16113281 365.16162109 C-67.41618577 381.57890562 -101.72024247 391.35046062 -134.39306641 392.12597656 C-135.24271973 392.14644043 -136.09237305 392.1669043 -136.96777344 392.18798828 C-195.05104235 393.38507149 -253.81316849 375.44843334 -296.61376953 334.79467773 C-297.65366828 333.78723464 -298.68989058 332.77598466 -299.72265625 331.76123047 C-301.5605213 329.962046 -303.42408385 328.19153383 -305.28759766 326.41894531 C-314.69462565 317.36282511 -322.86779538 307.7933783 -330.39306641 297.12597656 C-330.80073242 296.55234375 -331.20839844 295.97871094 -331.62841797 295.38769531 C-364.29379083 248.79436347 -376.84896285 189.17722319 -367.94091797 133.24072266 C-357.74561809 75.27653556 -326.51404874 22.56632936 -278.39306641 -11.87402344 C-277.83071289 -12.27685547 -277.26835937 -12.6796875 -276.68896484 -13.09472656 C-196.49583672 -69.85508982 -84.43457755 -67.8719187 0 0 Z M-304.65332031 28.23388672 C-338.68083909 65.24108157 -356.2616117 114.44278241 -358.39306641 164.12597656 C-358.44720703 165.17140625 -358.50134766 166.21683594 -358.55712891 167.29394531 C-360.02562756 221.0276459 -337.4105325 274.07868076 -301.26806641 313.06347656 C-272.13106783 343.78435723 -235.74914491 364.31955265 -194.70556641 374.43847656 C-193.73345215 374.68106201 -192.76133789 374.92364746 -191.75976562 375.17358398 C-176.97596533 378.64555568 -162.14965143 379.53915307 -147.01806641 379.50097656 C-146.1973465 379.50043274 -145.37662659 379.49988892 -144.53103638 379.49932861 C-92.04122423 379.34069353 -43.59630678 359.78769641 -4.39306641 325.12597656 C-3.47654297 324.33191406 -2.56001953 323.53785156 -1.61572266 322.71972656 C3.57099082 318.16477818 8.20120198 313.43160229 12.60693359 308.12597656 C13.37779297 307.23136719 14.14865234 306.33675781 14.94287109 305.41503906 C44.14076471 271.18612377 64.53116251 225.18013983 64.81005859 179.67285156 C64.82064804 178.51195511 64.82064804 178.51195511 64.83145142 177.3276062 C64.94607012 161.06701885 65.05558362 145.09369862 61.60693359 129.12597656 C61.4188916 128.20848633 61.23084961 127.29099609 61.03710938 126.34570312 C53.54239164 90.55946936 36.91144419 57.40103846 12.60693359 30.12597656 C11.37766443 28.68856421 10.14848386 27.25107608 8.91943359 25.81347656 C2.10106775 18.10856196 -5.32500773 11.50217497 -13.39306641 5.12597656 C-13.90530762 4.71557129 -14.41754883 4.30516602 -14.9453125 3.88232422 C-22.75860546 -2.37071795 -30.76444316 -7.7830355 -39.39306641 -12.87402344 C-40.13645264 -13.33502441 -40.87983887 -13.79602539 -41.64575195 -14.27099609 C-68.9127479 -31.05850228 -103.36795969 -41.02835472 -135.39306641 -41.87402344 C-136.13669434 -41.8944873 -136.88032227 -41.91495117 -137.64648438 -41.93603516 C-201.74820927 -43.45539044 -260.60462124 -18.15969919 -304.65332031 28.23388672 Z " fill="currentColor" transform="translate(773.39306640625,428.8740234375)"/>
<path d="M0 0 C2.07531135 1.47069308 3.89223057 3.02737499 5.734375 4.78125 C6.435625 5.44253906 7.136875 6.10382813 7.859375 6.78515625 C15.22278513 14.35160159 17.8959679 21.84255473 18.234375 32.34375 C17.93065001 42.32617788 14.71752477 50.55833544 7.734375 57.78125 C-0.23661194 64.64898615 -8.93548848 68.5260193 -19.5625 68.125 C-30.25691752 66.76501627 -39.03577647 62.96511486 -46.04296875 54.6796875 C-51.81517901 46.69173882 -54.52784741 37.60956609 -53.265625 27.78125 C-51.52797801 19.64277907 -49.03786318 12.85948634 -43.265625 6.78125 C-42.74097656 6.22824219 -42.21632813 5.67523438 -41.67578125 5.10546875 C-30.61144081 -5.38612936 -13.34199063 -7.17707082 0 0 Z M-35.578125 16.03125 C-39.72562899 21.33146627 -41.87339752 27.01406873 -41.54296875 33.78125 C-40.51484351 41.19533622 -36.941411 46.93919528 -31.265625 51.78125 C-25.42355709 55.41388167 -19.79881949 56.48323675 -13.0078125 55.51171875 C-6.32496772 53.73153075 -0.97318953 50.44869263 2.796875 44.59375 C6.4068106 38.08044983 7.03008866 30.68350424 5.12109375 23.4609375 C2.39791525 17.34278316 -2.66001664 12.57211508 -8.625 9.609375 C-18.66847228 6.45964701 -28.42990821 8.41229698 -35.578125 16.03125 Z " fill="currentColor" transform="translate(644.265625,483.21875)"/>
<path d="M0 0 C6.25383307 4.80959275 9.80775879 12.10283237 10.98046875 19.81640625 C11.13981535 23.15993955 11.14796322 26.50124186 11.1574707 29.84814453 C11.1673275 31.35892326 11.1673275 31.35892326 11.17738342 32.90022278 C11.19707157 36.22905559 11.20876995 39.55784335 11.21875 42.88671875 C11.22282553 44.02682278 11.22690105 45.1669268 11.23110008 46.34157944 C11.2519431 52.37778287 11.26625171 58.4139637 11.27563477 64.45019531 C11.286687 70.66733278 11.32107878 76.88411116 11.36080647 83.1011219 C11.38702182 87.89686727 11.39533106 92.69252776 11.39891624 97.48833847 C11.40377052 99.77912696 11.4153512 102.06991194 11.43395424 104.36063004 C11.45844672 107.57680513 11.45736178 110.79205991 11.45043945 114.00830078 C11.46324951 114.94272507 11.47605957 115.87714935 11.48925781 116.83988953 C11.427266 124.79781313 9.38004519 131.87424495 5.23046875 138.69140625 C-1.9472752 145.47038665 -8.61643054 147.24681431 -18.3671875 147.15625 C-26.13133841 146.43381029 -31.79977517 142.83802764 -36.765625 136.953125 C-40.84624826 129.99953957 -41.45968941 123.86227241 -41.42358398 115.96923828 C-41.43044724 114.91124023 -41.43731049 113.85324219 -41.44438171 112.76318359 C-41.46260697 109.28339015 -41.45881786 105.80404945 -41.453125 102.32421875 C-41.45768908 99.89338027 -41.46299533 97.46254309 -41.4690094 95.03170776 C-41.47793234 89.94279735 -41.47552684 84.85404393 -41.46557617 79.76513672 C-41.45409242 73.25984621 -41.47429378 66.755099 -41.50349331 60.24987984 C-41.52188435 55.23111557 -41.52155692 50.21248078 -41.51585579 45.19369125 C-41.51570291 42.79603183 -41.52171976 40.39836345 -41.53414726 38.00073624 C-41.54910839 34.64093709 -41.53834126 31.28213239 -41.52124023 27.92236328 C-41.5309082 26.94230316 -41.54057617 25.96224304 -41.55053711 24.95248413 C-41.46213289 16.61252111 -39.46967448 9.3549918 -33.95703125 2.94140625 C-24.46268878 -5.69538271 -10.88409101 -6.37887733 0 0 Z M-27.6544342 14.81851196 C-29.66107351 19.22529939 -29.44577483 23.30593956 -29.42358398 28.09521484 C-29.43044724 29.12833298 -29.43731049 30.16145111 -29.44438171 31.22587585 C-29.46267377 34.63900521 -29.45880828 38.05167591 -29.453125 41.46484375 C-29.45768598 43.83989614 -29.4629913 46.2149472 -29.4690094 48.58999634 C-29.47794552 53.56819011 -29.47551197 58.5462235 -29.46557617 63.52441406 C-29.45409238 69.89893333 -29.47428702 76.27289816 -29.50349331 82.64734459 C-29.52185508 87.55275989 -29.52156273 92.45804238 -29.51585579 97.36348343 C-29.51570254 99.713383 -29.5217499 102.06329155 -29.53414726 104.41315842 C-29.54905247 107.70206023 -29.53838216 110.98993843 -29.52124023 114.27880859 C-29.5309082 115.24631546 -29.54057617 116.21382233 -29.55053711 117.21064758 C-29.48447442 123.27478335 -28.55191225 126.84592732 -25.01953125 131.81640625 C-21.34885302 135.06757839 -17.89167426 135.281886 -13.1640625 135.1015625 C-8.80679775 134.52218121 -6.63230182 132.49726244 -3.76953125 129.31640625 C-1.44202868 125.99140258 -0.89465914 123.50673565 -0.87908936 119.54777527 C-0.87337921 118.67725021 -0.86766907 117.80672516 -0.86178589 116.90982056 C-0.86066803 115.95755585 -0.85955017 115.00529114 -0.85839844 114.02416992 C-0.85343353 113.01899826 -0.84846863 112.0138266 -0.84335327 110.97819519 C-0.82872681 107.64691487 -0.82192877 104.31568218 -0.81640625 100.984375 C-0.81065514 98.67133075 -0.80489741 96.35828652 -0.7991333 94.04524231 C-0.7886219 89.19218727 -0.78278015 84.33914881 -0.77929688 79.48608398 C-0.77381226 73.26846229 -0.74978532 67.05105959 -0.72132492 60.83350658 C-0.70269829 56.05425884 -0.69749292 51.27506383 -0.695961 46.49578285 C-0.69293395 44.20366532 -0.68490368 41.91154872 -0.67177582 39.61946678 C-0.6547154 36.41175059 -0.6565958 33.20456936 -0.66308594 29.99682617 C-0.65387115 29.05063416 -0.64465637 28.10444214 -0.63516235 27.12957764 C-0.67831323 20.31903516 -1.94582879 16.14299925 -6.58203125 10.94140625 C-10.04746428 8.27103516 -13.3468712 8.16335623 -17.6171875 8.39453125 C-22.12455701 9.18606931 -24.8180794 11.3451057 -27.6544342 14.81851196 Z " fill="currentColor" transform="translate(642.01953125,579.18359375)"/>
</svg>
