<?xml version="1.0" encoding="UTF-8"?>
<svg version="1.1" xmlns="http://www.w3.org/2000/svg" width="1254" height="1254" viewBox="372.149 367.719 509.851 473.497">
<path d="M0 0 C0.7853714 -0.00979385 1.5707428 -0.01958771 2.37991333 -0.02967834 C60.73973754 -0.6071746 112.93036508 18.21340816 154.96875 59.36328125 C198.34690941 102.88592339 210.40363483 158.93428246 212.46875 218.23828125 C213.00242187 217.57183594 213.53609375 216.90539062 214.0859375 216.21875 C218.87449014 210.2951944 223.81499534 204.61490178 228.98046875 199.015625 C232.2657129 195.34873553 235.32398797 191.52025765 238.36328125 187.6484375 C240.57019583 185.12215495 242.67898155 183.10555438 245.46875 181.23828125 C248.78125 181.98828125 248.78125 181.98828125 251.46875 183.23828125 C252.2734375 186.34765625 252.2734375 186.34765625 252.46875 190.23828125 C250.90936786 192.69660133 249.570194 194.4303377 247.59375 196.48828125 C246.56406916 197.62666885 245.53543755 198.76600629 244.5078125 199.90625 C243.9912207 200.46747559 243.47462891 201.02870117 242.94238281 201.60693359 C240.84890102 203.92446927 238.91325144 206.35778035 236.96875 208.80078125 C233.33027127 213.27740954 229.50166001 217.52189111 225.57006836 221.73828125 C221.63829961 225.98090828 218.01582384 230.41107138 214.44140625 234.9609375 C211.68286881 238.14554607 209.72842246 240.02386892 205.53125 240.73828125 C201.36195251 240.05757962 200.22964787 238.40321295 197.46875 235.23828125 C196.38986531 234.19200768 195.30615806 233.15069354 194.21875 232.11328125 C191.36127153 229.26194789 188.80984453 226.25916378 186.28125 223.11328125 C182.83111591 218.82265453 179.2308447 214.75181631 175.46875 210.73828125 C169.40173692 204.25548146 163.40341541 197.64027937 158.46875 190.23828125 C158.62597521 187.09377701 159.05883173 185.67747939 161.21875 183.36328125 C163.46875 182.23828125 163.46875 182.23828125 165.72265625 182.23828125 C169.88118859 183.75262589 171.91628793 186.7380903 174.65625 190.11328125 C175.80744236 191.48794421 176.95979693 192.86163467 178.11328125 194.234375 C178.67998535 194.91483887 179.24668945 195.59530273 179.83056641 196.29638672 C182.801918 199.81861184 185.93441752 203.18772564 189.0546875 206.578125 C192.24118129 210.08945553 195.35529942 213.66220057 198.46875 217.23828125 C199.32341602 175.99955003 193.10596441 135.67972809 170.46875 100.23828125 C170.05012695 99.58069824 169.63150391 98.92311523 169.20019531 98.24560547 C158.0209141 80.91316169 144.68265357 65.99962854 128.46875 53.23828125 C127.09589844 52.14 127.09589844 52.14 125.6953125 51.01953125 C101.10873402 31.88915238 71.99520058 20.54953842 41.46875 15.23828125 C40.79231445 15.1196875 40.11587891 15.00109375 39.41894531 14.87890625 C-10.63898661 6.55655834 -63.3442149 20.83997371 -104.58447266 49.67382812 C-113.09915256 55.9020577 -120.90216871 62.96885665 -128.53125 70.23828125 C-129.30984375 70.96402344 -130.0884375 71.68976563 -130.890625 72.4375 C-149.86057037 90.6338483 -163.54564317 114.00826547 -172.38696289 138.55859375 C-172.73879639 139.50992188 -173.09062988 140.46125 -173.453125 141.44140625 C-173.75831055 142.29379883 -174.06349609 143.14619141 -174.37792969 144.02441406 C-175.73194162 146.62352079 -177.0129962 147.7669827 -179.53125 149.23828125 C-182.90161311 148.99754103 -184.11923021 148.65030104 -186.53125 146.23828125 C-186.85021983 139.46476903 -184.81737965 133.39159309 -182.09375 127.30078125 C-181.73958008 126.49012207 -181.38541016 125.67946289 -181.02050781 124.84423828 C-166.140168 91.38605878 -143.49891359 61.65224948 -113.53125 40.23828125 C-112.95761719 39.82562012 -112.38398438 39.41295898 -111.79296875 38.98779297 C-79.6637253 16.12865551 -39.81321008 0.41485302 0 0 Z " fill="#5e534a" transform="translate(617.53125,379.76171875)"/>
<path d="M0 0 C6.46212901 0.90696547 9.57958465 5.51509894 13.6171875 10.234375 C15.68918903 12.64754947 17.80648844 15.01380949 19.9375 17.375 C20.69804687 18.21804688 21.45859375 19.06109375 22.2421875 19.9296875 C23.39074219 21.20199219 23.39074219 21.20199219 24.5625 22.5 C26.80800935 24.99414706 29.05266211 27.48906137 31.296875 29.984375 C32.84667339 31.70518562 34.39887251 33.4238363 35.953125 35.140625 C37.48858474 36.83878246 39.01882553 38.54167835 40.54296875 40.25 C41.75547428 41.60087657 42.98282681 42.93894268 44.23828125 44.25 C46.55204851 46.75277924 47.52804982 48.28038008 48.0625 51.6875 C47.5625 54.5 47.5625 54.5 46.4375 56.375 C43.59042284 58.0832463 41.84462139 57.94917388 38.5625 57.5 C36.29419074 55.53951136 34.5289817 53.76611337 32.625 51.5 C32.09994873 50.90276123 31.57489746 50.30552246 31.03393555 49.69018555 C29.52834295 47.9725311 28.04417353 46.23827915 26.5625 44.5 C25.33455413 43.10309258 24.10564044 41.70703415 22.875 40.3125 C22.35035156 39.70535156 21.82570313 39.09820313 21.28515625 38.47265625 C18.4309327 35.20421432 15.50000397 32.00481205 12.578125 28.796875 C10.79106433 26.76045702 9.17289059 24.67580136 7.5625 22.5 C6.95851031 47.70030817 7.78206982 71.53940919 16.5625 95.5 C16.78663574 96.12132812 17.01077148 96.74265625 17.24169922 97.3828125 C29.34722658 130.59826089 52.338448 158.56405242 80.5625 179.5 C81.41457031 180.13550781 82.26664063 180.77101563 83.14453125 181.42578125 C126.51977792 212.71638208 179.10262928 224.87313348 231.76953125 216.72265625 C258.83279567 212.19607844 285.20856971 201.48379067 307.5625 185.5 C308.57957031 184.78457031 309.59664062 184.06914063 310.64453125 183.33203125 C317.57933722 178.30229393 323.93098572 172.79104034 330.11425781 166.88085938 C331.49984332 165.55974143 332.90191785 164.25598229 334.3046875 162.953125 C346.60584998 151.18679567 356.30882792 137.326113 364.5625 122.5 C364.91683105 121.87351562 365.27116211 121.24703125 365.63623047 120.6015625 C369.94487359 112.95562269 373.59254814 105.42361478 376.45703125 97.109375 C377.54632878 94.53817093 378.3441565 93.16515457 380.5625 91.5 C383.67696688 91.11069164 385.68870574 91.04900942 388.5 92.5 C390.24025746 95.77577874 389.34392348 99.0191464 388.5625 102.5 C387.31834265 106.06211323 385.78391684 109.45824548 384.1875 112.875 C383.74196777 113.83744629 383.29643555 114.79989258 382.83740234 115.79150391 C373.55803625 135.40213494 361.13235219 153.38437894 346.03710938 168.97412109 C345.01615211 170.03057522 344.00226855 171.09389417 342.99414062 172.16259766 C309.1445788 208.02412567 260.01918505 230.47844076 210.66748047 232.62597656 C171.68876651 233.64443808 134.95178055 226.0912755 100.5625 207.5 C99.9638916 207.18063477 99.3652832 206.86126953 98.74853516 206.53222656 C89.48781434 201.55985807 80.91742951 195.86174553 72.5625 189.5 C71.61503906 188.77901123 71.61503906 188.77901123 70.6484375 188.04345703 C56.13828582 176.88263568 42.51041247 164.23138222 31.5625 149.5 C31.15257812 148.95537109 30.74265625 148.41074219 30.3203125 147.84960938 C2.01730765 109.87501559 -5.16307172 68.6954348 -6.4375 22.5 C-7.25541016 23.51707031 -7.25541016 23.51707031 -8.08984375 24.5546875 C-12.63998906 30.1704224 -17.2970077 35.60516956 -22.16796875 40.9453125 C-25.36888498 44.54840925 -28.38359023 48.29238232 -31.39453125 52.0546875 C-36.67540109 58.37557569 -36.67540109 58.37557569 -40.5 59 C-43.4375 58.5 -43.4375 58.5 -45.375 56.875 C-46.82278842 53.63876706 -46.32204029 51.90696141 -45.4375 48.5 C-43.6875 46.11328125 -43.6875 46.11328125 -41.4375 43.8125 C-38.15528714 40.34909242 -35.04234002 36.85248942 -32.0625 33.125 C-28.38608617 28.57751948 -24.52130487 24.2746464 -20.53930664 19.99853516 C-16.63319521 15.77820212 -12.99234985 11.37450299 -9.41015625 6.875 C-4.2082483 0.61210884 -4.2082483 0.61210884 0 0 Z " fill="#5e534a" transform="translate(430.4375,596.5)"/>
</svg>
