<?xml version="1.0" encoding="UTF-8" standalone="no"?>
<svg
   version="1.0"
   width="489.004pt"
   height="434.85397pt"
   viewBox="0 0 489.004 434.85397"
   preserveAspectRatio="xMidYMid"
   id="svg6"
   xmlns="http://www.w3.org/2000/svg"
   xmlns:svg="http://www.w3.org/2000/svg">
  <defs
     id="defs6" />
  <g
     transform="matrix(0.1,0,0,-0.1,-288.996,737.92977)"
     fill="currentColor"
     stroke="none"
     id="g6">
    <path
       d="m 3332,7360 c -216,-57 -382,-230 -427,-445 -13,-60 -15,-307 -15,-1713 0,-1827 -4,-1714 68,-1857 46,-93 161,-208 253,-252 138,-67 59,-64 1764,-61 l 1540,3 78,28 c 147,51 256,143 321,266 55,106 66,172 66,382 0,181 -1,186 -23,207 -34,32 -89,30 -116,-4 -19,-25 -21,-40 -21,-199 0,-229 -19,-293 -114,-393 -50,-53 -104,-85 -177,-106 -50,-15 -205,-16 -1609,-14 l -1555,3 -58,23 c -119,48 -222,178 -247,311 -6,35 -10,629 -10,1670 0,1733 -1,1681 49,1779 48,92 136,167 239,201 62,21 65,21 1620,19 l 1557,-3 65,-32 c 72,-35 147,-104 185,-169 52,-89 55,-120 55,-634 0,-517 -1,-509 56,-530 29,-11 81,5 94,30 6,12 10,208 10,508 0,454 -1,494 -20,566 -28,110 -63,169 -155,262 -59,59 -98,90 -148,113 -133,63 -53,61 -1727,60 -1469,0 -1528,-1 -1598,-19 z"
       id="path1" />
    <path
       d="m 4783,6590 c -55,-22 -54,5 -51,-784 l 3,-728 24,-19 c 32,-26 74,-24 108,5 l 28,24 2,709 c 1,465 -2,719 -9,741 -7,24 -20,38 -44,48 -18,8 -35,14 -36,13 -2,0 -13,-4 -25,-9 z"
       id="path2" />
    <path
       d="m 4195,6155 -25,-24 v -521 -521 l 25,-24 c 15,-16 36,-25 55,-25 19,0 40,9 55,25 l 25,24 v 519 c 0,510 0,520 -21,546 -28,35 -80,36 -114,1 z"
       id="path3" />
    <path
       d="m 3632,5807 c -22,-23 -22,-28 -22,-374 v -352 l 26,-20 c 30,-23 71,-27 95,-8 37,28 39,49 39,392 v 336 l -25,24 c -32,33 -83,34 -113,2 z"
       id="path4" />
    <path
       d="m 6375,5666 c -229,-45 -406,-163 -529,-353 -93,-145 -132,-289 -123,-467 6,-130 23,-201 76,-311 207,-434 762,-586 1160,-316 33,23 64,41 68,41 4,0 150,-142 323,-315 296,-296 317,-315 351,-315 46,0 79,33 79,80 0,32 -26,60 -319,355 l -320,320 25,30 c 13,17 42,66 64,110 111,226 111,486 1,710 -99,199 -293,358 -511,416 -97,26 -254,33 -345,15 z m 290,-171 c 287,-73 485,-324 485,-615 0,-349 -283,-630 -635,-630 -339,0 -612,257 -632,595 -18,301 177,568 469,645 90,23 232,26 313,5 z"
       id="path5" />
    <path
       d="m 4996,4838 c -16,-15 -48,-85 -94,-208 -143,-381 -287,-750 -292,-750 -3,0 -60,108 -128,240 -68,132 -133,249 -145,260 -23,22 -54,25 -89,9 -13,-6 -62,-64 -110,-130 l -88,-119 h -349 c -337,0 -349,-1 -375,-21 -33,-26 -37,-88 -6,-119 19,-19 33,-20 406,-20 241,0 392,4 404,10 11,6 45,46 76,90 32,44 62,79 67,77 5,-1 69,-117 142,-257 73,-140 143,-262 155,-272 30,-24 74,-23 104,5 26,22 103,210 276,668 44,115 83,216 88,225 10,18 4,34 161,-431 45,-132 88,-250 96,-262 17,-26 54,-38 90,-29 14,4 55,42 96,91 l 71,85 h 178 179 l 20,26 c 28,36 27,79 -4,109 -24,25 -24,25 -236,25 h -212 l -43,-47 c -24,-26 -45,-45 -47,-42 -2,2 -52,146 -112,319 -137,400 -160,459 -182,476 -27,20 -69,17 -97,-8 z"
       id="path6" />
  </g>
</svg>
