<?xml version="1.0" encoding="UTF-8"?>
<svg version="1.1" xmlns="http://www.w3.org/2000/svg" width="1254" height="1254" viewBox="329.75 363.6 599.75 498.65">
<path d="M0 0 C413.82 0 827.64 0 1254 0 C1254 413.82 1254 827.64 1254 1254 C840.18 1254 426.36 1254 0 1254 C0 840.18 0 426.36 0 0 Z " fill="#FCF7F3" transform="translate(0,0)"/>
<path d="M0 0 C0.92425781 0.46664063 1.84851563 0.93328125 2.80078125 1.4140625 C21.54891367 11.14374579 38.84145183 24.38014404 54 39 C54.69319336 39.66596191 55.38638672 40.33192383 56.10058594 41.01806641 C65.86862005 50.45152115 75.08124968 59.9522138 83 71 C83.44891602 71.62052246 83.89783203 72.24104492 84.36035156 72.88037109 C107.14871388 104.57864865 130 146.96113947 130 187 C123.4 188.32 116.8 189.64 110 191 C108.75043269 187.25129808 107.73251388 184.11525494 107.02734375 180.33203125 C99.55159933 142.16620458 84.0230492 106.895098 59 77 C58.49936035 76.39784668 57.9987207 75.79569336 57.48291016 75.17529297 C20.61257091 30.97482042 -32.71498889 1.74096201 -90 -5 C-90.7204248 -5.0928125 -91.44084961 -5.185625 -92.18310547 -5.28125 C-151.30334008 -12.18868405 -212.26055381 5.77417341 -258.9453125 42.3046875 C-273.27851657 53.84311641 -286.76107592 66.39520193 -298 81 C-298.42104004 81.53931152 -298.84208008 82.07862305 -299.27587891 82.63427734 C-336.31156962 130.29795379 -352.16383633 191.14848628 -344.8125 250.875 C-338.68815033 295.02493917 -319.60006726 336.69992433 -290 370 C-289.4121875 370.69738281 -288.824375 371.39476562 -288.21875 372.11328125 C-252.08398536 414.89046586 -197.06488472 441.79506328 -141.7421875 447.60546875 C-134.44340864 448.20218306 -127.1311391 448.24400703 -119.8125 448.25 C-118.69374985 448.25101212 -118.69374985 448.25101212 -117.55239868 448.25204468 C-77.54372896 448.1949329 -37.31256672 438.0330768 -3.35302734 416.45410156 C1.28432271 413.59956179 4.38544411 412.3137765 10 413 C13.156814 414.19125057 15.27820564 415.08135264 17.375 417.75 C18.50964245 421.83471282 18.64318349 425.45131506 17.00390625 429.3984375 C14.14673159 433.10775197 10.68057465 434.93748941 6.625 437.1875 C5.78646484 437.6609082 4.94792969 438.13431641 4.08398438 438.62207031 C-25.50547437 455.08134363 -57.21542353 466.30982333 -91 470 C-91.81654053 470.0928125 -92.63308105 470.185625 -93.47436523 470.28125 C-101.32941328 471.09276682 -109.17019987 471.24304664 -117.0625 471.25 C-117.75842255 471.25067474 -118.45434509 471.25134949 -119.1713562 471.25204468 C-177.11195777 471.16375204 -233.89064176 450.72836962 -278 413 C-279.15575952 412.02936359 -280.3120394 411.05934655 -281.46875 410.08984375 C-291.06096485 402.01124157 -299.83898202 393.71990194 -307.6640625 383.87109375 C-309.51775919 381.59272073 -311.4155455 379.41140026 -313.375 377.2265625 C-317.06916362 373.0242411 -320.25125641 368.57361187 -323.375 363.9375 C-323.93662842 363.10822998 -324.49825684 362.27895996 -325.0769043 361.42456055 C-347.9468509 327.39583194 -364.3312605 288.1517647 -368 247 C-368.0839502 246.06196533 -368.16790039 245.12393066 -368.25439453 244.1574707 C-373.56813129 180.86316617 -355.66663413 116.67478538 -315.375 67.0625 C-313.92484488 65.36796688 -312.46599956 63.68084433 -311 62 C-310.05537662 60.87530357 -309.11280068 59.74888551 -308.171875 58.62109375 C-298.68126341 47.29998525 -288.63229962 37.16295965 -277 28 C-275.92991843 27.12891838 -274.86094884 26.25646935 -273.79296875 25.3828125 C-264.96290437 18.21821876 -255.71266918 11.90772832 -246 6 C-245.2992334 5.57332031 -244.5984668 5.14664063 -243.87646484 4.70703125 C-216.12139152 -11.9549846 -184.81896828 -21.78423293 -153 -27 C-152.21238281 -27.13132324 -151.42476562 -27.26264648 -150.61328125 -27.39794922 C-99.28035123 -35.49537822 -45.54498866 -23.96040469 0 0 Z " fill="#000000" transform="translate(698,391)"/>
<path d="M0 0 C3.40585732 2.89497872 4.31777735 5.41586619 4.86455154 9.77845383 C5.16289592 14.67172347 4.72991197 19.56583024 4.43115234 24.45166016 C4.2882869 27.02586836 4.14814627 29.60022885 4.01034546 32.17471313 C3.97409018 32.8495453 3.93783491 33.52437747 3.90048099 34.21965909 C3.40293704 43.70873436 3.13140518 53.20671704 2.85420799 62.70435524 C2.62272135 70.41342925 2.31100818 78.10361821 1.81103516 85.80029297 C-1.69005552 119.46146582 -1.69005552 119.46146582 9.13955688 149.60928345 C18.71845335 159.13934452 30.69752948 165.20294316 42.92341614 170.64347839 C49.64948755 173.66133073 55.45801193 177.65573049 61.4375 181.9375 C63.24450945 183.14820201 65.05506319 184.35365323 66.87109375 185.55078125 C76.88506708 192.25292627 86.78567197 199.14298269 96.5 206.2734375 C97.1496875 206.74958496 97.799375 207.22573242 98.46875 207.71630859 C100.4128247 209.34608295 100.92919014 210.48511114 101.2734375 212.98828125 C101.46972622 217.48027315 101.51482633 219.34969305 98.625 223 C94.49278268 226.14835605 92.46183845 226.20280704 87.43655396 225.56448364 C83.3176489 224.61024476 80.2730996 222.42806156 76.87109375 219.99609375 C76.12756149 219.48594727 75.38402924 218.97580078 74.6179657 218.45019531 C72.21306115 216.79515072 69.82562828 215.11663684 67.4375 213.4375 C65.76998337 212.2840564 64.10118996 211.13245652 62.43115234 209.98266602 C59.12330856 207.70358989 55.82075258 205.41717274 52.52197266 203.125 C46.77884501 199.1437143 40.95948728 195.28355438 35.125 191.4375 C26.31692242 185.59989738 17.62792216 179.60459535 8.98193359 173.52978516 C2.63434645 169.08413844 -3.80476859 164.87543734 -10.453125 160.89453125 C-13.31745092 158.76385936 -14.42788709 157.18912644 -16 154 C-16.37752342 151.08735657 -16.37752342 151.08735657 -16.38095093 147.8137207 C-16.3894104 146.56877838 -16.39786987 145.32383606 -16.40658569 144.04116821 C-16.40075333 142.66937124 -16.39460885 141.29757557 -16.38818359 139.92578125 C-16.39225056 138.47504278 -16.39759314 137.0243074 -16.40411377 135.57357788 C-16.41777845 131.639702 -16.4124923 127.70606242 -16.40297651 123.77218246 C-16.3953755 119.65320962 -16.40242675 115.53425685 -16.40713501 111.4152832 C-16.41259128 104.49849825 -16.40540435 97.58180942 -16.39111328 90.66503906 C-16.37478698 82.67096789 -16.38007558 74.67712626 -16.3965925 66.68306065 C-16.41021105 59.81667651 -16.41212523 52.95036144 -16.40427649 46.08396816 C-16.399602 41.98421402 -16.39896895 37.88456774 -16.40888596 33.78482056 C-16.41755875 29.93026623 -16.4115282 26.07600756 -16.39420319 22.22148514 C-16.39023999 20.80776078 -16.39136957 19.3940115 -16.39799118 17.98029709 C-16.40620247 16.04896693 -16.39407427 14.11758233 -16.38095093 12.1862793 C-16.37981985 11.10597946 -16.37868877 10.02567963 -16.37752342 8.91264343 C-15.94566415 5.5807917 -14.9630535 3.70172422 -13 1 C-8.8684502 -1.85313992 -4.66597606 -1.31230577 0 0 Z " fill="#000000" transform="translate(582,457)"/>
<path d="M0 0 C2.57124583 2.49562095 3.03482789 3.4570587 3.5625 7 C3.48648257 11.63706322 1.1791517 14.93288643 -1.08984375 18.859375 C-14.31936562 42.59724794 -18.67661443 69.62396648 -11.875 96.0625 C-4.89552758 120.2791543 9.27478928 139.80404048 31.46044922 152.24414062 C43.84491182 158.79186718 56.50199949 161.75449014 70.42163086 162.86254883 C75.08758049 163.30378581 77.47448073 163.5461759 81.23046875 166.52734375 C83.63715601 169.74783866 84.60785584 171.86727722 84.5234375 175.953125 C81.60884994 191.38329441 62.94665816 206.82282809 50.7199707 215.44238281 C26.49205748 231.84761235 -2.70208772 238.90217236 -31.65478516 233.93066406 C-60.36616641 228.34005387 -84.52828545 213.07975483 -101.0625 188.8125 C-118.00297321 163.07058852 -123.57540533 132.22623607 -117.9765625 102.02734375 C-112.95921202 77.96228891 -101.71121279 56.69333858 -85.875 38.0625 C-85.33875 37.4025 -84.8025 36.7425 -84.25 36.0625 C-70.27201017 19.04581673 -22.61034843 -15.23740873 0 0 Z M-65.875 46.0625 C-66.56207031 46.68640625 -67.24914062 47.3103125 -67.95703125 47.953125 C-87.85616493 66.63554637 -98.36441987 95.04413606 -100.12109375 121.8125 C-100.57724092 145.85413905 -93.08411991 169.11779555 -76.875 187.0625 C-76.21113281 187.81917969 -75.54726563 188.57585937 -74.86328125 189.35546875 C-60.88547187 204.36675757 -40.56922907 213.54553445 -20.18359375 214.44921875 C9.96567656 215.18849091 31.82671399 206.29283953 54.10546875 186.1640625 C56.35596481 184.30792541 56.35596481 184.30792541 56.125 182.0625 C55.155625 181.85496094 54.18625 181.64742187 53.1875 181.43359375 C33.60059945 177.02037397 16.19707913 168.46485101 1.125 155.0625 C-0.10669922 153.99128906 -0.10669922 153.99128906 -1.36328125 152.8984375 C-22.08818861 133.66096368 -34.01265511 104.21610924 -35.09375 76.2265625 C-35.51648492 59.00131099 -32.8906042 43.74927623 -27.08203125 27.5625 C-25.7663256 24.36442714 -25.7663256 24.36442714 -25.875 22.0625 C-40.10392928 22.0625 -56.43174452 37.02006182 -65.875 46.0625 Z " fill="#000000" transform="translate(844.875,607.9375)"/>
</svg>
