<?xml version="1.0" encoding="UTF-8"?>
<svg
  version="1.1"
  xmlns="http://www.w3.org/2000/svg"
  width="1254"
  height="1254"
  viewBox="390 342 470 510"
>
  <path
    d="M0 0 C1.40654594 -0.00855011 1.40654594 -0.00855011 2.84150696 -0.01727295 C4.82409556 -0.02668044 6.8066995 -0.03323993 8.78930664 -0.03710938 C11.74720639 -0.04670127 14.70437559 -0.07771768 17.66210938 -0.109375 C34.59888732 -0.20449959 51.23291925 1.39325393 67.61328125 5.890625 C69.03543945 6.27516846 69.03543945 6.27516846 70.48632812 6.66748047 C93.4146279 13.06988444 115.89511967 23.0216412 135.11328125 37.203125 C136.12777344 37.9353125 137.14226562 38.6675 138.1875 39.421875 C178.95448395 69.41508129 207.41032911 114.93346218 215.31591797 165.09448242 C215.60985588 167.12800734 215.86504629 169.16355334 216.11328125 171.203125 C216.21116943 171.8849585 216.30905762 172.56679199 216.40991211 173.26928711 C217.11878241 178.88749354 217.11314883 184.39491443 217.0078125 190.04296875 C216.38896242 215.16369858 216.38896242 215.16369858 228.06152344 236.63818359 C231.98012711 241.53690446 235.31048698 246.85709609 238.74819946 252.09887695 C240.041309 254.0637321 241.34585953 256.02042473 242.6550293 257.97460938 C247.80481743 265.66330651 252.8578017 273.40196552 257.73828125 281.265625 C258.26413818 282.10915527 258.78999512 282.95268555 259.33178711 283.82177734 C264.60761911 292.41315923 266.21446628 298.96789991 265.11328125 309.203125 C262.96563327 315.54617835 257.9266531 320.10718907 252.11328125 323.203125 C241.26340724 327.19704286 228.57597671 328.27598293 217.11328125 328.203125 C217.123274 329.56923164 217.123274 329.56923164 217.13346863 330.9629364 C217.19388549 339.59723505 217.23940986 348.23146144 217.26871777 356.86592388 C217.28429238 361.3036936 217.30537832 365.74128687 217.33959961 370.17895508 C217.3724888 374.47134417 217.39019574 378.76356484 217.39791298 383.05607033 C217.40340398 384.68372049 217.41412447 386.31136272 217.43047142 387.93894005 C217.60744353 406.31020948 214.45613308 422.24087129 201.49633789 436.03735352 C190.04519826 447.59236708 175.22161579 453.10783805 159.1262207 453.44262695 C156.99301514 453.45032138 154.85976624 453.44959121 152.7265625 453.44140625 C150.38345766 453.45681237 148.04035857 453.47311498 145.69726562 453.49023438 C142.05024378 453.50672115 138.40364812 453.51558229 134.7565918 453.50854492 C131.20443665 453.50592235 127.65354798 453.53404195 124.1015625 453.56640625 C122.47629387 453.55109612 122.47629387 453.55109612 120.81819153 453.53547668 C114.0903113 453.62203877 109.20693827 454.58843557 104.11328125 459.203125 C99.55027704 465.13558903 98.99030071 470.58878042 99.11328125 477.828125 C99.15598276 484.2312521 99.07865539 490.61796623 98.80078125 497.015625 C98.77822266 497.77375488 98.75566406 498.53188477 98.73242188 499.31298828 C98.52540779 503.47491234 98.20765147 506.27161637 95.11328125 509.203125 C91.28347642 510.47972661 89.57829571 510.38737601 85.80078125 508.890625 C83.11328125 507.203125 83.11328125 507.203125 82.11328125 505.203125 C81.9773975 502.42659834 81.90048902 499.67651479 81.875 496.8984375 C81.86692825 496.06408173 81.85885651 495.22972595 81.85054016 494.37008667 C81.83668789 492.59635498 81.82597086 490.82259651 81.81811523 489.04882812 C81.8066728 487.25284905 81.78634593 485.45690186 81.7565918 483.66113281 C81.54287408 470.76165659 81.68497618 458.40267011 90.36328125 447.9453125 C98.75436193 439.591692 109.57660028 435.7766711 121.25924683 435.70007324 C122.34287506 435.71139282 123.4265033 435.7227124 124.54296875 435.734375 C125.695159 435.72732544 126.84734924 435.72027588 128.03445435 435.7130127 C132.91160163 435.68379117 137.78833705 435.70009765 142.66552734 435.71240234 C168.40441132 435.94793382 168.40441132 435.94793382 190.11328125 423.203125 C197.96040233 414.15245774 200.32105899 403.30217504 200.17919922 391.56469727 C200.17452637 390.82404022 200.16985352 390.08338318 200.16503906 389.32028198 C200.15458349 387.72104454 200.1419367 386.12182021 200.12731552 384.52261543 C200.10518689 381.98723755 200.09117665 379.45193557 200.07962036 376.91648865 C200.04612567 369.71074091 200.00442823 362.50511911 199.94189453 355.29956055 C199.90414959 350.88359331 199.88119544 346.46775374 199.86758804 342.05164909 C199.85956022 340.37437308 199.84598891 338.6971137 199.82665634 337.01992989 C199.80003794 334.67011033 199.79227197 332.32089943 199.78857422 329.97094727 C199.77621735 329.2855336 199.76386047 328.60011993 199.75112915 327.89393616 C199.77177043 322.8944005 200.8200297 319.55768667 203.11328125 315.203125 C207.37710978 312.25995812 211.68507026 311.60950029 216.7421875 311.140625 C217.45430893 311.06320068 218.16643036 310.98577637 218.90013123 310.90600586 C221.92055846 310.57783758 224.94349858 310.27648594 227.96655273 309.97363281 C230.18459098 309.74746305 232.40075273 309.50692768 234.6171875 309.265625 C235.29439346 309.2030249 235.97159943 309.1404248 236.66932678 309.07592773 C240.81732791 308.62178439 243.83594416 307.83813917 247.11328125 305.203125 C248.24466015 303.39065398 248.24466015 303.39065398 248.11328125 301.203125 C245.05929544 292.9362748 239.90036181 285.36947675 235.11328125 278.015625 C234.10841675 276.45545654 234.10841675 276.45545654 233.08325195 274.86376953 C228.87705559 268.36392979 224.59523334 261.9170009 220.28125 255.48828125 C219.78569611 254.74892838 219.29014221 254.0095755 218.77957153 253.24781799 C216.32488179 249.58720405 213.86318519 245.93166817 211.38867188 242.28442383 C210.47770567 240.93191041 209.56689136 239.57929466 208.65625 238.2265625 C208.03377632 237.31699547 208.03377632 237.31699547 207.39872742 236.38905334 C200.42442966 225.98784433 199.95546261 216.24218551 200.17578125 204.015625 C200.54355752 152.78526691 183.00133336 106.98086416 147.11328125 70.203125 C111.59543216 34.56467201 61.23791446 17.33209968 11.55078125 16.953125 C-37.50340386 17.32834525 -83.86623577 35.22571201 -120.88671875 67.203125 C-121.68311768 67.87988281 -121.68311768 67.87988281 -122.49560547 68.5703125 C-129.47549708 74.52023625 -135.25419451 80.98514949 -140.88671875 88.203125 C-141.86898437 89.38648438 -141.86898437 89.38648438 -142.87109375 90.59375 C-177.46603141 132.38443469 -189.74591908 186.57417724 -185.41796875 239.8046875 C-180.23278873 291.39909689 -155.71321271 335.72550007 -118.71801758 371.17993164 C-108.71813654 380.79291705 -99.12034864 391.29649785 -93.94921875 404.390625 C-93.67255371 405.05642578 -93.39588867 405.72222656 -93.11083984 406.40820312 C-88.81933428 416.98524714 -86.79859264 427.32154186 -86.7097168 438.7331543 C-86.7031456 439.4383017 -86.6965744 440.1434491 -86.68980408 440.8699646 C-86.67030405 443.17242576 -86.65846894 445.47482286 -86.6484375 447.77734375 C-86.64436197 448.56914347 -86.64028645 449.36094318 -86.63608742 450.17673683 C-86.61533851 454.35813755 -86.60098207 458.53950643 -86.59155273 462.72094727 C-86.58043695 467.0318318 -86.54594666 471.3422075 -86.50638103 475.65291119 C-86.48024775 478.97893737 -86.47186447 482.30484064 -86.46827126 485.63096046 C-86.46340649 487.22057392 -86.45179554 488.81018193 -86.43323326 490.39969444 C-86.4088826 492.62063922 -86.40979702 494.8402419 -86.41674805 497.0612793 C-86.41088181 498.32288376 -86.40501556 499.58448822 -86.39897156 500.88432312 C-86.97420409 504.79840574 -88.10809093 506.43855698 -90.88671875 509.203125 C-93.96777406 510.38814627 -95.41215545 510.34659763 -98.57421875 509.390625 C-100.88671875 508.203125 -100.88671875 508.203125 -102.88671875 506.203125 C-103.14500427 503.33688354 -103.14500427 503.33688354 -103.15795898 499.62060547 C-103.1657991 498.60533279 -103.1657991 498.60533279 -103.17379761 497.56954956 C-103.18405542 496.09525755 -103.18982111 494.62092915 -103.191679 493.14660263 C-103.19534745 490.79793352 -103.21209602 488.44968502 -103.23243713 486.10110474 C-103.28773973 479.4214877 -103.31822566 472.74180392 -103.34301758 466.06201172 C-103.35910043 461.97465827 -103.38955103 457.88759127 -103.42778206 453.80038834 C-103.43927638 452.2562177 -103.44536102 450.71199524 -103.44546318 449.16778183 C-103.44666496 435.81210371 -104.04111877 421.71360672 -110.63671875 409.765625 C-110.94609375 409.15009766 -111.25546875 408.53457031 -111.57421875 407.90039062 C-117.8345615 395.9386643 -127.9174391 387.00876987 -137.47851562 377.7277832 C-180.52006029 335.85185134 -202.95621294 278.71878131 -204.12353516 218.99707031 C-204.47043331 158.63679201 -181.31301603 102.84176481 -139.07421875 60.078125 C-115.94470957 37.06587872 -87.71687015 20.6924354 -56.88671875 10.203125 C-56.15533691 9.95336914 -55.42395508 9.70361328 -54.67041016 9.44628906 C-37.21822622 3.61676642 -18.40639194 0.08918061 0 0 Z"
    fill="currentColor"
    transform="translate(594.88671875,341.796875)"
  />
  <path
    d="M0 0 C11.17129893 6.09834193 18.14158108 15.09940889 22.01171875 27.1484375 C24.15963982 38.43515483 22.13699142 48.56451451 16.67578125 58.51171875 C9.41088788 67.59283547 2.13331386 73.50025552 -9.57421875 75.32421875 C-9.9788828 84.73050378 -10.25538049 94.12980064 -10.37474728 103.54405403 C-10.43410125 107.9179397 -10.53513782 112.28202434 -10.73657227 116.65185547 C-12.31001783 135.30394541 -12.31001783 135.30394541 -6.39019775 152.2286377 C-1.05829994 156.88526543 4.88050422 159.61511499 11.45423889 162.0980072 C16.30105026 164.09805141 20.55392691 166.9602737 24.92578125 169.82421875 C26.62498229 170.88442206 28.32650922 171.94091489 30.03125 172.9921875 C30.89411621 173.52634277 31.75698242 174.06049805 32.64599609 174.61083984 C41.21304029 179.89131729 49.8220271 185.10384396 58.42578125 190.32421875 C59.01963623 189.91792236 59.61349121 189.51162598 60.2253418 189.09301758 C61.017229 188.55700928 61.80911621 188.02100098 62.625 187.46875 C63.40447998 186.93870361 64.18395996 186.40865723 64.98706055 185.86254883 C74.44497426 179.89655481 83.31110185 178.35325498 94.42578125 179.32421875 C106.0167822 182.00913987 114.59681931 188.42963323 120.92578125 198.44921875 C126.34828208 207.81249054 126.98031153 219.08152084 124.73828125 229.52734375 C121.22898678 239.99673891 114.27603475 248.32566924 104.55078125 253.57421875 C93.79955942 258.55547983 83.43953813 258.23638061 72.42578125 254.32421875 C61.04665185 249.38542332 55.03734234 241.70625648 50.42578125 230.32421875 C47.45419606 221.83202806 48.61920191 213.10939368 49.42578125 204.32421875 C48.68118652 203.8866626 47.9365918 203.44910645 47.16943359 202.99829102 C22.72970606 188.62053574 22.72970606 188.62053574 15.30078125 183.76171875 C9.26771725 179.84214851 3.20214909 175.97599336 -2.92205811 172.20022583 C-4.60909879 171.15384985 -6.28442013 170.08865476 -7.95947266 169.02319336 C-8.99894043 168.38647705 -10.0384082 167.74976074 -11.109375 167.09375 C-12.50748413 166.22133667 -12.50748413 166.22133667 -13.93383789 165.33129883 C-16.5309388 164.0498506 -16.5309388 164.0498506 -19.14331055 164.98217773 C-21.46654687 166.26477592 -23.71563121 167.56999397 -25.93359375 169.02734375 C-26.78687256 169.58542725 -27.64015137 170.14351074 -28.51928711 170.71850586 C-29.44491455 171.33089111 -30.37054199 171.94327637 -31.32421875 172.57421875 C-32.29689697 173.21302979 -33.2695752 173.85184082 -34.27172852 174.51000977 C-48.75373602 184.04220179 -63.16178274 193.68731363 -77.57421875 203.32421875 C-77.47028809 204.31131836 -77.47028809 204.31131836 -77.36425781 205.31835938 C-75.8299647 220.20264056 -76.40843617 231.85097217 -85.57421875 244.32421875 C-92.39548084 251.96470104 -102.45353434 256.46157289 -112.57421875 257.32421875 C-124.42847227 257.46027905 -134.43497381 253.17270607 -143.13671875 245.19921875 C-150.09423049 238.01081613 -153.45675609 228.5018578 -153.94921875 218.63671875 C-153.63980563 207.42908779 -149.28882545 197.40004449 -141.57421875 189.32421875 C-131.41462308 181.14259746 -121.51548484 178.18929651 -108.57421875 179.32421875 C-101.89947328 180.46682853 -96.95341057 183.04405669 -91.58203125 187.1171875 C-89.39330098 188.66770621 -89.39330098 188.66770621 -85.57421875 188.32421875 C-83.20442711 186.97039666 -81.01220759 185.58439504 -78.7734375 184.0390625 C-78.10815536 183.59085648 -77.44287323 183.14265045 -76.75743103 182.68086243 C-74.58652729 181.21600174 -72.42429658 179.73883638 -70.26171875 178.26171875 C-68.0242201 176.74815097 -65.7845575 175.23782131 -63.54486084 173.72750854 C-62.04432608 172.71519453 -60.54453058 171.70178387 -59.04547119 170.68728638 C-52.47638418 166.24365152 -45.85242345 161.89082624 -39.19921875 157.57421875 C-38.25651123 156.9618335 -37.31380371 156.34944824 -36.3425293 155.71850586 C-34.72972686 154.67117461 -33.11645644 153.62456315 -31.50244141 152.57910156 C-29.85240805 151.5052637 -28.21226732 150.41625113 -26.57421875 149.32421875 C-26.13312166 146.12910212 -26.13312166 146.12910212 -26.23364258 142.30419922 C-26.2332045 141.58214294 -26.23276642 140.86008667 -26.23231506 140.1161499 C-26.23440876 137.72429567 -26.25776618 135.33313835 -26.28125 132.94140625 C-26.28684391 131.28517032 -26.29111498 129.62892943 -26.29411316 127.97268677 C-26.30557812 123.60941915 -26.33505927 119.24645023 -26.3682251 114.88330078 C-26.39889057 110.4326583 -26.41261094 105.98196764 -26.42773438 101.53125 C-26.45992759 92.79543571 -26.5111436 84.05986436 -26.57421875 75.32421875 C-27.38391113 75.00606201 -28.19360352 74.68790527 -29.02783203 74.36010742 C-30.63247314 73.71392456 -30.63247314 73.71392456 -32.26953125 73.0546875 C-33.85531982 72.42276489 -33.85531982 72.42276489 -35.47314453 71.77807617 C-44.95507854 67.33271977 -51.02972754 59.02590688 -54.68359375 49.40234375 C-57.96342124 38.06679963 -56.68022993 27.05357648 -51.38671875 16.57421875 C-40.80927987 -0.73147267 -18.7889632 -8.12572763 0 0 Z M-34.88671875 20.57421875 C-39.22854904 26.13460086 -41.21837708 31.95897912 -40.9140625 39.03125 C-39.83388722 46.31932921 -36.41128764 51.33089465 -30.71875 55.8828125 C-25.29538536 59.5280248 -20.13620651 61.0149543 -13.57421875 60.32421875 C-6.28041285 58.76404636 -0.54812294 55.69016319 3.7109375 49.4375 C7.16855313 43.12952023 8.1416506 37.29427188 6.42578125 30.32421875 C4.13917667 23.59891116 -0.11723967 18.50169447 -6.19921875 14.82421875 C-16.34384732 10.4032133 -27.46221138 12.6607804 -34.88671875 20.57421875 Z M-134.57421875 205.32421875 C-138.41331075 211.51630263 -138.51007148 218.18172011 -137.57421875 225.32421875 C-135.25267827 231.52491449 -130.55851591 236.30767651 -124.66015625 239.29296875 C-117.71969917 242.18705896 -111.71542812 241.86461199 -104.71484375 239.29296875 C-98.22379863 236.35541548 -95.05828547 231.73183701 -92.57421875 225.32421875 C-90.5988686 218.48244307 -91.42369339 212.59965544 -94.57421875 206.32421875 C-98.31817891 200.5380985 -103.05447955 197.54491594 -109.57421875 195.32421875 C-120.02808853 193.65286099 -128.09053796 197.12527849 -134.57421875 205.32421875 Z M67.80078125 205.32421875 C63.98611258 210.87282773 63.76057864 216.78652436 64.42578125 223.32421875 C66.51015922 229.90646496 70.00320948 235.07387089 75.98828125 238.63671875 C81.77355019 241.47675987 87.43419613 242.56694576 93.734375 240.60546875 C100.26074248 237.87606043 105.52924008 234.61140651 108.80078125 228.13671875 C111.4109875 221.52346511 111.45493076 215.28702705 108.92578125 208.63671875 C105.9892169 202.76359005 101.37200931 198.79733278 95.55078125 195.88671875 C84.03582272 193.81402621 75.24321265 195.9522681 67.80078125 205.32421875 Z"
    fill="currentColor"
    transform="translate(616.57421875,421.67578125)"
  />
  <path
    d="M0 0 C3.31669279 2.45146858 4.76080628 3.95624559 5.6875 8 C4.75121824 12.08559311 2.25712873 13.64952284 -1 16 C-3.34012967 17.42069728 -5.67828773 18.78567782 -8.0625 20.125 C-33.27009911 34.89381208 -48.42552547 58.8193152 -57.140625 86.37890625 C-60.05746081 98.66939167 -60.16302392 110.36086048 -59.73266602 122.88598633 C-59.66025037 125.13372048 -59.61903291 127.38034969 -59.58203125 129.62890625 C-59.54995071 130.3111879 -59.51787018 130.99346954 -59.4848175 131.69642639 C-59.4456294 135.35795862 -59.76237166 136.74572078 -62.29956055 139.46069336 C-65 141 -65 141 -68.625 141 C-72.4595038 139.86385073 -73.05980048 139.36894243 -75 136 C-81.88255005 106.04066448 -73.5876752 73.09161656 -58.0625 47.125 C-54.40593588 41.42216634 -50.40412976 36.1423458 -46 31 C-44.96939453 29.76830078 -44.96939453 29.76830078 -43.91796875 28.51171875 C-35.21026663 18.42333593 -15.01171823 -2.14453118 0 0 Z"
    fill="currentColor"
    transform="translate(540,456)"
  />
  <path
    d="M0 0 C2.43055935 1.2782113 4.56651609 2.52572406 6.8125 4.0625 C7.4214209 4.46879639 8.0303418 4.87509277 8.65771484 5.29370117 C38.71306392 25.60896412 58.04373605 55.50809413 65 91 C66.23185773 97.55504132 66.221872 103.97272763 66.25 110.625 C66.270625 111.8521875 66.29125 113.079375 66.3125 114.34375 C66.32023438 116.11105469 66.32023438 116.11105469 66.328125 117.9140625 C66.3374707 118.9860791 66.34681641 120.0580957 66.35644531 121.16259766 C65.9530847 124.37345864 65.2583183 125.71576221 63 128 C59.34121638 129.19308162 57.70002308 129.32667744 54.1875 127.6875 C52 126 52 126 51 124 C50.87214889 122.64416682 50.7980198 121.28300817 50.75390625 119.921875 C50.72264648 119.09792236 50.69138672 118.27396973 50.65917969 117.42504883 C50.61132324 116.10089966 50.61132324 116.10089966 50.5625 114.75 C49.09687144 82.28401924 37.98569354 53.11128965 14.1875 30.3046875 C7.93062345 24.88092766 1.2697502 20.45336347 -5.83276367 16.22192383 C-10.90551534 13.18896933 -10.90551534 13.18896933 -12 11 C-12.69109948 3.85863874 -12.69109948 3.85863874 -9.9375 0.4375 C-6.06254181 -1.45875613 -4.18276904 -0.9430878 0 0 Z"
    fill="currentColor"
    transform="translate(666,457)"
  />
  <path
    d="M0 0 C2.4375 1.5625 2.4375 1.5625 4 4 C4.5 7.5 4.5 7.5 4 11 C-6.57130307 23.76629917 -28.55027558 29.42939702 -44 33 C-44.91265625 33.226875 -45.8253125 33.45375 -46.765625 33.6875 C-75.28359976 39.69128416 -107.03898187 32.94674383 -132.1640625 18.89453125 C-134.85676144 17.09568967 -136.39368164 15.78316966 -138 13 C-138.41546043 9.67631657 -138.34420486 7.70753221 -136.875 4.6875 C-134.22905739 2.30615165 -132.55572695 2.17675868 -129 2 C-126.19494359 2.90486891 -123.66533323 4.25390993 -121.0625 5.625 C-93.47171133 19.27016956 -62.85495066 21.96891699 -33.375 12.8125 C-23.06414603 9.16027527 -10.62290719 -1.11820076 0 0 Z"
    fill="currentColor"
    transform="translate(668,679)"
  />
</svg>
