<?xml version="1.0" encoding="UTF-8"?>
<svg version="1.1" xmlns="http://www.w3.org/2000/svg" width="1254" height="1254" viewBox="355.311 263.149 567.046 728.856">
<path d="M0 0 C2.59647403 2.327545 5.15376408 4.69430558 7.69580078 7.08105469 C9.99368041 9.22045986 12.33113885 11.27249459 14.72705078 13.29980469 C17.99047756 16.13347979 20.80734509 19.18802307 23.59423828 22.48730469 C24.81547541 23.9129549 26.07184179 25.30919154 27.35986328 26.67480469 C69.23710491 71.17903196 92.04385809 136.73569293 90.64892578 197.32324219 C90.1806552 209.76108224 89.33819079 222.30794067 87.41455078 234.61230469 C92.01804242 231.63730703 96.32004721 228.40559569 100.60205078 224.98730469 C109.76514681 217.69520732 109.76514681 217.69520732 113.35205078 217.23730469 C116.41455078 217.61230469 116.41455078 217.61230469 118.78955078 219.23730469 C120.9277851 222.36241638 121.09751768 223.89392934 120.41455078 227.61230469 C116.50663723 231.97776666 111.94340888 235.59964424 107.41455078 239.29980469 C106.66850586 239.91194824 105.92246094 240.5240918 105.15380859 241.15478516 C99.56568599 245.72004977 93.89621541 250.16378724 88.14892578 254.52636719 C86.32711209 255.91615077 84.54438316 257.35872092 82.80517578 258.85058594 C80.39037896 260.63011758 79.35411493 261.18073123 76.41455078 261.17480469 C75.77517578 261.19671875 75.13580078 261.21863281 74.47705078 261.24121094 C69.18517237 259.62758892 65.98353584 253.81205789 62.97705078 249.48730469 C62.10872833 248.24929374 61.23884481 247.0123767 60.36767578 245.77636719 C59.89910156 245.1115332 59.43052734 244.44669922 58.94775391 243.76171875 C56.09178497 239.75790497 53.15318991 235.81494134 50.22705078 231.86230469 C49.03268338 230.23886934 47.83866196 228.61517939 46.64501953 226.99121094 C44.770486 224.44243164 42.88337646 221.90580155 40.96533203 219.38964844 C40.32982422 218.535 39.69431641 217.68035156 39.03955078 216.79980469 C38.51619141 216.11273437 37.99283203 215.42566406 37.45361328 214.71777344 C36.05367033 211.88104694 36.12732769 209.7337439 36.41455078 206.61230469 C38.50565741 203.55607192 39.70761927 202.74767455 43.35205078 202.04980469 C50.12601692 203.29400255 54.05559606 211.06465045 57.78955078 216.36230469 C58.93544647 217.96995989 60.08257032 219.57674043 61.23095703 221.18261719 C61.77768066 221.94735352 62.3244043 222.71208984 62.88769531 223.5 C65.62473646 227.28651743 68.48713693 230.97166638 71.41455078 234.61230469 C71.73387512 233.00948252 72.04449592 231.40492679 72.35205078 229.79980469 C72.61308594 228.45982422 72.61308594 228.45982422 72.87939453 227.09277344 C82.22120512 166.33691044 64.9221032 103.05020819 29.17529297 53.58496094 C24.55416877 47.33647614 19.58216975 41.41353299 14.41455078 35.61230469 C13.58600586 34.6810376 13.58600586 34.6810376 12.74072266 33.73095703 C5.4637498 25.61042447 -1.94441391 18.3017243 -10.58544922 11.61230469 C-12.33685508 10.1348029 -14.08682544 8.65559802 -15.83544922 7.17480469 C-22.42296745 1.80028556 -29.41314744 -2.84077976 -36.58544922 -7.38769531 C-37.22160156 -7.79632813 -37.85775391 -8.20496094 -38.51318359 -8.62597656 C-89.93899131 -41.38458006 -155.4059601 -51.57330234 -214.72802734 -38.70605469 C-257.92753681 -28.79991322 -298.00115665 -8.10418112 -329.80371094 22.87744141 C-331.53408049 24.5622874 -333.27949131 26.23027408 -335.02685547 27.89746094 C-381.2382183 72.48760946 -405.44717938 138.85715208 -406.63427734 202.21850586 C-407.15091822 267.20370889 -382.20958543 329.14046444 -336.88378906 375.54736328 C-331.07992755 381.40132159 -325.14927771 386.88284287 -318.65966797 391.97558594 C-316.58544922 393.61230469 -316.58544922 393.61230469 -314.58544922 395.61230469 C-314.15433582 399.49232523 -314.0537115 401.76152433 -316.14794922 405.11230469 C-319.63990184 407.26119861 -321.65214067 406.50452484 -325.58544922 405.61230469 C-328.21826172 403.96777344 -328.21826172 403.96777344 -330.71044922 401.79980469 C-331.64759766 400.99027344 -332.58474609 400.18074219 -333.55029297 399.34667969 C-334.56416745 398.43761993 -335.57579989 397.52605485 -336.58544922 396.61230469 C-337.12572754 396.12697266 -337.66600586 395.64164063 -338.22265625 395.14160156 C-342.05933317 391.68312571 -345.83698794 388.16602417 -349.58544922 384.61230469 C-350.71660156 383.54496094 -350.71660156 383.54496094 -351.87060547 382.45605469 C-357.25523538 377.23200022 -361.97146637 371.51848365 -366.58544922 365.61230469 C-367.29024414 364.71415039 -367.29024414 364.71415039 -368.00927734 363.79785156 C-375.29127834 354.46511757 -381.84551902 344.96533583 -387.58544922 334.61230469 C-388.28154297 333.3694873 -388.28154297 333.3694873 -388.99169922 332.1015625 C-421.79027757 273.05985082 -431.32892564 200.94559697 -413.2121582 135.57641602 C-397.44394484 81.14073206 -367.55262122 29.20738987 -321.58544922 -5.38769531 C-320.96541016 -5.86239258 -320.34537109 -6.33708984 -319.70654297 -6.82617188 C-242.36609175 -65.78542477 -135.56498054 -76.54653429 0 0 Z " fill="#5e534a" transform="translate(789.58544921875,329.3876953125)"/>
<path d="M0 0 C2.08973041 1.8253613 4.14376032 3.68593739 6.1875 5.5625 C6.99960937 6.29210937 7.81171875 7.02171875 8.6484375 7.7734375 C29.61029244 27.55848655 39.60884286 55.44290005 41.31640625 83.6953125 C42.10361889 111.30023575 31.1986716 139.09635694 12.59472656 159.29150391 C2.02737074 170.36251405 2.02737074 170.36251405 -2.6875 170.875 C-5.8125 170.5625 -5.8125 170.5625 -8.1875 168.9375 C-10.31220879 165.83215639 -10.41636292 164.2611604 -9.8125 160.5625 C-7.83107455 157.39221928 -5.42308844 155.21191092 -2.5625 152.875 C9.96615644 142.32314649 17.50514031 126.9575311 22.1875 111.5625 C22.5071875 110.60859375 22.826875 109.6546875 23.15625 108.671875 C29.81779983 85.60317465 24.58533182 60.71013297 13.875 39.875 C10.56268537 33.89403013 6.61515919 28.74788231 2.1875 23.5625 C1.55070313 22.73363281 0.91390625 21.90476562 0.2578125 21.05078125 C-14.28282486 3.57458126 -37.60111454 -5.2466385 -59.5 -8.125 C-60.93599738 -8.24816036 -62.37376269 -8.35210732 -63.8125 -8.4375 C-64.98039063 -8.51677734 -64.98039063 -8.51677734 -66.171875 -8.59765625 C-90.11137252 -9.43191147 -114.29559634 -0.42672773 -132.296875 15.203125 C-150.9549827 32.70234403 -162.41751138 55.79880393 -163.8125 81.5625 C-163.85375 82.25214844 -163.895 82.94179688 -163.9375 83.65234375 C-164.65759713 107.82060351 -155.02531715 131.86253595 -138.8125 149.5625 C-135.7912471 152.7443313 -132.72518238 155.79023029 -129.375 158.625 C-127.8125 160.5625 -127.8125 160.5625 -127.3125 163.5625 C-127.8125 166.5625 -127.8125 166.5625 -129.4375 168.9375 C-131.8125 170.5625 -131.8125 170.5625 -134.5625 171.25 C-139.52382803 170.2004883 -142.28407174 167.06146331 -145.8125 163.5625 C-146.6375 162.77875 -147.4625 161.995 -148.3125 161.1875 C-149.1375 160.32125 -149.9625 159.455 -150.8125 158.5625 C-151.39515625 157.98628906 -151.9778125 157.41007813 -152.578125 156.81640625 C-171.44266939 137.17202833 -179.37831962 108.30394614 -178.9609375 81.671875 C-178.19131837 54.59642177 -166.43745151 28.96644188 -147.8125 9.5625 C-146.9875 8.69625 -146.1625 7.83 -145.3125 6.9375 C-144.4875 6.15375 -143.6625 5.37 -142.8125 4.5625 C-142.22726562 3.98242188 -141.64203125 3.40234375 -141.0390625 2.8046875 C-103.74129103 -32.55193601 -38.781287 -32.82585294 0 0 Z " fill="#5e534a" transform="translate(694.8125,448.4375)"/>
<path d="M0 0 C2.09912078 1.49937199 2.85699566 2.65251283 3.8359375 5.03125 C4.09338683 9.68985697 1.9058556 13.13777196 -0.125 17.25 C-16.8323461 52.76199735 -17.90431535 92.72873294 -4.75927734 129.64770508 C-2.84141209 134.80004084 -0.68699039 139.75432336 1.875 144.625 C3.75101517 148.24346292 4.88756944 150.85800928 4 155 C1.9149143 158.04743295 0.67853624 158.85563059 -2.9375 159.625 C-7.12890319 158.76961159 -8.71875223 156.40694032 -11 153 C-12.69841668 149.80767497 -14.11415474 146.52574058 -15.5 143.1875 C-15.88945801 142.25897217 -16.27891602 141.33044434 -16.68017578 140.3737793 C-24.90165019 120.36842004 -28.61764296 100.29424119 -28.4375 78.6875 C-28.43379395 77.88228912 -28.43008789 77.07707825 -28.42626953 76.24746704 C-28.34288126 63.47058403 -27.58177164 51.33431042 -24 39 C-23.72091797 38.02788574 -23.44183594 37.05577148 -23.15429688 36.05419922 C-19.48745232 23.61534382 -15.47253428 10.75315909 -8 0 C-4.65044556 -1.11651815 -3.32740404 -0.99822121 0 0 Z " fill="#5e534a" transform="translate(455,455)"/>
<path d="M0 0 C2.8125 1.375 2.8125 1.375 4.8125 4.375 C5.25586119 9.00137759 4.32701156 12.14969893 2.5 16.375 C-6.58278321 38.99190211 -6.51960695 65.49398368 3.0625 88 C3.38863281 88.75667969 3.71476562 89.51335937 4.05078125 90.29296875 C5.20411121 93.44540397 5.28362684 96.07711214 4.8125 99.375 C3.75 101.3125 3.75 101.3125 1.8125 102.375 C-1.625 102.875 -1.625 102.875 -5.1875 102.375 C-9.58602919 98.19166304 -11.01155045 92.87597515 -12.8125 87.25 C-13.26109375 85.9196875 -13.26109375 85.9196875 -13.71875 84.5625 C-21.04953662 62.18089483 -20.35742875 37.69357406 -13.1875 15.375 C-12.97399902 14.68374023 -12.76049805 13.99248047 -12.54052734 13.28027344 C-9.39416853 3.29582813 -9.39416853 3.29582813 -5.73046875 0.5 C-3.1875 -0.625 -3.1875 -0.625 0 0 Z " fill="#5e534a" transform="translate(487.1875,482.625)"/>
<path d="M0 0 C11.79459522 9.26981468 16.66638652 21.39658461 18.5 35.96484375 C18.74760478 40.15587995 18.7545472 44.32900448 18.72705078 48.52636719 C18.72734283 49.71805511 18.72763489 50.90974304 18.72793579 52.13754272 C18.72655475 56.03317835 18.71105161 59.92861699 18.6953125 63.82421875 C18.69045838 66.54233696 18.68863457 69.26045499 18.68673706 71.97857666 C18.68055341 78.374334 18.66418538 84.77002189 18.64403808 91.16574883 C18.62158133 98.45487498 18.61066122 105.74400467 18.60064721 113.03315687 C18.5798159 128.01042433 18.54470141 142.98762705 18.5 157.96484375 C19.1587915 157.55347168 19.81758301 157.14209961 20.49633789 156.71826172 C21.37539795 156.17830566 22.25445801 155.63834961 23.16015625 155.08203125 C24.02519775 154.54690918 24.89023926 154.01178711 25.78149414 153.46044922 C35.61466431 148.05066022 46.3243974 147.62558774 57 150.46484375 C68.95543151 154.52571479 76.73255227 161.99383995 82.58984375 173.015625 C84.09666341 176.25841202 84.5 178.32671698 84.5 181.96484375 C85.15226563 181.55492187 85.80453125 181.145 86.4765625 180.72265625 C87.35054687 180.18382812 88.22453125 179.645 89.125 179.08984375 C89.98351562 178.55617188 90.84203125 178.0225 91.7265625 177.47265625 C99.93059669 173.01243484 109.45605994 172.43213215 118.48828125 174.72265625 C120.93230109 175.66466086 123.1990724 176.71651441 125.5 177.96484375 C126.53125 178.52171875 127.5625 179.07859375 128.625 179.65234375 C137.92900074 187.13599652 142.59219071 195.57592403 145.5 206.96484375 C146.10585938 206.62710938 146.71171875 206.289375 147.3359375 205.94140625 C157.11458296 200.73615805 166.49360575 198.47006105 177.5 200.96484375 C190.09454324 205.77761323 197.40565559 211.88825232 203.3359375 224.09765625 C205.1385104 228.53755057 205.6252074 232.59695983 205.64717102 237.36683655 C205.65790398 238.97455177 205.65790398 238.97455177 205.66885376 240.61474609 C205.67154266 241.78094482 205.67423157 242.94714355 205.67700195 244.14868164 C205.68357315 245.38525009 205.69014435 246.62181854 205.69691467 247.89585876 C205.7166389 251.99307501 205.72832329 256.09025204 205.73828125 260.1875 C205.74233311 261.60637366 205.74645015 263.02524713 205.75063133 264.44412041 C205.76968416 271.12367997 205.78390578 277.80322859 205.7922433 284.48281008 C205.80196689 292.14331022 205.82815684 299.80351765 205.86874419 307.46391493 C205.89916063 313.41332589 205.91373668 319.36265431 205.91702431 325.31214136 C205.91934918 328.85075966 205.92796458 332.3890655 205.95348549 335.92759895 C206.2150206 374.20574634 197.49938979 405.67628922 170.61328125 433.92578125 C156.63381877 447.99252923 156.63381877 447.99252923 148.5 450.96484375 C144.875 450.77734375 144.875 450.77734375 141.5 449.96484375 C139.01961093 446.24426015 139.03662797 444.36687804 139.5 439.96484375 C142.14744457 436.86303227 145.20878702 434.68919074 148.5625 432.40234375 C165.29322318 420.35622306 177.71636536 403.00929249 184.8125 383.71484375 C185.04275879 383.10946777 185.27301758 382.5040918 185.51025391 381.88037109 C191.43358842 364.69270564 190.94589924 346.50248621 190.8984375 328.58203125 C190.89910884 325.86922887 190.90337416 323.15643364 190.90713501 320.44363403 C190.91254994 314.79408278 190.90550657 309.1446503 190.89111328 303.49511719 C190.87471543 296.98396223 190.88014376 290.47308814 190.8965925 283.96193969 C190.91023549 278.33344854 190.9121157 272.70504151 190.90427649 267.07653916 C190.89962547 263.73081926 190.90010245 260.38533666 190.90888596 257.039608 C190.91651913 253.31901822 190.90487276 249.59896765 190.88818359 245.87841797 C190.89729263 244.23876823 190.89729263 244.23876823 190.90658569 242.56599426 C190.84223112 234.80701621 189.72321004 229.26789866 185.3125 222.71484375 C180.22565641 217.74104113 175.78007121 215.74218667 168.625 215.40234375 C161.70838606 215.66466792 155.82278525 217.67333178 150.83984375 222.609375 C143.95528461 231.50109424 145.13457337 242.40562606 145.02148438 253.08984375 C144.99505859 254.311875 144.96863281 255.53390625 144.94140625 256.79296875 C144.92795166 257.90575195 144.91449707 259.01853516 144.90063477 260.16503906 C144.5 262.96484375 144.5 262.96484375 143.12084961 264.79589844 C140.85789829 266.42792297 139.29042489 266.83196637 136.5 266.96484375 C131.90298507 264.7708139 131.90298507 264.7708139 130.5 261.96484375 C130.40603424 260.23055164 130.37486136 258.492695 130.37402344 256.75585938 C130.36831329 255.12275818 130.36831329 255.12275818 130.36248779 253.45666504 C130.36146057 252.27342651 130.36043335 251.09018799 130.359375 249.87109375 C130.34103702 247.37108471 130.32146581 244.87108447 130.30078125 242.37109375 C130.27188574 238.42563159 130.25000197 234.48073086 130.24951172 230.53515625 C130.24616207 226.7299608 130.21150618 222.92606271 130.171875 219.12109375 C130.18247955 217.37052673 130.18247955 217.37052673 130.19329834 215.58459473 C130.06537817 206.90391661 128.19926162 200.08687812 122.3125 193.52734375 C115.12566259 189.5346563 109.05178568 188.27283671 100.9765625 190.18359375 C94.31033572 192.28650441 91.62593071 195.80127245 88.48046875 201.74609375 C86.36133187 206.54159076 86.3520047 211.12985735 86.32421875 216.30859375 C86.30103102 217.96355453 86.27691412 219.61850251 86.25195312 221.2734375 C86.21678448 223.87394942 86.18745296 226.4739857 86.17407227 229.07470703 C86.15860578 231.59074729 86.1184232 234.10541581 86.07421875 236.62109375 C86.07612717 237.39723022 86.07803558 238.1733667 86.08000183 238.97302246 C86.00018665 242.49434618 85.76776048 244.59249553 83.68676758 247.48632812 C81.5 248.96484375 81.5 248.96484375 77.9375 248.96484375 C74.09264044 247.84633915 73.42382936 247.34049278 71.5 243.96484375 C71.12818909 241.30451965 71.12818909 241.30451965 71.13110352 238.23754883 C71.12422012 237.08567581 71.11733673 235.9338028 71.11024475 234.74702454 C71.11640305 233.50535019 71.12256134 232.26367584 71.12890625 230.984375 C71.1159704 229.02430516 71.1030116 227.06423516 71.08873653 225.10417461 C71.0587905 220.28003604 71.06221586 215.45580332 71.06420898 210.6315918 C71.06425041 207.92437525 71.05358261 205.21755485 71.03245544 202.51042175 C71.01383558 199.96614754 71.01179737 197.42168182 71.02870178 194.87739563 C70.95233422 185.99205071 69.20530028 180.10236183 64.375 172.71484375 C58.62614552 167.21593947 52.92626855 164.67330783 44.9375 164.40234375 C35.25745539 164.85680594 29.76471066 168.05349755 23.2265625 175.0625 C18.59023008 182.85615383 18.08013573 191.50366179 18.27734375 200.36328125 C18.28633194 201.40126862 18.29532013 202.43925598 18.30458069 203.50869751 C18.33431192 206.78610638 18.38411362 210.06274144 18.4375 213.33984375 C18.48541903 216.6383105 18.52870083 219.93658911 18.55970764 223.23526001 C18.57938483 225.2776826 18.60892208 227.32004068 18.64964294 229.3621521 C18.74431895 238.26848368 18.74431895 238.26848368 16.5 241.96484375 C13.20095887 243.65102033 11.38106053 244.16508478 7.75 243.33984375 C5.02858145 241.67675464 4.57493221 240.95107633 3.5 237.96484375 C3.31084128 235.17355061 3.23190744 232.48320361 3.2484436 229.69259644 C3.24547346 228.85093906 3.24250333 228.00928168 3.23944318 227.14211953 C3.23179464 224.31717094 3.23830081 221.49242974 3.24462891 218.66748047 C3.24187934 216.64373127 3.23819965 214.61998315 3.23365784 212.59623718 C3.22553972 208.23481667 3.22337897 203.87344745 3.22560501 199.51202011 C3.22843615 192.61149655 3.21409252 185.71107555 3.19662476 178.81057739 C3.14958196 159.18688505 3.1256636 139.56319933 3.11914062 119.93945312 C3.11538678 109.10387001 3.09732915 98.2684026 3.06404626 87.43286908 C3.04385198 80.5779845 3.04145285 73.7233988 3.05232644 66.86849666 C3.05493918 62.5948738 3.04090145 58.32142379 3.02224541 54.04784584 C3.01693628 52.0718289 3.01839823 50.09577988 3.02728081 48.11977577 C3.08361049 34.48442113 2.48808452 24.21483249 -7.359375 13.875 C-13.41998088 8.46690461 -20.83204561 6.50345387 -28.75 5.58984375 C-39.41378072 6.65622182 -47.14146437 10.66068418 -54.02734375 18.76171875 C-60.84387258 27.69235941 -60.64903053 37.8785795 -60.60006714 48.63064575 C-60.59880487 49.80099487 -60.59754259 50.97134399 -60.59624207 52.17715824 C-60.59180486 55.41256129 -60.58287698 58.64791599 -60.57208848 61.88330293 C-60.5615749 65.3775076 -60.55696809 68.87172038 -60.55175781 72.36593628 C-60.5420606 78.41668668 -60.52902415 84.46742231 -60.51403427 90.51816177 C-60.49063689 100.08069388 -60.47765414 109.64322708 -60.46633911 119.20578003 C-60.46233807 122.47898299 -60.45826936 125.75218587 -60.45417976 129.02538872 C-60.45316054 129.84328425 -60.45214131 130.66117979 -60.45109119 131.50386003 C-60.43935699 140.80612423 -60.4254751 150.10838479 -60.41064453 159.41064453 C-60.4092921 160.26069029 -60.40793967 161.11073606 -60.40654625 161.98654078 C-60.38434357 175.77583337 -60.35447067 189.56510171 -60.32267712 203.35437502 C-60.29030705 217.51479951 -60.26942647 231.67521126 -60.25840485 245.83566844 C-60.25117675 254.56917782 -60.23446047 263.30256678 -60.20560409 272.03603195 C-60.18662991 278.01685723 -60.17851824 283.99763439 -60.17900907 289.97848953 C-60.17894595 293.43028933 -60.17393763 296.88189997 -60.15584183 300.33365631 C-60.13874824 304.07358142 -60.14001324 307.81306015 -60.14596558 311.55300903 C-60.13654493 312.6464812 -60.12712429 313.73995337 -60.11741817 314.86656106 C-60.14794871 320.57710626 -60.2466884 324.71153215 -64.5 328.96484375 C-70.85779817 329.43579176 -70.85779817 329.43579176 -73.375 327.58984375 C-75.52255964 324.48781315 -75.62831825 322.48490276 -75.6418457 318.73999023 C-75.65239738 317.1020475 -75.65239738 317.1020475 -75.66316223 315.43101501 C-75.66732651 314.24463943 -75.67149078 313.05826385 -75.67578125 311.8359375 C-75.69899055 309.33137191 -75.72310832 306.8268146 -75.74804688 304.32226562 C-75.78308784 300.36802726 -75.81245999 296.41409114 -75.82592773 292.4597168 C-75.84145957 288.6472484 -75.88171871 284.8356693 -75.92578125 281.0234375 C-75.92387283 279.85123154 -75.92196442 278.67902557 -75.91999817 277.47129822 C-76.0245628 270.4075502 -77.00630572 265.12929296 -80.5 258.96484375 C-81.03582451 257.99852272 -81.03582451 257.99852272 -81.58247375 257.01268005 C-85.33726889 250.6035072 -92.22412044 246.4827164 -99.0859375 244.046875 C-108.94243197 241.73044334 -116.9125785 243.45065565 -125.734375 248.24609375 C-133.90211816 253.32209232 -137.95204568 259.6889393 -140.5 268.96484375 C-141.38824986 275.77958606 -141.15680367 282.69383938 -141.09375 289.55078125 C-141.09203492 291.54033333 -141.09210861 293.52988766 -141.09387207 295.5194397 C-141.09222618 299.67333843 -141.07366655 303.82669273 -141.04199219 307.98046875 C-141.00236972 313.26783349 -140.99794596 318.55448542 -141.00545502 323.84197044 C-141.0085458 327.94646572 -140.9963289 332.05080499 -140.97932434 336.15526199 C-140.97236147 338.10302373 -140.96916152 340.05080313 -140.97001648 341.99857712 C-140.95106879 370.40274623 -132.80261754 394.61471728 -113.25 415.65234375 C-104.62512849 423.7557114 -94.90135029 429.6685139 -84.09814453 434.36499023 C-80.65740356 435.86874841 -77.96515033 437.11551415 -75.5 439.96484375 C-74.625 442.33984375 -74.625 442.33984375 -74.5 444.96484375 C-76.69402985 449.56185868 -76.69402985 449.56185868 -79.5 450.96484375 C-86.37475666 451.08700492 -91.76277789 448.84204113 -97.6875 445.58984375 C-98.91871582 444.92698364 -98.91871582 444.92698364 -100.17480469 444.25073242 C-107.96013072 439.93304333 -114.80854364 434.81077641 -121.5 428.96484375 C-122.5209375 428.07732422 -122.5209375 428.07732422 -123.5625 427.171875 C-143.70199263 408.29110066 -154.68092821 381.17387274 -156.5 353.96484375 C-156.66697309 347.81272752 -156.68969219 341.66192475 -156.703125 335.5078125 C-156.70595238 334.62853907 -156.70877975 333.74926563 -156.71169281 332.84334755 C-156.72660749 328.19235568 -156.73588636 323.54139423 -156.74023438 318.89038086 C-156.74571578 314.12307777 -156.76975925 309.35606071 -156.79820633 304.58884716 C-156.81695383 300.88848588 -156.82204465 297.18819198 -156.82357025 293.48778725 C-156.82656869 291.73175807 -156.83450036 289.97572926 -156.84775543 288.21974754 C-156.97806487 269.63515398 -154.31288336 254.25834817 -141.046875 240.2578125 C-130.64405115 230.89207999 -118.69969232 227.32289433 -104.91796875 227.68359375 C-94.5625254 228.5356988 -83.82883598 232.36144042 -76.5 239.96484375 C-76.49668985 238.91846835 -76.49337971 237.87209295 -76.48996925 236.79400921 C-76.40891029 211.31220335 -76.31657495 185.83045727 -76.21247292 160.34873486 C-76.1623896 148.02587813 -76.11594618 135.70302792 -76.078125 123.38012695 C-76.04514387 112.63723974 -76.00527886 101.89440369 -75.95720994 91.151573 C-75.93200583 85.4653972 -75.91020661 79.77925507 -75.89665604 74.09303856 C-75.8837804 68.73574046 -75.86166697 63.3785582 -75.83261681 58.02132416 C-75.82358394 56.06025003 -75.81786088 54.09915727 -75.81578636 52.13806343 C-75.79197254 33.03746375 -74.37275893 17.46645643 -60.65625 3.0234375 C-43.84719942 -12.92449369 -18.55866452 -12.75908186 0 0 Z " fill="#5e534a" transform="translate(654.5,529.03515625)"/>
<path d="M0 0 C2.53301531 0.04993399 3.86807975 0.11351112 6.125 1.3125 C7.72526277 4.41300912 7.41604306 6.78866648 7.125 10.25 C6.00492275 13.22017874 4.47918306 15.8913687 2.875 18.625 C2.43260986 19.3979541 1.99021973 20.1709082 1.53442383 20.96728516 C-1.80173808 26.6822806 -5.40356075 32.19756744 -9.1875 37.625 C-9.67831055 38.33188965 -10.16912109 39.0387793 -10.67480469 39.76708984 C-17.10952034 48.74205476 -17.10952034 48.74205476 -22.9375 49.8125 C-25.875 49.25 -25.875 49.25 -28.3125 47.125 C-30.28700916 43.49190314 -29.93540012 42.19488302 -28.875 38.25 C-27.08984375 35.49609375 -27.08984375 35.49609375 -24.8125 32.6875 C-17.64796512 23.5820327 -11.98481275 13.54361489 -6.22265625 3.515625 C-4.29634182 0.27718334 -4.29634182 0.27718334 0 0 Z " fill="#5e534a" transform="translate(849.875,645.75)"/>
</svg>
