<?xml version="1.0" encoding="UTF-8"?>
<svg version="1.1" xmlns="http://www.w3.org/2000/svg" width="1254" height="1254" viewBox="373.791 364.524 491.678 478.985">
<path d="M0 0 C413.82 0 827.64 0 1254 0 C1254 413.82 1254 827.64 1254 1254 C840.18 1254 426.36 1254 0 1254 C0 840.18 0 426.36 0 0 Z " fill="currentColor" fill-opacity="0.18" transform="translate(0,0)"/>
<path d="M0 0 C18.46395375 14.24777533 33.26541102 34.01927514 37.17138672 57.54492188 C37.83920007 63.33896759 37.88339077 69.14980535 37.91796875 74.9765625 C37.92812012 76.19601562 37.93827148 77.41546875 37.94873047 78.671875 C37.87243719 86.59777994 36.79579503 93.65190972 34.48046875 101.2265625 C34.26156982 101.95552734 34.0426709 102.68449219 33.81713867 103.43554688 C29.14567002 118.14803027 21.39947434 130.28843431 10.48046875 141.2265625 C9.79597656 141.92265625 9.11148438 142.61875 8.40625 143.3359375 C-8.58199444 159.53914291 -31.98002019 166.78322716 -55.05615234 166.51220703 C-80.47365626 165.79645545 -102.71595315 155.03196361 -120.28125 136.73828125 C-137.75001658 117.13545941 -145.06584297 91.64821592 -143.73095703 65.7734375 C-141.8593018 43.22712408 -129.9594661 21.52224052 -113.51953125 6.2265625 C-81.49187017 -20.63822376 -34.73090249 -24.44624764 0 0 Z " fill="currentColor" fill-opacity="0.19" transform="translate(815.51953125,455.7734375)"/>
<path d="M0 0 C8.51546426 5.97061287 14.4491276 13.8473828 17.7265625 23.6796875 C17.81779488 25.02889384 17.85721628 26.38208937 17.859375 27.734375 C17.86066406 28.51425781 17.86195313 29.29414063 17.86328125 30.09765625 C17.85941406 30.90847656 17.85554687 31.71929687 17.8515625 32.5546875 C17.85542969 33.35777344 17.85929688 34.16085937 17.86328125 34.98828125 C17.85664478 39.01662036 17.72910138 42.74909854 16.7265625 46.6796875 C17.88285156 46.95167969 19.03914062 47.22367187 20.23046875 47.50390625 C24.48655621 48.5705033 28.5628834 49.94029532 32.6640625 51.4921875 C33.35846436 51.75427002 34.05286621 52.01635254 34.76831055 52.28637695 C48.72558374 57.67536731 48.72558374 57.67536731 52.7265625 62.6796875 C52.6015625 66.2421875 52.6015625 66.2421875 51.7265625 69.6796875 C48.17807961 72.04534276 46.91045937 72.09807719 42.7265625 71.6796875 C40.33197552 70.69751057 38.13465942 69.6811417 35.8515625 68.4921875 C28.02195944 64.64797995 20.14491731 61.9244416 11.7265625 59.6796875 C10.57929687 59.35871094 9.43203125 59.03773438 8.25 58.70703125 C-11.50933706 54.0792998 -34.88976875 54.78600443 -54.2734375 60.6796875 C-54.98564453 60.88867676 -55.69785156 61.09766602 -56.43164062 61.31298828 C-72.97138972 66.28161228 -87.61329572 74.18724428 -100.74804688 85.38037109 C-102.14196488 86.5677001 -103.55821872 87.72867795 -104.9765625 88.88671875 C-119.93855069 101.56676849 -130.58063569 118.99620807 -137.6484375 137.1171875 C-137.9580542 137.9016626 -138.2676709 138.6861377 -138.58666992 139.49438477 C-145.08691243 157.10001847 -145.87559898 174.00718175 -145.84801078 192.62286806 C-145.84740731 196.08405024 -145.87025999 199.54508377 -145.89057922 203.00619507 C-145.92572244 209.54912226 -145.94195529 216.09193924 -145.9503544 222.63495004 C-145.96334786 232.2050666 -146.00198895 241.77508753 -146.04445362 251.34511375 C-146.04759231 252.05383806 -146.05073099 252.76256236 -146.05396479 253.49276316 C-146.06024986 254.90822648 -146.06659358 256.32368953 -146.07299739 257.73915231 C-146.09366213 262.48127392 -146.1036643 267.22332244 -146.11027527 271.96548462 C-146.22262367 321.2417691 -146.22262367 321.2417691 -162.88671875 338.5 C-168.0851768 343.24752797 -173.74293295 346.91761041 -179.9609375 350.1796875 C-185.88985597 353.39074777 -191.46164186 357.99412449 -193.8359375 364.5234375 C-195.02782577 370.39774399 -195.88360269 377.12261781 -192.60241222 382.33340782 C-190.48900475 384.87668449 -190.48900475 384.87668449 -187.61398029 385.30528265 C-186.59090369 385.30555234 -185.56782709 385.30582203 -184.51374817 385.30609989 C-183.33086307 385.31852193 -182.14797796 385.33094397 -180.92924786 385.34374243 C-179.62848718 385.3319067 -178.3277265 385.32007097 -176.98754883 385.30787659 C-175.59275557 385.31292031 -174.19796877 385.32014779 -172.80319691 385.32937473 C-168.96600791 385.34834942 -165.12945393 385.33603447 -161.29228067 385.3186518 C-157.15586854 385.30530837 -153.01955119 385.32070396 -148.88314819 385.33247375 C-140.77823022 385.35087742 -132.67355292 385.34231993 -124.56864238 385.32438553 C-117.98313237 385.31037436 -111.3976878 385.30646353 -104.81216431 385.3098278 C-103.87578906 385.31030525 -102.93941381 385.31078269 -101.97466356 385.3112746 C-100.0725866 385.3123009 -98.17050966 385.31335626 -96.26843274 385.31444036 C-79.43964911 385.32301294 -62.61098187 385.30631436 -45.78222656 385.27661133 C-29.44298412 385.24777258 -13.10390935 385.24068966 3.23535156 385.25610352 C21.01684391 385.27285489 38.7982566 385.27691076 56.57975101 385.25939316 C58.47493044 385.25754872 60.37010987 385.25571399 62.26528931 385.25388908 C63.19781578 385.25297699 64.13034225 385.2520649 65.0911271 385.25112518 C71.67065883 385.24551315 78.25015176 385.24883315 84.8296814 385.25543404 C92.84518686 385.26315611 100.86052711 385.25645541 108.87599921 385.231259 C112.96764348 385.21873766 117.05903019 385.21264911 121.15068436 385.22380066 C124.89371529 385.23380963 128.63623156 385.22545573 132.37919962 385.20221948 C134.38025091 385.19458182 136.38134715 385.20664603 138.38237286 385.21932322 C139.56525796 385.20827553 140.74814306 385.19722784 141.96687317 385.18584538 C143.50148807 385.18405815 143.50148807 385.18405815 145.06710529 385.18223482 C148.46581941 384.53999299 149.64788709 383.4016991 151.7265625 380.6796875 C152.159336 377.92187571 152.34743272 375.67752915 152.2890625 372.9296875 C152.27810547 372.21248535 152.26714844 371.4952832 152.25585938 370.75634766 C152.01279071 364.81872028 150.94958155 360.87180641 146.7265625 356.6796875 C142.59000239 352.94555292 137.89118466 350.16016414 133.1640625 347.2421875 C120.4669864 339.20362484 112.5635815 327.00572801 109.19122314 312.35379028 C108.72063828 309.64559384 108.58618663 307.13321851 108.56542969 304.38623047 C108.55582214 303.3552121 108.5462146 302.32419373 108.53631592 301.26193237 C108.5299411 299.60860397 108.5299411 299.60860397 108.5234375 297.921875 C108.51773743 296.78187042 108.51203735 295.64186584 108.50616455 294.46731567 C108.49673301 292.06171594 108.49018792 289.6561034 108.48632812 287.25048828 C108.47657997 283.56129778 108.44552151 279.8726546 108.4140625 276.18359375 C108.40753631 273.84635747 108.40228434 271.50911722 108.3984375 269.171875 C108.3860907 268.0656076 108.3737439 266.95934021 108.36102295 265.81954956 C108.36402405 264.79483551 108.36702515 263.77012146 108.37011719 262.71435547 C108.36647156 261.81232391 108.36282593 260.91029236 108.35906982 259.98092651 C108.7265625 257.6796875 108.7265625 257.6796875 110.03009033 255.884552 C112.83260629 253.89415566 115.4102258 254.38358601 118.7265625 254.6796875 C119.7165625 255.3396875 120.7065625 255.9996875 121.7265625 256.6796875 C122.07818604 258.82461548 122.07818604 258.82461548 122.04785156 261.51806641 C122.04365204 263.03202499 122.04365204 263.03202499 122.03936768 264.5765686 C122.02379822 265.67536346 122.00822876 266.77415833 121.9921875 267.90625 C121.99496337 270.24218912 121.99890934 272.57812708 122.00390625 274.9140625 C121.99562006 278.58923031 121.97702162 282.2635219 121.93603516 285.93847656 C121.36892483 308.63244321 121.36892483 308.63244321 131.95800781 327.96337891 C132.54163086 328.52976074 133.12525391 329.09614258 133.7265625 329.6796875 C133.7265625 330.3396875 133.7265625 330.9996875 133.7265625 331.6796875 C134.28988281 331.95425781 134.85320312 332.22882813 135.43359375 332.51171875 C147.67356814 338.74639054 159.68039875 346.37445561 165.12011719 359.53857422 C166.38854824 364.0168916 166.19645189 368.62228238 166.1640625 373.2421875 C166.18404297 374.25732422 166.20402344 375.27246094 166.22460938 376.31835938 C166.22059725 382.46091772 165.77417788 385.98983057 161.7265625 390.6796875 C160.9634375 391.5665625 160.2003125 392.4534375 159.4140625 393.3671875 C152.74970926 399.10163098 146.45449859 399.10403004 138.00805664 399.02026367 C136.26551102 399.02092079 136.26551102 399.02092079 134.48776245 399.02159119 C130.66224138 399.01950741 126.83716292 398.99619483 123.01171875 398.97265625 C120.35370644 398.96705884 117.69571839 398.96264179 115.03770447 398.95979309 C108.76569402 398.95048946 102.49384149 398.9258987 96.2219004 398.89574462 C89.07800275 398.86214799 81.93409733 398.84570142 74.79014027 398.83065832 C60.10220046 398.79934748 45.41438424 398.74661995 30.7265625 398.6796875 C30.66280426 399.29321075 30.59904602 399.90673401 30.53335571 400.53884888 C30.4039711 401.74962601 30.4039711 401.74962601 30.27197266 402.98486328 C30.18758942 403.78401154 30.10320618 404.58315979 30.01626587 405.40652466 C28.35500363 418.44164951 20.75830743 430.42251116 10.7265625 438.6796875 C4.76620929 442.92330467 -1.25969258 445.68600541 -8.2734375 447.6796875 C-9.2634375 448.0096875 -10.2534375 448.3396875 -11.2734375 448.6796875 C-21.89745465 449.61900609 -32.67620693 449.7466464 -42.2734375 444.6796875 C-43.1190625 444.25558594 -43.9646875 443.83148437 -44.8359375 443.39453125 C-58.03744816 436.16992405 -67.01501719 424.02996309 -71.2734375 409.6796875 C-71.52896239 407.74722973 -71.73097157 405.80693794 -71.87890625 403.86328125 C-71.9564917 402.8880249 -72.03407715 401.91276855 -72.11401367 400.90795898 C-72.19292847 399.8049646 -72.19292847 399.8049646 -72.2734375 398.6796875 C-72.89058656 398.68337467 -73.50773561 398.68706184 -74.14358616 398.69086075 C-89.17571142 398.77928429 -104.20775662 398.84543222 -119.24007511 398.88693619 C-126.50967321 398.90754186 -133.77909748 398.93562399 -141.04858398 398.98144531 C-147.38633402 399.02137456 -153.72395813 399.04713482 -160.06183046 399.05604148 C-163.41625242 399.06124604 -166.77031418 399.07343613 -170.12462044 399.10260773 C-173.87374344 399.13164773 -177.62212049 399.13564305 -181.37133789 399.13378906 C-182.47761032 399.14817017 -183.58388275 399.16255127 -184.72367859 399.17736816 C-192.16178748 399.1375723 -196.57935094 398.02909255 -202.19921875 392.93359375 C-202.65683594 392.37542969 -203.11445313 391.81726563 -203.5859375 391.2421875 C-204.05644531 390.68660156 -204.52695312 390.13101562 -205.01171875 389.55859375 C-210.02237413 382.09690571 -209.04808311 372.30730295 -208.2734375 363.6796875 C-207.46560022 360.19588921 -206.2828941 357.61898581 -204.2734375 354.6796875 C-203.83773438 354.00035156 -203.40203125 353.32101562 -202.953125 352.62109375 C-196.95318704 343.94905227 -189.56862838 339.17455041 -180.328125 334.3515625 C-169.35248394 328.34443414 -164.58453555 318.96618113 -161.09825325 307.23145103 C-159.75502774 301.44734789 -159.72736188 295.82802635 -159.77514648 289.91333008 C-159.76962769 288.60410583 -159.76410889 287.29488159 -159.75842285 285.94598389 C-159.74658051 283.12504353 -159.7468768 280.30447614 -159.75701714 277.48353004 C-159.77276382 273.00375472 -159.7587709 268.52435145 -159.74098206 264.04460144 C-159.71031633 255.33310551 -159.7086533 246.62172671 -159.71063232 237.91018677 C-159.7120294 226.84076596 -159.70131571 215.77143657 -159.6620546 204.70208091 C-159.64969655 200.98708881 -159.64379642 197.27232639 -159.65356255 193.55732155 C-159.70240667 174.70459584 -159.51664723 156.38864862 -153.2734375 138.3671875 C-152.98001465 137.50746338 -152.6865918 136.64773926 -152.38427734 135.76196289 C-147.04105462 120.81801806 -139.39372674 106.90007253 -129.2734375 94.6796875 C-128.52191406 93.71675781 -127.77039063 92.75382812 -126.99609375 91.76171875 C-122.50773088 86.07645912 -117.88467673 81.23881938 -112.2734375 76.6796875 C-111.5103125 76.00679688 -110.7471875 75.33390625 -109.9609375 74.640625 C-98.93320759 65.12584584 -86.47310195 57.74239638 -73.0859375 52.0546875 C-72.30863281 51.7239624 -71.53132812 51.3932373 -70.73046875 51.05249023 C-66.21753496 49.22351804 -62.12178383 48.15488966 -57.2734375 47.6796875 C-57.6034375 46.6690625 -57.9334375 45.6584375 -58.2734375 44.6171875 C-60.74254858 34.54392999 -60.55111899 23.75167846 -55.2734375 14.6796875 C-42.9432744 -4.64608627 -20.56294544 -11.94205422 0 0 Z " fill="currentColor" fill-opacity="1" transform="translate(644.2734375,382.3203125)"/>
<path d="M0 0 C18.46395375 14.24777533 33.26541102 34.01927514 37.17138672 57.54492188 C37.83920007 63.33896759 37.88339077 69.14980535 37.91796875 74.9765625 C37.92812012 76.19601562 37.93827148 77.41546875 37.94873047 78.671875 C37.87243719 86.59777994 36.79579503 93.65190972 34.48046875 101.2265625 C34.26156982 101.95552734 34.0426709 102.68449219 33.81713867 103.43554688 C29.14567002 118.14803027 21.39947434 130.28843431 10.48046875 141.2265625 C9.79597656 141.92265625 9.11148438 142.61875 8.40625 143.3359375 C-8.58199444 159.53914291 -31.98002019 166.78322716 -55.05615234 166.51220703 C-80.47365626 165.79645545 -102.71595315 155.03196361 -120.28125 136.73828125 C-137.75001658 117.13545941 -145.06584297 91.64821592 -143.73095703 65.7734375 C-141.8593018 43.22712408 -129.9594661 21.52224052 -113.51953125 6.2265625 C-81.49187017 -20.63822376 -34.73090249 -24.44624764 0 0 Z M-108.51953125 20.2265625 C-118.58672035 31.02024978 -124.4449184 43.21797618 -128.51953125 57.2265625 C-128.69911377 57.83983398 -128.87869629 58.45310547 -129.0637207 59.08496094 C-133.3478331 79.2136347 -128.62347097 101.00165669 -117.70703125 118.05859375 C-105.43603866 135.7476254 -88.61077574 147.77768274 -67.3125 151.82299805 C-52.20117338 154.00647907 -36.54135899 153.46863565 -22.51953125 147.2265625 C-21.88515137 146.94780273 -21.25077148 146.66904297 -20.59716797 146.38183594 C-1.89850807 137.95413946 11.55564755 123.11338257 19.48046875 104.2265625 C26.93106774 82.48436 26.84488809 59.94012007 16.72460938 39.07348633 C12.96846547 31.85914412 8.21545482 25.97177136 2.48046875 20.2265625 C1.89136719 19.54335938 1.30226563 18.86015625 0.6953125 18.15625 C-10.27476483 5.86011936 -28.42445795 -1.2740144 -44.51953125 -2.7734375 C-69.257342 -3.95941186 -90.51128501 2.80265464 -108.51953125 20.2265625 Z " fill="currentColor" fill-opacity="1" transform="translate(815.51953125,455.7734375)"/>
<path d="M0 0 C25.41 0 50.82 0 77 0 C74.81946069 13.08323587 70.82944655 21.48529414 60.60546875 30.16796875 C51.97223466 36.23841371 42.40519259 38.38822395 32 37 C20.44386796 34.25656812 11.27084842 28.11479707 5 18 C1.85130516 11.82702684 0.88096626 7.04773009 0 0 Z " fill="currentColor" fill-opacity="0.21" transform="translate(585,781)"/>
<path d="M0 0 C2.90625 0.38671875 2.90625 0.38671875 5.28125 2.01171875 C7.41596161 5.13168187 7.31826952 6.64271531 6.90625 10.38671875 C5.61180923 12.7627367 4.33478515 14.82486198 2.78125 17.01171875 C1.94621399 18.25232028 1.11552591 19.49585868 0.2890625 20.7421875 C-0.11924805 21.35755371 -0.52755859 21.97291992 -0.94824219 22.60693359 C-15.13860712 44.65462335 -18.49190284 72.67708428 -13.71289062 98.16821289 C-10.54541405 112.45442353 -3.39215863 128.01261593 5.609375 139.57421875 C7.53796347 142.2695954 7.3855201 144.16876233 6.90625 147.38671875 C4.80418942 149.81217327 3.18135493 150.31335743 0.09375 151.13671875 C-6.30146384 149.63196255 -9.00243713 143.17139422 -12.29296875 137.89453125 C-27.78757238 112.20567464 -34.60933179 79.66470491 -27.46875 50.07421875 C-26.76349334 47.46972671 -25.94949894 44.95130797 -25.09375 42.38671875 C-24.87944336 41.72462402 -24.66513672 41.0625293 -24.44433594 40.38037109 C-11.67195186 1.45899398 -11.67195186 1.45899398 0 0 Z " fill="currentColor" fill-opacity="1" transform="translate(416.09375,524.61328125)"/>
<path d="M0 0 C6.20510067 3.27178035 11.86750054 9.17519704 14.4375 15.8125 C14.66796875 19.37890625 14.66796875 19.37890625 14.625 23.375 C14.62435547 24.04724609 14.62371094 24.71949219 14.62304688 25.41210938 C14.5956579 28.47663171 14.4132613 30.8852161 13.4375 33.8125 C12.78773193 33.7417627 12.13796387 33.67102539 11.46850586 33.59814453 C4.29373222 32.87424238 -2.79196125 32.66085291 -10 32.6875 C-11.04220703 32.68363281 -12.08441406 32.67976563 -13.15820312 32.67578125 C-20.33808386 32.68468377 -27.41787144 33.11105933 -34.5625 33.8125 C-37.18643222 27.52385064 -37.80460844 21.68299863 -35.6875 15.0859375 C-29.14448234 0.83765562 -15.07972632 -5.02657544 0 0 Z " fill="currentColor" fill-opacity="0.2" transform="translate(634.5625,392.1875)"/>
<path d="M0 0 C5.54854369 -0.61650485 5.54854369 -0.61650485 8 0 C10.5921762 2.83194058 11.37346436 4.6781347 11.34057617 8.49316406 C11.34034958 9.37377502 11.34012299 10.25438599 11.33988953 11.16168213 C11.32440567 12.10348328 11.30892181 13.04528442 11.29296875 14.015625 C11.28872391 14.98659119 11.28447906 15.95755737 11.28010559 16.95794678 C11.26332853 20.05558131 11.22567772 23.15256249 11.1875 26.25 C11.17245192 28.3515531 11.15876373 30.4531164 11.14648438 32.5546875 C11.11342811 37.70337629 11.06165208 42.85157741 11 48 C11.76143311 47.97381592 12.52286621 47.94763184 13.30737305 47.9206543 C16.76720435 47.81652985 20.22670585 47.75162271 23.6875 47.6875 C25.48477539 47.6246582 25.48477539 47.6246582 27.31835938 47.56054688 C37.23767974 47.42239478 37.23767974 47.42239478 40.296875 50.359375 C42 53 42 53 42.5625 55.5625 C41.79134352 58.90417807 40.74088409 59.92840469 38 62 C35.07799393 62.39767946 32.54056669 62.56158434 29.62109375 62.53125 C28.8126149 62.5350769 28.00413605 62.53890381 27.17115784 62.54284668 C25.4657364 62.54556361 23.76027315 62.53821761 22.05493164 62.52148438 C19.4425802 62.5000417 16.83296998 62.52130552 14.22070312 62.546875 C12.56249393 62.54423223 10.90428643 62.53910829 9.24609375 62.53125 C8.46479599 62.53934692 7.68349823 62.54744385 6.87852478 62.55578613 C1.46607766 62.4619973 1.46607766 62.4619973 -0.70632935 60.30860901 C-2.27555504 57.50826059 -2.37441464 55.74501115 -2.37231445 52.54467773 C-2.38165764 50.9079435 -2.38165764 50.9079435 -2.39118958 49.23814392 C-2.38197983 48.06514236 -2.37277008 46.89214081 -2.36328125 45.68359375 C-2.36377975 44.47558609 -2.36427826 43.26757843 -2.36479187 42.02296448 C-2.36245189 39.4701269 -2.35272792 36.91728698 -2.33618164 34.36450195 C-2.31257039 30.44917259 -2.31562396 26.53452317 -2.32226562 22.61914062 C-2.31668957 20.14062093 -2.30958016 17.6621041 -2.30078125 15.18359375 C-2.30169266 14.00856796 -2.30260406 12.83354218 -2.30354309 11.62290955 C-2.28924507 9.99090355 -2.28924507 9.99090355 -2.2746582 8.32592773 C-2.27005081 7.3675853 -2.26544342 6.40924286 -2.26069641 5.42185974 C-2 3 -2 3 0 0 Z " fill="currentColor" fill-opacity="1" transform="translate(758,487)"/>
<path d="M0 0 C3.0625 0.4375 3.0625 0.4375 5.5 2 C7.74019073 5.49469753 6.92273693 7.43408969 6.0625 11.4375 C4.50390625 14.90234375 4.50390625 14.90234375 2.625 18.375 C-3.87215226 30.40626107 -5.43440395 45.53822102 -1.875 58.875 C0.00830203 64.01294048 2.86885625 68.75223806 5.63671875 73.45703125 C7.08957332 76.49409436 7.51414098 78.13308881 7.0625 81.4375 C4.93157223 84.46997414 3.72180734 85.31387987 0.0625 86 C-3.95188377 85.24730304 -4.60910639 83.72357598 -6.9375 80.4375 C-16.46187154 63.55444531 -20.60872353 44.11265782 -16.03125 24.84765625 C-8.43527728 1.25631789 -8.43527728 1.25631789 0 0 Z " fill="currentColor" fill-opacity="1" transform="translate(445.9375,557.5625)"/>
<path d="M0 0 C1.49828872 3.88235819 0.43110582 6.43449288 -0.9375 10.25 C-1.31777344 11.32765625 -1.69804688 12.4053125 -2.08984375 13.515625 C-2.39019531 14.33546875 -2.69054687 15.1553125 -3 16 C-5 13 -5 13 -4.875 10.25 C-3.81105013 6.29818619 -2.15292458 3.47245901 0 0 Z " fill="currentColor" fill-opacity="0.98" transform="translate(591,394)"/>
<path d="M0 0 C-2.41032251 1.20216334 -4.82683479 2.38674978 -7.25 3.5625 C-8.27287109 4.07586914 -8.27287109 4.07586914 -9.31640625 4.59960938 C-13.02168909 6.38030356 -15.07871478 7.3058334 -19 6 C-16.58967749 4.79783666 -14.17316521 3.61325022 -11.75 2.4375 C-11.06808594 2.09525391 -10.38617187 1.75300781 -9.68359375 1.40039062 C-5.97831091 -0.38030356 -3.92128522 -1.3058334 0 0 Z " fill="currentColor" fill-opacity="0.35" transform="translate(743,457)"/>
<path d="M0 0 C0.33 0 0.66 0 1 0 C1 5.28 1 10.56 1 16 C1.66 16.33 2.32 16.66 3 17 C2.01 17.33 1.02 17.66 0 18 C-0.33 18.66 -0.66 19.32 -1 20 C-0.67 13.4 -0.34 6.8 0 0 Z " fill="currentColor" fill-opacity="0.57" transform="translate(497,675)"/>
<path d="M0 0 C0.66 0.33 1.32 0.66 2 1 C0.02 3.31 -1.96 5.62 -4 8 C-4.66 7.34 -5.32 6.68 -6 6 C-4.02 4.02 -2.04 2.04 0 0 Z " fill="currentColor" fill-opacity="0.25" transform="translate(830,592)"/>
<path d="M0 0 C0.97582031 0.00902344 1.95164062 0.01804687 2.95703125 0.02734375 C3.69308594 0.03894531 4.42914062 0.05054688 5.1875 0.0625 C5.1875 0.3925 5.1875 0.7225 5.1875 1.0625 C4.24777344 1.15337891 4.24777344 1.15337891 3.2890625 1.24609375 C2.47179687 1.32988281 1.65453125 1.41367187 0.8125 1.5 C0.00039063 1.58121094 -0.81171875 1.66242188 -1.6484375 1.74609375 C-3.85522805 1.95340114 -3.85522805 1.95340114 -5.8125 3.0625 C-7.48904729 2.78307545 -9.15858154 2.45421753 -10.8125 2.0625 C-10.8125 1.7325 -10.8125 1.4025 -10.8125 1.0625 C-7.13862505 0.20951624 -3.7677607 -0.04539471 0 0 Z " fill="currentColor" fill-opacity="0.51" transform="translate(614.8125,437.9375)"/>
<path d="M0 0 C0.66 0.66 1.32 1.32 2 2 C-1.465 4.97 -1.465 4.97 -5 8 C-3.8141763 4.62496331 -2.72426311 2.35277269 0 0 Z " fill="currentColor" fill-opacity="0.27" transform="translate(481,720)"/>
<path d="M0 0 C1.98 0 3.96 0 6 0 C6 0.66 6 1.32 6 2 C3.69 2.33 1.38 2.66 -1 3 C-0.67 2.01 -0.34 1.02 0 0 Z " fill="currentColor" fill-opacity="0.97" transform="translate(413,525)"/>
<path d="M0 0 C0.33 0.99 0.66 1.98 1 3 C-0.28965176 4.37562854 -1.62689293 5.70766393 -3 7 C-3.66 7 -4.32 7 -5 7 C-3.70700306 4.11562221 -2.34058637 2.12780579 0 0 Z " fill="currentColor" fill-opacity="0.98" transform="translate(598,386)"/>
</svg>
