<?xml version="1.0" encoding="UTF-8"?>
<svg version="1.1" xmlns="http://www.w3.org/2000/svg" width="1254" height="1254" viewBox="287 274 680 680">
<path d="M0 0 C1.2653384 -0.00307895 1.2653384 -0.00307895 2.55623919 -0.0062201 C5.37780407 -0.01186643 8.19931977 -0.01043579 11.02088928 -0.00901413 C13.06641699 -0.01159912 15.1119442 -0.01461266 17.1574707 -0.01801753 C22.77509079 -0.02607502 28.3926981 -0.02787641 34.01032329 -0.028615 C40.07053516 -0.03046774 46.13074044 -0.0380162 52.19094849 -0.04475021 C66.13189888 -0.05903298 80.07284615 -0.06485899 94.01380202 -0.06944216 C100.90739025 -0.07178032 107.80097766 -0.07538322 114.69456525 -0.07913754 C138.30597363 -0.09197135 161.91738155 -0.10269052 185.52879333 -0.10614014 C187.01020428 -0.10636177 188.49161522 -0.10658355 189.97302616 -0.10680549 C191.45795242 -0.10702613 192.94287868 -0.10724661 194.42780495 -0.10746694 C197.40666835 -0.10790948 200.38553174 -0.1083566 203.36439514 -0.10880661 C204.10297672 -0.108916 204.84155831 -0.10902539 205.60252115 -0.1091381 C229.54263354 -0.11276747 253.48271562 -0.12868385 277.42281641 -0.15199697 C302.75156101 -0.17661714 328.0802883 -0.19031399 353.40904522 -0.19150805 C356.19186084 -0.1916795 358.97467645 -0.19189492 361.75749207 -0.19214249 C362.44266708 -0.19219826 363.1278421 -0.19225402 363.83378 -0.19231148 C374.83941861 -0.19346004 385.845026 -0.20446536 396.85065409 -0.21902954 C407.92209252 -0.23342697 418.99349951 -0.23636164 430.06494695 -0.22858956 C436.05776241 -0.22468889 442.05047331 -0.22558431 448.04327583 -0.23964691 C453.53714368 -0.25242048 459.03082875 -0.25115795 464.52469647 -0.2390562 C466.50454224 -0.23710519 468.48440112 -0.24014984 470.46422851 -0.24890056 C484.82140301 -0.30830397 499.9144812 -0.23760081 512.79847717 6.94392776 C513.4608136 7.29358597 514.12315002 7.64324417 514.80555725 8.00349808 C519.65234995 10.61951188 524.09532873 13.56511999 528.29847717 17.13142776 C529.10027405 17.73470901 529.90207092 18.33799026 530.72816467 18.95955276 C543.81566231 30.01828937 550.72080082 47.53236351 552.52581561 64.23510917 C552.86725981 69.18832382 552.83750779 74.13952842 552.80641174 79.10177994 C552.81103442 80.73847535 552.81739641 82.37516659 552.82532072 84.01184934 C552.84184962 88.45768969 552.83384361 92.90318175 552.82137585 97.34902251 C552.81225958 102.16368503 552.82632738 106.97829106 552.83729553 111.79294205 C552.85501526 121.20416961 552.8512702 130.61526905 552.83964497 140.02650148 C552.83058557 147.67947804 552.82939745 155.33241886 552.83374023 162.98539925 C552.83435317 164.0775194 552.8349661 165.16963956 552.8355976 166.29485426 C552.83687659 168.5139485 552.83817345 170.73304272 552.83948797 172.95213693 C552.85087445 193.72522978 552.83781016 214.49825185 552.8162865 235.27133309 C552.79841478 253.0705179 552.80152402 270.86959835 552.81996155 288.66878128 C552.84139811 309.37265741 552.84977863 330.07647162 552.83751249 350.7803573 C552.83623839 352.99066221 552.8349809 355.20096712 552.83374023 357.41127205 C552.83312313 358.49859353 552.83250603 359.58591501 552.83187023 360.70618563 C552.82842587 368.34472924 552.83422585 375.98323336 552.84365845 383.62177086 C552.85491069 392.93801971 552.85177068 402.25413386 552.83053547 411.5703674 C552.82006875 416.31774272 552.81582803 421.06489396 552.82913208 425.8122673 C552.84115305 430.16786088 552.83433569 434.52302512 552.81322187 438.87858038 C552.80879656 440.44429115 552.81092897 442.01003907 552.82072502 443.57572544 C552.95004852 465.9847188 546.04474059 483.98100875 530.48597717 500.31892776 C516.21999721 514.24011063 497.92347233 519.30760071 478.47390652 519.26285553 C477.62919374 519.26490816 476.78448096 519.2669608 475.91417083 519.26907563 C473.09470249 519.27471248 470.2752835 519.2732925 467.45581055 519.27186966 C465.40941978 519.27445519 463.36302952 519.27746888 461.31663996 519.28087306 C455.70127922 519.2889241 450.08593127 519.29073157 444.47056544 519.29147053 C438.41105281 519.29332437 432.35154677 519.30087335 426.29203796 519.30760574 C412.35562565 519.32188315 398.41921648 519.32771371 384.48279869 519.33229769 C377.59096782 519.33463637 370.69913777 519.3382393 363.80730754 519.34199307 C340.20021589 519.35482579 316.59312469 519.36554543 292.98602962 519.36899567 C291.50515921 519.3692173 290.0242888 519.36943908 288.54341838 519.36966102 C287.05904575 519.36988166 285.57467313 519.37010214 284.0903005 519.37032247 C281.11257358 519.37076501 278.13484667 519.37121213 275.15711975 519.37166214 C274.04967171 519.37182623 274.04967171 519.37182623 272.91985097 519.37199363 C248.98642163 519.37562337 225.0530226 519.39154173 201.11960486 519.4148525 C175.79548117 519.43947256 150.47137479 519.4531695 125.14723879 519.45436358 C122.36500044 519.45453503 119.5827621 519.45475045 116.80052376 519.45499802 C116.11549524 519.45505379 115.43046672 519.45510955 114.72467977 519.45516701 C103.72188561 519.45631552 92.71912268 519.46732034 81.71633905 519.48188507 C70.64838329 519.49628227 59.58045897 519.49921727 48.5124942 519.49144509 C42.52169704 519.48754444 36.53100448 519.48843976 30.54022026 519.50250244 C25.04824272 519.51527602 19.55644801 519.51401348 14.0644706 519.50191173 C12.08532766 519.49996073 10.10617161 519.50300531 8.12704705 519.51175609 C-6.17958619 519.5709719 -21.28669072 519.5123091 -34.13902283 512.38142776 C-35.13192322 511.85645706 -35.13192322 511.85645706 -36.1448822 511.32088089 C-41.44349463 508.44538268 -46.23005385 505.18986949 -50.70152283 501.13142776 C-51.38472595 500.52814651 -52.06792908 499.92486526 -52.77183533 499.30330276 C-65.75483251 487.15951072 -72.71526747 469.86723927 -73.97651935 452.30148625 C-74.08540476 448.1018137 -74.10235648 443.91219657 -74.08247375 439.71165848 C-74.08593821 438.09817864 -74.09070803 436.48470117 -74.09665549 434.87122858 C-74.10908725 430.47566832 -74.10303106 426.08030546 -74.09369683 421.68474483 C-74.08687423 416.92934447 -74.09740348 412.17397668 -74.1056366 407.41858292 C-74.11894263 398.11725277 -74.11610999 388.81599546 -74.10739867 379.51466252 C-74.10060937 371.95076831 -74.09971079 364.38689443 -74.10297012 356.82299805 C-74.10342982 355.74434823 -74.10388952 354.66569841 -74.10436315 353.55436223 C-74.10532238 351.3627284 -74.10629502 349.17109458 -74.10728092 346.97946076 C-74.11582587 326.45103912 -74.10601518 305.92265773 -74.08987983 285.39424269 C-74.07648129 267.80368786 -74.07880267 250.21319245 -74.09263611 232.6226387 C-74.10871435 212.16819735 -74.11499797 191.71379125 -74.10579932 171.25934446 C-74.10484373 169.07539265 -74.10390062 166.89144083 -74.10297012 164.70748901 C-74.1025073 163.63310312 -74.10204447 162.55871723 -74.10156762 161.45177419 C-74.09898417 153.90344109 -74.10333485 146.35513046 -74.11040878 138.80680084 C-74.11884911 129.59846433 -74.11649075 120.39020448 -74.10056655 111.18187667 C-74.09271723 106.48923688 -74.08953479 101.79672459 -74.09951401 97.10408592 C-74.10853138 92.79840126 -74.10341365 88.49296086 -74.08758135 84.18729798 C-74.08426303 82.63966518 -74.08586006 81.09201122 -74.09320872 79.5443923 C-74.1913759 57.12999636 -69.05673479 36.94518013 -53.26402283 20.25642776 C-38.28516942 6.34258458 -20.19622844 -0.04630478 0 0 Z M-41.01402283 37.31892776 C-62.35880519 63.21259818 -53.70152283 103.94317425 -53.70152283 133.13142776 C139.67847717 133.13142776 333.05847717 133.13142776 532.29847717 133.13142776 C537.06405486 80.28753191 537.06405486 80.28753191 516.77503967 34.38533401 C504.34915168 23.07659999 489.91022954 19.95839931 473.61890697 20.00279331 C472.78987955 20.00104027 471.96085212 19.99928724 471.10670266 19.99748108 C468.34062901 19.99284501 465.57460849 19.99528038 462.80853271 19.997715 C460.80053932 19.99584582 458.79254628 19.99354469 456.78455383 19.99084967 C451.27548474 19.98473851 445.76643085 19.98486446 440.25735915 19.98604405 C434.31244462 19.98624823 428.36753494 19.9807277 422.42262268 19.97598648 C410.7791264 19.96768332 399.13563392 19.96491883 387.49213513 19.9643741 C378.027825 19.96391422 368.56351652 19.96185411 359.09920692 19.95867348 C356.37302981 19.95777591 353.64685269 19.9568861 350.92067558 19.9559986 C350.24290563 19.95577755 349.56513569 19.9555565 348.86682726 19.95532876 C329.8079834 19.9491764 310.74914011 19.94522801 291.69029522 19.94567204 C290.97203904 19.94568761 290.25378286 19.94570319 289.51376134 19.94571924 C285.87349483 19.94580235 282.23322832 19.94590139 278.59296181 19.94600395 C277.87001562 19.9460239 277.14706943 19.94604384 276.40221578 19.94606439 C274.9402434 19.94610483 273.47827103 19.94614663 272.01629865 19.94618978 C249.27026388 19.94680254 226.52424401 19.93929513 203.7782135 19.92561722 C178.21232579 19.91024991 152.64644788 19.90165137 127.08055526 19.90258044 C124.35343508 19.90265507 121.6263149 19.90270378 118.89919472 19.90273476 C118.22772801 19.90274641 117.55626131 19.90275807 116.86444713 19.90277007 C106.06915393 19.90280082 95.2738737 19.89642102 84.47858435 19.88780249 C73.62577898 19.87931735 62.77299343 19.87851411 51.9201866 19.88491181 C46.04332203 19.88817802 40.16650436 19.88822997 34.28964424 19.87955856 C28.90646644 19.87169733 23.52337276 19.87312122 18.14019702 19.8818427 C16.19611966 19.88337849 14.25203604 19.88155853 12.30796608 19.87598262 C-7.8866502 19.821912 -26.27237201 21.78955515 -41.01402283 37.31892776 Z M-53.70152283 152.13142776 C-53.74277283 201.23955276 -53.78402283 250.34767776 -53.82652283 300.94392776 C-53.84473083 316.45368607 -53.86293884 331.96344437 -53.88169861 347.94319534 C-53.88838721 361.83811525 -53.88838721 361.83811525 -53.89241028 375.73303604 C-53.89427462 381.9250681 -53.90160791 388.11706403 -53.91267395 394.30908585 C-53.92542374 401.45383883 -53.93119023 408.59855719 -53.92841273 415.74332164 C-53.92721025 419.39650413 -53.92908872 423.04960927 -53.93995309 426.7027775 C-53.95153461 430.62102455 -53.94749709 434.53916953 -53.94203186 438.45743179 C-53.94785719 439.58845668 -53.95368252 440.71948156 -53.95968437 441.88477993 C-53.89910509 458.06916759 -50.15447765 472.22366246 -38.70152283 484.13142776 C-28.45104431 493.6047942 -16.80177356 498.46174755 -2.89512253 498.38869667 C-2.04023497 498.39220275 -1.18534741 498.39570882 -0.30455416 498.39932114 C2.55555897 498.40861337 5.41546751 498.40371743 8.27558899 498.3988533 C10.34871739 498.40259065 12.42184437 498.40719251 14.49496913 498.41258395 C20.18873475 498.4248188 25.88244164 498.4245529 31.57621741 498.4221952 C37.71815888 498.42178716 43.86008148 498.43282495 50.00201416 498.44231033 C62.03401021 498.45892385 74.06598133 498.46444596 86.09798583 498.46553509 C95.87792079 498.46645458 105.6578494 498.47057335 115.43778229 498.47693634 C118.25409404 498.47873146 121.0704058 498.48051109 123.88671756 498.4822861 C124.93696744 498.48294924 124.93696744 498.48294924 126.00843449 498.48362578 C145.69993925 498.4959323 165.39144181 498.5038271 185.08295059 498.50293922 C185.82519855 498.50290807 186.56744651 498.50287691 187.33218684 498.50284481 C191.09410896 498.5026786 194.85603109 498.50248051 198.61795321 498.50227539 C199.73862656 498.50221556 199.73862656 498.50221556 200.88193977 498.50215451 C202.39278925 498.50207364 203.90363872 498.50199004 205.41448819 498.50190373 C228.9189741 498.50067832 252.4234023 498.51569036 275.9278717 498.54304886 C302.34232126 498.5737819 328.7567329 498.59098062 355.17120147 498.58912241 C357.98877064 498.58897316 360.80633982 498.58887574 363.623909 498.58881378 C364.31765261 498.58879047 365.01139622 498.58876716 365.72616237 498.58874315 C376.88137204 498.58868165 388.03653153 498.6014433 399.19172629 498.61867831 C410.40649467 498.63564678 421.62119065 498.6372565 432.83597121 498.62445967 C438.90932881 498.61792607 444.98250488 498.61782727 451.05584526 498.63516617 C456.61863648 498.65088408 462.18110204 498.64804599 467.74388525 498.6305979 C469.75326904 498.62752524 471.76267707 498.63117039 473.77203229 498.64231806 C490.41452687 498.72851303 503.86890552 496.45963665 516.73988342 484.94783401 C528.78947597 472.5312488 532.62433538 458.41146206 532.53898621 441.58404922 C532.54069824 440.34610611 532.54241028 439.10816299 532.54417419 437.83270645 C532.54689788 434.41110017 532.54066597 430.98972505 532.53062263 427.56814675 C532.52185897 423.81629984 532.52481385 420.0644583 532.52625847 416.31260395 C532.52731973 409.03703951 532.51810513 401.76152464 532.50525581 394.48597291 C532.4908324 386.06639476 532.48926503 377.64684619 532.48768616 369.22725296 C532.47719371 347.0078034 532.44927139 324.78836483 532.42347717 302.56892776 C532.38222717 252.92455276 532.34097717 203.28017776 532.29847717 152.13142776 C338.91847717 152.13142776 145.53847717 152.13142776 -53.70152283 152.13142776 Z " fill="currentColor" transform="translate(387.70152282714844,354.8685722351074)"/>
<path d="M0 0 C3.84324769 2.03039501 6.95120023 4.1180636 9 8 C10.38242317 14.02341524 10.18456076 17.48009468 7 23 C3.39306697 26.42658638 0.73149478 27.83351012 -4.25 28.3125 C-9.06700781 27.91108268 -11.0666205 26.7987508 -15 24 C-17.73947283 20.53000108 -18.82686787 17.41486929 -19 13 C-18.05471115 8.63647914 -16.7149409 5.69706738 -13.5 2.5625 C-9.18409527 -0.13494045 -4.99880624 -0.69112283 0 0 Z " fill="currentColor" transform="translate(403,419)"/>
<path d="M0 0 C4.6314797 2.53420588 8.31032562 4.93097685 10 10 C10.50171564 16.12093081 10.08833623 19.1167095 6 24 C2.9384946 27.28828358 -0.42933999 27.72164749 -4.75390625 28.0625 C-8.16988788 27.9674466 -10.22041129 26.93924794 -13 25 C-16.89678785 20.68193778 -18.37367126 18.00183744 -18.27734375 12.09375 C-17.64855052 7.34680392 -14.72778458 4.62854123 -11.25 1.625 C-7.27685866 -0.36157067 -4.3567644 -0.87830979 0 0 Z " fill="currentColor" transform="translate(461,419)"/>
<path d="M0 0 C3.68443811 1.4598717 6.45494882 2.9641676 9 6 C10.69908731 10.54148569 11.71218388 15.24277429 9.9375 19.875 C7.29014124 24.14493348 4.76787849 26.41070717 0 28 C-6.10489702 28.58700933 -9.130903 27.46454979 -14 24 C-16.73947283 20.53000108 -17.82686787 17.41486929 -18 13 C-17.04681261 8.60001893 -15.72055654 5.68540744 -12.4375 2.5625 C-8.26244623 -0.11381652 -4.91226718 -0.52141383 0 0 Z " fill="currentColor" transform="translate(519,419)"/>
<path d="M0 0 C1.2375 1.051875 1.2375 1.051875 2.5 2.125 C2.5 2.785 2.5 3.445 2.5 4.125 C3.49 4.455 4.48 4.785 5.5 5.125 C6.83354187 6.48101807 6.83354187 6.48101807 8.31518555 8.31347656 C13.36397685 14.25714572 18.94091432 19.66030971 24.47593117 25.1455307 C26.49193255 27.14397231 28.50422435 29.14608285 30.51554871 31.14923096 C36.22898326 36.83834694 41.94817424 42.5216508 47.67163086 48.20068359 C51.18522699 51.68751554 54.69395082 55.17918907 58.19971275 58.67389679 C59.53308516 60.00106486 60.86835163 61.32633285 62.20554543 62.64965057 C64.06974159 64.49465119 65.92771484 66.34571145 67.78442383 68.19824219 C68.33663101 68.74168777 68.8888382 69.28513336 69.45777893 69.845047 C73.2638318 73.66091163 75.31393971 76.11554888 75.8125 81.5 C75.33188067 87.07518429 73.78079487 90.00771085 69.5625 93.6875 C68.551875 94.491875 67.54125 95.29625 66.5 96.125 C65.88125 96.90875 65.2625 97.6925 64.625 98.5 C62.80252762 100.75128942 61.13660545 102.34524736 58.9375 104.1875 C54.73220181 107.76279097 51.09093677 111.73141067 47.44506836 115.86157227 C45.44239806 118.10801398 43.48391914 120.13751316 41.10546875 121.98828125 C38.85634054 123.8327687 37.18015137 125.57671417 35.30859375 127.77661133 C31.68198818 131.96348162 27.86934088 135.91694306 23.95703125 139.8359375 C23.26614914 140.53014801 22.57526703 141.22435852 21.8634491 141.93960571 C20.41686222 143.39121394 18.96895607 144.84150857 17.51977539 146.29052734 C15.30261056 148.50989928 13.0935939 150.73717842 10.88476562 152.96484375 C9.47184343 154.38069676 8.05844869 155.79607838 6.64453125 157.2109375 C5.65849663 158.2077504 5.65849663 158.2077504 4.65254211 159.22470093 C3.72588997 160.14673813 3.72588997 160.14673813 2.78051758 161.08740234 C2.2420369 161.62730804 1.70355621 162.16721375 1.14875793 162.72348022 C-1.76973891 165.20433624 -4.07020888 166.06928634 -7.875 166.5625 C-12.61973172 165.98985997 -14.36582008 164.70691991 -17.5 161.125 C-18.95828472 157.15748793 -18.99419675 154.31755438 -17.37065125 150.39974976 C-15.1354603 146.4868392 -12.48112155 143.70687379 -9.28442383 140.56884766 C-8.65975723 139.94374298 -8.03509064 139.31863831 -7.39149475 138.67459106 C-5.33704155 136.6222181 -3.27218784 134.58066026 -1.20703125 132.5390625 C0.22423119 131.1133987 1.65483017 129.68706855 3.08479309 128.26010132 C6.84125206 124.51506981 10.60663425 120.77913713 14.3739624 117.04504395 C18.22024572 113.22950654 22.05799892 109.4054105 25.89648438 105.58203125 C33.42267757 98.08796521 40.95832779 90.60348624 48.5 83.125 C47.09295189 79.9361892 45.42283679 77.80360668 42.95581055 75.35375977 C42.23133224 74.62943253 41.50685394 73.90510529 40.76042175 73.15882874 C39.97709976 72.38582932 39.19377777 71.6128299 38.38671875 70.81640625 C37.58015335 70.01267075 36.77358795 69.20893524 35.94258118 68.38084412 C33.36221124 65.8116633 30.77498812 63.24950984 28.1875 60.6875 C26.45592158 58.96595597 24.72479645 57.24395588 22.99414062 55.52148438 C19.80968923 52.35336064 16.62267028 49.18787148 13.43237305 46.02563477 C12.12145115 44.72555514 10.81064501 43.42535877 9.5 42.125 C8.73687248 41.36788475 8.73687248 41.36788475 7.95832825 40.59547424 C5.8384629 38.4851334 3.74900546 36.3592704 1.73828125 34.14453125 C1.26366455 33.62536133 0.78904785 33.10619141 0.30004883 32.57128906 C-0.71806751 31.45308219 -1.73510622 30.33389346 -2.7512207 29.21386719 C-5.23937678 26.493412 -7.7389919 23.85111191 -10.46875 21.37109375 C-18.01851273 14.43963055 -18.01851273 14.43963055 -18.8125 9.3125 C-18.8125 5.51916028 -18.05277623 3.02988329 -15.5 0.125 C-10.75485203 -3.56567064 -4.90241281 -2.62629257 0 0 Z " fill="currentColor" transform="translate(461.5,588.875)"/>
<path d="M0 0 C0.93928345 -0.01134979 1.87856689 -0.02269958 2.84631348 -0.03439331 C3.87495514 -0.03146271 4.9035968 -0.0285321 5.96340942 -0.0255127 C7.04821594 -0.03398224 8.13302246 -0.04245178 9.2507019 -0.05117798 C12.84662513 -0.07462972 16.44212245 -0.07556809 20.03811646 -0.07434082 C22.53292005 -0.08143792 25.02772201 -0.08913625 27.52252197 -0.09741211 C32.75643274 -0.11087607 37.99023338 -0.11259788 43.22415161 -0.10656738 C48.60195275 -0.10066284 53.97926135 -0.11474065 59.35696411 -0.14758301 C65.84440406 -0.18667398 72.3314203 -0.20138644 78.81897354 -0.1967926 C81.29334455 -0.19848795 83.76772329 -0.20817005 86.2420311 -0.22593689 C89.70173437 -0.24804271 93.1599617 -0.23846528 96.61965942 -0.2208252 C98.15654922 -0.24072006 98.15654922 -0.24072006 99.7244873 -0.26101685 C104.4190444 -0.2053294 106.68387437 -0.15581815 110.5335083 2.71801758 C112.92229566 6.1053549 113.42092896 8.25512788 113.42092896 12.39440918 C111.90576268 16.40959981 111.01540366 17.99809271 107.42092896 20.39440918 C105.31660652 20.6544714 105.31660652 20.6544714 102.84185791 20.66856384 C101.90257446 20.67853897 100.96329102 20.6885141 99.99554443 20.6987915 C98.96690277 20.69945618 97.93826111 20.70012085 96.87844849 20.70080566 C95.79364197 20.70912918 94.70883545 20.7174527 93.59115601 20.72602844 C89.99531494 20.75017779 86.39965508 20.7589065 82.80374146 20.76550293 C80.30893905 20.7744652 77.8141372 20.78358696 75.31933594 20.79286194 C70.0854518 20.8093677 64.85161205 20.81708815 59.6177063 20.81994629 C54.2399235 20.8231796 48.86254747 20.84431823 43.4848938 20.88146973 C36.99747839 20.92562014 30.51044643 20.94540913 24.02288437 20.94667244 C21.54850383 20.95088417 19.07412323 20.96335635 16.59982681 20.98418999 C13.14016584 21.01100191 9.68190979 21.00630821 6.22219849 20.99377441 C4.68530869 21.01602585 4.68530869 21.01602585 3.11737061 21.03872681 C-1.57577405 20.99023378 -3.84041636 20.94466864 -7.69165039 18.07569885 C-10.06482011 14.70434894 -10.57907104 12.50863268 -10.57907104 8.39440918 C-8.23826036 3.24462568 -5.81741315 0.02656097 0 0 Z " fill="currentColor" transform="translate(571.5790710449219,739.6055908203125)"/>
</svg>
