<?xml version="1.0" encoding="UTF-8"?>
<svg version="1.1" xmlns="http://www.w3.org/2000/svg" width="1254" height="1254" viewBox="365.695 340.624 537.618 509.572">
<path d="M0 0 C1.27325638 0.00081573 1.27325638 0.00081573 2.57223511 0.00164795 C50.6651256 0.14248622 98.15615948 15.6742067 133.125 49.375 C133.97707031 50.15230469 134.82914063 50.92960937 135.70703125 51.73046875 C154.43582655 69.33848575 166.81801287 94.69689962 168.125 120.375 C168.71422195 141.09919155 162.12393986 159.94861904 148.125 175.375 C137.64506614 186.1605237 125.61529255 192.32126743 111.94091797 198.01953125 C95.20705257 205.04757358 80.20483331 213.9624445 72.3125 231.0625 C68.24961204 242.39581906 69.60918023 254.39515452 74.4140625 265.30078125 C77.23754276 270.75900646 80.41956175 275.21424466 84.8046875 279.5234375 C86.53290306 281.94702974 86.44889873 283.4599114 86.125 286.375 C85 288.25 85 288.25 83.125 289.375 C80.4375 289.625 80.4375 289.625 77.125 288.375 C66.13007482 278.87735121 59.40574001 264.71928814 58.125 250.375 C57.0648851 235.84366896 61.58796751 222.84243135 70.453125 211.359375 C82.16673797 197.8776695 97.73418677 190.54141751 113.9375 183.8125 C131.9441516 176.27631777 143.71960379 165.47678298 151.875 147.625 C154.52139252 141.01327335 155.50983085 134.44090121 156.125 127.375 C156.1971875 126.60800781 156.269375 125.84101563 156.34375 125.05078125 C157.39083914 102.14570624 145.29429189 79.97928535 130.43115234 63.49658203 C101.58814826 32.4717126 58.30886393 14.32973111 16.125 12.375 C-42.90347905 10.58221529 -99.65273864 27.37632843 -143.5456543 68.25634766 C-144.99401688 69.6236948 -146.43455418 70.99931537 -147.875 72.375 C-148.80054688 73.24769531 -149.72609375 74.12039063 -150.6796875 75.01953125 C-186.18593211 109.36905684 -207.62594543 159.72969193 -212.875 208.375 C-213.04128906 209.80779297 -213.04128906 209.80779297 -213.2109375 211.26953125 C-218.29581773 263.69876932 -205.27955237 321.52847894 -173.875 364.375 C-173.10671875 365.426875 -172.3384375 366.47875 -171.546875 367.5625 C-165.79814256 375.290323 -159.52130941 382.41219967 -152.875 389.375 C-152.07449219 390.22835938 -151.27398437 391.08171875 -150.44921875 391.9609375 C-143.81246051 398.84752461 -136.56105096 404.71704003 -128.875 410.375 C-128.0392041 410.9932666 -128.0392041 410.9932666 -127.18652344 411.62402344 C-97.03116185 433.59865863 -62.46208982 444.9088768 -25.73828125 448.94433594 C-24.50207031 449.0890332 -23.26585937 449.23373047 -21.9921875 449.3828125 C-20.88472168 449.50285645 -19.77725586 449.62290039 -18.63623047 449.74658203 C-15.69562225 450.4158239 -14.56228881 450.89788484 -12.875 453.375 C-13 456.4375 -13 456.4375 -13.875 459.375 C-17.74579871 461.95553248 -20.7308998 461.52681867 -25.1875 461.25 C-26.02708252 461.19924316 -26.86666504 461.14848633 -27.73168945 461.09619141 C-82.92006767 457.14218475 -134.28053172 429.07954063 -170.77734375 388.02734375 C-182.32231482 374.63428666 -191.61040492 359.96674177 -199.875 344.375 C-200.24818359 343.68325684 -200.62136719 342.99151367 -201.00585938 342.27880859 C-214.35650134 317.21191377 -222.06570903 287.50057589 -224.875 259.375 C-224.98585938 258.33730469 -225.09671875 257.29960938 -225.2109375 256.23046875 C-228.30963899 221.60038589 -223.92208 187.2842803 -212.875 154.375 C-212.54145508 153.36663086 -212.54145508 153.36663086 -212.20117188 152.33789062 C-205.91663237 133.63435066 -196.97214967 115.67256135 -185.875 99.375 C-185.26640137 98.47346191 -185.26640137 98.47346191 -184.64550781 97.55371094 C-170.79421116 77.17769564 -153.85164334 58.86000851 -133.875 44.375 C-132.85535156 43.6221875 -131.83570313 42.869375 -130.78515625 42.09375 C-92.60127301 14.74388155 -46.93345673 -0.11407417 0 0 Z " fill="currentColor" transform="translate(603.875,352.625)"/>
<path d="M0 0 C8.68796758 7.13240767 13.89428136 16.64871921 16.55078125 27.49609375 C17.73286653 41.38559582 14.74530981 52.93205779 5.83203125 63.84375 C-1.30097772 71.5840985 -10.5145202 77.0294643 -21.140625 77.671875 C-34.22889448 77.9868106 -44.07466385 76.30873549 -54.19921875 67.43359375 C-54.80507813 66.94375 -55.4109375 66.45390625 -56.03515625 65.94921875 C-63.35188791 59.49515851 -67.81832588 49.38426436 -68.4375 39.7109375 C-68.82741141 24.49385442 -64.92424457 13.48226071 -54.44921875 2.18359375 C-39.34772261 -12.25631304 -16.45779565 -11.72215996 0 0 Z M-49.91796875 13.35546875 C-55.21948279 20.06032474 -58.67817384 27.50300901 -58.46875 36.22265625 C-57.27656362 46.00204018 -53.92740642 54.16783638 -46.19921875 60.43359375 C-38.04392087 65.81358803 -30.09235847 68.43451541 -20.34765625 67.01953125 C-13.83743306 65.53096782 -9.07812422 62.95864454 -4.19921875 58.43359375 C-3.64363281 57.93085938 -3.08804688 57.428125 -2.515625 56.91015625 C3.1434102 51.12411029 5.86374139 42.94599111 6.30078125 34.93359375 C5.72182485 25.23168801 2.04476395 17.48042913 -4.69140625 10.56640625 C-18.41510936 -1.10515434 -37.85244654 -0.13597882 -49.91796875 13.35546875 Z " fill="currentColor" transform="translate(625.19921875,412.56640625)"/>
<path d="M0 0 C4.86205138 4.39044363 6.45906341 9.83216679 7.00390625 16.15234375 C6.86907894 25.1250498 1.13872066 33.95569374 -2.80859375 41.77734375 C-3.33195312 42.81947021 -3.8553125 43.86159668 -4.39453125 44.93530273 C-8.37839651 52.81308654 -12.54319835 60.57973032 -16.80883789 68.30786133 C-20.39280155 74.8083416 -23.84282236 81.36821404 -27.24609375 87.96484375 C-31.78951976 96.74840425 -36.55330184 105.38305361 -41.45288086 113.97241211 C-45.1466127 120.45145463 -48.75562539 126.97013479 -52.30859375 133.52734375 C-61.43110804 150.3330789 -70.92789177 166.92332568 -80.5065918 183.47241211 C-83.81373596 189.18890794 -87.10361244 194.9142889 -90.359375 200.66015625 C-124.10821614 260.19380063 -124.10821614 260.19380063 -146.30859375 272.52734375 C-146.15003906 273.65140625 -145.99148438 274.77546875 -145.828125 275.93359375 C-143.27517998 296.57481177 -146.01118284 316.64211391 -158.6328125 333.78515625 C-174.97654948 354.25972785 -197.85183598 363.3895502 -223.16015625 366.92578125 C-225.87986369 367.22262247 -228.57553935 367.40362524 -231.30859375 367.52734375 C-232.98115234 367.60662109 -232.98115234 367.60662109 -234.6875 367.6875 C-241.9300209 367.86414685 -248.89833138 367.39102354 -256.05859375 366.33984375 C-256.83340088 366.23897461 -257.60820801 366.13810547 -258.40649414 366.03417969 C-262.05004963 365.43386478 -263.93423117 364.97029184 -266.35546875 362.10546875 C-267.30859375 359.52734375 -267.30859375 359.52734375 -266.80859375 356.46484375 C-265.30859375 353.52734375 -265.30859375 353.52734375 -262.93359375 351.65625 C-248.97067587 340.33215738 -246.15999864 319.36688877 -244.29101562 302.67407227 C-241.9837085 282.36062858 -237.02059721 266.01392589 -220.83203125 252.390625 C-213.11483701 246.69232523 -204.46157454 244.09534306 -195.30859375 241.52734375 C-195.16164063 240.63015625 -195.0146875 239.73296875 -194.86328125 238.80859375 C-189.85445919 210.94342273 -174.51855356 189.71943297 -157.5390625 167.7265625 C-154.35975626 163.60637285 -151.23506538 159.4470265 -148.12109375 155.27734375 C-143.76433222 149.45090792 -139.35945813 143.66539614 -134.9140625 137.90625 C-127.06146874 127.73254407 -119.28454702 117.50016172 -111.49609375 107.27734375 C-110.82642578 106.39844482 -110.15675781 105.5195459 -109.46679688 104.61401367 C-106.05087083 100.129999 -102.63704066 95.64440982 -99.2265625 91.15625 C-91.69930603 81.25525666 -84.1220713 71.396758 -76.47265625 61.58984375 C-73.73608263 58.08049442 -71.01809427 54.55763759 -68.30859375 51.02734375 C-63.82110978 45.1833491 -59.30404803 39.36278843 -54.77490234 33.55102539 C-51.70036768 29.60560858 -48.63337627 25.65479462 -45.58203125 21.69140625 C-27.87272052 -1.28461399 -27.87272052 -1.28461399 -19.05859375 -4.22265625 C-11.97555822 -4.86656857 -5.9180622 -4.12471002 0 0 Z M-30.30859375 19.52734375 C-33.3645151 23.4542611 -36.31811524 27.4571026 -39.27734375 31.45703125 C-42.01784564 35.15566547 -44.82828335 38.79187958 -47.68359375 42.40234375 C-48.59116812 43.55076364 -49.49871971 44.69920153 -50.40625 45.84765625 C-50.87305176 46.43836914 -51.33985352 47.02908203 -51.82080078 47.63769531 C-54.60340823 51.17188988 -57.36134699 54.72528875 -60.12109375 58.27734375 C-60.70930908 59.03442627 -61.29752441 59.79150879 -61.90356445 60.5715332 C-63.10437194 62.11715447 -64.30513665 63.66280898 -65.50585938 65.20849609 C-67.28720228 67.49982802 -69.07092998 69.78928148 -70.85546875 72.078125 C-81.36209884 85.55772501 -91.76636752 99.10945724 -102.00488281 112.79394531 C-107.79106419 120.52031161 -113.6816439 128.16436491 -119.62109375 135.7734375 C-125.68561102 143.54486089 -131.70800612 151.33978315 -137.60205078 159.24145508 C-144.43218802 168.39119711 -151.37856339 177.45318635 -158.30859375 186.52734375 C-156.98143038 189.65380669 -155.85333825 191.14168564 -152.9140625 192.83203125 C-152.21555176 193.24396729 -151.51704102 193.65590332 -150.79736328 194.08032227 C-150.03794434 194.51658936 -149.27852539 194.95285645 -148.49609375 195.40234375 C-140.20554288 200.30130563 -132.18735932 205.53070426 -124.21557617 210.93115234 C-123.3722876 211.50043457 -122.52899902 212.0697168 -121.66015625 212.65625 C-120.91588379 213.1622876 -120.17161133 213.6683252 -119.40478516 214.18969727 C-117.42353281 215.45399748 -115.43006187 216.51996111 -113.30859375 217.52734375 C-105.86342386 205.0439144 -98.54044569 192.49552559 -91.35263062 179.86230469 C-87.23625304 172.62757102 -83.08502714 165.41592933 -78.86450195 158.24121094 C-71.92787857 146.44865978 -65.33543642 134.50020815 -58.87451172 122.44140625 C-56.35343155 117.74985451 -53.79993145 113.07612074 -51.24609375 108.40234375 C-50.75262451 107.49806641 -50.25915527 106.59378906 -49.75073242 105.66210938 C-47.30938592 101.18850903 -44.86511528 96.71652381 -42.41796875 92.24609375 C-39.37181239 86.67843378 -36.33714996 81.10459524 -33.30859375 75.52734375 C-32.72706543 74.45742188 -32.14553711 73.3875 -31.54638672 72.28515625 C-24.66264382 59.59811959 -17.86018683 46.86655052 -11.31439209 34.00128174 C-10.69152696 32.78041771 -10.06468611 31.5615729 -9.43365479 30.34490967 C-8.55841609 28.65403423 -7.70070589 26.95412068 -6.84375 25.25390625 C-6.35269775 24.29049316 -5.86164551 23.32708008 -5.35571289 22.33447266 C-3.77733466 18.10313834 -3.68814404 14.89233311 -5.55859375 10.77734375 C-8.01454334 7.61969428 -9.81175865 6.71924569 -13.74609375 6.21484375 C-21.17648715 7.12098929 -25.89421721 14.08962706 -30.30859375 19.52734375 Z M-166.30859375 197.52734375 C-175.71963943 210.59477805 -183.04022441 226.35563461 -184.30859375 242.52734375 C-183.07109375 242.89859375 -181.83359375 243.26984375 -180.55859375 243.65234375 C-169.28944251 247.46788315 -160.02105675 252.45864926 -153.30859375 262.52734375 C-144.10699193 261.01129036 -134.31060163 249.91700436 -128.9609375 242.71240234 C-123.32992495 235.03942579 -123.32992495 235.03942579 -119.30859375 226.52734375 C-132.3369519 217.78487925 -145.43241829 209.14344242 -158.74609375 200.83984375 C-159.77605469 200.19660156 -160.80601562 199.55335938 -161.8671875 198.890625 C-164.13358613 197.36483057 -164.13358613 197.36483057 -166.30859375 197.52734375 Z M-216.30859375 263.52734375 C-216.90285156 264.00558594 -217.49710938 264.48382812 -218.109375 264.9765625 C-230.54444096 275.92272921 -232.86271482 292.91648518 -234.24609375 308.46484375 C-235.60907904 323.78398985 -239.07797208 339.95224383 -249.171875 352.00390625 C-250.50793552 353.47770498 -250.50793552 353.47770498 -250.30859375 355.52734375 C-226.99295441 356.19213001 -226.99295441 356.19213001 -204.30859375 351.52734375 C-203.65117188 351.31835449 -202.99375 351.10936523 -202.31640625 350.89404297 C-183.7570284 344.77329953 -170.13459818 333.40161304 -161.05078125 316.13671875 C-155.48891698 304.3538063 -154.07480094 289.64478347 -157.43359375 276.96484375 C-161.28887876 266.54660844 -167.9801756 259.8353454 -177.93359375 255.15234375 C-191.74288405 250.10378601 -205.60057788 254.14356012 -216.30859375 263.52734375 Z " fill="currentColor" transform="translate(884.30859375,470.47265625)"/>
<path d="M0 0 C10.1228977 6.18047666 16.90841986 15.20310172 20.15136719 26.62353516 C22.70470768 38.28233826 20.99598266 50.51381966 14.84375 60.61328125 C8.27070223 70.26582778 -0.33652977 77.07241895 -11.765625 79.96484375 C-23.12987443 82.12113723 -34.14230655 80.55011381 -44.140625 74.58984375 C-54.46271796 67.48039068 -60.37941284 58.4100303 -63.765625 46.40234375 C-65.75999249 35.53981789 -63.62147773 24.34997578 -58.390625 14.71484375 C-53.57613173 8.25190986 -47.82226779 2.19768811 -40.515625 -1.41015625 C-39.89945312 -1.72210938 -39.28328125 -2.0340625 -38.6484375 -2.35546875 C-25.59663775 -7.72973924 -12.22562453 -6.57227201 0 0 Z M-46.390625 16.71484375 C-51.72162573 25.5766162 -54.56065529 33.34232807 -53.390625 43.71484375 C-50.19154233 54.50676995 -45.60329977 60.94221229 -35.80078125 66.45703125 C-28.08688775 70.48275849 -20.64013022 70.76721511 -12.265625 68.58984375 C-7.17231866 66.88143065 -3.34969135 64.30701386 0.609375 60.71484375 C1.16625 60.22371094 1.723125 59.73257813 2.296875 59.2265625 C8.15201184 53.32751213 10.09093159 45.08458104 11.046875 37.02734375 C9.69503063 26.79195066 5.95719553 17.89871435 -2.265625 11.33984375 C-16.28435427 1.8534856 -35.28015084 3.32041772 -46.390625 16.71484375 Z " fill="currentColor" transform="translate(509.390625,483.28515625)"/>
<path d="M0 0 C0.60585938 0.50144531 1.21171875 1.00289062 1.8359375 1.51953125 C9.93379176 8.786383 14.29005535 19.24509378 15 30 C15.12177749 43.22155575 10.86423668 54.17292382 2 64 C-7.65381512 72.50229796 -18.21061219 76.11066219 -31 76 C-41.64790481 75.25638703 -52.81720032 69.93985569 -60 62 C-67.47947849 52.76384012 -71.35147511 41.90621925 -71 30 C-69.66338815 18.42031464 -65.88041615 8.79743857 -57 1 C-56.52304687 0.52046875 -56.04609375 0.0409375 -55.5546875 -0.453125 C-40.01839037 -15.31393095 -15.55827316 -13.67141876 0 0 Z M-50.8203125 9.66796875 C-57.39694732 16.88904769 -60.37216918 24.83291564 -60.2109375 34.5390625 C-59.35718314 44.49953005 -54.81336761 51.6808076 -47.5625 58.3125 C-40.35977653 64.06217947 -33.10781107 65.16263948 -24 65 C-14.37643129 63.60782644 -7.2730206 58.20717617 -1.25 50.79296875 C3.52374981 43.94562136 4.70029739 36.17013624 4 28 C2.24559405 18.39537082 -2.61210672 11.33825598 -10.15625 5.25 C-23.12152379 -3.54001613 -39.6662912 -0.55256149 -50.8203125 9.66796875 Z " fill="currentColor" transform="translate(514,616)"/>
<path d="M0 0 C0.70511719 0.45890625 1.41023437 0.9178125 2.13671875 1.390625 C9.88193182 6.83088556 16.27435871 14.46788621 18 24 C18.83886491 37.22931212 17.84732125 47.30655551 9.12109375 57.890625 C1.43905716 65.5302194 -7.0605084 68.9919889 -17.75 69.375 C-27.84112516 69.20360085 -36.72973211 66.16267407 -44 59 C-51.80500934 49.92294689 -54.63579462 41.06610016 -54.2734375 29.1640625 C-53.36910611 18.69965636 -48.80253244 9.97359923 -40.7578125 3.078125 C-38.56522154 1.54558737 -36.36718453 0.24277188 -34 -1 C-32.2675 -1.928125 -32.2675 -1.928125 -30.5 -2.875 C-21.07982433 -6.04033066 -8.35270924 -5.5117674 0 0 Z M-38.5234375 16.9453125 C-43.52248133 23.90165391 -43.86976699 30.67653214 -43 39 C-41.2494201 46.64419891 -36.29202913 51.57541965 -30 56 C-23.30956012 59.3725949 -15.25834605 58.90806365 -8.1875 56.9375 C-0.36936042 52.18529751 5.01154677 46.91927982 7.578125 37.98828125 C9.39034345 29.44736281 6.69571745 22.56198338 2.375 15.25 C-3.77149694 9.4270029 -9.01450585 6.60678798 -17.625 6.375 C-27.28104261 6.82185911 -32.49100769 9.42543425 -38.5234375 16.9453125 Z " fill="currentColor" transform="translate(594,684)"/>
</svg>
