<svg xmlns="http://www.w3.org/2000/svg" width="1024" height="1024" viewBox="0 0 64 64" fill="none">
  <defs>
    <linearGradient id="bg" x1="0" y1="0" x2="1" y2="1">
      <stop offset="0" stop-color="#1a1530" />
      <stop offset="0.6" stop-color="#0f0a1f" />
      <stop offset="1" stop-color="#070510" />
    </linearGradient>
    <linearGradient id="accent" x1="0" y1="0" x2="1" y2="1">
      <stop offset="0" stop-color="#a78bfa" />
      <stop offset="1" stop-color="#7c5cff" />
    </linearGradient>
  </defs>

  <rect width="64" height="64" rx="14" fill="url(#bg)" />
  <path d="M0 16h64M0 32h64M0 48h64M16 0v64M32 0v64M48 0v64" stroke="#fff" stroke-opacity=".06" stroke-width=".5" />
  <path d="M4 46 C 14 34, 22 56, 32 44 S 50 34, 60 46" stroke="url(#accent)" stroke-width="3.4" fill="none" stroke-linecap="round" />
  <path d="M4 52 C 14 42, 22 60, 32 50 S 50 42, 60 52" stroke="#a78bfa" stroke-opacity=".4" stroke-width="2.2" fill="none" stroke-linecap="round" />
  <circle cx="46" cy="18" r="6" fill="url(#accent)" />
  <circle cx="46" cy="18" r="2" fill="#fff" />
</svg>
