<svg xmlns="http://www.w3.org/2000/svg" width="64" height="64" viewBox="0 0 64 64" fill="none">
  <defs>
    <linearGradient id="bg" x1="4" y1="4" x2="60" y2="60" gradientUnits="userSpaceOnUse">
      <stop stop-color="#1a1530" />
      <stop offset="0.6" stop-color="#0f0a1f" />
      <stop offset="1" stop-color="#070510" />
    </linearGradient>
    <linearGradient id="accent" x1="8" y1="10" x2="54" y2="54" gradientUnits="userSpaceOnUse">
      <stop stop-color="#a78bfa" />
      <stop offset="1" stop-color="#7c5cff" />
    </linearGradient>
  </defs>
  <rect x="2" y="2" width="60" height="60" rx="14" fill="url(#bg)" />
  <g stroke="#fff" stroke-opacity=".06" stroke-width=".5">
    <path d="M2 17h60M2 32h60M2 47h60M17 2v60M32 2v60M47 2v60" />
  </g>
  <path
    d="M6 46C15 35 23 56 32 45S49 35 58 46"
    stroke="url(#accent)"
    stroke-width="3.6"
    stroke-linecap="round"
  />
  <path
    d="M6 52C15 43 23 60 32 50S49 43 58 52"
    stroke="#a78bfa"
    stroke-opacity=".4"
    stroke-width="2.2"
    stroke-linecap="round"
  />
  <circle cx="46" cy="18" r="6" fill="url(#accent)" />
  <circle cx="46" cy="18" r="2" fill="#fff" />
</svg>
